<svg xmlns="http://www.w3.org/2000/svg" width="182.998" height="101.195" viewBox="0 0 182.998 101.195">
  <g id="Group_13408" data-name="Group 13408" transform="translate(-60.002 -18)">
    <g id="Group_13344" data-name="Group 13344" transform="translate(60.001 103.557)">
      <path id="Path_24085" data-name="Path 24085" d="M50.724.7,44.365,14.342a.906.906,0,0,0,.821,1.289h5.255a.906.906,0,0,0,.821-.523L57.621,1.471A.906.906,0,0,0,56.8.182H51.545a.907.907,0,0,0-.821.523Z" transform="translate(-21.445 -0.087)" fill="#5ad235"/>
      <path id="Path_24086" data-name="Path 24086" d="M324.173,3.606l-1.029,2.2a.453.453,0,0,0,.41.644h5.832a.453.453,0,0,1,.41.644l-.808,1.734a.906.906,0,0,1-.821.523h-6.1a.905.905,0,0,0-.821.522l-1.03,2.205a.453.453,0,0,0,.411.645h5.832a.453.453,0,0,1,.411.644l-.808,1.734a.907.907,0,0,1-.821.523H314.154a1.812,1.812,0,0,1-1.642-2.578L317.9,1.49A2.264,2.264,0,0,1,319.958.182h12.355a.453.453,0,0,1,.411.644l-.808,1.734a.907.907,0,0,1-.822.523h-6.1a.905.905,0,0,0-.821.523Z" transform="translate(-149.767 -0.087)" fill="#5ad235"/>
      <path id="Path_24087" data-name="Path 24087" d="M164.271.826l-.808,1.734a.907.907,0,0,1-.822.523H160.4a.906.906,0,0,0-.821.523l-5.365,11.5a.906.906,0,0,1-.821.523h-5.255a.906.906,0,0,1-.821-1.289l4.951-10.614a.453.453,0,0,0-.41-.644h-1.976a.453.453,0,0,1-.41-.644L150.28.7a.906.906,0,0,1,.82-.522h12.761a.453.453,0,0,1,.41.644Z" transform="translate(-70.728 -0.087)" fill="#5ad235"/>
      <g id="Group_13343" data-name="Group 13343" transform="translate(117.446 0.095)">
        <path id="Path_24088" data-name="Path 24088" d="M231.335,1.49l-5.391,11.563a1.812,1.812,0,0,0,1.642,2.578h14.573a2.266,2.266,0,0,0,2.053-1.308L249.6,2.76A1.812,1.812,0,0,0,247.962.182H233.388a2.266,2.266,0,0,0-2.053,1.308Zm5.788,11.24H234.06a.453.453,0,0,1-.41-.644l3.95-8.48a.906.906,0,0,1,.821-.523h3.065a.453.453,0,0,1,.411.644l-3.956,8.479A.906.906,0,0,1,237.123,12.73Z" transform="translate(-225.772 -0.182)" fill="#5ad235"/>
      </g>
      <path id="Path_24089" data-name="Path 24089" d="M293.065,1.471l-5.994,12.852a2.266,2.266,0,0,1-2.053,1.308H279.8a.906.906,0,0,1-.906-.906V7.764a.453.453,0,0,0-.863-.192l-3.513,7.536a.907.907,0,0,1-.821.523H268.44a.906.906,0,0,1-.821-1.289L273.607,1.49A2.265,2.265,0,0,1,275.66.182h5.225a.906.906,0,0,1,.906.906V8.046a.453.453,0,0,0,.863.192L286.167.7a.906.906,0,0,1,.821-.523h5.255a.906.906,0,0,1,.822,1.294Z" transform="translate(-128.315 -0.087)" fill="#5ad235"/>
      <path id="Path_24090" data-name="Path 24090" d="M121.252,3.606l-1.029,2.2a.453.453,0,0,0,.41.644h5.832a.453.453,0,0,1,.411.644l-.808,1.734a.907.907,0,0,1-.821.523h-6.1a.907.907,0,0,0-.821.522L117.3,12.085a.453.453,0,0,0,.41.645h5.832a.453.453,0,0,1,.41.644l-.808,1.734a.906.906,0,0,1-.821.523H111.234a1.812,1.812,0,0,1-1.642-2.578L114.984,1.49A2.265,2.265,0,0,1,117.037.182h12.355a.453.453,0,0,1,.41.644l-.808,1.734a.906.906,0,0,1-.821.523h-6.1a.906.906,0,0,0-.821.523Z" transform="translate(-52.628 -0.087)" fill="#5ad235"/>
      <path id="Path_24091" data-name="Path 24091" d="M90.144,1.471,84.151,14.323A2.266,2.266,0,0,1,82.1,15.631H76.875a.906.906,0,0,1-.906-.906V7.764a.453.453,0,0,0-.864-.192l-3.513,7.536a.906.906,0,0,1-.821.523H65.514a.906.906,0,0,1-.821-1.289L70.687,1.49A2.264,2.264,0,0,1,72.739.182h5.225a.906.906,0,0,1,.906.906V8.046a.453.453,0,0,0,.863.192L83.247.7a.907.907,0,0,1,.821-.523h5.255a.906.906,0,0,1,.821,1.294Z" transform="translate(-31.176 -0.087)" fill="#5ad235"/>
      <path id="Path_24092" data-name="Path 24092" d="M26.014,1.471,20.02,14.323a2.265,2.265,0,0,1-2.052,1.308H12.745a.907.907,0,0,1-.906-.906V7.764a.453.453,0,0,0-.863-.192L7.462,15.108a.906.906,0,0,1-.821.523H1.384a.906.906,0,0,1-.821-1.289L6.557,1.49A2.264,2.264,0,0,1,8.609.182h5.225a.906.906,0,0,1,.906.906V8.046a.453.453,0,0,0,.863.192L19.117.7a.907.907,0,0,1,.821-.523h5.255a.906.906,0,0,1,.821,1.294Z" transform="translate(-0.477 -0.087)" fill="#5ad235"/>
      <path id="Path_24093" data-name="Path 24093" d="M199.847.794,189.5,9.805a.444.444,0,0,0-.113.15l-2.406,5.16a.9.9,0,0,1-.821.523H180.9a.906.906,0,0,1-.821-1.289l2.947-6.323a.453.453,0,0,0,.02-.332L180.81.786a.453.453,0,0,1,.431-.593h2.7a.679.679,0,0,1,.646.47L185.7,4.08a.227.227,0,0,0,.365.1L190.7.112A.454.454,0,0,1,191,0h8.548a.453.453,0,0,1,.3.794Z" transform="translate(-86.416)" fill="#5ad235"/>
    </g>
    <g id="Group_13362" data-name="Group 13362" transform="translate(75.179 18)">
      <g id="Group_13358" data-name="Group 13358">
        <g id="Group_13357" data-name="Group 13357" transform="translate(83.61)">
          <path id="Path_24108" data-name="Path 24108" d="M656.839,160.077H664.8a1.875,1.875,0,0,1,1.7,2.668l-3.346,7.178a3.75,3.75,0,0,1-3.4,2.167H606.92a1.875,1.875,0,0,1-1.7-2.668l3.346-7.179a3.751,3.751,0,0,1,3.4-2.166h9.5a3.751,3.751,0,0,0,3.4-2.166l16.378-35.1a1.875,1.875,0,0,0-1.7-2.669h-8.178a1.875,1.875,0,0,1-1.7-2.667l3.346-7.179a3.75,3.75,0,0,1,3.4-2.167H666.35a7.5,7.5,0,0,1,6.8,10.674l-18.009,38.611a1.876,1.876,0,0,0,1.7,2.668Z" transform="translate(-605.043 -108.124)" fill="#5ad235"/>
        </g>
        <path id="Path_24109" data-name="Path 24109" d="M485.813,123.759,474.356,148.33a5.627,5.627,0,0,0,5.1,8h36.18a1.875,1.875,0,0,1,1.7,2.669l-4.261,9.13a3.75,3.75,0,0,1-3.4,2.164H479.027a1.875,1.875,0,0,1-1.7-2.669l1.187-2.542a.937.937,0,0,0-.85-1.334h-9.308a1.876,1.876,0,0,0-1.7,1.083l-3.173,6.8a7.5,7.5,0,0,0,6.8,10.674h60.252a9.378,9.378,0,0,0,8.5-5.415l22.321-47.879a7.5,7.5,0,0,0-6.8-10.672H494.313a9.377,9.377,0,0,0-8.5,5.418Zm35.978,20.562H509.2a1.876,1.876,0,0,1-1.7-2.669l4.261-9.13a3.752,3.752,0,0,1,3.4-2.165h12.586a1.876,1.876,0,0,1,1.7,2.669l-4.262,9.13a3.75,3.75,0,0,1-3.393,2.165Z" transform="translate(-462.773 -112.338)" fill="#5ad235"/>
      </g>
    </g>
  </g>
</svg>
