<svg xmlns="http://www.w3.org/2000/svg" width="41" height="42" viewBox="0 0 42 42" fill="none">
    <circle cx="21" cy="21" r="21" fill="#2EC5CE"/>
    <path d="M13.572 28.322c-.394.388-.401 1.025.02 1.383a11.432 11.432 0 0 0 14.69.105c.426-.352.428-.99.04-1.382l-6.62-6.716a1 1 0 0 0-1.415-.01l-6.715 6.62zM31.203 20.947c.552.003 1.007-.442.962-.992a11.33 11.33 0 0 0-22.58-.009c-.046.55.409.996.961.993l2.463-.015c.552-.004.99-.457 1.066-1.004a6.868 6.868 0 0 1 6.802-5.912 6.866 6.866 0 0 1 6.798 5.917c.076.547.513 1 1.065 1.004l2.463.018z" fill="#fff"/>
</svg>