<svg width="963" height="86" viewBox="0 0 963 86" fill="none" xmlns="http://www.w3.org/2000/svg">
<path d="M236.643 85.2982H222.946C221.418 85.2982 220.174 84.9375 219.215 84.2066C218.257 83.4852 217.545 82.555 217.07 81.4159L211.308 65.1365H177.335L171.573 81.4159C171.184 82.3936 170.491 83.2859 169.513 84.0927C168.536 84.8996 167.302 85.2982 165.811 85.2982H152L185.328 0.00949097H203.373L236.643 85.2982ZM207.018 52.9103L197.791 26.8159C197.241 25.4395 196.661 23.8353 196.054 21.9938C195.446 20.1523 194.868 18.1589 194.317 15.9946C193.766 18.1873 193.187 20.2187 192.58 22.0792C191.972 23.9397 191.393 25.5534 190.843 26.9298L181.673 52.9103H207.008H207.018Z" fill="white"/>
<path d="M273.208 0.00949097C279.046 0.00949097 284.086 0.692938 288.348 2.06933C292.601 3.44572 296.094 5.35368 298.837 7.80271C301.58 10.2517 303.612 13.1659 304.922 16.5357C306.232 19.9055 306.896 23.5695 306.896 27.5278C306.896 31.7234 306.213 35.5583 304.836 39.0515C303.46 42.5352 301.391 45.5348 298.609 48.0408C295.828 50.5468 292.325 52.5022 288.092 53.8881C283.858 55.2834 278.903 55.9764 273.217 55.9764H262.045V85.3077H244.408V0.0189781H273.208V0.00949097ZM273.208 42.4498C278.732 42.4498 282.776 41.1209 285.348 38.4535C287.911 35.7862 289.202 32.1411 289.202 27.5183C289.202 25.4015 288.88 23.4746 288.234 21.728C287.589 19.9814 286.611 18.4911 285.291 17.2571C283.982 16.0231 282.32 15.0738 280.327 14.4094C278.324 13.7449 275.961 13.4127 273.217 13.4127H262.045V42.4498H273.217H273.208Z" fill="white"/>
<path d="M391.055 0.00949438V85.2982H381.943C380.566 85.2982 379.418 85.0704 378.478 84.6243C377.538 84.1782 376.617 83.3998 375.716 82.2987L333.218 28.2208C333.332 29.5971 333.427 30.9451 333.484 32.274C333.541 33.6029 333.57 34.8369 333.57 35.976V85.2888H317.993V0H327.276C328.017 0 328.662 0.0284736 329.184 0.0854277C329.716 0.142382 330.19 0.284767 330.627 0.493599C331.054 0.711923 331.472 0.996695 331.861 1.34791C332.25 1.69913 332.687 2.17374 333.152 2.76227L375.943 57.0775C375.782 55.5872 375.668 54.1444 375.592 52.7585C375.516 51.3726 375.478 50.0437 375.478 48.7907V0H391.055V0.00949438Z" fill="white"/>
<path d="M483.463 85.2982H469.766C468.238 85.2982 466.994 84.9375 466.035 84.2066C465.077 83.4852 464.365 82.555 463.89 81.4159L458.128 65.1365H424.155L418.393 81.4159C418.004 82.3936 417.321 83.2859 416.333 84.0927C415.356 84.8996 414.122 85.2982 412.631 85.2982H398.82L432.148 0.00949097H450.193L483.463 85.2982ZM453.838 52.9103L444.611 26.8159C444.061 25.4395 443.481 23.8353 442.874 21.9938C442.266 20.1523 441.688 18.1589 441.137 15.9946C440.586 18.1873 440.007 20.2187 439.4 22.0792C438.792 23.9397 438.213 25.5534 437.663 26.9298L428.493 52.9103H453.828H453.838Z" fill="white"/>
<path d="M535.387 57.8179C535.795 58.8526 536.203 59.9062 536.592 60.9599C536.981 59.8587 537.399 58.8146 537.826 57.8179C538.253 56.8212 538.747 55.8055 539.297 54.7898L567.803 3.00907C568.316 2.1073 568.838 1.55674 569.388 1.36689C569.939 1.16755 570.717 1.07263 571.742 1.07263H580.143V85.2982H570.148V23.4081C570.148 22.5823 570.167 21.6995 570.205 20.7598C570.242 19.82 570.299 18.8613 570.385 17.8836L541.528 70.5471C540.55 72.3127 539.174 73.1955 537.418 73.1955H535.776C534.01 73.1955 532.643 72.3127 531.665 70.5471L502.163 17.7032C502.277 18.7189 502.372 19.7251 502.429 20.7028C502.486 21.6805 502.515 22.5823 502.515 23.4081V85.2982H492.519V1.07263H500.929C501.945 1.07263 502.733 1.16755 503.283 1.36689C503.834 1.56623 504.356 2.1073 504.869 3.00907L533.963 54.8563C534.513 55.796 534.988 56.7832 535.405 57.8274L535.387 57.8179Z" fill="white"/>
<path d="M669.846 85.2983H661.027C660.012 85.2983 659.186 85.042 658.559 84.5389C657.933 84.0263 657.458 83.3808 657.145 82.6024L649.266 62.2698H611.468L603.589 82.6024C603.314 83.3049 602.849 83.9314 602.175 84.4819C601.51 85.0325 600.684 85.3078 599.707 85.3078H590.888L624.567 1.08215H636.148L669.827 85.3078L669.846 85.2983ZM614.657 54.0305H646.105L632.883 19.7631C632.019 17.6463 631.183 14.9979 630.357 11.8275C629.921 13.4317 629.503 14.9125 629.095 16.2699C628.687 17.6178 628.279 18.8044 627.89 19.8295L614.667 54.04L614.657 54.0305Z" fill="white"/>
<path d="M692.884 50.1481V85.2982H681.54V1.07263H705.347C710.672 1.07263 715.276 1.6137 719.158 2.68634C723.041 3.76846 726.24 5.32521 728.765 7.35657C731.29 9.39742 733.16 11.8559 734.375 14.7321C735.59 17.6083 736.197 20.8357 736.197 24.4048C736.197 27.3854 735.722 30.1667 734.783 32.7486C733.843 35.3305 732.476 37.6562 730.701 39.716C728.916 41.7758 726.743 43.5224 724.18 44.9747C721.617 46.4271 718.703 47.5187 715.447 48.2686C716.861 49.0944 718.114 50.2905 719.206 51.8567L743.772 85.2982H733.663C731.584 85.2982 730.056 84.4914 729.078 82.8872L707.207 52.7964C706.543 51.8567 705.812 51.1827 705.034 50.7651C704.246 50.3569 703.078 50.1481 701.503 50.1481H692.865H692.884ZM692.884 41.8613H704.816C708.147 41.8613 711.071 41.4626 713.605 40.6557C716.13 39.8489 718.247 38.7193 719.956 37.248C721.655 35.7767 722.946 34.0206 723.81 31.9892C724.674 29.9484 725.101 27.6987 725.101 25.2307C725.101 20.2187 723.449 16.4313 720.136 13.8873C716.823 11.3434 711.897 10.0619 705.356 10.0619H692.893V41.8613H692.884Z" fill="white"/>
<path d="M810.266 1.07263V10.6504H783.051V85.2982H771.651V10.6504H744.323V1.07263H810.275H810.266Z" fill="white"/>
<path d="M962.275 27.2088V39.1217L842.574 38.9129C842.409 38.9129 842.274 36.2361 842.275 32.9422C842.276 29.6579 842.41 27 842.575 27H842.576L962.275 27.2088Z" fill="white"/>
<path d="M962.275 47.3991V59.312L842.574 59.1031C842.409 59.0937 842.274 56.4168 842.275 53.1325C842.276 49.8481 842.41 47.1902 842.575 47.1902H842.576L962.275 47.3991Z" fill="white"/>
<path d="M0 59.1031V47.1902L119.701 47.3991C119.867 47.3991 120.001 50.0759 120 53.3698C120 56.6541 119.865 59.312 119.7 59.312H119.699L0 59.1031Z" fill="white"/>
<path d="M0 38.9129V27L119.701 27.2088C119.867 27.2183 120.001 29.8952 120 33.1795C120 36.4639 119.865 39.1217 119.7 39.1217H119.699L0 38.9129Z" fill="white"/>
</svg>
