<svg width="115" height="64" viewBox="0 0 115 64" fill="none" xmlns="http://www.w3.org/2000/svg">
<path d="M3.76834 23.804L0.472656 36.1757L1.86061 40.391L40.2836 51.2833L60.1662 40.648L61.2914 36.5013L61.9197 24.5637L61.0972 21.2851L55.5854 15.2935L7.87509 19.3089L3.76834 23.804Z" fill="white"/>
<path d="M30.641 28.1907C29.71 27.2596 28.5334 26.8027 27.1226 26.8027C25.7118 26.8027 24.5408 27.2596 23.627 28.1907C22.7131 29.1217 22.2619 30.3154 22.2619 31.7719C22.2619 33.2284 22.7188 34.4222 23.627 35.3532C24.5408 36.2842 25.7118 36.7411 27.1226 36.7411C28.5334 36.7411 29.7043 36.2842 30.641 35.3532C31.572 34.4222 32.029 33.2284 32.029 31.7719C32.029 30.3154 31.5777 29.1217 30.641 28.1907ZM30.641 28.1907C29.71 27.2596 28.5334 26.8027 27.1226 26.8027C25.7118 26.8027 24.5408 27.2596 23.627 28.1907C22.7131 29.1217 22.2619 30.3154 22.2619 31.7719C22.2619 33.2284 22.7188 34.4222 23.627 35.3532C24.5408 36.2842 25.7118 36.7411 27.1226 36.7411C28.5334 36.7411 29.7043 36.2842 30.641 35.3532C31.572 34.4222 32.029 33.2284 32.029 31.7719C32.029 30.3154 31.5777 29.1217 30.641 28.1907ZM62.0499 20.417L43.6238 2.01368C41.8874 0.271598 39.3686 -0.396677 37.0039 0.231616L11.8436 6.96006C9.47895 7.58836 7.63405 9.43325 6.98291 11.8208L3.76719 23.8269C5.22369 22.913 6.86868 22.4618 8.78211 22.4618C10.4956 22.4618 12.0607 22.873 13.4943 23.7012C14.9051 24.5237 15.9675 25.6318 16.7043 27.0197L12.7746 29.2987C12.4262 28.5619 11.8836 27.9965 11.1696 27.5624C10.4557 27.1283 9.6503 26.9341 8.73642 26.9341C7.37131 26.9341 6.24038 27.391 5.34935 28.2992C4.45831 29.2073 4.00137 30.3611 4.00137 31.7719C4.00137 33.1599 4.45831 34.3137 5.34935 35.2218C6.24038 36.1357 7.3656 36.5869 8.73642 36.5869C9.6503 36.5869 10.4728 36.3927 11.1868 35.9586C11.9007 35.5474 12.4433 34.9819 12.7918 34.2451L16.7443 36.5013C15.9618 37.8892 14.8766 38.9973 13.4658 39.8426C12.0549 40.6651 10.4899 41.0992 8.75355 41.0992C6.08616 41.0992 3.87 40.2082 2.08794 38.409C1.42537 37.7179 0.859909 36.981 0.448663 36.1528L0.231616 36.9582C-0.396677 39.3229 0.271598 41.8418 2.01368 43.5781L20.4227 61.9871C22.159 63.7235 24.6779 64.3975 27.0426 63.7692L52.2029 57.0179C54.5675 56.3896 56.4124 54.5447 57.0636 52.1572L60.1651 40.608C57.2806 40.8708 55.2358 40.5623 54.0249 39.677C52.7455 38.746 52.0944 37.0496 52.0944 34.6221V19.5716L56.6523 16.9442V22.9358H60.6448V27.3225H56.6523V34.6792C56.6523 35.2847 56.8065 35.7416 57.1093 36.0272C57.412 36.3071 57.8689 36.4613 58.4572 36.507C58.9542 36.5298 60.3478 36.5298 61.2789 36.507L63.8206 27.0654C64.4603 24.6722 63.7692 22.1533 62.0499 20.417ZM36.5869 40.608H34.1137C32.9657 40.608 32.029 39.677 32.029 38.5232C31.3321 39.3914 30.5325 40.0197 29.5786 40.4538C28.6248 40.8879 27.5167 41.1049 26.2772 41.1049C23.9126 41.1049 21.8906 40.2139 20.2228 38.3918C18.5492 36.5698 17.7039 34.3765 17.7039 31.7719C17.7039 29.1674 18.5492 26.9512 20.2228 25.152C21.9134 23.3528 23.9354 22.4389 26.2772 22.4389C28.7504 22.4389 30.6638 23.3071 32.029 25.0206V22.9358H36.5869V40.608ZM49.4841 27.6709C48.0961 27.4995 46.8567 27.7794 45.7486 28.5162C44.6634 29.253 44.0979 30.4696 44.0979 32.1603V40.608H39.5399V22.9358H44.0979V25.9745C44.532 24.8436 45.2288 23.9982 46.2055 23.4328C47.1822 22.8673 48.2675 22.5874 49.4841 22.5874V27.6709ZM27.1283 26.8027C25.7175 26.8027 24.5466 27.2596 23.6327 28.1907C22.7188 29.1217 22.2676 30.3154 22.2676 31.7719C22.2676 33.2284 22.7245 34.4222 23.6327 35.3532C24.5466 36.2842 25.7175 36.7411 27.1283 36.7411C28.5391 36.7411 29.71 36.2842 30.6467 35.3532C31.5777 34.4222 32.0347 33.2284 32.0347 31.7719C32.0347 30.3154 31.5777 29.1217 30.6467 28.1907C29.71 27.2539 28.5391 26.8027 27.1283 26.8027Z" fill="#142A46"/>
<path d="M91.9859 29.7728C90.7065 28.5162 89.1414 27.8822 87.3194 27.8822C85.4973 27.8822 83.9323 28.5105 82.6757 29.7728C81.4192 31.0351 80.7852 32.5944 80.7852 34.4164C80.7852 36.2385 81.4134 37.8035 82.6757 39.0601C83.9323 40.3167 85.4973 40.9507 87.3194 40.9507C89.1643 40.9507 90.7065 40.3224 91.9859 39.0601C93.2653 37.8035 93.8936 36.2385 93.8936 34.4164C93.8936 32.5944 93.2653 31.0351 91.9859 29.7728ZM89.7298 36.8725C89.0786 37.5236 88.2733 37.8492 87.3194 37.8492C86.3655 37.8492 85.5602 37.5236 84.9319 36.8725C84.3036 36.2214 83.978 35.416 83.978 34.4222C83.978 33.4283 84.3036 32.623 84.9319 31.9718C85.5602 31.3207 86.3655 30.9951 87.3194 30.9951C88.2733 30.9951 89.0786 31.3207 89.7298 31.9718C90.3809 32.623 90.7065 33.4283 90.7065 34.4222C90.7065 35.416 90.3809 36.2214 89.7298 36.8725Z" fill="white"/>
<path d="M64.6389 40.8022C65.8029 40.8022 66.7465 39.8586 66.7465 38.6945C66.7465 37.5305 65.8029 36.5869 64.6389 36.5869C63.4749 36.5869 62.5312 37.5305 62.5312 38.6945C62.5312 39.8586 63.4749 40.8022 64.6389 40.8022Z" fill="white"/>
<path d="M74.3149 40.9507C72.4472 40.9507 70.8879 40.3224 69.6256 39.0601C68.369 37.8035 67.7578 36.2385 67.7578 34.3936C67.7578 32.5487 68.3861 30.9837 69.6256 29.7271C70.8821 28.4705 72.4243 27.8365 74.3149 27.8365C75.5315 27.8365 76.6167 28.1164 77.6163 28.7047C78.6159 29.293 79.3527 30.0698 79.8724 31.0465L77.1137 32.6515C76.8738 32.1318 76.4854 31.7376 75.9827 31.4349C75.4801 31.1322 74.9204 30.978 74.2921 30.978C73.3382 30.978 72.5328 31.3036 71.9046 31.9318C71.2763 32.5601 70.9735 33.3883 70.9735 34.3822C70.9735 35.3589 71.2763 36.1643 71.9046 36.8154C72.5328 37.4437 73.3382 37.7693 74.2921 37.7693C74.9432 37.7693 75.5087 37.615 76.0056 37.3352C76.5025 37.0553 76.8966 36.6383 77.1365 36.1414L79.9124 37.7236C79.3698 38.7003 78.5873 39.4828 77.6106 40.0654C76.6167 40.6708 75.5315 40.9507 74.3149 40.9507Z" fill="white"/>
<path d="M109.545 27.8651C110.956 27.8651 112.104 28.322 112.955 29.253C113.8 30.184 114.234 31.4235 114.234 32.9657V40.608H111.042V33.2056C111.042 32.4687 110.87 31.8804 110.499 31.4692C110.128 31.0579 109.631 30.8409 108.957 30.8409C108.22 30.8409 107.654 31.0808 107.266 31.5549C106.855 32.0346 106.661 32.7258 106.661 33.6396V40.608H103.468V33.2056C103.468 32.4687 103.296 31.8804 102.925 31.4692C102.554 31.0579 102.057 30.8409 101.383 30.8409C100.669 30.8409 100.104 31.0808 99.6923 31.5549C99.281 32.0346 99.064 32.7258 99.064 33.6396V40.608H95.8711V28.2135H99.064V29.5386C99.8008 28.4305 100.955 27.8651 102.514 27.8651C104.033 27.8651 105.164 28.4534 105.878 29.6471C106.683 28.4705 107.917 27.8651 109.545 27.8651Z" fill="white"/>
</svg>
