<svg width="2000" height="1122" viewBox="0 0 2000 1122" fill="none" xmlns="http://www.w3.org/2000/svg">
<g clip-path="url(#clip0_2619_149)">
<path d="M536.4 493.6C520.1 477.3 499.5 469.3 474.8 469.3C450.1 469.3 429.6 477.3 413.6 493.6C397.6 509.9 389.7 530.8 389.7 556.3C389.7 581.8 397.7 602.7 413.6 619C429.6 635.3 450.1 643.3 474.8 643.3C499.5 643.3 520 635.3 536.4 619C552.7 602.7 560.7 581.8 560.7 556.3C560.7 530.8 552.8 509.9 536.4 493.6ZM536.4 493.6C520.1 477.3 499.5 469.3 474.8 469.3C450.1 469.3 429.6 477.3 413.6 493.6C397.6 509.9 389.7 530.8 389.7 556.3C389.7 581.8 397.7 602.7 413.6 619C429.6 635.3 450.1 643.3 474.8 643.3C499.5 643.3 520 635.3 536.4 619C552.7 602.7 560.7 581.8 560.7 556.3C560.7 530.8 552.8 509.9 536.4 493.6ZM1086.3 357.5L763.7 35.3C733.3 4.8 689.2 -6.9 647.8 4.1L207.3 121.9C165.9 132.9 133.6 165.2 122.2 207L65.9004 417.2C91.4004 401.2 120.2 393.3 153.7 393.3C183.7 393.3 211.1 400.5 236.2 415C260.9 429.4 279.5 448.8 292.4 473.1L223.6 513C217.5 500.1 208 490.2 195.5 482.6C183 475 168.9 471.6 152.9 471.6C129 471.6 109.2 479.6 93.6004 495.5C78.0004 511.4 70.0004 531.6 70.0004 556.3C70.0004 580.6 78.0004 600.8 93.6004 616.7C109.2 632.7 128.9 640.6 152.9 640.6C168.9 640.6 183.3 637.2 195.8 629.6C208.3 622.4 217.8 612.5 223.9 599.6L293.1 639.1C279.4 663.4 260.4 682.8 235.7 697.6C211 712 183.6 719.6 153.2 719.6C106.5 719.6 67.7004 704 36.5004 672.5C24.9004 660.4 15.0004 647.5 7.80039 633L4.00039 647.1C-6.99961 688.5 4.70039 732.6 35.2004 763L357.5 1085.3C387.9 1115.7 432 1127.5 473.4 1116.5L913.9 998.3C955.3 987.3 987.6 955 999 913.2L1053.3 711C1002.8 715.6 967 710.2 945.8 694.7C923.4 678.4 912 648.7 912 606.2V342.7L991.8 296.7V401.6H1061.7V478.4H991.8V607.2C991.8 617.8 994.5 625.8 999.8 630.8C1005.1 635.7 1013.1 638.4 1023.4 639.2C1032.1 639.6 1056.5 639.6 1072.8 639.2L1117.3 473.9C1128.5 432 1116.4 387.9 1086.3 357.5ZM640.5 711H597.2C577.1 711 560.7 694.7 560.7 674.5C548.5 689.7 534.5 700.7 517.8 708.3C501.1 715.9 481.7 719.7 460 719.7C418.6 719.7 383.2 704.1 354 672.2C324.7 640.3 309.9 601.9 309.9 556.3C309.9 510.7 324.7 471.9 354 440.4C383.6 408.9 419 392.9 460 392.9C503.3 392.9 536.8 408.1 560.7 438.1V401.6H640.5V711ZM866.3 484.5C842 481.5 820.3 486.4 800.9 499.3C781.9 512.2 772 533.5 772 563.1V711H692.2V401.6H772V454.8C779.6 435 791.8 420.2 808.9 410.3C826 400.4 845 395.5 866.3 395.5V484.5ZM474.9 469.3C450.2 469.3 429.7 477.3 413.7 493.6C397.7 509.9 389.8 530.8 389.8 556.3C389.8 581.8 397.8 602.7 413.7 619C429.7 635.3 450.2 643.3 474.9 643.3C499.6 643.3 520.1 635.3 536.5 619C552.8 602.7 560.8 581.8 560.8 556.3C560.8 530.8 552.8 509.9 536.5 493.6C520.1 477.2 499.6 469.3 474.9 469.3Z" fill="white"/>
<path d="M1610.4 521.3C1588 499.3 1560.6 488.2 1528.7 488.2C1496.8 488.2 1469.4 499.2 1447.4 521.3C1425.4 543.4 1414.3 570.7 1414.3 602.6C1414.3 634.5 1425.3 661.9 1447.4 683.9C1469.4 705.9 1496.8 717 1528.7 717C1561 717 1588 706 1610.4 683.9C1632.8 661.9 1643.8 634.5 1643.8 602.6C1643.8 570.7 1632.8 543.4 1610.4 521.3ZM1570.9 645.6C1559.5 657 1545.4 662.7 1528.7 662.7C1512 662.7 1497.9 657 1486.9 645.6C1475.9 634.2 1470.2 620.1 1470.2 602.7C1470.2 585.3 1475.9 571.2 1486.9 559.8C1497.9 548.4 1512 542.7 1528.7 542.7C1545.4 542.7 1559.5 548.4 1570.9 559.8C1582.3 571.2 1588 585.3 1588 602.7C1588 620.1 1582.3 634.2 1570.9 645.6Z" fill="white"/>
<path d="M1131.6 714.4C1151.98 714.4 1168.5 697.879 1168.5 677.5C1168.5 657.121 1151.98 640.6 1131.6 640.6C1111.22 640.6 1094.7 657.121 1094.7 677.5C1094.7 697.879 1111.22 714.4 1131.6 714.4Z" fill="white"/>
<path d="M1301 717C1268.3 717 1241 706 1218.9 683.9C1196.9 661.9 1186.2 634.5 1186.2 602.2C1186.2 569.9 1197.2 542.5 1218.9 520.5C1240.9 498.5 1267.9 487.4 1301 487.4C1322.3 487.4 1341.3 492.3 1358.8 502.6C1376.3 512.9 1389.2 526.5 1398.3 543.6L1350 571.7C1345.8 562.6 1339 555.7 1330.2 550.4C1321.4 545.1 1311.6 542.4 1300.6 542.4C1283.9 542.4 1269.8 548.1 1258.8 559.1C1247.8 570.1 1242.5 584.6 1242.5 602C1242.5 619.1 1247.8 633.2 1258.8 644.6C1269.8 655.6 1283.9 661.3 1300.6 661.3C1312 661.3 1321.9 658.6 1330.6 653.7C1339.3 648.8 1346.2 641.5 1350.4 632.8L1399 660.5C1389.5 677.6 1375.8 691.3 1358.7 701.5C1341.3 712.1 1322.3 717 1301 717Z" fill="white"/>
<path d="M1917.8 487.9C1942.5 487.9 1962.6 495.9 1977.5 512.2C1992.3 528.5 1999.9 550.2 1999.9 577.2V711H1944V581.4C1944 568.5 1941 558.2 1934.5 551C1928 543.8 1919.3 540 1907.5 540C1894.6 540 1884.7 544.2 1877.9 552.5C1870.7 560.9 1867.3 573 1867.3 589V711H1811.4V581.4C1811.4 568.5 1808.4 558.2 1801.9 551C1795.4 543.8 1786.7 540 1774.9 540C1762.4 540 1752.5 544.2 1745.3 552.5C1738.1 560.9 1734.3 573 1734.3 589V711H1678.4V494H1734.3V517.2C1747.2 497.8 1767.4 487.9 1794.7 487.9C1821.3 487.9 1841.1 498.2 1853.6 519.1C1867.7 498.5 1889.3 487.9 1917.8 487.9Z" fill="white"/>
</g>
<defs>
<clipPath id="clip0_2619_149">
<rect width="2000" height="1121.2" fill="white"/>
</clipPath>
</defs>
</svg>
