<svg width="217" height="48" viewBox="0 0 217 48" fill="none" xmlns="http://www.w3.org/2000/svg">
<g clip-path="url(#clip0_6204_9779)">
<mask id="mask0_6204_9779" style="mask-type:luminance" maskUnits="userSpaceOnUse" x="0" y="2" width="217" height="44">
<path d="M216.792 2.29622H0.945679V45.7229H216.792V2.29622Z" fill="white"/>
</mask>
<g mask="url(#mask0_6204_9779)">
<path d="M138.725 14.9148H133.047V45.0269H138.725V14.9148Z" fill="#313131"/>
<path d="M127.375 7.89871V2.29622C114.181 2.29622 103.445 12.8886 103.445 25.9017V45.0312H109.123C109.123 35.012 117.215 27.0232 127.375 27.0232V21.4207C120.069 21.4207 113.52 24.6715 109.123 29.7849V25.9017C109.123 15.8825 117.215 7.89376 127.375 7.89376V7.89871Z" fill="#313131"/>
<path d="M46.6607 12.1123C37.2521 12.1123 29.6261 19.6367 29.6261 28.9199C29.6261 38.203 37.2521 45.7272 46.6607 45.7272C56.0693 45.7272 63.6953 38.203 63.6953 28.9199C63.6953 19.6367 56.0693 12.1123 46.6607 12.1123ZM46.6607 40.1198C40.3917 40.1198 35.3043 35.1053 35.3043 28.9148C35.3043 22.7245 40.3866 17.7099 46.6607 17.7099C52.9348 17.7099 58.0171 22.7245 58.0171 28.9148C58.0171 35.1053 52.9348 40.1198 46.6607 40.1198Z" fill="#313131"/>
<path d="M199.754 12.1123C190.346 12.1123 182.72 19.6367 182.72 28.9199C182.72 38.203 190.346 45.7272 199.754 45.7272C209.164 45.7272 216.789 38.203 216.789 28.9199C216.789 19.6367 209.164 12.1123 199.754 12.1123ZM199.754 40.1198C193.486 40.1198 188.398 35.1053 188.398 28.9148C188.398 22.7245 193.48 17.7099 199.754 17.7099C206.028 17.7099 211.111 22.7245 211.111 28.9148C211.111 35.1053 206.028 40.1198 199.754 40.1198Z" fill="#313131"/>
<path d="M177.763 28.915V4.88944H172.085V16.3957C169.07 13.7329 165.094 12.1124 160.729 12.1124C151.32 12.1124 143.694 19.6367 143.694 28.9199C143.694 38.203 151.32 45.7273 160.729 45.7273C170.138 45.7273 177.763 38.203 177.763 28.9199V28.915ZM160.729 40.1199C154.46 40.1199 149.372 35.1053 149.372 28.915C149.372 22.7245 154.455 17.71 160.729 17.71C167.002 17.71 172.085 22.7245 172.085 28.915C172.085 35.1053 167.002 40.1199 160.729 40.1199Z" fill="#313131"/>
<path d="M24.3144 38.1487C22.5067 39.3541 20.3237 40.0556 17.9752 40.0556C11.7062 40.0556 6.61887 35.0411 6.61887 28.8507C6.61887 22.6603 11.7012 17.6457 17.9752 17.6457C20.3437 17.6457 22.5368 18.362 24.3594 19.5824L27.5391 14.9433C24.8151 13.1153 21.5203 12.0432 17.9752 12.0432C8.57168 12.0482 0.945679 19.5725 0.945679 28.8507C0.945679 38.1288 8.57168 45.6581 17.9803 45.6581C21.5053 45.6581 24.78 44.6009 27.499 42.7927C27.1936 42.3431 25.7965 40.3126 24.3194 38.1536L24.3144 38.1487Z" fill="#313131"/>
<path d="M97.7634 26.4595C97.7634 18.5349 91.254 12.1123 83.2224 12.1123C75.1909 12.1123 68.6814 18.5349 68.6814 26.4595V45.0306H74.3596V26.4595C74.3596 21.6425 78.3353 17.7346 83.2224 17.7346C88.1094 17.7346 92.0852 21.6425 92.0852 26.4595V45.0257H97.7634V26.4595Z" fill="#313131"/>
</g>
</g>
<defs>
<clipPath id="clip0_6204_9779">
<rect width="215.846" height="46.0472" fill="white" transform="translate(0.944946 0.986418)"/>
</clipPath>
</defs>
</svg>
