<svg width="164" height="32" viewBox="0 0 164 32" fill="none" xmlns="http://www.w3.org/2000/svg">
<path d="M56.0142 23.7598C53.7623 23.7598 51.8636 23.0011 50.3182 21.4835C48.7727 19.966 48 17.9798 48 15.525C48 13.085 48.7801 11.0988 50.3402 9.56642C51.9151 8.03401 53.7917 7.2678 55.9701 7.2678C57.9718 7.2678 59.5761 7.78108 60.783 8.80765C62.0046 9.83422 62.7921 11.0691 63.1453 12.5122L60.2752 13.4272C60.0544 12.5345 59.5908 11.7832 58.8843 11.1732C58.1778 10.5484 57.2064 10.2359 55.9701 10.2359C54.6896 10.2359 53.5636 10.6971 52.5922 11.6196C51.6355 12.542 51.1571 13.8438 51.1571 15.525C51.1571 17.1318 51.6281 18.4038 52.5701 19.3411C53.5268 20.2784 54.6748 20.7471 56.0142 20.7471C57.2359 20.7471 58.2073 20.4272 58.9285 19.7875C59.6644 19.1477 60.1575 18.3889 60.4077 17.5112L63.2557 18.3815C63.0938 19.0213 62.8289 19.6461 62.4609 20.2561C62.1077 20.8661 61.644 21.4389 61.07 21.9745C60.496 22.5101 59.7674 22.9416 58.8843 23.2689C58.0159 23.5962 57.0592 23.7598 56.0142 23.7598Z" fill="#02023D"/>
<path d="M71.9959 12.4006V15.3911C71.7015 15.3316 71.4072 15.3018 71.1128 15.3018C70.2738 15.3018 69.5968 15.5473 69.0816 16.0383C68.5665 16.5143 68.3089 17.3029 68.3089 18.4038V23.4251H65.3726V12.4453H68.2206V14.0744C68.7505 12.9288 69.7808 12.356 71.3115 12.356C71.4734 12.356 71.7015 12.3709 71.9959 12.4006Z" fill="#02023D"/>
<path d="M76.0951 16.6854H80.9522C80.9228 16.0755 80.702 15.5622 80.2899 15.1456C79.8925 14.729 79.3037 14.5207 78.5237 14.5207C77.8172 14.5207 77.2432 14.7439 76.8016 15.1902C76.36 15.6366 76.1246 16.135 76.0951 16.6854ZM81.2392 19.542L83.6899 20.2784C83.3955 21.2901 82.8141 22.1233 81.9457 22.7779C81.092 23.4325 80.025 23.7598 78.7444 23.7598C77.1843 23.7598 75.8596 23.2317 74.7705 22.1753C73.6813 21.1041 73.1367 19.6759 73.1367 17.8905C73.1367 16.1945 73.6666 14.8108 74.7263 13.7396C75.786 12.6536 77.0371 12.1105 78.4795 12.1105C80.1574 12.1105 81.4674 12.6164 82.4093 13.6281C83.3661 14.6397 83.8444 16.0308 83.8444 17.8013C83.8444 17.9203 83.837 18.0542 83.8223 18.203C83.8223 18.3518 83.8223 18.4708 83.8223 18.56L83.8002 18.7163H76.0289C76.0583 19.4304 76.338 20.0255 76.8678 20.5016C77.3977 20.9777 78.0306 21.2157 78.7665 21.2157C80.0176 21.2157 80.8418 20.6578 81.2392 19.542Z" fill="#02023D"/>
<path d="M96.5112 7.2678V21.4389C96.5112 22.1679 96.5406 22.83 96.5995 23.4251H93.7956C93.722 23.0531 93.6852 22.6291 93.6852 22.153C93.435 22.6142 93.0376 22.9862 92.493 23.2689C91.9631 23.5515 91.345 23.6929 90.6385 23.6929C89.093 23.6929 87.8199 23.1498 86.819 22.0638C85.8329 20.9628 85.3398 19.5792 85.3398 17.9129C85.3398 16.2912 85.8255 14.9299 86.797 13.8289C87.7831 12.7279 89.0342 12.1775 90.5502 12.1775C92.1103 12.1775 93.1333 12.6312 93.619 13.5388V7.2678H96.5112ZM88.2982 17.9129C88.2982 18.8799 88.5484 19.6461 89.0489 20.2115C89.5493 20.762 90.1969 21.0372 90.9917 21.0372C91.7718 21.0372 92.4121 20.7545 92.9125 20.1892C93.4129 19.6238 93.6631 18.8576 93.6631 17.8905C93.6631 16.9384 93.4129 16.1945 92.9125 15.6589C92.4121 15.1084 91.7718 14.8332 90.9917 14.8332C90.2116 14.8332 89.564 15.1084 89.0489 15.6589C88.5484 16.2094 88.2982 16.9607 88.2982 17.9129Z" fill="#02023D"/>
<path d="M98.9238 24.0276L101.573 23.3135C101.676 23.9235 101.956 24.4219 102.412 24.8087C102.868 25.1955 103.435 25.3889 104.112 25.3889C106.04 25.3889 107.004 24.3698 107.004 22.3316V21.5282C106.754 21.9299 106.371 22.2646 105.856 22.5324C105.341 22.8002 104.716 22.9341 103.98 22.9341C102.537 22.9341 101.33 22.4283 100.359 21.4166C99.4022 20.4049 98.9238 19.1328 98.9238 17.6004C98.9238 16.1126 99.4022 14.848 100.359 13.8066C101.316 12.7651 102.523 12.2444 103.98 12.2444C104.774 12.2444 105.437 12.3932 105.967 12.6908C106.496 12.9734 106.864 13.3231 107.071 13.7396V12.4453H109.896V22.2423C109.896 23.8937 109.425 25.2625 108.483 26.3486C107.542 27.4495 106.114 28 104.2 28C102.773 28 101.573 27.6132 100.602 26.8395C99.645 26.0659 99.0857 25.1286 98.9238 24.0276ZM104.487 20.39C105.238 20.39 105.849 20.1371 106.32 19.6312C106.806 19.1254 107.048 18.4485 107.048 17.6004C107.048 16.7673 106.798 16.0978 106.298 15.5919C105.812 15.0861 105.209 14.8332 104.487 14.8332C103.737 14.8332 103.111 15.0861 102.611 15.5919C102.125 16.0978 101.882 16.7673 101.882 17.6004C101.882 18.4485 102.125 19.1254 102.611 19.6312C103.097 20.1371 103.722 20.39 104.487 20.39Z" fill="#02023D"/>
<path d="M115.011 16.6854H119.869C119.839 16.0755 119.618 15.5622 119.206 15.1456C118.809 14.729 118.22 14.5207 117.44 14.5207C116.733 14.5207 116.159 14.7439 115.718 15.1902C115.276 15.6366 115.041 16.135 115.011 16.6854ZM120.156 19.542L122.606 20.2784C122.312 21.2901 121.73 22.1233 120.862 22.7779C120.008 23.4325 118.941 23.7598 117.661 23.7598C116.101 23.7598 114.776 23.2317 113.687 22.1753C112.598 21.1041 112.053 19.6759 112.053 17.8905C112.053 16.1945 112.583 14.8108 113.643 13.7396C114.702 12.6536 115.953 12.1105 117.396 12.1105C119.074 12.1105 120.384 12.6164 121.326 13.6281C122.282 14.6397 122.761 16.0308 122.761 17.8013C122.761 17.9203 122.753 18.0542 122.739 18.203C122.739 18.3518 122.739 18.4708 122.739 18.56L122.717 18.7163H114.945C114.975 19.4304 115.254 20.0255 115.784 20.5016C116.314 20.9777 116.947 21.2157 117.683 21.2157C118.934 21.2157 119.758 20.6578 120.156 19.542Z" fill="#02023D"/>
<path d="M128.009 17.1095V23.4251H125.073V12.4453H127.921V13.8066C128.23 13.271 128.672 12.8618 129.246 12.5792C129.82 12.2965 130.423 12.1552 131.056 12.1552C132.337 12.1552 133.308 12.5643 133.97 13.3826C134.647 14.186 134.986 15.2274 134.986 16.5069V23.4251H132.05V17.0202C132.05 16.3656 131.88 15.8374 131.542 15.4357C131.218 15.034 130.718 14.8332 130.04 14.8332C129.422 14.8332 128.929 15.0489 128.561 15.4803C128.193 15.9118 128.009 16.4548 128.009 17.1095Z" fill="#02023D"/>
<path d="M140.902 23.4251H137.966V12.4453H140.902V23.4251ZM137.613 8.85228C137.613 8.34644 137.789 7.91498 138.143 7.55792C138.496 7.18597 138.923 7 139.423 7C139.924 7 140.35 7.17853 140.704 7.5356C141.057 7.89267 141.234 8.33156 141.234 8.85228C141.234 9.34325 141.057 9.76727 140.704 10.1243C140.35 10.4814 139.924 10.6599 139.423 10.6599C138.923 10.6599 138.496 10.4814 138.143 10.1243C137.789 9.76727 137.613 9.34325 137.613 8.85228Z" fill="#02023D"/>
<path d="M148.925 14.8555C148.145 14.8555 147.49 15.1307 146.96 15.6812C146.43 16.2317 146.166 16.983 146.166 17.9352C146.166 18.8874 146.43 19.6461 146.96 20.2115C147.505 20.762 148.167 21.0372 148.947 21.0372C149.639 21.0372 150.191 20.8587 150.603 20.5016C151.015 20.1296 151.295 19.6908 151.442 19.1849L154.025 20.0553C153.76 21.0669 153.186 21.9373 152.303 22.6663C151.42 23.3953 150.301 23.7598 148.947 23.7598C147.328 23.7598 145.967 23.2094 144.863 22.1084C143.774 20.9926 143.229 19.6015 143.229 17.9352C143.229 16.254 143.766 14.8629 144.841 13.762C145.93 12.661 147.269 12.1105 148.859 12.1105C150.243 12.1105 151.376 12.475 152.259 13.204C153.142 13.9182 153.709 14.7885 153.959 15.8151L151.332 16.7078C150.978 15.4729 150.176 14.8555 148.925 14.8555Z" fill="#02023D"/>
<path d="M155.257 20.3677L157.774 19.8098C157.804 20.2859 157.988 20.6876 158.326 21.0149C158.679 21.3273 159.158 21.4835 159.761 21.4835C160.217 21.4835 160.571 21.3794 160.821 21.1711C161.071 20.9628 161.196 20.7024 161.196 20.39C161.196 19.8395 160.806 19.4825 160.026 19.3188L158.591 18.9841C157.575 18.7609 156.81 18.3592 156.295 17.779C155.794 17.1987 155.544 16.5069 155.544 15.7035C155.544 14.7067 155.927 13.8587 156.692 13.1594C157.472 12.4601 158.444 12.1105 159.607 12.1105C160.342 12.1105 160.99 12.2221 161.549 12.4453C162.109 12.6536 162.543 12.9288 162.852 13.271C163.161 13.5983 163.397 13.9331 163.558 14.2752C163.72 14.6174 163.823 14.9522 163.868 15.2795L161.417 15.8374C161.358 15.4506 161.181 15.1084 160.887 14.8108C160.607 14.5133 160.188 14.3645 159.629 14.3645C159.246 14.3645 158.915 14.4687 158.635 14.6769C158.37 14.8852 158.238 15.1456 158.238 15.458C158.238 15.9936 158.569 16.3209 159.231 16.44L160.777 16.7747C161.822 16.9979 162.616 17.407 163.161 18.0021C163.72 18.5972 164 19.3114 164 20.1445C164 21.1265 163.632 21.9745 162.896 22.6886C162.16 23.4028 161.123 23.7598 159.783 23.7598C159.018 23.7598 158.333 23.6482 157.73 23.4251C157.126 23.187 156.655 22.8895 156.317 22.5324C155.993 22.1605 155.743 21.796 155.566 21.4389C155.404 21.0669 155.301 20.7099 155.257 20.3677Z" fill="#02023D"/>
<path fill-rule="evenodd" clip-rule="evenodd" d="M15.3667 0.012258C11.2599 0.179393 7.37374 1.91426 4.53304 4.84875C2.84262 6.59496 1.56592 8.69039 0.809256 10.9605C-0.560814 15.071 -0.176883 19.6802 1.85191 23.4782C4.14478 27.7706 8.18794 30.775 12.9267 31.7076C14.571 32.0312 16.3806 32.088 18.0746 31.869C21.2525 31.4583 24.2188 30.1003 26.6531 27.9418C27.1357 27.5139 27.8378 26.7887 28.2794 26.2619C30.2892 23.8648 31.5628 20.894 31.9052 17.8045C31.9811 17.1196 32 16.7605 32 16.0069C32 15.4007 31.9675 14.6205 31.9411 14.5941C31.936 14.589 27.436 14.5871 17.7009 14.5881L16.309 14.5883V15.9672C16.309 17.22 16.3058 17.3499 16.2732 17.3858C16.2385 17.4242 16.4394 17.4254 22.6651 17.4254H29.0928L29.0789 17.5283C28.8553 19.1815 28.4647 20.4867 27.7874 21.8437C27.1018 23.2172 26.2897 24.3291 25.1772 25.4172C22.6496 27.8894 19.2119 29.2477 15.7133 29.1566C11.6386 29.0505 7.94268 27.1507 5.48238 23.8976C2.71455 20.2381 2.07203 15.378 3.78983 11.0951C3.94823 10.7001 4.33741 9.89532 4.55131 9.52029C6.14754 6.72181 8.72709 4.58079 11.7393 3.55425C12.8715 3.16839 13.9382 2.95465 15.1589 2.86905C15.624 2.83644 16.858 2.85597 17.2947 2.90286C19.3978 3.12869 21.2564 3.7699 23.0236 4.87928C23.2944 5.0493 23.8607 5.44347 24.0102 5.56604L24.0752 5.61931L23.783 5.91297C23.6224 6.07448 23.4835 6.20661 23.4745 6.20661C23.4654 6.20661 23.3776 6.14684 23.2792 6.07376C22.3402 5.37623 21.1304 4.74414 19.9904 4.35544C18.585 3.87628 17.2283 3.6678 15.735 3.70157C15.0986 3.71597 14.6744 3.75149 14.1211 3.83673C10.1612 4.4468 6.73458 6.96495 4.95764 10.5707C4.18193 12.1447 3.75803 13.8245 3.70474 15.5357C3.63761 17.6907 4.05778 19.6416 4.98874 21.4972C6.71916 24.9461 9.96528 27.3993 13.7279 28.1014C14.4954 28.2446 15.1655 28.3037 16.0166 28.3034C17.9388 28.3025 19.677 27.9019 21.389 27.065C24.6761 25.4581 27.0591 22.5203 27.9527 18.9732C27.9941 18.8085 28.0249 18.6706 28.021 18.6667C28.0057 18.6514 20.9121 18.6608 20.9069 18.6761C20.8925 18.7185 20.595 19.1761 20.4808 19.3316C19.9455 20.0604 19.1042 20.7368 18.285 21.0971C16.7218 21.7847 14.9776 21.7408 13.4712 20.976C12.6283 20.548 11.874 19.8733 11.3513 19.0796C11.2483 18.9232 11.1475 18.7649 11.1272 18.7277C11.0999 18.6776 11.075 18.66 11.0318 18.66C10.9763 18.66 10.9752 18.6579 11.0093 18.6202C11.0431 18.5827 11.039 18.5671 10.9393 18.3549C10.7186 17.8848 10.5507 17.3258 10.4684 16.7865C10.4189 16.462 10.4123 15.6179 10.4568 15.303C10.5829 14.4105 10.8778 13.6277 11.3584 12.9098C12.2682 11.5507 13.6711 10.6814 15.3125 10.4599C15.6759 10.4108 16.3362 10.4108 16.6978 10.4599C17.7751 10.606 18.7729 11.0424 19.5778 11.7194C19.9488 12.0314 20.4269 12.56 20.6327 12.8856C20.6674 12.9405 20.7007 12.9855 20.7067 12.9855C20.7127 12.9855 21.175 12.5282 21.734 11.9692L22.7505 10.9528L22.6875 10.8701C22.2147 10.2483 21.4771 9.54463 20.8142 9.08271C20.1856 8.64474 19.3668 8.23506 18.6428 7.99626C17.3181 7.55937 15.8482 7.46009 14.4677 7.71427C12.3155 8.11052 10.3955 9.34185 9.11557 11.1466C8.44824 12.0876 7.97409 13.1852 7.74108 14.3284C7.56117 15.211 7.52887 16.3025 7.65644 17.1872C7.97753 19.414 9.16085 21.4053 10.9654 22.7555C12.1602 23.6495 13.5249 24.1897 15.0743 24.3819C15.4327 24.4264 16.6328 24.4196 17.0131 24.371C18.804 24.1419 20.3912 23.4062 21.7257 22.1864C21.8633 22.0606 22.068 21.855 22.1806 21.7294L22.3855 21.501L23.0421 21.4991C23.5619 21.4976 23.6953 21.5028 23.6826 21.5242C23.5704 21.7136 23.1232 22.2437 22.7762 22.5988C21.2304 24.1808 19.3088 25.1299 17.0889 25.4079C16.7168 25.4545 15.6853 25.473 15.2768 25.4404C14.6988 25.3943 14.25 25.3198 13.6788 25.1751C11.5867 24.6452 9.75967 23.4277 8.42767 21.6758C8.29613 21.5028 8.28898 21.4972 8.20237 21.4972H8.1129L8.16002 21.447C8.18593 21.4195 8.20711 21.3905 8.20711 21.3828C8.20711 21.375 8.14949 21.2823 8.07907 21.1769C7.43195 20.2081 6.94187 19.0024 6.7039 17.7936C6.57748 17.1515 6.55116 16.8466 6.55062 16.0177C6.5501 15.194 6.56929 14.9463 6.68151 14.3284C6.99022 12.6284 7.75174 11.0575 8.89974 9.75274C11.2365 7.09687 14.8413 5.96565 18.2695 6.81247C20.2312 7.29705 21.9817 8.39743 23.2836 9.96427C23.3826 10.0834 23.471 10.1891 23.48 10.1991C23.4948 10.2155 28.1157 5.64641 28.1335 5.59787C28.1523 5.54663 27.2678 4.61963 26.7672 4.16591C24.7585 2.34519 22.3174 1.05193 19.7281 0.436581C18.3261 0.103395 16.7927 -0.0457854 15.3667 0.012258Z" fill="#466AF9"/>
</svg>
