<svg width="741" height="178" viewBox="0 0 741 178" fill="none" xmlns="http://www.w3.org/2000/svg">
<path d="M204.911 177.09C197.121 177.09 190.061 175.23 183.721 171.5C177.381 167.77 172.351 162.74 168.621 156.4C164.891 150.06 163.031 143 163.031 135.21C163.031 127.42 164.891 120.42 168.621 114.19C172.351 107.96 177.381 102.98 183.721 99.26C190.061 95.53 197.121 93.67 204.911 93.67C212.701 93.67 219.931 95.51 226.261 99.18C232.601 102.85 237.631 107.83 241.361 114.11C245.091 120.39 246.951 127.43 246.951 135.21C246.951 142.99 245.091 150.06 241.361 156.4C237.631 162.74 232.601 167.77 226.261 171.5C219.921 175.23 212.801 177.09 204.911 177.09ZM204.911 159.41C209.471 159.41 213.501 158.38 217.011 156.32C220.511 154.26 223.241 151.4 225.181 147.73C227.131 144.06 228.101 139.89 228.101 135.22C228.101 130.55 227.101 126.43 225.101 122.87C223.101 119.31 220.371 116.5 216.931 114.45C213.481 112.39 209.481 111.36 204.921 111.36C200.361 111.36 196.491 112.39 192.991 114.45C189.491 116.51 186.761 119.32 184.811 122.87C182.861 126.43 181.891 130.54 181.891 135.22C181.891 139.9 182.861 144.06 184.811 147.73C186.761 151.4 189.481 154.26 192.991 156.32C196.491 158.38 200.471 159.41 204.921 159.41H204.911Z" fill="black"/>
<path d="M129.71 177.09C121.81 177.09 114.67 175.26 108.27 171.59C101.87 167.92 96.8402 162.91 93.1702 156.57C89.5002 150.23 87.6602 143.17 87.6602 135.38C87.6602 127.59 89.5002 120.39 93.1702 114.11C96.8402 107.83 101.87 102.85 108.27 99.18C114.67 95.51 121.81 93.67 129.71 93.67C135.94 93.67 141.75 94.87 147.14 97.26C152.53 99.65 157.12 103.07 160.9 107.52L148.89 119.7C146.55 116.92 143.75 114.83 140.47 113.44C137.19 112.05 133.6 111.35 129.71 111.35C125.15 111.35 121.12 112.38 117.61 114.44C114.11 116.5 111.38 119.31 109.43 122.86C107.48 126.42 106.51 130.59 106.51 135.37C106.51 140.15 107.48 144.18 109.43 147.8C111.38 151.41 114.1 154.25 117.61 156.31C121.11 158.37 125.15 159.4 129.71 159.4C133.6 159.4 137.19 158.7 140.47 157.31C143.75 155.92 146.56 153.83 148.89 151.05L160.9 163.23C157.12 167.68 152.53 171.1 147.14 173.49C141.75 175.88 135.93 177.08 129.71 177.08V177.09Z" fill="black"/>
<path d="M74.7105 113.23C71.4305 107.22 66.9205 102.5 61.2005 99.05C55.4605 95.6 48.8805 93.88 41.4305 93.88C33.9805 93.88 26.7805 95.72 20.4905 99.39C14.2105 103.06 9.23055 108.04 5.56055 114.32C1.89055 120.6 0.0605469 127.7 0.0605469 135.59C0.0605469 143.48 1.92055 150.61 5.64055 156.95C9.37055 163.28 14.4305 168.27 20.8205 171.88C27.2205 175.49 34.4205 177.29 42.4305 177.29C48.6605 177.29 54.5505 176.13 60.1105 173.79C65.6705 171.46 70.3905 168.01 74.2906 163.44L62.6105 151.6C60.1605 154.38 57.1905 156.49 53.6905 157.94C50.1905 159.38 46.3705 160.1 42.2705 160.1C37.4805 160.1 33.2505 159.08 29.5805 157.02C25.9105 154.96 23.0805 152.05 21.0705 148.26C20.1105 146.45 19.3905 144.51 18.9005 142.42H78.6405C78.9706 140.75 79.2305 139.22 79.3905 137.83C79.5605 136.44 79.6405 135.08 79.6405 133.74C79.6405 126.06 78.0005 119.22 74.7206 113.21V113.23H74.7105ZM18.9405 127.41C19.4005 125.52 20.0605 123.76 20.8905 122.15C22.7805 118.53 25.4605 115.73 28.9005 113.73C32.3505 111.73 36.4105 110.73 41.0905 110.73C45.7705 110.73 49.2905 111.62 52.3505 113.39C55.4105 115.17 57.7705 117.73 59.4505 121.06C60.3905 122.93 61.0905 125.04 61.5605 127.4H18.9405V127.41Z" fill="black"/>
<path d="M729.351 113.58C726.081 107.57 721.561 102.85 715.841 99.4C710.111 95.95 703.531 94.23 696.081 94.23C688.631 94.23 681.421 96.07 675.141 99.74C668.861 103.41 663.881 108.39 660.211 114.67C656.541 120.95 654.711 128.05 654.711 135.94C654.711 143.83 656.571 150.96 660.291 157.3C664.021 163.63 669.081 168.62 675.471 172.23C681.871 175.84 689.071 177.64 697.071 177.64C703.301 177.64 709.191 176.48 714.761 174.14C720.321 171.81 725.041 168.36 728.941 163.79L717.261 151.95C714.811 154.73 711.841 156.84 708.341 158.29C704.841 159.73 701.021 160.45 696.911 160.45C692.131 160.45 687.901 159.43 684.231 157.37C680.561 155.31 677.731 152.4 675.721 148.61C674.761 146.8 674.041 144.86 673.551 142.77H733.291C733.621 141.1 733.881 139.57 734.031 138.18C734.201 136.79 734.281 135.43 734.281 134.09C734.281 126.41 732.641 119.57 729.361 113.56V113.58H729.351ZM673.601 127.75C674.061 125.86 674.711 124.1 675.551 122.49C677.441 118.87 680.111 116.07 683.561 114.07C687.011 112.07 691.071 111.07 695.751 111.07C700.431 111.07 703.951 111.96 707.011 113.73C710.071 115.51 712.431 118.07 714.111 121.4C715.041 123.27 715.751 125.38 716.221 127.74H673.601V127.75Z" fill="black"/>
<path d="M550.121 124.92V175.76H532.081V128.86C532.081 123.61 530.441 119.56 527.161 116.72C523.881 113.77 519.831 112.29 515.021 112.29C511.851 112.29 508.961 112.95 506.331 114.26C503.711 115.57 501.631 117.49 500.101 120C498.571 122.41 497.801 125.36 497.801 128.86V175.76H479.761V128.86C479.761 123.61 478.121 119.56 474.841 116.72C471.561 113.77 467.521 112.29 462.711 112.29C459.431 112.29 456.481 112.95 453.851 114.26C451.341 115.57 449.311 117.49 447.781 120C446.251 122.41 445.491 125.36 445.491 128.86V175.76H427.451V97.04H445.491V105.09C447.611 102.71 450.131 100.73 453.031 99.17C457.511 96.66 462.541 95.4 468.121 95.4C473.701 95.4 478.721 96.6 483.211 99.01C487.461 101.29 490.871 104.45 493.451 108.51C496.331 104.54 499.901 101.43 504.201 99.17C508.901 96.66 514.041 95.4 519.621 95.4C525.201 95.4 530.441 96.6 535.031 99.01C539.621 101.41 543.291 104.8 546.021 109.18C548.751 113.55 550.121 118.8 550.121 124.92Z" fill="black"/>
<path d="M378.171 177.5C370.381 177.5 363.321 175.64 356.981 171.91C350.641 168.18 345.611 163.15 341.881 156.81C338.151 150.47 336.291 143.41 336.291 135.62C336.291 127.83 338.151 120.83 341.881 114.6C345.611 108.37 350.641 103.39 356.981 99.67C363.321 95.94 370.381 94.08 378.171 94.08C385.961 94.08 393.181 95.92 399.521 99.59C405.861 103.26 410.891 108.24 414.621 114.52C418.351 120.8 420.211 127.84 420.211 135.62C420.211 143.4 418.351 150.47 414.621 156.81C410.891 163.15 405.861 168.18 399.521 171.91C393.181 175.64 386.061 177.5 378.171 177.5ZM378.171 159.82C382.731 159.82 386.761 158.79 390.271 156.73C393.771 154.67 396.501 151.81 398.441 148.14C400.391 144.47 401.361 140.3 401.361 135.63C401.361 130.96 400.361 126.84 398.361 123.28C396.361 119.72 393.631 116.91 390.191 114.86C386.741 112.8 382.741 111.77 378.181 111.77C373.621 111.77 369.751 112.8 366.251 114.86C362.751 116.92 360.021 119.73 358.081 123.28C356.131 126.84 355.161 130.95 355.161 135.63C355.161 140.31 356.131 144.47 358.081 148.14C360.031 151.81 362.751 154.67 366.251 156.73C369.751 158.79 373.731 159.82 378.181 159.82H378.171Z" fill="black"/>
<path d="M557.881 175.99H576.231V98.02C573.461 96 569.961 95.01 566.441 95.21C563.131 95.4 560.241 96.56 557.881 98.43V175.99Z" fill="black"/>
<path d="M328.101 126.08V175.44H310.061V130.01C310.061 124.76 308.371 120.45 304.981 117.06C301.701 113.67 297.441 111.97 292.191 111.97C288.691 111.97 285.571 112.74 282.841 114.27C280.111 115.8 277.971 117.93 276.441 120.66C274.911 123.4 274.151 126.51 274.151 130.01V175.44H256.111V96.72H274.151V105.62C276.301 103.03 278.871 100.88 281.861 99.18C286.561 96.45 291.801 95.08 297.601 95.08C303.401 95.08 308.751 96.61 313.341 99.67C317.941 102.62 321.541 106.51 324.171 111.32C326.791 116.02 328.101 120.94 328.101 126.08Z" fill="black"/>
<path fill-rule="evenodd" clip-rule="evenodd" d="M552.817 62.7536C555.808 51.148 559.204 42.2125 564.447 33.8665C565.572 34.3634 567.005 34.7093 568.817 34.7093C574.235 34.7093 580.52 31.6301 583.409 30.0369V30.0272C583.56 29.9444 583.702 29.8664 583.843 29.7885C584.515 29.4084 585.193 29.004 585.87 28.585C586.06 29.1161 586.338 29.6082 586.674 30.0662L587.522 31.2111L588.369 30.0662C588.71 29.6082 588.988 29.1112 589.178 28.5802C589.714 28.395 590.216 28.127 590.684 27.7957L591.897 26.9334L590.679 26.0759C590.464 25.9248 590.245 25.7884 590.021 25.6666C590.903 24.965 591.751 24.2244 592.535 23.4546H592.555C594.601 21.4619 596.33 19.1622 596.988 16.7164C597.563 14.5824 597.305 12.4971 596.233 10.7042C596.233 10.7042 595.824 10.0123 595.268 9.07198C600.764 6.62128 606.562 4.85755 612.55 4.00005C620.906 2.8015 629.622 3.46411 637.676 6.17304C658.202 13.0623 667.839 30.3244 671.757 40.0054L672.336 41.4281C672.336 41.4281 652.989 42.042 633.037 62.5441C684.54 31.2389 741.577 54.1053 740 120C729.491 87.3039 694.299 75.2521 659 97C635.621 80.3221 597.36 84.5707 584.281 97C577.53 82.9733 557.072 81.8642 550.281 97C531.733 81.212 506.796 83.5626 493.061 97C484 82.5 455.002 82.2495 447.061 97C446.736 87.1703 453.03 68.1581 461.503 60.7657C474.964 48.3709 495.925 50.0275 504.202 66.5831C507.92 56.6926 518.921 50.8655 529.884 50.7096C538.912 50.578 547.92 54.2955 552.812 62.7536H552.817ZM563.857 29.0284C563.955 29.1746 564.101 29.4571 564.393 29.7495C567.614 33.199 575.916 30.3731 582.162 26.8262C588.949 22.9918 595.931 16.9064 593.246 12.3997C593.246 12.3997 589.29 5.6907 589.193 5.64197C588.559 4.68216 587.58 4.05852 586.362 3.77106L585.529 4.3947C584.993 4.77473 584.457 5.06706 583.872 5.25707C583.629 5.83199 583.336 6.4069 582.947 6.9331L582.411 7.64931C584.413 7.31313 585.631 7.50802 585.826 7.83932C586.265 8.60913 583.726 13.0184 576.452 17.1354C569.129 21.2573 564.003 21.2086 563.565 20.4923C563.126 19.7225 565.665 15.3181 572.939 11.1962C576.013 9.4715 578.698 8.46296 580.798 7.98549L580.018 6.9331C579.629 6.4069 579.336 5.83199 579.093 5.30579C578.605 5.11578 578.216 4.87217 577.777 4.58471C575.482 5.39837 573.09 6.45563 570.893 7.7029C563.813 11.7273 557.368 18.0563 560.003 22.5094C560.052 22.602 563.862 29.0284 563.862 29.0284H563.857ZM588.413 12.2535C588.072 12.7797 587.634 13.262 587.19 13.7882L588.754 16.4241C589.534 15.3717 589.777 14.6506 589.68 14.4119L588.408 12.2535H588.413ZM586.557 14.558C586.07 15.0355 585.529 15.513 584.993 15.9953L586.606 18.7286C587.239 18.2024 587.682 17.6762 588.121 17.1939L586.557 14.558ZM584.311 16.6628C583.775 17.0964 583.239 17.4765 582.654 17.9101L584.262 20.6434C584.847 20.2098 585.388 19.781 585.875 19.3474L584.311 16.6628ZM581.87 18.485C581.334 18.8699 580.749 19.2548 580.16 19.5861L581.768 22.3194C582.406 21.9345 582.942 21.5496 583.478 21.2183L581.865 18.485H581.87ZM578.503 20.6434C578.211 20.8334 577.87 20.9308 577.577 21.1209L579.19 23.8054C579.482 23.6641 579.775 23.518 580.116 23.328C580.408 23.1818 580.652 22.9918 580.944 22.8018L579.385 20.1172C579.093 20.2585 578.8 20.5021 578.503 20.6434ZM576.744 21.5545C576.111 21.8419 575.521 22.1781 574.888 22.4656L576.501 25.1501C577.085 24.9114 577.67 24.6239 578.357 24.2878L576.744 21.5545ZM574.011 22.8018C573.329 23.0892 572.695 23.3767 572.057 23.5667L573.665 26.3C574.25 26.0612 574.937 25.8225 575.619 25.535L574.006 22.8018H574.011ZM571.131 23.8541C570.449 24.0442 569.762 24.2878 569.08 24.4291L570.644 27.1136C571.278 26.9675 571.96 26.8262 572.744 26.5874L571.131 23.8541ZM568.106 24.624C567.424 24.7214 566.785 24.8627 566.152 24.9114L567.321 26.8749C567.37 26.9236 567.419 26.9723 567.468 27.0211C567.662 27.2598 568.398 27.4011 569.665 27.2598L568.101 24.624H568.106ZM580.535 3.87338C580.686 4.55061 580.993 5.22297 581.485 5.88558C581.972 5.22297 582.284 4.55061 582.435 3.87338C583.122 3.72234 583.809 3.42026 584.481 2.94279C583.809 2.46532 583.122 2.16324 582.435 2.01221C582.279 1.33497 581.972 0.662615 581.49 0C581.003 0.657743 580.696 1.33497 580.545 2.00733C579.853 2.15837 579.171 2.46045 578.493 2.93792C579.166 3.42026 579.853 3.72234 580.54 3.8685L580.535 3.87338ZM575.872 12.2827C576.013 12.3461 576.126 12.4922 576.194 12.7115L577.504 12.1366C577.407 11.4935 576.73 11.2839 575.463 11.5129L575.677 10.9185L574.747 11.1378L574.527 11.7273C573.689 11.9807 573.012 12.3071 572.505 12.7066C571.994 13.1061 571.672 13.4959 571.531 13.8711C571.239 14.6701 571.862 15.0112 573.412 14.8894L572.759 16.6726C572.004 16.77 571.624 16.5654 571.614 16.0587L570.181 16.6433C570.245 17.418 571 17.6811 572.442 17.4326L572.164 18.1927L573.095 17.9734L573.373 17.2085C574.269 16.9552 575.005 16.6141 575.575 16.1902C576.15 15.7663 576.52 15.3327 576.686 14.8894C576.837 14.485 576.754 14.1926 576.452 14.0172C576.145 13.8418 575.512 13.7931 574.552 13.8711L575.156 12.2243C575.492 12.195 575.736 12.2145 575.877 12.2779L575.872 12.2827ZM573.007 13.4228C572.871 13.7931 573.119 13.9588 573.758 13.9247L574.303 12.4387C573.582 12.7017 573.153 13.0282 573.007 13.4228ZM575.19 15.362C575.351 14.9283 575.015 14.7578 574.191 14.8455L573.587 16.4923C574.479 16.2146 575.015 15.8346 575.185 15.362H575.19ZM557.163 29.3548C557.314 30.0321 557.621 30.7044 558.113 31.3622C558.6 30.7044 558.912 30.0272 559.063 29.35C559.75 29.1989 560.437 28.8968 561.109 28.4194C560.437 27.9419 559.75 27.6398 559.063 27.4888C558.907 26.8116 558.6 26.1392 558.118 25.4766C557.631 26.1392 557.324 26.8116 557.173 27.4839C556.486 27.635 555.799 27.937 555.122 28.4145C555.794 28.8968 556.481 29.194 557.168 29.3451L557.163 29.3548Z" fill="#1F85FC"/>
<path fill-rule="evenodd" clip-rule="evenodd" d="M595.273 9.07202C600.769 6.62132 606.567 4.85759 612.555 4.00009C620.911 2.80154 629.627 3.46415 637.681 6.17308C658.207 13.0623 667.844 30.3244 671.762 40.0054L672.341 41.4281C672.341 41.4281 666.68 41.6084 658.324 45.0189H658.319C652.083 23.3036 632.078 7.41548 608.36 7.41548C603.844 7.41548 599.459 7.99527 595.278 9.07689L595.273 9.07202Z" fill="#1B79E9"/>
<path fill-rule="evenodd" clip-rule="evenodd" d="M587.521 24.4291C587.935 24.9942 588.198 25.5643 588.325 26.1441C588.914 26.2708 589.499 26.529 590.069 26.9334C589.494 27.3426 588.914 27.596 588.325 27.7275C588.193 28.3025 587.935 28.8774 587.516 29.4377C587.102 28.8774 586.839 28.3025 586.707 27.7275C586.122 27.6009 585.538 27.3426 584.963 26.9334C585.538 26.5241 586.118 26.2659 586.707 26.1392C586.839 25.5643 587.097 24.9894 587.511 24.4291H587.521Z" fill="#1F85FC"/>
<path fill-rule="evenodd" clip-rule="evenodd" d="M718 91.9999C709.03 69.0423 688.419 55.2149 663.381 55.2149C652.672 55.2149 642.645 58.1285 634.041 63.2004C666.548 37.9869 744.5 32.5 740 120C735.5 106 728 98 718 91.9999Z" fill="#1B79E9"/>
<path d="M620.511 161.13C625.361 161.13 629.971 160.54 634.281 159.44C638.751 158.29 643.061 156.56 647.121 154.33L655.141 168.93C649.981 171.77 644.361 174.01 638.391 175.54C632.581 177.03 626.591 177.82 620.511 177.82C613.461 177.82 606.611 176.78 600.101 174.86C594.581 173.22 589.331 170.94 584.441 168.1L594.451 154.65L626.501 111.6C624.541 111.39 622.541 111.29 620.511 111.29C615.531 111.29 610.751 111.93 606.251 113.13C601.541 114.38 597.111 116.22 593.031 118.56L584.751 104.16C590.141 101.06 595.931 98.65 602.011 97.03C607.961 95.45 614.161 94.61 620.511 94.61C626.861 94.61 633.061 95.45 639.011 97.03C644.381 98.46 649.521 100.51 654.361 103.1L652.131 106.09L611.661 160.45C614.531 160.91 617.491 161.14 620.511 161.14V161.13Z" fill="black"/>
</svg>
