<?xml version="1.0" encoding="UTF-8"?>
<svg id="a" data-name="Layer_1" xmlns="http://www.w3.org/2000/svg" width="1180" height="480" viewBox="0 0 1180 480">
  <path d="M392.459,96.782l-46.933-38.989c-20.353-16.918-49.886-16.918-70.239,0l-56.777,47.162-56.731-47.162c-20.353-16.918-49.84-16.941-70.216-.046l-47.047,39.034c-17.835,14.789-28.137,36.745-28.137,59.914v97.101c0,23.126,10.286,45.053,28.068,59.837l124.246,103.298c28.847,23.971,70.697,23.971,99.52,0l124.246-103.298c17.797-14.796,28.091-36.742,28.091-59.886v-97.098c0-23.123-10.302-45.078-28.091-59.868ZM383.92,247.333c0,16.324-7.28,31.822-19.826,42.262l-110.51,91.874c-20.353,16.918-49.886,16.918-70.262,0l-110.51-91.874c-12.546-10.44-19.803-25.939-19.803-42.262v-84.204c0-16.347,7.281-31.845,19.872-42.285l33.287-27.61c11.882-9.867,29.099-9.845,40.958.023l42.72,35.509-62.34,51.764c-15.408,12.82-15.431,36.47-.023,49.29l70.353,58.632c11.882,9.89,29.121,9.913,41.003.023l70.56-58.655c15.408-12.82,15.408-36.47,0-49.29l-34.254-28.475c-1.696-1.41-4.156-1.41-5.853-.001l-21.498,17.858c-2.204,1.83-2.204,5.212-.001,7.043l25.479,21.18c4.419,3.663,4.419,10.417,0,14.08l-49.039,40.797c-3.411,2.816-8.334,2.816-11.722-.023l-48.901-40.752c-4.395-3.663-4.395-10.417.023-14.08l39.584-32.876,9.432-7.83,34.501-28.663,27.404-22.757,15.362-12.775c11.882-9.867,29.098-9.867,40.958,0l33.219,27.587c12.546,10.44,19.826,25.916,19.826,42.262v84.227Z"/>
  <g>
    <path d="M564.529,85.844h88.102c2.253,0,4.079,1.826,4.079,4.079v26.664c0,2.253-1.826,4.079-4.079,4.079h-82.963c-17.46,0-31.614,14.154-31.614,31.614v28.186c0,2.253,1.826,4.079,4.079,4.079h91.742c2.253,0,4.079,1.826,4.079,4.079v24.73c0,2.253-1.826,4.079-4.079,4.079h-91.742c-2.253,0-4.079,1.826-4.079,4.079v94.053c0,2.253-1.826,4.079-4.079,4.079h-28.594c-2.253,0-4.079-1.826-4.079-4.079v-166.494c0-34.92,28.308-63.227,63.227-63.227Z"/>
    <path d="M964.133,162.621c-10.535-9.456-24.938-14.187-43.206-14.187-.501,0-.998.011-1.495.023-.485-.01-.969-.023-1.457-.023-17.911,0-34.172,7.058-46.157,18.543-1.298,1.243-3.447.331-3.447-1.466v-8.483c0-2.253-1.826-4.079-4.079-4.079h-26.665c-2.253,0-4.079,1.826-4.079,4.079v158.539c0,2.253,1.826,4.079,4.079,4.079h28.599c2.253,0,4.079-1.826,4.079-4.079v-94.263c0-6.016.968-11.714,2.902-17.089,1.935-5.37,4.619-10.046,8.061-14.026,3.436-3.975,7.628-7.094,12.575-9.351,4.942-2.257,10.53-3.386,16.766-3.386,10.963,0,19.024,2.957,24.183,8.867,5.159,5.915,7.95,15.426,8.383,28.535v100.711c0,2.253,1.826,4.079,4.079,4.079h28.599c2.253,0,4.079-1.826,4.079-4.079v-110.385c0-18.913-5.27-33.1-15.799-42.561Z"/>
    <path d="M806.573,156.974v177.753c0,34.928-28.306,63.234-63.222,63.234h-70.179c-2.256,0-4.087-1.831-4.087-4.087v-26.654c0-2.256,1.831-4.087,4.087-4.087h65.031c17.464,0,33.543-14.494,33.543-31.957v-24.063c0-1.809-2.166-2.758-3.483-1.507-11.981,11.456-28.228,18.502-46.116,18.502-.491,0-.972-.011-1.462-.022-.492.011-.994.022-1.485.022-18.268,0-32.672-4.723-43.213-14.181-10.53-9.469-15.8-23.65-15.8-42.565v-110.388c0-2.244,1.831-4.076,4.086-4.076h28.597c2.256,0,4.076,1.831,4.076,4.076v100.718c.436,13.109,3.227,22.622,8.386,28.529,5.158,5.918,13.22,8.866,24.185,8.866,6.231,0,11.825-1.128,16.761-3.383,4.946-2.256,9.145-5.371,12.573-9.346,3.439-3.986,6.13-8.654,8.062-14.025,1.932-5.382,2.903-11.077,2.903-17.095v-94.264c0-2.244,1.831-4.076,4.076-4.076h28.607c2.245,0,4.076,1.831,4.076,4.076Z"/>
    <path d="M1126.864,89.924v75.639c0,1.79-2.146,2.716-3.437,1.476-6.126-5.885-13.375-10.605-21.391-13.821-.267-.127-.549-.254-.855-.381-18.272-7.613-41.428-3.565-41.428-3.565l.006.015c-5.256.806-10.457,2.178-15.6,4.145-8.706,3.335-16.444,8.544-23.215,15.638-6.771,7.093-12.202,16.122-16.283,27.084-4.086,10.963-6.126,23.971-6.126,39.014,0,12.469,1.612,24.132,4.837,34.984,3.224,10.857,8.061,20.263,14.51,28.213,6.448,7.955,14.559,14.243,24.344,18.863,9.779,4.619,21.225,6.932,34.339,6.932.335,0,.665-.021,1-.025.537.013,1.074.025,1.614.025,17.919,0,34.186-7.065,46.173-18.559,1.297-1.244,3.448-.332,3.448,1.466v8.5c0,2.253,1.826,4.079,4.079,4.079h26.664c2.253,0,4.079-1.826,4.079-4.079V89.924c0-2.253-1.826-4.079-4.079-4.079h-28.599c-2.253,0-4.079,1.826-4.079,4.079ZM1046.417,277.406c-3.763-5.37-6.559-11.497-8.383-18.378-1.829-6.877-2.741-13.865-2.741-20.958,0-7.522.806-14.883,2.418-22.087,1.612-7.199,4.298-13.648,8.061-19.346,3.759-5.693,8.595-10.318,14.51-13.864,5.91-3.547,13.164-5.321,21.764-5.321,14.187,0,25.417,5.159,33.694,15.477,8.272,10.317,12.414,24.721,12.414,43.206,0,7.31-.917,14.459-2.741,21.442-1.829,6.988-4.625,13.275-8.383,18.862-3.763,5.592-8.6,10.106-14.51,13.542-5.915,3.441-12.953,5.159-21.119,5.159-7.955,0-14.832-1.612-20.636-4.837-5.804-3.224-10.59-7.522-14.348-12.897Z"/>
  </g>
</svg>