<svg xmlns="http://www.w3.org/2000/svg" width="160" height="41" viewBox="0 0 160 41" fill="none">
  <path d="M34.8227 24.1413C34.7816 22.4587 33.7384 21.5607 32.3817 21.5607C31.6536 21.5342 30.9424 21.7857 30.3914 22.2644C29.8403 22.7432 29.4902 23.4138 29.4114 24.1413H34.8227ZM32.4588 19.1607C36.0252 19.1607 37.9369 21.7878 37.9266 25.0755C37.9266 25.442 37.8495 26.2678 37.8495 26.2678L29.3087 26.242C29.4988 28.4149 31.1689 29.54 33.0087 29.5452C34.321 29.4931 35.582 29.019 36.6059 28.1929L37.7878 30.4123C36.3867 31.5712 34.6233 32.1962 32.8082 32.1774C28.6971 32.1774 26.1688 29.1839 26.1842 25.6484C26.1842 21.8239 28.7999 19.1504 32.4845 19.1607" fill="#262262"/>
  <path d="M41.3285 19.4858H44.2885V20.9464C44.2885 21.4109 44.2371 21.798 44.2371 21.798H44.2834C44.702 20.997 45.3365 20.3303 46.1143 19.874C46.8921 19.4177 47.7819 19.1902 48.6823 19.2174C51.4264 19.2174 52.9732 20.6729 52.963 23.9606V31.9503H49.8796V24.5903C49.8796 23.078 49.4994 22.0561 47.9217 22.0509C47.1722 22.0452 46.4417 22.2879 45.8434 22.7414C45.2451 23.1948 44.8124 23.8338 44.6123 24.5593C44.4467 25.0936 44.3703 25.6516 44.3862 26.2109V31.8884H41.3028L41.3285 19.4858Z" fill="#262262"/>
  <path d="M56.9096 19.5323H59.993L59.9519 31.9607H56.8685L56.9096 19.5323ZM58.292 14.371H58.6415C58.8476 14.3589 59.0541 14.3893 59.2481 14.4602C59.4422 14.5311 59.6198 14.6411 59.77 14.7835C59.9202 14.9258 60.0399 15.0975 60.1217 15.2879C60.2035 15.4784 60.2457 15.6836 60.2457 15.891C60.2457 16.0984 60.2035 16.3036 60.1217 16.4941C60.0399 16.6845 59.9202 16.8562 59.77 16.9985C59.6198 17.1408 59.4422 17.2508 59.2481 17.3218C59.0541 17.3927 58.8476 17.4231 58.6415 17.411H58.2972C58.0987 17.411 57.9023 17.3717 57.719 17.2955C57.5357 17.2192 57.3691 17.1075 57.2288 16.9665C57.0885 16.8256 56.9772 16.6584 56.9013 16.4743C56.8254 16.2902 56.7863 16.0928 56.7863 15.8936C56.7863 15.6943 56.8254 15.497 56.9013 15.3129C56.9772 15.1288 57.0885 14.9615 57.2288 14.8206C57.3691 14.6797 57.5357 14.5679 57.719 14.4917C57.9023 14.4154 58.0987 14.3762 58.2972 14.3762" fill="#262262"/>
  <path d="M71.8587 24.2599C71.8175 22.5774 70.7744 21.6793 69.4177 21.6793C68.6901 21.6529 67.9796 21.9046 67.4294 22.3834C66.8791 22.8623 66.5301 23.5329 66.4525 24.2599H71.8587ZM69.4999 19.2793C73.0663 19.2793 74.9728 21.9064 74.9625 25.1941C74.9625 25.5606 74.8855 26.3864 74.8855 26.3864H66.3446C66.5348 28.5541 68.2049 29.6845 70.0498 29.6896C71.3518 29.6327 72.6015 29.1589 73.6162 28.3374L74.7981 30.5567C73.3954 31.707 71.6344 32.3246 69.8237 32.3012C65.7125 32.3012 63.1842 29.3077 63.1945 25.7722C63.1945 21.9477 65.8102 19.2741 69.4999 19.2845" fill="#262262"/>
  <path d="M84.3976 29.7207C86.0934 29.7207 87.5066 28.3374 87.5169 25.8755C87.5169 23.5168 86.2681 21.9736 84.4335 21.9684C82.8302 21.9684 81.3194 23.1297 81.3142 25.8807C81.3142 27.8058 82.342 29.7104 84.3976 29.7207ZM78.4056 14.7529H81.4889V20.0897C81.4897 20.4345 81.4725 20.779 81.4375 21.122H81.4889C81.9124 20.5381 82.4735 20.0688 83.1219 19.7562C83.7704 19.4437 84.4859 19.2975 85.2044 19.331C88.5549 19.331 90.6773 22.0045 90.667 25.8549C90.667 29.8033 88.2466 32.3529 84.968 32.3426C84.2494 32.3601 83.5376 32.1992 82.8957 31.8741C82.2539 31.5491 81.7018 31.07 81.2885 30.4794H81.2371C81.2717 30.7619 81.2872 31.0464 81.2834 31.331V32.0381H78.3696L78.4056 14.7529Z" fill="#262262"/>
  <path d="M99.9889 29.7568C100.486 29.7581 100.979 29.6578 101.436 29.462C101.894 29.2662 102.307 28.9791 102.651 28.618C102.994 28.257 103.261 27.8295 103.435 27.3616C103.609 26.8937 103.687 26.3951 103.663 25.8962C103.691 25.3952 103.618 24.8938 103.446 24.4225C103.275 23.9511 103.01 23.5197 102.668 23.1545C102.325 22.7893 101.912 22.498 101.454 22.2983C100.996 22.0986 100.502 21.9947 100.002 21.993C99.503 21.9912 99.0083 22.0916 98.5487 22.2881C98.0891 22.4846 97.6741 22.773 97.329 23.1358C96.984 23.4986 96.7161 23.9281 96.5417 24.3982C96.3673 24.8684 96.29 25.3693 96.3146 25.8704C96.2888 26.371 96.3647 26.8718 96.5378 27.3421C96.7108 27.8123 96.9772 28.2424 97.3209 28.6059C97.6647 28.9695 98.0785 29.259 98.5371 29.4569C98.9958 29.6547 99.4898 29.7568 99.9889 29.7568ZM99.9889 19.3981C103.771 19.3981 106.798 22.1233 106.783 25.9271C106.767 29.731 103.73 32.4252 99.9684 32.4097C96.2067 32.3942 93.1594 29.7104 93.1748 25.8858C93.1902 22.0613 96.2119 19.3671 99.9889 19.3981Z" fill="#262262"/>
  <path d="M115.945 29.8083C116.443 29.8088 116.935 29.7081 117.392 29.5121C117.85 29.3161 118.263 29.0291 118.607 28.6682C118.951 28.3074 119.218 27.8803 119.393 27.4127C119.568 26.9451 119.647 26.4467 119.625 25.9477C119.643 25.4511 119.562 24.9559 119.385 24.4916C119.209 24.0274 118.941 23.6037 118.598 23.2458C118.254 22.8879 117.843 22.6032 117.388 22.4088C116.932 22.2143 116.443 22.1141 115.948 22.1141C115.453 22.1141 114.963 22.2143 114.508 22.4088C114.053 22.6032 113.641 22.8879 113.298 23.2458C112.955 23.6037 112.687 24.0274 112.51 24.4916C112.334 24.9559 112.252 25.4511 112.271 25.9477C112.246 26.4482 112.322 26.9486 112.496 27.4186C112.669 27.8885 112.935 28.3182 113.279 28.6817C113.622 29.0451 114.036 29.3346 114.494 29.5327C114.953 29.7308 115.446 29.8334 115.945 29.8341M115.945 19.4548C119.733 19.4548 122.754 22.1799 122.744 25.9838C122.734 29.7877 119.702 32.4561 115.919 32.4406C112.137 32.4251 109.131 29.7206 109.141 25.9116C109.152 22.1025 112.194 19.398 115.955 19.429" fill="#262262"/>
  <path d="M17.4687 24.0844L15.2538 26.2986C16.4058 26.2706 17.5579 26.3449 18.6969 26.5206C18.0055 27.5343 17.0609 28.3478 15.9578 28.8793C14.9599 29.2548 13.8567 29.2327 12.8745 28.8173C11.9024 28.4431 11.0521 27.8064 10.4174 26.9777C9.78265 26.1489 9.38811 25.1602 9.27727 24.1206C9.22132 23.7221 9.19213 23.3204 9.18991 22.918C9.19751 22.3958 9.26475 21.8763 9.39033 21.3696C9.65164 20.1793 10.3052 19.1124 11.2453 18.3415C12.1853 17.5706 13.3569 17.1409 14.5703 17.1219C15.6059 17.0817 16.6391 17.249 17.6097 17.6141C18.5802 17.9792 19.4686 18.5347 20.2231 19.2483L22.1759 17.3025C20.6805 15.6302 18.2138 14.1593 14.5652 14.2367C12.55 14.2395 10.6 14.954 9.05644 16.2551C7.51289 17.5563 6.47414 19.3613 6.122 21.3541C6.01244 21.8997 5.95395 22.4544 5.94727 23.0109C5.94677 23.4057 5.96736 23.8002 6.00894 24.1928C6.48686 28.9722 10.0584 32.1102 14.4676 32.1154C15.778 32.1928 18.3731 31.5993 20.6651 28.6315C20.828 29.7505 20.8899 30.882 20.8501 32.0122V32.0586L23.0752 29.8289V24.1051L17.4687 24.0844Z" fill="#262262"/>
  <path d="M125.987 14.882L129.065 14.8923L129.039 24.4355L133.69 19.78L137.066 19.7903L132.4 24.4562V24.5026L137.431 32.2187L133.89 32.2084L130.427 26.4226L129.024 27.8265L129.013 32.1929L125.93 32.1826L125.987 14.882Z" fill="#262262"/>
  <path d="M141.321 15.1606C142.842 15.6917 144.223 16.5641 145.359 17.7115C146.494 18.859 147.354 20.2512 147.873 21.7826L152.349 17.3335V10.7426H145.776L141.321 15.1606ZM137.503 16.0019L144.939 8.55933L154.497 8.59029L154.461 18.1903L147.01 25.6329C147.01 25.6329 146.496 17.2664 137.482 16.0019" fill="#27AAE1"/>
</svg>