<svg width="159" height="57" viewBox="0 0 159 57" fill="none" xmlns="http://www.w3.org/2000/svg">
<path d="M30.267 28.5036L12.3095 46.7829C11.3459 47.7656 9.79102 47.7656 8.82744 46.7829L1.16262 38.9863C0.199047 38.0036 0.199047 36.4093 1.16262 35.4484L19.1202 17.1691L30.267 28.5254V28.5036Z" fill="url(#paint0_linear_644_10419)"/>
<path d="M20.3898 25.9893L4.40316 42.2594L1.57812 39.3767L17.5648 23.1066L20.3898 25.9893Z" fill="url(#paint1_linear_644_10419)"/>
<path d="M16.1857 36.8669L1.16262 21.5795C0.199047 20.5968 0.199047 19.0025 1.16262 18.0416L8.82744 10.2451C9.79102 9.26231 11.3459 9.26231 12.3095 10.2451L27.3325 25.5324L16.1857 36.8887V36.8669Z" fill="url(#paint2_linear_644_10419)"/>
<path d="M32.8299 36.0324L22.2743 46.7772C21.3107 47.76 19.7559 47.76 18.7923 46.7772L11.1275 38.9807C10.1639 37.9979 10.1639 36.4036 11.1275 35.4427L21.683 24.6979L32.8299 36.0542V36.0324Z" fill="url(#paint3_linear_644_10419)"/>
<path d="M30.3546 25.9893L14.368 42.2594L11.543 39.3767L27.5296 23.1066L30.3546 25.9893Z" fill="url(#paint4_linear_644_10419)"/>
<path d="M35.5263 23.7198L22.2772 10.2451C21.3136 9.26231 19.7368 9.26231 18.7513 10.2451L11.1084 18.0198C10.1448 19.0025 10.1448 20.6186 11.1084 21.6014L23.2407 33.9623C26.4381 37.2163 26.4381 42.5014 23.2407 45.7554L29.0441 39.8588L35.5045 33.2853C38.0886 30.6428 38.0886 26.3623 35.5045 23.7198H35.5263Z" fill="url(#paint5_linear_644_10419)"/>
<path d="M49.5596 27.9551H57.1369V35.0309C55.4725 36.9091 52.9979 37.9792 50.4575 37.9792C45.6177 37.9792 41.5444 34.0263 41.5444 29.3528C41.5444 24.6792 45.6177 20.7482 50.4575 20.7482C55.2973 20.7482 55.4725 21.8401 57.1369 23.6746L53.7862 26.7102C52.976 25.6401 51.7715 25.0068 50.4794 25.0068C48.2019 25.0068 46.2747 26.9941 46.2747 29.3528C46.2747 31.7114 48.2019 33.7206 50.4794 33.7206C52.757 33.7206 52.0562 33.4803 52.7351 33.0436V31.4275H49.5815V27.9551H49.5596Z" fill="black"/>
<path d="M58.5605 31.4073C58.5605 27.8475 61.6922 24.8555 65.4151 24.8555C69.138 24.8555 72.2477 27.8475 72.2477 31.4073C72.2477 34.967 69.1161 37.9808 65.4151 37.9808C61.7141 37.9808 58.5605 34.967 58.5605 31.4073ZM68.043 31.4073C68.043 29.944 66.8386 28.7429 65.437 28.7429C64.0354 28.7429 62.809 29.9659 62.809 31.4073C62.809 32.8486 64.0135 34.0935 65.437 34.0935C66.8604 34.0935 68.043 32.8486 68.043 31.4073Z" fill="black"/>
<path d="M74.043 21.0286H78.5981V27.6022L84.0291 21.0286H89.4164L83.4378 27.9953L89.8763 37.6918H84.4233L80.2624 31.3803L78.5981 33.2803V37.6918H74.043V21.0286Z" fill="black"/>
<path d="M89.6138 25.1601H93.9718L95.7894 31.4279L97.5852 25.1601H101.308L103.126 31.4279L104.922 25.1601H109.28L105.14 37.6957H101.111L99.4685 31.2532L97.8699 37.6957H93.8404L89.6576 25.1601H89.6138Z" fill="black"/>
<path d="M110.378 21.405C110.378 20.1384 111.407 19.0246 112.721 19.0246C114.035 19.0246 115.021 20.1384 115.021 21.405C115.021 22.6717 113.991 23.8292 112.721 23.8292C111.451 23.8292 110.378 22.7154 110.378 21.405ZM110.422 25.1613H114.955V37.697H110.422V25.1613Z" fill="black"/>
<path d="M130.083 37.6918H125.002L122.769 33.5424L121.783 34.8091V37.6918H117.25V21.0286H121.783V29.5677L124.915 25.1562H129.995L125.747 30.5723L130.105 37.6918H130.083Z" fill="black"/>
<path d="M135.995 45.9524C133.695 45.9524 131.834 44.0961 131.834 41.803C131.834 39.5099 133.695 37.6536 135.995 37.6536C138.294 37.6536 140.156 39.5099 140.156 41.803C140.156 44.0961 138.294 45.9524 135.995 45.9524ZM135.995 38.0903C133.936 38.0903 132.272 39.7501 132.272 41.803C132.272 43.8559 133.936 45.5156 135.995 45.5156C138.053 45.5156 139.718 43.8559 139.718 41.803C139.718 39.7501 138.053 38.0903 135.995 38.0903Z" fill="black"/>
<path d="M136.983 43.9793L136.063 42.385H135.384V43.9793H134.486V39.3931H136.326C136.742 39.3931 137.114 39.5459 137.399 39.8298C137.706 40.1356 137.837 40.485 137.837 40.9C137.837 41.3149 137.749 41.4459 137.596 41.6862C137.443 41.9264 137.224 42.1011 136.961 42.2321L137.968 43.9574H136.983V43.9793ZM135.362 40.2448V41.5988H136.304C136.479 41.5988 136.611 41.5333 136.742 41.4023C136.873 41.2712 136.917 41.0965 136.917 40.9218C136.917 40.7471 136.851 40.5724 136.742 40.4413C136.611 40.3103 136.479 40.2448 136.304 40.2448H135.362Z" fill="black"/>
<defs>
<linearGradient id="paint0_linear_644_10419" x1="0.571338" y1="46.761" x2="11.7536" y2="35.7888" gradientUnits="userSpaceOnUse">
<stop stop-color="#EDDE5D"/>
<stop offset="1" stop-color="#F09819"/>
</linearGradient>
<linearGradient id="paint1_linear_644_10419" x1="-2.16669" y1="45.5353" x2="6.89704" y2="36.6436" gradientUnits="userSpaceOnUse">
<stop stop-color="#EDDE5D"/>
<stop offset="1" stop-color="#F09819"/>
</linearGradient>
<linearGradient id="paint2_linear_644_10419" x1="-1.61861" y1="8.03932" x2="23.5632" y2="32.7652" gradientUnits="userSpaceOnUse">
<stop stop-color="#EDCE4D"/>
<stop offset="1" stop-color="#F09819"/>
</linearGradient>
<linearGradient id="paint3_linear_644_10419" x1="43.3416" y1="14.8485" x2="15.7574" y2="41.9396" gradientUnits="userSpaceOnUse">
<stop offset="0.2" stop-color="#004B8D"/>
<stop offset="1" stop-color="#004B8D"/>
</linearGradient>
<linearGradient id="paint4_linear_644_10419" x1="27.8581" y1="25.9456" x2="-7.54858" y2="58.4762" gradientUnits="userSpaceOnUse">
<stop offset="0.2" stop-color="#002050"/>
<stop offset="0.663462" stop-color="white" stop-opacity="0"/>
</linearGradient>
<linearGradient id="paint5_linear_644_10419" x1="17.7334" y1="17.0981" x2="63.1809" y2="72.3236" gradientUnits="userSpaceOnUse">
<stop offset="0.2" stop-color="#0D4B88"/>
<stop offset="1" stop-color="white"/>
</linearGradient>
</defs>
</svg>
