<svg width="117" height="35" viewBox="0 0 117 35" fill="none" xmlns="http://www.w3.org/2000/svg">
<g clip-path="url(#clip0)">
<path d="M3.05933 19.9503L15.0662 31.9604C17.2863 34.1812 21.0824 32.6084 21.0824 29.4678V17.3675C21.0824 15.2941 18.5937 14.2366 17.1018 15.676L13.4356 19.2134C11.9438 20.6528 9.45502 19.5953 9.45502 17.522V5.53218C9.45502 2.42009 13.1923 0.8347 15.429 2.99799L27.5969 14.7668" stroke="url(#paint0_radial)" stroke-width="3.49"/>
<path fill-rule="evenodd" clip-rule="evenodd" d="M5.59952 12.0679C0.844466 12.0679 -1.53686 17.817 1.82546 21.1793L1.82773 21.1816L1.82525 21.1841L13.8321 33.1942C14.6682 34.0305 15.6827 34.5196 16.7312 34.6831C17.4703 34.7983 18.2115 34.7496 18.9062 34.5636C19.4538 34.4171 19.9769 34.1842 20.4529 33.8738L18.5471 30.9501C18.3807 31.0586 18.1964 31.1408 18.0038 31.1923C17.7594 31.2578 17.5086 31.2721 17.2688 31.2347C16.9414 31.1837 16.6059 31.0324 16.3003 30.7267L16.296 30.7225L16.3002 30.7184L4.29326 18.7115C3.12951 17.5478 3.95373 15.5579 5.59952 15.5579H7.70529V12.0679H5.59952Z" fill="url(#paint1_linear)"/>
<path fill-rule="evenodd" clip-rule="evenodd" d="M12.8005 3.75664C13.2813 3.70146 13.7853 3.83586 14.2158 4.25226L26.3837 16.0211L26.3854 16.0193C27.7129 17.3053 26.8027 19.5542 24.9538 19.5542H22.832V23.0442H24.9538C29.941 23.0442 32.3952 16.9756 28.8099 13.5089L16.642 1.74325L16.6419 1.7434C15.4209 0.562604 13.8643 0.121668 12.4026 0.289395C11.6148 0.379803 10.8572 0.645836 10.1891 1.0599L12.0275 4.02641C12.2628 3.88058 12.5292 3.78777 12.8005 3.75664Z" fill="url(#paint2_linear)"/>
<path d="M53.352 8.04899V27.224H49.92V19.034H42.432V27.224H39V8.04899H42.432V16.304H49.92V8.04899H53.352Z" fill="#323232"/>
<path d="M60.4283 27.51C58.8856 27.51 57.6289 27.1503 56.6583 26.431C55.6963 25.703 55.2153 24.689 55.2153 23.389C55.2153 22.4443 55.4709 21.6687 55.9823 21.062C56.5023 20.4467 57.1999 19.9743 58.0753 19.645C58.9506 19.3157 59.9213 19.099 60.9873 18.995C62.5646 18.839 63.6653 18.6917 64.2893 18.553C64.9219 18.4057 65.2383 18.1717 65.2383 17.851V17.825C65.2383 17.2183 64.9653 16.7503 64.4193 16.421C63.8733 16.0917 63.1019 15.927 62.1053 15.927C61.0566 15.927 60.2506 16.1133 59.6873 16.486C59.1326 16.8587 58.8553 17.4393 58.8553 18.228H55.4753C55.4753 17.1447 55.7613 16.2303 56.3333 15.485C56.9139 14.731 57.7069 14.159 58.7123 13.769C59.7176 13.379 60.8573 13.184 62.1313 13.184C63.3099 13.184 64.3933 13.3617 65.3813 13.717C66.3779 14.0723 67.1753 14.6097 67.7733 15.329C68.3713 16.0483 68.6703 16.9453 68.6703 18.02V24.312C68.6703 24.6413 68.6789 24.9663 68.6963 25.287C68.7223 25.599 68.7699 25.8807 68.8393 26.132C68.9259 26.418 69.0299 26.6563 69.1513 26.847C69.2726 27.029 69.3679 27.1547 69.4373 27.224H66.0573C65.9966 27.1633 65.9099 27.0463 65.7973 26.873C65.6933 26.691 65.5979 26.483 65.5113 26.249C65.4506 26.0757 65.4029 25.8937 65.3683 25.703C64.8569 26.2663 64.1679 26.7083 63.3013 27.029C62.4433 27.3497 61.4856 27.51 60.4283 27.51ZM61.2603 24.819C61.9709 24.819 62.6296 24.6977 63.2363 24.455C63.8516 24.2123 64.3413 23.8397 64.7053 23.337C65.0779 22.8257 65.2643 22.1713 65.2643 21.374V20.724C64.7529 20.8627 64.1896 20.9797 63.5743 21.075C62.9589 21.1617 62.3436 21.2353 61.7283 21.296C60.7056 21.4 59.9343 21.582 59.4143 21.842C58.9029 22.0933 58.6473 22.5137 58.6473 23.103C58.6473 24.247 59.5183 24.819 61.2603 24.819Z" fill="#323232"/>
<path d="M76.8186 27.484C76.3246 27.484 75.822 27.4363 75.3106 27.341C74.808 27.2543 74.34 27.081 73.9066 26.821C73.482 26.5523 73.1396 26.1667 72.8796 25.664C72.6196 25.1613 72.4896 24.4983 72.4896 23.675V16.148H69.2266V13.418H70.5526C71.1506 13.418 71.584 13.379 71.8526 13.301C72.13 13.2143 72.3033 13.0063 72.3726 12.677C72.4506 12.3477 72.4896 11.8103 72.4896 11.065V8.86799H75.9216V13.418H80.0296V16.148H75.9216V22.635C75.9216 23.285 75.9953 23.805 76.1426 24.195C76.2986 24.5763 76.6713 24.767 77.2606 24.767C77.538 24.767 77.798 24.741 78.0406 24.689C78.292 24.637 78.4783 24.585 78.5996 24.533V27.211C78.4263 27.2717 78.1836 27.3323 77.8716 27.393C77.5683 27.4537 77.2173 27.484 76.8186 27.484Z" fill="#323232"/>
<path d="M83.2093 10.87C82.6547 10.87 82.1693 10.7227 81.7533 10.428C81.346 10.1247 81.1423 9.70432 81.1423 9.16699C81.1423 8.63832 81.346 8.22666 81.7533 7.93199C82.1693 7.63732 82.6547 7.48999 83.2093 7.48999C83.7553 7.48999 84.232 7.63732 84.6393 7.93199C85.0467 8.22666 85.2503 8.63832 85.2503 9.16699C85.2503 9.71299 85.0467 10.1333 84.6393 10.428C84.232 10.7227 83.7553 10.87 83.2093 10.87ZM81.5063 27.224V13.418H84.8863V27.224H81.5063Z" fill="#323232"/>
<path d="M94.0595 27.51C92.5948 27.51 91.3035 27.211 90.1855 26.613C89.0761 26.015 88.2051 25.1743 87.5725 24.091C86.9398 23.0077 86.6235 21.738 86.6235 20.282C86.6235 18.8347 86.9398 17.578 87.5725 16.512C88.2051 15.446 89.0761 14.627 90.1855 14.055C91.3035 13.4743 92.5948 13.184 94.0595 13.184C95.1428 13.184 96.1048 13.3443 96.9455 13.665C97.7948 13.9857 98.5098 14.4147 99.0905 14.952C99.6711 15.4807 100.109 16.0657 100.403 16.707C100.707 17.3483 100.858 17.981 100.858 18.605V18.709H97.4655C97.4655 18.657 97.4611 18.6093 97.4525 18.566C97.4438 18.514 97.4351 18.462 97.4265 18.41C97.3138 17.7513 96.9715 17.188 96.3995 16.72C95.8275 16.252 95.0345 16.018 94.0205 16.018C92.9285 16.018 92.0011 16.3777 91.2385 17.097C90.4845 17.8077 90.1075 18.8693 90.1075 20.282C90.1075 21.686 90.4845 22.7693 91.2385 23.532C92.0011 24.2947 92.9285 24.676 94.0205 24.676C95.1731 24.676 96.0181 24.416 96.5555 23.896C97.0928 23.376 97.3918 22.7563 97.4525 22.037H100.858C100.858 22.895 100.598 23.7443 100.078 24.585C99.5671 25.4257 98.8045 26.1233 97.7905 26.678C96.7851 27.2327 95.5415 27.51 94.0595 27.51Z" fill="#323232"/>
<path d="M107.38 27.51C105.837 27.51 104.58 27.1503 103.61 26.431C102.648 25.703 102.167 24.689 102.167 23.389C102.167 22.4443 102.422 21.6687 102.934 21.062C103.454 20.4467 104.151 19.9743 105.027 19.645C105.902 19.3157 106.873 19.099 107.939 18.995C109.516 18.839 110.617 18.6917 111.241 18.553C111.873 18.4057 112.19 18.1717 112.19 17.851V17.825C112.19 17.2183 111.917 16.7503 111.371 16.421C110.825 16.0917 110.053 15.927 109.057 15.927C108.008 15.927 107.202 16.1133 106.639 16.486C106.084 16.8587 105.807 17.4393 105.807 18.228H102.427C102.427 17.1447 102.713 16.2303 103.285 15.485C103.865 14.731 104.658 14.159 105.664 13.769C106.669 13.379 107.809 13.184 109.083 13.184C110.261 13.184 111.345 13.3617 112.333 13.717C113.329 14.0723 114.127 14.6097 114.725 15.329C115.323 16.0483 115.622 16.9453 115.622 18.02V24.312C115.622 24.6413 115.63 24.9663 115.648 25.287C115.674 25.599 115.721 25.8807 115.791 26.132C115.877 26.418 115.981 26.6563 116.103 26.847C116.224 27.029 116.319 27.1547 116.389 27.224H113.009C112.948 27.1633 112.861 27.0463 112.749 26.873C112.645 26.691 112.549 26.483 112.463 26.249C112.402 26.0757 112.354 25.8937 112.32 25.703C111.808 26.2663 111.119 26.7083 110.253 27.029C109.395 27.3497 108.437 27.51 107.38 27.51ZM108.212 24.819C108.922 24.819 109.581 24.6977 110.188 24.455C110.803 24.2123 111.293 23.8397 111.657 23.337C112.029 22.8257 112.216 22.1713 112.216 21.374V20.724C111.704 20.8627 111.141 20.9797 110.526 21.075C109.91 21.1617 109.295 21.2353 108.68 21.296C107.657 21.4 106.886 21.582 106.366 21.842C105.854 22.0933 105.599 22.5137 105.599 23.103C105.599 24.247 106.47 24.819 108.212 24.819Z" fill="#323232"/>
</g>
<defs>
<radialGradient id="paint0_radial" cx="0" cy="0" r="1" gradientUnits="userSpaceOnUse" gradientTransform="translate(15.3819 17.5) rotate(90) scale(15.5 13.3819)">
<stop stop-color="#FF4081"/>
<stop offset="0.927083" stop-color="#623CEA"/>
</radialGradient>
<linearGradient id="paint1_linear" x1="8.57392" y1="13.6742" x2="3.95207" y2="17.5646" gradientUnits="userSpaceOnUse">
<stop stop-color="#623CEA" stop-opacity="0"/>
<stop offset="1" stop-color="#623CEA"/>
</linearGradient>
<linearGradient id="paint2_linear" x1="27.5387" y1="18.3134" x2="22.8433" y2="22.7812" gradientUnits="userSpaceOnUse">
<stop stop-color="#623CEA"/>
<stop offset="1" stop-color="#623CEA" stop-opacity="0"/>
</linearGradient>
<clipPath id="clip0">
<rect width="116.389" height="35" fill="white"/>
</clipPath>
</defs>
</svg>
