<?xml version="1.0" encoding="utf-8"?>
<svg xmlns="http://www.w3.org/2000/svg" width="102" height="15" viewBox="0 0 102 15" fill="none">
<path d="M23.4263 5.17023C22.8118 1.30117 17.8203 -0.461451 13.1549 0.275608C10.7363 0.658958 7.5608 2.2714 5.1125 4.06168C5.03346 3.95102 4.90304 3.81665 4.69951 3.73366C4.31616 3.57755 0.342364 3.29893 0.0439834 3.94509C-0.252421 4.5873 1.02607 7.07908 1.58133 7.66596C1.40349 8.0335 1.3284 8.3714 1.37385 8.66188C1.42128 8.95828 1.59714 9.25666 1.87576 9.55109C1.52996 10.2901 1.08733 13.0408 1.5675 13.5585C2.05163 14.0802 5.74483 12.5882 6.06099 12.3215C6.25465 12.1575 6.33566 11.9579 6.36926 11.8255C7.57463 12.193 8.89067 12.4835 10.185 12.6594L11.1987 13.6593C11.5346 13.9912 11.9851 14.1849 12.4574 14.1928C12.9593 14.2027 13.6904 14.177 14.5915 14.0347C15.6151 13.8727 16.5458 13.6099 17.1584 13.4123C17.6247 13.2621 18.012 12.9341 18.2393 12.4993L18.7708 11.4738C21.6973 10.1103 23.8532 7.86949 23.4263 5.17023ZM13.8485 1.8999C17.7492 1.28141 20.7947 2.75637 21.8163 4.52491C20.4252 4.06648 18.4211 3.51234 14.2259 4.17629C10.1632 4.82048 6.51153 6.12466 4.22329 7.13441C5.89698 5.43107 9.75419 2.54804 13.8485 1.8999ZM14.8346 10.958C10.6572 11.62 6.14596 10.0372 4.22329 9.00373C6.6874 9.19541 10.7659 9.29816 14.9334 8.63816C18.4665 8.07895 20.8204 7.07202 22.0851 6.22232C21.599 8.17464 18.7688 10.3336 14.8365 10.956L14.8346 10.958Z" fill="#8000FF"/>
<path d="M29.0095 14.195L29.0834 0.207025H31.2617L31.1927 5.68917C31.7381 4.2304 32.8051 3.42246 34.4615 3.42246C36.7759 3.42246 38.1819 4.92612 38.1802 7.75391L38.1765 14.195H35.9301L35.9338 7.86612C35.9348 6.20536 35.2319 5.33009 33.7797 5.33009C32.1232 5.33009 31.1921 6.6991 31.1907 9.12292L31.1878 14.195H29.0095Z" fill="#8000FF"/>
<path d="M44.9861 14.1962C41.696 14.1962 39.6551 12.0417 39.6569 8.7875C39.6588 5.51086 41.8612 3.24414 44.9017 3.24414C48.0557 3.24414 49.9378 5.33132 49.9359 8.67529L49.9354 9.48322H41.8802C42.0153 11.3011 43.1719 12.4008 44.9872 12.4008C46.8024 12.4008 47.5971 11.5255 48.0061 10.4931L49.9798 11.2562C49.2527 12.8945 47.7317 14.1962 44.9861 14.1962ZM41.8358 7.82246H47.6446C47.5549 6.0046 46.5344 5.03956 44.8553 5.03956C43.2442 5.03956 42.0637 6.09437 41.8358 7.82246Z" fill="#8000FF"/>
<path d="M54.8348 14.1961C52.543 14.1961 51.1369 12.9618 51.138 11.1439C51.1393 8.76498 52.9322 8.22636 55.315 7.71017C57.1305 7.32865 58.2424 7.21643 58.4697 6.63292L58.4697 6.47582C58.4702 5.60056 57.8126 4.92727 56.1789 4.92727C54.5905 4.92727 53.7279 5.64544 53.6364 6.83491L53.6363 6.96956H51.39C51.4594 4.59063 53.3663 3.1543 56.2026 3.1543C58.9482 3.1543 60.5812 4.3662 60.5796 7.05933L60.5766 12.2885L60.5983 13.9268H58.4427L58.4437 12.3334C57.7168 13.5902 56.3777 14.1961 54.8348 14.1961ZM55.2442 12.5129C56.8098 12.5129 58.2852 11.7274 58.4679 9.66269L58.4687 8.36101C57.8104 8.80987 56.6757 8.98941 55.6318 9.23628C54.4063 9.55048 53.4077 9.93201 53.4071 11.0541C53.4066 11.9294 54.0643 12.5129 55.2442 12.5129Z" fill="#8000FF"/>
<path d="M66.5758 14.1959C63.8302 14.1959 61.7666 12.1536 61.7685 8.71989C61.7705 5.35348 63.8139 3.15409 66.6049 3.15409C68.0798 3.15409 69.282 3.84982 70.0528 4.97196L70.1057 7.21955e-06H72.284L72.2259 13.9715H70.0476L70.0485 12.4229C69.2991 13.5451 68.0734 14.1959 66.5758 14.1959ZM67.1442 12.3107C68.9821 12.3107 70.1629 10.8295 70.1641 8.71989L70.1642 8.54035C70.1654 6.45318 69.0317 5.03929 67.1484 5.03929C65.3331 5.03929 64.107 6.36341 64.1057 8.65257L64.1056 8.80966C64.1043 11.0764 65.3062 12.3107 67.1442 12.3107Z" fill="#8000FF"/>
<path d="M79.1072 14.1962C75.9532 14.1962 73.7762 11.9744 73.7781 8.74261C73.7799 5.51086 76.0049 3.24414 79.1589 3.24414C82.3129 3.24414 84.5126 5.51086 84.5108 8.74261C84.5089 11.9295 82.2612 14.1962 79.1072 14.1962ZM79.1083 12.3335C81.037 12.3335 82.2631 10.9644 82.2643 8.80994L82.2644 8.72017C82.2657 6.49834 81.0639 5.10689 79.1579 5.10689C77.2518 5.10689 76.0257 6.49834 76.0245 8.72017L76.0244 8.80994C76.0231 10.9869 77.2023 12.3335 79.1083 12.3335Z" fill="#8000FF"/>
<path d="M89.5004 14.1963C87.0952 14.1963 85.6666 12.558 85.6681 9.8649L85.6719 3.42383H87.9183L87.9146 9.75268C87.9136 11.391 88.6392 12.2887 90.0914 12.2887C91.8613 12.2887 92.679 10.785 92.6804 8.49589L92.6833 3.42383H94.907L94.9008 14.0168H92.6772L92.6782 12.1989C92.0875 13.5006 91.0433 14.1963 89.5004 14.1963Z" fill="#8000FF"/>
<path d="M99.015 14.1967C97.0636 14.1069 96.5649 13.2316 96.5432 11.5484L96.5467 5.48889L96.5564 4.80498L96.5466 4.12447L96.5478 3.6037L96.549 1.53897L98.7054 0.214844L98.7034 3.6037H101.018L101.017 5.48889H98.7023L98.699 11.2791C98.6986 11.9524 98.9707 12.2666 99.6514 12.2666H100.922L100.921 14.1967H99.015Z" fill="#8000FF"/>
</svg>