<svg width="119" height="45" viewBox="0 0 119 45" fill="none" xmlns="http://www.w3.org/2000/svg">
<path fill-rule="evenodd" clip-rule="evenodd" d="M10.7567 9.39162C10.626 9.43768 10.4654 9.52684 10.4002 9.58973L10.2812 9.70399V19.5919C10.2812 28.5758 10.2886 29.4937 10.3604 29.6328C10.5873 30.0718 10.7231 30.1146 11.8825 30.1146C13.6558 30.1146 13.525 30.4568 13.5292 25.8091C13.5327 21.9128 13.5802 21.1638 13.8671 20.4948C13.8904 20.4404 13.9356 20.3297 13.968 20.2485C14.6088 18.6333 16.7233 17.974 18.496 18.837C19.0013 19.0829 19.7263 20.0215 19.7263 20.4298C19.7263 20.4826 19.7466 20.5638 19.7717 20.6105C19.9119 20.8724 19.9724 21.9184 19.9748 24.1197C19.9774 26.2853 19.9943 26.6647 20.1176 27.2853C20.4641 29.0305 21.6713 30.1288 23.5633 30.4193C24.3835 30.5454 26.0116 30.4836 26.6134 30.3038C28.4195 29.7636 29.2604 28.7494 29.544 26.7686C29.6429 26.0778 29.6438 17.643 29.5452 17.3209C29.3315 16.6241 28.9292 16.1689 28.2858 15.8949C27.7542 15.6684 26.8454 15.7151 26.5532 15.9835L26.4189 16.1066L26.4056 21.5485L26.3921 26.9901L26.2837 27.2221C25.6536 28.5734 23.7312 28.4905 23.2537 27.0913C23.2215 26.9968 23.1893 25.6948 23.1672 23.5948C23.1347 20.5012 23.1247 20.2152 23.0335 19.8057C22.8706 19.0746 22.7324 18.6173 22.5958 18.3554C22.56 18.2869 22.5308 18.2164 22.5305 18.1987C22.5305 18.1807 22.4384 18.0035 22.3263 17.8051C21.4249 16.2093 20.0114 15.3936 18.0126 15.3162C16.3606 15.2522 15.015 15.9286 13.8031 17.4316C13.6995 17.5601 13.5962 17.6652 13.5734 17.6652C13.5504 17.6652 13.5256 16.165 13.5176 14.3316L13.5035 10.9977L13.3916 10.7211C12.9598 9.6535 11.7482 9.04205 10.7567 9.39162ZM27.4496 9.98535C26.0898 10.5088 25.7076 12.0576 26.6913 13.0559C27.7415 14.1214 29.4936 13.5973 29.8295 12.1173C30.1323 10.7828 28.7028 9.50263 27.4496 9.98535Z" fill="white"/>
<path fill-rule="evenodd" clip-rule="evenodd" d="M15.2354 0.772054C14.808 0.781797 14.4698 0.808073 14.4834 0.830217C14.5061 0.867122 13.0241 0.949199 12.5766 0.935913C12.4725 0.93296 12.3618 0.950675 12.3305 0.975475C12.2856 1.0109 11.605 1.0667 10.8101 1.10007C10.7629 1.10213 10.7239 1.12103 10.7239 1.14229C10.7239 1.16354 10.569 1.18096 10.3798 1.18096C10.1903 1.18096 10.0353 1.20015 10.0353 1.22348C10.0353 1.2468 9.77532 1.28194 9.45743 1.30142C9.13955 1.3212 8.85709 1.35486 8.83023 1.37641C8.80307 1.39826 8.58171 1.43162 8.3382 1.45081C8.0947 1.46971 7.87333 1.50248 7.84618 1.52344C7.81932 1.54411 7.66584 1.576 7.50527 1.59401C7.34471 1.61202 7.18975 1.64567 7.16082 1.669C7.1319 1.69203 7.01443 1.72657 6.89961 1.74546C6.78479 1.76436 6.67824 1.80008 6.66289 1.82488C6.64784 1.84968 6.59589 1.86976 6.54808 1.86976C6.50026 1.86976 6.35209 1.92527 6.21898 1.99258C6.08586 2.06019 5.95363 2.1157 5.9253 2.1157C5.87807 2.11599 5.48079 2.31233 5.06964 2.53907C4.97667 2.59044 4.85624 2.67134 4.80223 2.71858C4.74822 2.76611 4.68948 2.80479 4.67147 2.80479C4.65377 2.80479 4.58588 2.84878 4.52095 2.90222C4.39167 3.0091 4.40082 3.00171 4.08293 3.24736C3.81995 3.45107 3.00089 4.27037 3.00089 4.33C3.00089 4.35303 2.93448 4.43836 2.85331 4.51955C2.77214 4.60074 2.70573 4.68075 2.70573 4.69758C2.70573 4.71441 2.68301 4.75486 2.65556 4.78733C2.45544 5.02471 2.41058 5.09114 2.41058 5.14959C2.41058 5.1862 2.38874 5.21602 2.36217 5.21602C2.33561 5.21602 2.30019 5.27123 2.28307 5.33884C2.26625 5.40675 2.23437 5.46196 2.21223 5.46196C2.19039 5.46196 2.15763 5.52839 2.13992 5.60958C2.12221 5.69077 2.08709 5.7572 2.06229 5.7572C2.03721 5.7572 2.01684 5.79027 2.01684 5.83101C2.01684 5.87146 1.9947 5.90482 1.96784 5.90482C1.94069 5.90482 1.92091 5.92135 1.92387 5.94173C1.93449 6.01613 1.85657 6.20006 1.81436 6.20006C1.79045 6.20006 1.77097 6.24996 1.77068 6.31078C1.77038 6.3716 1.73733 6.48497 1.69689 6.56262C1.65645 6.64027 1.61425 6.75275 1.60333 6.81269C1.5927 6.87262 1.54843 7.02585 1.50504 7.1531C1.46195 7.28035 1.42653 7.43771 1.42653 7.50296C1.42653 7.56791 1.40616 7.63375 1.38137 7.64911C1.35658 7.66475 1.32027 7.89858 1.30109 8.16873C1.2822 8.43917 1.24707 8.66031 1.22346 8.66031C1.19985 8.66031 1.18066 8.7725 1.18066 8.90978C1.18066 9.04678 1.15971 9.19794 1.13432 9.24547C1.10894 9.2933 1.07234 9.61275 1.05345 9.95582C1.03426 10.2989 1.00239 10.5794 0.982317 10.5794C0.950735 10.5794 0.860122 12.0571 0.88462 12.1731C0.889638 12.1973 0.871929 12.2307 0.844774 12.2472C0.816734 12.2646 0.78102 12.7178 0.760655 13.3106C0.739108 13.9496 0.704575 14.3703 0.670337 14.4128C0.59153 14.5111 0.591235 25.4445 0.670042 25.5431C0.70428 25.5862 0.738223 26.0205 0.759769 26.6942C0.778954 27.2891 0.812012 27.7984 0.833263 27.8259C0.854514 27.8533 0.887572 28.1415 0.906462 28.4663C0.925647 28.791 0.950145 29.1341 0.961066 29.2289C0.971987 29.3236 1.00386 29.6667 1.03161 29.9915C1.05935 30.3162 1.10451 30.6623 1.13137 30.76C1.15853 30.8577 1.18066 31.0405 1.18066 31.1659C1.18066 31.2914 1.19985 31.3939 1.22346 31.3939C1.24707 31.3939 1.2822 31.6156 1.30138 31.8866C1.32086 32.1647 1.35598 32.3667 1.38137 32.351C1.40616 32.3357 1.42741 32.3631 1.42859 32.4122C1.43243 32.6026 1.48851 32.8961 1.5254 32.9194C1.54695 32.933 1.57824 33.0325 1.59536 33.1408C1.61248 33.2492 1.64789 33.3451 1.67416 33.354C1.70043 33.3631 1.72168 33.4127 1.72168 33.4647C1.72168 33.5164 1.78809 33.6994 1.86926 33.8712C1.95043 34.0431 2.01684 34.2093 2.01684 34.2403C2.01684 34.2716 2.03721 34.2973 2.06229 34.2973C2.08709 34.2973 2.12162 34.3616 2.13903 34.4408C2.15645 34.5196 2.20249 34.5964 2.24145 34.6114C2.28012 34.6262 2.312 34.6725 2.312 34.7139C2.312 34.7552 2.33177 34.7891 2.35597 34.7891C2.38018 34.7891 2.41382 34.8447 2.43065 34.9123C2.44777 34.9799 2.48319 35.0354 2.50975 35.0354C2.53631 35.0354 2.55816 35.0602 2.55816 35.0903C2.55816 35.1428 2.71193 35.3451 2.9761 35.64C3.04369 35.7156 3.09918 35.7974 3.09918 35.8219C3.09918 35.8464 3.20189 35.9618 3.32704 36.0782C3.45248 36.1948 3.61688 36.351 3.69244 36.4254C3.76771 36.4998 3.8533 36.5606 3.88252 36.5606C3.91174 36.5606 3.93536 36.594 3.93536 36.6344C3.93536 36.6751 3.9569 36.7082 3.98288 36.7082C4.00914 36.7082 4.09828 36.7746 4.18152 36.8558C4.26445 36.937 4.36481 37.0035 4.40436 37.0035C4.4442 37.0035 4.47667 37.0265 4.47667 37.0542C4.47667 37.0823 4.51534 37.1195 4.56256 37.1369C4.61008 37.1546 4.68741 37.2125 4.73493 37.2659C4.78216 37.3194 4.82082 37.3477 4.82082 37.3291C4.82082 37.3105 4.90347 37.3515 5.00441 37.42C5.10535 37.4885 5.21427 37.5449 5.24644 37.5449C5.27832 37.5449 5.31196 37.5615 5.32111 37.5818C5.34177 37.6288 5.77241 37.8402 5.84708 37.8402C5.87778 37.8402 5.90316 37.862 5.90316 37.8886C5.90316 37.9155 5.99171 37.9515 6.10003 37.9689C6.20806 37.986 6.29661 38.0161 6.29661 38.0353C6.29661 38.0545 6.42411 38.1097 6.57966 38.1581C6.73521 38.2063 6.89843 38.2638 6.9427 38.2857C6.98668 38.3078 7.1195 38.34 7.23786 38.3577C7.35592 38.3754 7.47487 38.4079 7.50202 38.4304C7.52888 38.4528 7.73933 38.4867 7.96926 38.5062C8.19918 38.5254 8.40963 38.5585 8.43649 38.5794C8.46364 38.6001 8.70715 38.6332 8.97781 38.6527C9.24817 38.6722 9.49167 38.7046 9.51883 38.725C9.56251 38.7575 10.2012 38.8248 10.675 38.8472C10.7694 38.8517 10.8801 38.8694 10.9208 38.8868C10.9613 38.9042 11.1608 38.9299 11.3636 38.9441C12.069 38.9937 12.2797 39.012 12.4483 39.0383C12.5415 39.0527 12.8172 39.0687 13.0607 39.0737C13.3042 39.0784 13.5256 39.0991 13.5527 39.1191C13.5796 39.1392 14.0223 39.1711 14.5365 39.1897C15.0506 39.2083 15.4786 39.2446 15.4875 39.27C15.4966 39.2954 15.532 39.3164 15.5666 39.3164C15.643 39.3164 15.8361 39.4932 15.9461 39.6642C16.0164 39.7734 16.0297 40.0046 16.0444 41.3822C16.0574 42.5997 16.076 42.9788 16.1229 42.9945C16.1569 43.0057 16.1843 43.0515 16.1843 43.096C16.1843 43.2274 16.4948 43.647 16.6147 43.678C16.6752 43.6933 16.7141 43.7237 16.7009 43.745C16.6799 43.7792 16.7903 43.8519 16.8812 43.8637C16.8995 43.866 16.9308 43.8846 16.9512 43.9047C16.9712 43.9251 17.0285 43.9416 17.0781 43.9416C17.1277 43.9416 17.1684 43.9638 17.1684 43.9909C17.1684 44.0201 17.3558 44.0402 17.6327 44.0402C17.8892 44.0402 18.1108 44.0181 18.1276 43.9909C18.1442 43.9638 18.1994 43.9416 18.2498 43.9416C18.3006 43.9416 18.375 43.9085 18.4157 43.8678C18.4562 43.8274 18.5037 43.794 18.5214 43.794C18.5388 43.794 18.6197 43.7276 18.7008 43.6464C18.782 43.5652 18.8703 43.4988 18.8968 43.4988C18.9234 43.4988 18.9314 43.4766 18.9145 43.4497C18.898 43.4226 18.9048 43.4004 18.9299 43.4004C18.9877 43.4004 19.4311 42.9594 19.4311 42.9018C19.4311 42.8785 19.4644 42.8593 19.5048 42.8593C19.5456 42.8593 19.5786 42.8265 19.5786 42.7863C19.5786 42.7462 19.6338 42.6995 19.7014 42.6827C19.7687 42.6656 19.8127 42.6337 19.7991 42.6116C19.7852 42.5891 19.8174 42.5572 19.8705 42.5404C19.9237 42.5236 19.9815 42.4648 19.9989 42.4102C20.0164 42.3553 20.0429 42.3228 20.058 42.3382C20.0733 42.3532 20.1377 42.2953 20.2011 42.2091C20.2646 42.1232 20.3165 42.0677 20.3165 42.086C20.3165 42.1046 20.9488 41.4888 21.7215 40.7179C23.0308 39.4117 23.1857 39.2801 23.3788 39.3105C23.3991 39.3137 23.4157 39.2975 23.4157 39.2744C23.4157 39.2511 24.0187 39.2163 24.7557 39.1965C25.4927 39.1767 26.1072 39.1437 26.1208 39.1224C26.1346 39.1014 26.5437 39.0681 27.0299 39.0486C27.516 39.0291 27.9516 38.9928 27.9983 38.9677C28.0446 38.9429 28.2403 38.9225 28.433 38.9225C28.6857 38.9225 28.7736 38.9069 28.7486 38.8658C28.7235 38.8251 28.7568 38.8174 28.8648 38.8393C28.9481 38.8558 29.1444 38.8487 29.3008 38.823C29.4572 38.7976 29.7016 38.7731 29.8439 38.7684C29.9861 38.7637 30.093 38.7445 30.0812 38.7256C30.0644 38.6984 30.526 38.6494 31.1266 38.6146C31.1606 38.6125 31.1883 38.5954 31.1883 38.5762C31.1883 38.5573 31.3875 38.526 31.631 38.5071C31.8745 38.4879 32.0738 38.4549 32.0738 38.4333C32.0738 38.4118 32.2066 38.379 32.3689 38.3607C32.5313 38.3424 32.6641 38.3064 32.6641 38.2804C32.6641 38.2547 32.7373 38.2337 32.8267 38.2337C32.9162 38.2337 33.0324 38.2012 33.085 38.1614C33.1375 38.1218 33.2193 38.0885 33.2665 38.0876C33.314 38.0867 33.3527 38.066 33.3527 38.0412C33.3527 38.0164 33.4412 37.9813 33.5496 37.963C33.6576 37.9447 33.7461 37.9113 33.7461 37.8889C33.7461 37.8664 33.8125 37.8334 33.8937 37.8154C33.9749 37.7976 34.0413 37.7625 34.0413 37.7377C34.0413 37.7129 34.0829 37.6925 34.1337 37.6925C34.1844 37.6925 34.2517 37.6615 34.2833 37.6235C34.3149 37.5857 34.3949 37.5408 34.4616 37.5243C34.528 37.5074 34.5826 37.472 34.5826 37.4454C34.5826 37.4189 34.6157 37.3973 34.6564 37.3973C34.6968 37.3973 34.7302 37.3737 34.7302 37.345C34.7302 37.3164 34.7523 37.3067 34.7792 37.3235C34.8063 37.34 34.8285 37.3303 34.8285 37.3016C34.8285 37.273 34.8615 37.2497 34.9023 37.2497C34.943 37.2497 34.9766 37.2329 34.9772 37.2128C34.9781 37.1924 35.0667 37.1216 35.1741 37.0551C35.2815 36.9887 35.3695 36.9169 35.3695 36.8951C35.3695 36.8735 35.394 36.8558 35.4238 36.8558C35.4536 36.8558 35.5788 36.7563 35.7024 36.6344C35.8258 36.5128 35.9468 36.413 35.971 36.413C35.9952 36.413 36.0026 36.3932 35.9879 36.369C35.9728 36.3451 36.0144 36.3117 36.0799 36.2952C36.1455 36.2786 36.2139 36.2196 36.2316 36.1638C36.2494 36.108 36.3837 35.9441 36.53 35.8001C36.6764 35.656 36.7963 35.5134 36.7963 35.4836C36.7963 35.4534 36.8184 35.4289 36.8453 35.4289C36.8724 35.4289 36.8946 35.3991 36.8946 35.3628C36.8946 35.3265 36.9388 35.2565 36.9929 35.2075C37.0472 35.1585 37.0914 35.0906 37.0914 35.0563C37.0914 35.0221 37.1103 34.987 37.1334 34.9778C37.2352 34.9379 37.8636 33.7145 37.909 33.4674C37.927 33.369 37.9624 33.2752 37.9875 33.2586C38.0129 33.2421 38.0457 33.137 38.0607 33.0248C38.0758 32.9126 38.1074 32.8211 38.131 32.8211C38.1543 32.8211 38.1735 32.7558 38.1735 32.6764C38.1735 32.5967 38.1947 32.5184 38.2207 32.5025C38.2464 32.4866 38.2614 32.3956 38.2541 32.3003C38.2464 32.2049 38.2585 32.1157 38.2806 32.1022C38.3031 32.0883 38.3211 32.0133 38.3211 31.9353C38.3211 31.8571 38.3408 31.7812 38.3647 31.7665C38.3889 31.7514 38.4247 31.4733 38.4441 31.1479C38.4636 30.8226 38.497 30.5456 38.5182 30.5327C38.5395 30.5194 38.5731 30.2094 38.5926 29.8433C38.6124 29.4775 38.6454 29.1675 38.6667 29.1545C38.6876 29.1415 38.721 28.7326 38.7405 28.2457C38.7603 27.7592 38.7921 27.3706 38.8116 27.3827C38.8488 27.4058 38.9111 26.1734 38.9114 25.4061C38.9114 25.1572 38.9335 24.9399 38.9607 24.9234C38.9908 24.9048 39.01 24.521 39.01 23.9361C39.01 23.3807 39.0291 22.9795 39.0554 22.9795C39.1162 22.9795 39.1156 17.036 39.0548 16.9985C39.03 16.9832 39.01 16.5308 39.01 15.9923C39.01 15.4541 38.9908 15.0021 38.9674 14.9876C38.9444 14.9734 38.909 14.4352 38.8892 13.7916C38.8695 13.148 38.8361 12.5994 38.8151 12.5723C38.7803 12.5274 38.7172 11.5557 38.7142 11.0222C38.7136 10.861 38.7003 10.8209 38.6655 10.8746C38.6322 10.9263 38.6165 10.8371 38.6133 10.5794C38.6109 10.3765 38.6 10.166 38.5891 10.112C38.5781 10.058 38.5657 9.89737 38.5616 9.75535C38.5575 9.61305 38.5377 9.49702 38.5173 9.49702C38.4973 9.49702 38.4645 9.22008 38.445 8.88174C38.4255 8.54369 38.3898 8.26675 38.3653 8.26675C38.3411 8.26675 38.3202 8.18379 38.319 8.08222C38.3178 7.98066 38.2942 7.79791 38.2668 7.67627C38.2393 7.55433 38.2045 7.39402 38.1894 7.31962C38.1747 7.24522 38.1428 7.1841 38.1189 7.1841C38.0947 7.1841 38.0746 7.12328 38.074 7.04888C38.0734 6.97448 38.0291 6.81712 37.9757 6.69902C37.9223 6.58122 37.8783 6.44275 37.8783 6.39138C37.8783 6.3403 37.858 6.29838 37.8332 6.29838C37.8084 6.29838 37.7724 6.22663 37.7532 6.13865C37.734 6.05067 37.7048 5.96741 37.6877 5.95413C37.6708 5.94055 37.6136 5.84075 37.5607 5.7327C37.5076 5.62434 37.4232 5.47495 37.373 5.40055C37.3225 5.32615 37.2957 5.26503 37.3128 5.26503C37.3302 5.26503 37.3096 5.23019 37.2671 5.18768C37.2246 5.14516 37.1897 5.0811 37.1897 5.04537C37.1897 5.00965 37.1567 4.96773 37.1159 4.95208C37.0752 4.93643 37.0421 4.89805 37.0421 4.86646C37.0421 4.83487 36.9923 4.76224 36.9315 4.70496C36.8707 4.64768 36.7851 4.54553 36.7414 4.47792C36.494 4.0947 35.4808 3.10003 35.3376 3.10003C35.301 3.10003 35.2712 3.07966 35.2712 3.05486C35.2712 3.03006 35.1883 2.9589 35.0867 2.8969C34.9852 2.8352 34.8949 2.7667 34.8857 2.74545C34.8769 2.72389 34.8382 2.70647 34.7998 2.70647C34.7615 2.70647 34.7302 2.68581 34.7302 2.66071C34.7302 2.63532 34.6248 2.56358 34.4964 2.50069C34.368 2.4381 34.2491 2.36813 34.2326 2.34539C34.216 2.32296 34.1883 2.30672 34.1709 2.30937C34.0986 2.32118 33.8937 2.24974 33.8937 2.21283C33.8937 2.19098 33.8273 2.15821 33.7461 2.1405C33.665 2.12278 33.5986 2.08765 33.5986 2.06285C33.5986 2.03775 33.5561 2.01738 33.5044 2.01738C33.4525 2.01738 33.3362 1.98048 33.2461 1.9353C33.1558 1.89013 33.0428 1.83433 32.995 1.8113C32.9472 1.78827 32.8087 1.7558 32.6874 1.73897C32.5664 1.72244 32.4672 1.69114 32.4672 1.66929C32.4672 1.64744 32.3123 1.61438 32.1228 1.59578C31.9336 1.57718 31.7786 1.5447 31.7786 1.52374C31.7786 1.50248 31.5626 1.46971 31.299 1.45052C31.0351 1.43103 30.7972 1.39826 30.7701 1.377C30.7429 1.35604 30.461 1.32268 30.1435 1.30319C29.8262 1.28371 29.5782 1.24828 29.593 1.22436C29.6078 1.20045 29.454 1.18096 29.2509 1.18096C29.0481 1.18096 28.8681 1.15852 28.8513 1.13136C28.8344 1.10391 28.7609 1.08353 28.6883 1.08619C28.4006 1.09652 27.3728 1.01769 27.3265 0.981675C27.2996 0.960713 26.8179 0.927351 26.2565 0.90757C25.6952 0.888084 25.2359 0.85295 25.2359 0.830217C25.2359 0.807188 25.186 0.787997 25.1252 0.787407C23.4508 0.771168 15.7936 0.759063 15.2354 0.772054ZM53.5998 6.24199C53.5857 6.26502 53.4038 6.2969 53.196 6.31255C52.9883 6.32849 52.805 6.36215 52.7887 6.38754C52.7725 6.41293 52.6875 6.44925 52.6001 6.46814C52.5024 6.4894 52.3977 6.56321 52.3295 6.65887L52.2182 6.81505V19.9491C52.2182 30.4128 52.2306 33.0877 52.2796 33.1039C52.3135 33.1151 52.341 33.1538 52.341 33.1898C52.341 33.2255 52.413 33.3126 52.501 33.3832C52.5889 33.4538 52.6842 33.5299 52.7126 33.5527C52.7412 33.5757 52.874 33.6105 53.0077 33.6306C53.1417 33.6507 53.2669 33.6926 53.2864 33.7239C53.3345 33.8016 55.5269 33.8042 55.5774 33.7266C55.5966 33.6968 55.7081 33.6575 55.825 33.6392C56.1999 33.5807 56.5101 33.3336 56.554 33.0584C56.5706 32.956 56.6033 32.884 56.6269 32.8987C56.6514 32.9138 56.67 30.8465 56.67 28.1028C56.67 24.7619 56.686 23.2706 56.7223 23.2485C56.7509 23.2308 56.7692 23.1685 56.763 23.1103C56.7438 22.9267 56.8274 22.1431 56.8663 22.1431C56.8867 22.1431 56.9189 22.0055 56.9377 21.8372C56.9569 21.6689 56.987 21.5086 57.005 21.4806C57.0227 21.4525 57.0387 21.4186 57.0405 21.405C57.0623 21.224 57.1261 21.0114 57.1588 21.0114C57.1815 21.0114 57.2146 20.9338 57.2326 20.839C57.2503 20.7442 57.2843 20.6669 57.3079 20.6669C57.3315 20.6669 57.3654 20.6004 57.3834 20.5193C57.4011 20.4381 57.4363 20.3716 57.4611 20.3716C57.4858 20.3716 57.5062 20.3412 57.5062 20.3037C57.5062 20.2665 57.5393 20.2087 57.5794 20.1753C57.6198 20.1419 57.6414 20.0962 57.6278 20.0737C57.6139 20.0516 57.632 20.0153 57.6677 19.9934C57.7034 19.9713 57.7848 19.8786 57.8486 19.7871C58.0092 19.5571 58.2285 19.3389 58.2636 19.374C58.2798 19.3903 58.3436 19.3445 58.4053 19.2725C58.4672 19.2004 58.5431 19.1414 58.5738 19.1414C58.6045 19.1414 58.637 19.1239 58.6458 19.1024C58.6691 19.0472 59.0688 18.8461 59.1558 18.8461C59.1954 18.8461 59.2282 18.8266 59.2282 18.8027C59.2282 18.7785 59.3332 18.7434 59.4616 18.7242C59.5903 18.705 59.7264 18.6637 59.7645 18.6324C59.8589 18.5547 61.9389 18.5527 62.0369 18.6303C62.0746 18.6604 62.1968 18.6991 62.3084 18.7159C62.4197 18.733 62.5746 18.7803 62.6529 18.8207C62.7308 18.8615 62.8223 18.8948 62.8559 18.8951C62.8899 18.8954 62.9176 18.9158 62.9176 18.9406C62.9176 18.9657 62.984 19.0005 63.0652 19.0185C63.1464 19.0363 63.2128 19.0708 63.2128 19.0953C63.2128 19.1195 63.2671 19.1532 63.3338 19.17C63.4005 19.1868 63.4684 19.2426 63.4849 19.294C63.5011 19.3454 63.5315 19.3876 63.5522 19.3876C63.6221 19.3876 63.9881 19.7652 64.0221 19.8721C64.0404 19.9302 64.0761 19.9781 64.1015 19.9781C64.1266 19.9781 64.1472 20.012 64.1472 20.0534C64.1472 20.0947 64.1791 20.1411 64.2181 20.1558C64.257 20.1709 64.304 20.2532 64.3226 20.3389C64.3412 20.4245 64.3704 20.5057 64.3872 20.5193C64.4306 20.5541 64.59 21.033 64.59 21.1286C64.59 21.1723 64.6103 21.2081 64.6354 21.2081C64.6753 21.2081 64.7603 21.7537 64.7378 21.867C64.7331 21.8909 64.7588 21.929 64.7948 21.9512C64.8485 21.9842 64.8636 22.6344 64.8772 25.4628C64.8863 27.3718 64.9105 28.9336 64.9312 28.9336C64.9518 28.9336 64.9831 29.1704 65.0008 29.4597C65.0185 29.7491 65.0522 29.9983 65.0755 30.0133C65.0988 30.0284 65.1336 30.168 65.1525 30.3236C65.1717 30.4792 65.208 30.6068 65.2331 30.6068C65.2582 30.6068 65.2789 30.6505 65.2789 30.7042C65.2789 30.8117 65.4244 31.2076 65.4784 31.2463C65.497 31.2598 65.5277 31.3413 65.5463 31.4275C65.5649 31.5134 65.6118 31.6103 65.6505 31.6422C65.6888 31.6741 65.7083 31.7201 65.6933 31.7443C65.6782 31.7685 65.6986 31.8007 65.7384 31.8161C65.7783 31.8314 65.8246 31.8979 65.8408 31.9634C65.8574 32.0292 65.8928 32.083 65.9193 32.083C65.9456 32.083 65.9675 32.1131 65.9675 32.1497C65.9675 32.1866 66.0229 32.2583 66.0905 32.3091C66.1581 32.3599 66.2142 32.424 66.2151 32.4514C66.2172 32.5246 66.4102 32.7304 66.6071 32.8698C66.7015 32.9368 66.8261 33.0419 66.883 33.103C66.9403 33.1644 67.0123 33.2146 67.043 33.2146C67.0737 33.2146 67.0991 33.2312 67.0991 33.2515C67.0997 33.3156 67.7042 33.6525 67.8246 33.6557C67.8582 33.6566 67.886 33.6773 67.886 33.7012C67.886 33.7254 67.9633 33.7593 68.0581 33.7774C68.1528 33.7951 68.2304 33.8281 68.2304 33.8509C68.2304 33.8736 68.2912 33.9043 68.3656 33.9191C68.592 33.9636 68.9391 34.0605 69.0232 34.1024C69.0672 34.1246 69.2664 34.1582 69.4659 34.1774C69.6658 34.1969 69.8423 34.2329 69.8585 34.2577C69.9128 34.3419 72.8818 34.3321 72.8298 34.248C72.8177 34.2285 72.9901 34.1975 73.2124 34.1792C73.4349 34.1606 73.6244 34.1243 73.6333 34.0983C73.6424 34.0723 73.7144 34.051 73.7932 34.051C73.872 34.051 73.9367 34.0289 73.9367 34.002C73.9367 33.9749 73.9532 33.956 73.9736 33.9598C74.0609 33.9772 74.4249 33.8878 74.4039 33.8544C74.3915 33.834 74.4694 33.8033 74.5772 33.7862C74.6849 33.7688 74.7729 33.7345 74.7729 33.71C74.7729 33.6855 74.8393 33.6507 74.9204 33.633C75.0016 33.615 75.068 33.5801 75.068 33.555C75.068 33.5302 75.1135 33.5099 75.1687 33.5099C75.2241 33.5099 75.3242 33.4549 75.3912 33.3879C75.4582 33.3209 75.5228 33.271 75.5349 33.2772C75.5471 33.2834 75.6073 33.2444 75.6692 33.1907C75.7309 33.1373 75.7935 33.093 75.808 33.0924C75.8227 33.0921 75.942 32.992 76.073 32.8701C76.3891 32.5763 76.4089 32.5559 76.4948 32.4272C76.5352 32.3667 76.5916 32.292 76.6199 32.2613C76.7982 32.0694 77.1341 31.4739 77.1341 31.3496C77.1341 31.3198 77.1551 31.2956 77.1804 31.2956C77.2058 31.2956 77.2415 31.1958 77.2598 31.0741C77.2781 30.9522 77.31 30.8527 77.331 30.8527C77.3519 30.8527 77.3838 30.7535 77.4021 30.6324C77.4201 30.5114 77.4529 30.401 77.475 30.3874C77.4968 30.3738 77.5326 30.2681 77.5541 30.1527C77.5757 30.0369 77.5999 29.9091 77.6081 29.8687C77.7238 29.2841 77.7395 28.5604 77.7572 23.0288C77.7678 19.6566 77.7572 17.057 77.7327 17.0009C77.7088 16.9468 77.6491 16.7753 77.6004 16.6197C77.5518 16.4641 77.4957 16.3366 77.4759 16.3366C77.4561 16.3366 77.426 16.2811 77.4089 16.2129C77.3918 16.145 77.3451 16.0508 77.3047 16.0038C77.2646 15.9569 77.2321 15.9017 77.2321 15.8816C77.2327 15.8285 76.6728 15.2666 76.6374 15.2849C76.6211 15.2932 76.5659 15.2607 76.5146 15.2132C76.3868 15.0945 75.7962 14.8114 75.6766 14.8114C75.6232 14.8114 75.5559 14.7874 75.527 14.7585C75.4951 14.7266 75.2546 14.7083 74.9145 14.7119C74.6067 14.7151 74.316 14.7181 74.2687 14.7184C74.2215 14.7187 74.1825 14.7396 74.1825 14.765C74.1825 14.7904 74.1273 14.8114 74.0595 14.8114C73.9358 14.8114 73.7227 14.9091 73.4939 15.0706L73.3709 15.1577L73.3582 22.3164C73.3508 26.4938 73.3269 29.4748 73.3012 29.4748C73.277 29.4748 73.2419 29.5855 73.2233 29.721C73.2047 29.8563 73.1713 29.967 73.1489 29.967C73.1265 29.967 73.094 30.0316 73.0766 30.1105C73.0595 30.1893 73.0134 30.2663 72.9745 30.2811C72.9355 30.2962 72.9036 30.3434 72.9036 30.3865C72.9036 30.4296 72.88 30.4503 72.8511 30.4323C72.8222 30.4146 72.7865 30.4464 72.7717 30.5034C72.7566 30.5601 72.7307 30.6068 72.7135 30.6068C72.6964 30.6068 72.6179 30.662 72.5394 30.7299C72.4606 30.7975 72.3667 30.8527 72.3301 30.8527C72.2938 30.8527 72.264 30.8725 72.264 30.8967C72.264 30.9206 72.2035 30.9557 72.1294 30.9743C72.0554 30.9929 71.9786 31.0337 71.9594 31.0653C71.8986 31.1636 70.8446 31.1406 70.6655 31.0369C70.5843 30.99 70.4901 30.9516 70.4562 30.9513C70.4225 30.9513 70.3948 30.9289 70.3948 30.902C70.3948 30.8748 70.3561 30.8524 70.3086 30.8518C70.2614 30.8515 70.1705 30.796 70.1067 30.7287C70.043 30.6617 69.9713 30.6068 69.9471 30.6068C69.9226 30.6068 69.9028 30.5743 69.9028 30.5347C69.9028 30.4949 69.8585 30.4388 69.8045 30.4098C69.7505 30.3809 69.7062 30.3189 69.7062 30.2722C69.7062 30.2256 69.661 30.1592 69.6059 30.1249C69.5507 30.0904 69.5182 30.0417 69.5338 30.0166C69.5639 29.9679 69.468 29.7686 69.3863 29.7104C69.3544 29.6877 69.3319 28.171 69.3225 25.3819C69.3145 23.0202 69.29 21.0764 69.2679 21.0619C69.2458 21.0477 69.2121 20.8148 69.1929 20.5446C69.174 20.2745 69.1404 20.0421 69.1183 20.028C69.0964 20.0141 69.0625 19.8641 69.043 19.6949C69.0235 19.5258 68.9899 19.3876 68.968 19.3876C68.9462 19.3876 68.9131 19.2769 68.8945 19.1417C68.8759 19.0061 68.8405 18.883 68.816 18.868C68.7915 18.8529 68.7714 18.7865 68.7714 18.7204C68.7714 18.6542 68.7517 18.6002 68.7278 18.6002C68.7036 18.6002 68.6696 18.5225 68.6516 18.4281C68.6339 18.3333 68.5982 18.2556 68.5725 18.2556C68.5465 18.2556 68.5256 18.2019 68.5256 18.1364C68.5256 18.0705 68.4922 17.9834 68.4518 17.943C68.4111 17.9022 68.378 17.8444 68.378 17.814C68.378 17.7576 68.1797 17.3661 68.1283 17.3209C68.113 17.3073 68.0852 17.263 68.0672 17.2223C68.0111 17.0968 67.8984 16.9303 67.7375 16.7351C67.6838 16.6702 67.6401 16.5967 67.6401 16.5722C67.6401 16.5477 67.618 16.5415 67.5908 16.558C67.5637 16.5748 67.5415 16.553 67.5415 16.5096C67.5415 16.4257 66.6386 15.5002 66.5569 15.5002C66.5303 15.5002 66.5085 15.4783 66.5085 15.452C66.5085 15.4255 66.4533 15.3897 66.3857 15.3726C66.3181 15.3558 66.2626 15.3236 66.2626 15.3012C66.2626 15.279 66.2178 15.2465 66.1626 15.2291C66.1077 15.2117 66.0091 15.1435 65.9436 15.078C65.878 15.0124 65.7886 14.959 65.7449 14.959C65.7009 14.959 65.6322 14.9256 65.5914 14.8852C65.551 14.8444 65.4751 14.8114 65.4229 14.8114C65.3707 14.8114 65.3279 14.7892 65.3279 14.7621C65.3279 14.7349 65.3004 14.7127 65.2665 14.7125C65.2325 14.7125 65.1431 14.68 65.0675 14.6407C64.992 14.6011 64.8535 14.5545 64.7597 14.5368C64.6658 14.5194 64.5776 14.4863 64.5634 14.4636C64.5492 14.4408 64.4058 14.4072 64.2443 14.3889C64.0826 14.3706 63.9507 14.3387 63.9507 14.3177C63.9507 14.2725 63.6065 14.2197 63.1635 14.1964C62.9876 14.1872 62.804 14.1642 62.7553 14.145C62.7066 14.1258 62.3636 14.124 61.9929 14.1415C61.6222 14.1589 61.2594 14.1725 61.1868 14.1716C61.1142 14.171 61.0407 14.1928 61.0239 14.2203C61.0071 14.2477 60.917 14.2699 60.8238 14.2699C60.7308 14.2699 60.6546 14.2891 60.6546 14.3127C60.6546 14.3484 60.4126 14.4069 60.175 14.4284C60.1411 14.4314 60.1136 14.4497 60.1136 14.4686C60.1136 14.4878 60.0251 14.5176 59.9168 14.535C59.8084 14.5521 59.7199 14.5858 59.7199 14.6097C59.7199 14.6336 59.6594 14.6682 59.5853 14.6868C59.5112 14.7054 59.438 14.7405 59.4233 14.7647C59.4082 14.7889 59.3453 14.8164 59.2834 14.8258C59.2214 14.8353 59.1561 14.8636 59.1378 14.8887C59.1198 14.9138 59.0221 14.9764 58.9206 15.0281C58.8191 15.0797 58.7361 15.1406 58.7361 15.1636C58.7361 15.1863 58.7028 15.2049 58.6618 15.2049C58.621 15.2049 58.5496 15.2492 58.5033 15.3032C58.4569 15.3576 58.4008 15.4018 58.3787 15.4018C58.3566 15.4018 58.3117 15.4243 58.2789 15.4517C58.0434 15.6498 57.959 15.7399 57.985 15.7656C58.0012 15.7821 57.9667 15.7954 57.9079 15.7954C57.8495 15.7954 57.8014 15.8205 57.8014 15.8512C57.8014 15.9197 57.5714 16.1394 57.5363 16.1042C57.5224 16.0903 57.4965 16.1367 57.4788 16.2076C57.4611 16.2781 57.4295 16.3254 57.4082 16.3124C57.3873 16.2991 57.3424 16.3215 57.3091 16.362C57.2757 16.4021 57.2627 16.4352 57.2807 16.4352C57.2984 16.4352 57.2356 16.5031 57.1411 16.5861C57.0464 16.6693 56.9221 16.8131 56.8645 16.9061C56.8073 16.9988 56.74 17.0747 56.7152 17.0747C56.688 17.0747 56.67 15.429 56.67 12.9652C56.67 10.4595 56.6517 8.82269 56.6231 8.77043C56.5974 8.72349 56.5626 8.55756 56.5461 8.40197C56.5292 8.24638 56.4974 8.11913 56.4749 8.11913C56.4528 8.11913 56.4194 8.0586 56.4009 7.9842C56.3823 7.9101 56.3522 7.83806 56.3342 7.82448C56.3158 7.8106 56.2568 7.71229 56.2028 7.606C56.1485 7.49971 56.0821 7.389 56.0552 7.35947C56.0281 7.33025 55.923 7.21215 55.8215 7.0973C55.7199 6.98275 55.637 6.91395 55.637 6.94466C55.637 6.97537 55.5912 6.9423 55.5352 6.87085C55.4791 6.7997 55.4015 6.74124 55.3628 6.74124C55.3241 6.74124 55.2925 6.71969 55.2925 6.69311C55.2925 6.66654 55.2374 6.63082 55.1698 6.61399C55.1022 6.59687 55.0467 6.56498 55.0467 6.54313C55.0467 6.52099 54.9747 6.48763 54.8867 6.46844C54.7987 6.44925 54.7137 6.41293 54.6975 6.38754C54.6813 6.36215 54.4986 6.32849 54.2917 6.31284C54.0845 6.2972 53.9153 6.26531 53.9153 6.24228C53.9153 6.18737 53.6338 6.18737 53.5998 6.24199ZM82.2748 6.32997C81.769 6.46371 81.6143 6.56823 81.5195 6.83985C81.4345 7.08431 81.4401 32.9294 81.5254 33.0782C81.6287 33.2586 81.869 33.5099 81.9384 33.5099C81.9747 33.5099 82.0042 33.5294 82.0042 33.5536C82.0042 33.5775 82.1096 33.6129 82.2379 33.6318C82.3663 33.651 82.4968 33.6873 82.5275 33.7127C82.6638 33.8249 84.8542 33.8208 84.7846 33.7083C84.7716 33.6873 84.8941 33.6548 85.0564 33.6365C85.219 33.6182 85.34 33.584 85.3256 33.5603C85.3111 33.537 85.361 33.5043 85.4363 33.4877C85.5632 33.46 85.6402 33.3696 85.722 33.1532C85.7397 33.1057 85.7739 33.067 85.7978 33.067C85.8226 33.067 85.8412 31.4571 85.8412 29.3236C85.8412 25.9207 85.8483 25.5877 85.9185 25.6579C85.961 25.7004 86.0275 25.7353 86.0661 25.7353C86.1048 25.7353 86.1364 25.7683 86.1364 25.8091C86.1364 25.8495 86.1709 25.8829 86.2131 25.8829C86.2553 25.8829 86.2763 25.905 86.2595 25.9319C86.2426 25.9591 86.2491 25.9812 86.2739 25.9812C86.2984 25.9812 86.9758 26.6343 87.7789 27.4329C88.5823 28.2312 89.252 28.8843 89.2674 28.8843C89.2827 28.8843 89.3388 28.9401 89.3922 29.008C89.4457 29.0759 89.5097 29.1187 89.5348 29.1034C89.5596 29.088 89.58 29.0981 89.58 29.1255C89.58 29.1914 90.1667 29.77 90.2334 29.77C90.2618 29.77 90.2721 29.783 90.2565 29.7987C90.221 29.8341 90.9985 30.6068 91.0696 30.6068C91.0979 30.6068 91.1095 30.6186 91.0947 30.6333C91.0693 30.6587 91.1428 30.7352 91.8412 31.4101C92.0044 31.5678 92.1381 31.7186 92.1381 31.7452C92.1381 31.7718 92.1602 31.7798 92.1877 31.7629C92.2148 31.7461 92.252 31.7724 92.2706 31.8214C92.314 31.9368 92.4427 32.0328 92.5064 31.9968C92.5339 31.9814 92.5392 31.9873 92.5188 32.0097C92.4725 32.0608 92.6714 32.2796 92.7644 32.2796C92.8019 32.2796 92.8187 32.3017 92.8022 32.3289C92.7854 32.3561 92.7951 32.3782 92.8234 32.3782C92.8521 32.3782 93.005 32.5111 93.1632 32.6734C93.3217 32.8358 93.479 32.9687 93.5132 32.9687C93.5472 32.9687 93.6186 33.0239 93.6717 33.0915C93.7248 33.1594 93.7983 33.2146 93.8346 33.2146C93.8709 33.2146 93.9081 33.2312 93.917 33.2515C93.9424 33.3082 94.337 33.5099 94.4229 33.5099C94.4648 33.5099 94.4993 33.5299 94.4993 33.5547C94.4993 33.5795 94.5932 33.6153 94.7083 33.6342C94.8234 33.6531 94.9486 33.6938 94.9863 33.7245C95.0802 33.8004 96.6531 33.8022 96.7024 33.7266C96.7216 33.6968 96.8287 33.6581 96.94 33.641C97.0515 33.6235 97.2065 33.576 97.2844 33.5353C97.3623 33.4945 97.4538 33.4612 97.4878 33.4609C97.5214 33.4609 97.5492 33.4384 97.5492 33.4115C97.5492 33.3844 97.6035 33.3622 97.6696 33.3622C97.736 33.3622 97.808 33.3345 97.8296 33.3008C97.8511 33.2669 97.9521 33.1969 98.0533 33.1452C98.1548 33.0939 98.2378 33.0328 98.2378 33.01C98.2378 32.9873 98.2682 32.9687 98.3051 32.9687C98.5049 32.9687 98.6929 32.4367 98.5698 32.2185C98.4836 32.065 97.2224 30.8034 97.1557 30.8034C97.1253 30.8034 97.1144 30.7812 97.1312 30.7538C97.1481 30.7266 97.1218 30.6894 97.0728 30.6711C97.0235 30.6525 96.6129 30.2708 96.1602 29.8226C95.7071 29.3741 95.2346 28.9189 95.1097 28.8105C94.9852 28.7025 94.5306 28.2649 94.1 27.8389C93.6693 27.4125 93.3063 27.0639 93.2933 27.0639C93.2455 27.0639 93.0817 26.8743 93.1071 26.8489C93.1215 26.8345 93.0758 26.8079 93.005 26.7902C92.9344 26.7725 92.8878 26.74 92.9016 26.7175C92.9152 26.6954 92.8819 26.6629 92.8273 26.6458C92.773 26.6284 92.7284 26.5953 92.7284 26.5723C92.7284 26.5339 92.3588 26.1498 92.0094 25.8244C91.9312 25.7521 91.7895 25.608 91.6942 25.5047C91.5988 25.4014 91.4397 25.2623 91.3412 25.1956C91.2423 25.1289 91.1723 25.0568 91.1853 25.0356C91.1983 25.0143 91.1883 24.9972 91.1632 24.9972C91.0962 24.9972 90.1703 24.0816 90.1703 24.0155C90.1703 23.9848 90.4524 23.6751 90.7975 23.327C91.1425 22.9789 91.4577 22.645 91.4985 22.5851C91.5389 22.5251 91.6661 22.3843 91.7806 22.2727C92.2095 21.8543 92.2688 21.7932 92.6053 21.4265C92.7948 21.2199 93.2319 20.7617 93.577 20.408C93.9217 20.0545 94.2042 19.7466 94.2042 19.7239C94.2042 19.7011 94.2372 19.6828 94.278 19.6828C94.3184 19.6828 94.3517 19.6545 94.3517 19.6197C94.3517 19.5851 94.7059 19.1969 95.1386 18.757C95.5716 18.3171 95.9258 17.9436 95.9258 17.927C95.9258 17.9105 96.1085 17.7154 96.3317 17.4933C96.5548 17.2716 96.8405 16.9772 96.9662 16.8394C97.092 16.7018 97.2053 16.5996 97.2186 16.6126C97.2316 16.6259 97.2564 16.5801 97.2735 16.5111C97.2909 16.4423 97.3269 16.3859 97.3535 16.3859C97.3798 16.3859 97.4016 16.2752 97.4016 16.1399C97.4016 16.0044 97.3795 15.8937 97.3523 15.8937C97.3255 15.8937 97.3033 15.8654 97.3033 15.8308C97.3033 15.7963 97.259 15.7361 97.2047 15.6971C97.1507 15.6581 97.1064 15.594 97.1064 15.5548C97.1064 15.5158 97.0935 15.4966 97.0778 15.5126C97.0619 15.5282 97.0082 15.5043 96.9583 15.4591C96.7877 15.305 96.7171 15.2542 96.6734 15.2542C96.6495 15.2542 96.5654 15.1987 96.4869 15.1311C96.4084 15.0635 96.272 14.9947 96.1841 14.9779C96.0961 14.9613 96.0241 14.9303 96.0241 14.9088C96.0241 14.8872 95.9081 14.8542 95.7658 14.835C95.6239 14.8158 95.4831 14.7804 95.453 14.7561C95.373 14.6918 94.0873 14.6944 94.0657 14.7591C94.056 14.7877 93.9837 14.8114 93.9049 14.8114C93.8258 14.8114 93.7614 14.8326 93.7614 14.8589C93.7614 14.8852 93.7281 14.8937 93.6876 14.8784C93.6469 14.8627 93.6139 14.8745 93.6139 14.9044C93.6139 14.9345 93.5684 14.959 93.5132 14.959C93.4577 14.959 93.3588 15.0124 93.2933 15.078C93.2278 15.1435 93.1292 15.2117 93.0743 15.2291C93.0191 15.2465 92.9743 15.2814 92.9743 15.3068C92.9743 15.3319 92.9421 15.3525 92.9028 15.3525C92.8636 15.3525 92.814 15.3824 92.7921 15.4187C92.7706 15.455 92.6865 15.5264 92.6053 15.5772C92.407 15.7015 90.9061 17.2285 90.9356 17.276C90.9483 17.2967 90.9141 17.328 90.8598 17.3451C90.8052 17.3625 90.7606 17.3921 90.7606 17.411C90.7606 17.4668 90.3193 17.9114 90.2641 17.9114C90.2364 17.9114 90.2272 17.9335 90.2441 17.9604C90.2609 17.9876 90.2526 18.0097 90.2258 18.0097C90.1706 18.0097 90.1257 18.054 89.8506 18.3785C89.7423 18.506 89.3937 18.8754 89.0758 19.1992C88.7579 19.5234 88.4976 19.8101 88.4976 19.837C88.4976 19.8635 88.474 19.8709 88.4451 19.8529C88.4165 19.8352 88.3813 19.8641 88.3672 19.9178C88.3533 19.9713 88.2884 20.0436 88.2231 20.0785C88.1579 20.1136 88.116 20.1537 88.1301 20.1679C88.1546 20.1927 88.0286 20.3265 87.1727 21.1856C86.9714 21.3873 86.8273 21.5541 86.8527 21.5558C86.8781 21.5573 86.8477 21.5795 86.7851 21.6046C86.7225 21.6297 86.6842 21.671 86.6998 21.6964C86.7155 21.7215 86.6842 21.7563 86.6302 21.7734C86.5762 21.7906 86.5372 21.8204 86.5434 21.8399C86.5496 21.8594 86.394 22.0359 86.1981 22.2322L85.8412 22.5892V15.5757C85.8412 10.9328 85.8247 8.56199 85.7922 8.56199C85.7651 8.56199 85.7429 8.49674 85.7429 8.41732C85.7429 8.33761 85.7229 8.26025 85.6984 8.2449C85.6739 8.22985 85.6653 8.17316 85.6795 8.11913C85.6939 8.06421 85.681 8.02081 85.6503 8.02081C85.6201 8.02081 85.5954 7.98922 85.5954 7.95114C85.5954 7.91276 85.5788 7.87378 85.5585 7.86493C85.5381 7.85577 85.4676 7.74476 85.4011 7.61781C85.335 7.49086 85.2633 7.39815 85.2415 7.41144C85.2196 7.42502 85.2019 7.40317 85.2019 7.36302C85.2019 7.28596 84.9941 7.06217 84.8073 6.93816C84.7462 6.89772 84.6458 6.81534 84.5844 6.75571C84.5228 6.69577 84.415 6.63259 84.3451 6.61488C84.2751 6.59746 84.2179 6.56439 84.2179 6.54136C84.2179 6.51863 84.1349 6.48438 84.0334 6.46578C83.9321 6.44718 83.8342 6.4088 83.8159 6.38045C83.781 6.32672 82.4522 6.28302 82.2748 6.32997ZM74.8714 7.11354C74.7767 7.14926 74.6604 7.17997 74.6132 7.18144C74.5657 7.18292 74.527 7.20624 74.527 7.23341C74.527 7.26057 74.4951 7.28271 74.4561 7.28271C74.3617 7.28271 74.035 7.47727 74.035 7.53337C74.035 7.55788 74.0069 7.57795 73.9724 7.57795C73.9013 7.57795 73.4939 7.99454 73.4939 8.06687C73.4939 8.09285 73.465 8.13182 73.4299 8.15367C73.2938 8.23693 73.0512 8.90979 73.0512 9.20325C73.0512 9.31072 73.0291 9.39841 73.0019 9.39841C72.9751 9.39841 72.9529 9.46631 72.9529 9.54898C72.9529 9.63194 72.9718 9.68775 72.9951 9.67357C73.0184 9.65911 73.0497 9.8268 73.0648 10.0465C73.0798 10.2658 73.1132 10.4589 73.1392 10.4754C73.1651 10.492 73.202 10.5776 73.2212 10.6656C73.2401 10.7536 73.2761 10.8256 73.3012 10.8256C73.326 10.8256 73.3464 10.8601 73.3464 10.9024C73.3464 10.9475 73.3694 10.9647 73.403 10.9437C73.4382 10.9221 73.4467 10.9304 73.4252 10.965C73.406 10.996 73.447 11.0822 73.5161 11.1566C73.5851 11.231 73.6415 11.3101 73.6415 11.3322C73.6415 11.3544 73.6637 11.3588 73.6908 11.3423C73.7177 11.3254 73.7398 11.3352 73.7398 11.3638C73.7398 11.4187 73.916 11.6127 73.9659 11.6127C73.9818 11.6127 74.0512 11.657 74.12 11.7113C74.1887 11.7654 74.2876 11.8096 74.3399 11.8096C74.3918 11.8096 74.4207 11.8318 74.4039 11.8589C74.3874 11.8858 74.4193 11.908 74.4747 11.908C74.5305 11.908 74.5763 11.9271 74.5763 11.9508C74.5763 12.0712 75.8201 12.2103 76.0234 12.1126C76.0798 12.0857 76.2141 12.0511 76.3221 12.0361C76.4302 12.021 76.5261 11.9862 76.5352 11.9584C76.5447 11.9307 76.5946 11.908 76.6465 11.908C76.6982 11.908 76.7407 11.8873 76.7407 11.8622C76.7407 11.8368 76.7894 11.8008 76.849 11.7819C76.9086 11.763 76.9836 11.7228 77.0152 11.6924C77.068 11.6422 77.1704 11.567 77.3109 11.4757C77.4039 11.4152 77.823 10.8182 77.823 10.7462C77.823 10.7087 77.844 10.678 77.8699 10.678C77.8956 10.678 77.9322 10.5947 77.9508 10.4935C77.9694 10.3919 78.0092 10.293 78.0391 10.2738C78.1173 10.223 78.1075 8.89473 78.0287 8.86845C77.9969 8.85782 77.9706 8.80999 77.9706 8.76246C77.9706 8.60332 77.6677 8.06805 77.4594 7.85873C77.1976 7.59596 76.792 7.28271 76.7135 7.28271C76.6804 7.28271 76.5901 7.24964 76.5125 7.2092C76.4352 7.16875 76.3233 7.13539 76.264 7.13539C76.2047 7.13509 76.1424 7.11295 76.1259 7.08579C76.081 7.01345 75.0772 7.03559 74.8714 7.11354ZM11.9267 9.30629C11.9524 9.32991 12.0147 9.3494 12.0648 9.3494C12.2968 9.3494 12.8883 9.77691 13.141 10.1274C13.5687 10.7202 13.548 10.5239 13.5766 14.2569L13.6017 17.5657L13.7891 17.3324C15.0256 15.7945 16.5934 15.0765 18.3242 15.2554C19.2026 15.3463 19.4142 15.3959 20.0707 15.6646C21.2342 16.1411 22.266 17.2241 22.7037 18.4281C22.753 18.5633 22.8088 18.6961 22.8283 18.7233C22.8475 18.7502 22.8782 18.85 22.8965 18.9447C22.9148 19.0392 22.949 19.1611 22.9726 19.2152C23.0166 19.315 23.0877 19.6613 23.1751 20.1995C23.2014 20.3619 23.2398 21.9783 23.2607 23.7914C23.2979 27.0568 23.2994 27.0901 23.4059 27.2829C24.0544 28.4536 25.7586 28.3653 26.225 27.1368C26.3141 26.9018 26.3179 26.67 26.3182 21.5266C26.3182 15.7148 26.3032 16.0602 26.5617 15.8595C26.779 15.6906 27.6532 15.6188 28.0697 15.7361C28.5393 15.868 29.3188 16.447 29.3188 16.664C29.3188 16.7006 29.3368 16.7304 29.3586 16.7304C29.4121 16.7304 29.5387 17.033 29.637 17.3947C29.7367 17.7629 29.7252 26.024 29.6237 26.7686C29.4661 27.9251 29.0738 28.7928 28.4203 29.4296C27.426 30.3989 25.4605 30.8007 23.359 30.4642C22.6984 30.3585 21.9886 30.0591 21.4482 29.6581C21.0214 29.3419 20.4641 28.6561 20.4641 28.4474C20.4641 28.4172 20.442 28.3925 20.4151 28.3925C20.388 28.3925 20.3658 28.3679 20.3658 28.3384C20.3658 28.3086 20.3345 28.2144 20.2965 28.1291C19.955 27.3674 19.9163 26.9895 19.87 23.9638C19.8472 22.4616 19.808 21.1221 19.7829 20.9866C19.7029 20.5538 19.4836 19.8795 19.4228 19.8795C19.4004 19.8795 19.3821 19.855 19.3821 19.8251C19.3821 19.7493 19.1028 19.3944 18.8933 19.2034C18.7433 19.0673 18.5843 18.9766 17.9913 18.6896C17.5063 18.4549 15.8924 18.5674 15.2809 18.8789C14.7136 19.1676 13.9707 20.0764 13.9707 20.4818C13.9707 20.5187 13.9527 20.5697 13.9308 20.5954C13.8874 20.6465 13.7635 21.1815 13.6696 21.7247C13.628 21.9665 13.6047 23.177 13.5917 25.7843C13.5722 29.7278 13.5784 29.6254 13.3438 29.8932C13.1147 30.1547 13.0657 30.1639 11.9055 30.1639C10.6758 30.1639 10.5752 30.1367 10.3255 29.7373L10.2074 29.5486L10.193 19.8057C10.185 14.447 10.1912 9.97354 10.2068 9.86459C10.2408 9.62486 10.4075 9.4176 10.6038 9.37036C10.6835 9.35147 10.7712 9.3181 10.7989 9.29655C10.9131 9.20768 11.8275 9.21536 11.9267 9.30629ZM28.4369 9.86843C30.3929 10.4273 30.4436 13.1394 28.5071 13.6316C27.5263 13.8811 26.1707 13.112 26.1707 12.3062C26.1707 12.2528 26.1485 12.1955 26.1214 12.1787C26.0942 12.1619 26.0721 11.9738 26.0721 11.7603C26.0721 11.5472 26.0942 11.3588 26.1214 11.3423C26.1485 11.3254 26.1707 11.2658 26.1707 11.2094C26.1707 10.4258 27.5437 9.61334 28.4369 9.86843ZM107.731 14.1376C107.718 14.1524 107.541 14.1769 107.338 14.1922C106.729 14.238 106.453 14.2773 106.453 14.3189C106.453 14.3407 106.298 14.3741 106.109 14.393C105.919 14.4119 105.764 14.445 105.764 14.4665C105.764 14.4999 105.581 14.5442 105.322 14.5734C105.282 14.5778 105.219 14.6112 105.183 14.6472C105.147 14.6832 105.064 14.7127 104.998 14.7127C104.933 14.7127 104.879 14.7331 104.879 14.7576C104.879 14.7824 104.79 14.8176 104.682 14.8359C104.574 14.8542 104.485 14.8837 104.485 14.9017C104.485 14.9197 104.385 14.9779 104.263 15.0313C104.142 15.0848 104.043 15.1432 104.043 15.1612C104.043 15.1792 103.967 15.2082 103.875 15.2253C103.783 15.2427 103.695 15.2894 103.68 15.3292C103.665 15.3691 103.618 15.4018 103.577 15.4018C103.536 15.4018 103.502 15.424 103.502 15.4509C103.502 15.478 103.469 15.5002 103.43 15.5002C103.391 15.5002 103.302 15.5565 103.233 15.6253C103.164 15.6944 103.108 15.7378 103.108 15.7219C103.108 15.7062 103.059 15.7384 103 15.7936C102.941 15.8485 102.878 15.8937 102.86 15.8937C102.841 15.8937 102.747 15.9658 102.649 16.0537C102.551 16.1417 102.391 16.2802 102.294 16.3614C102.196 16.4426 102.091 16.5376 102.059 16.5725C102.027 16.6073 101.896 16.7428 101.768 16.8733C101.639 17.0041 101.534 17.1266 101.534 17.1461C101.534 17.1656 101.456 17.2565 101.362 17.3487C101.267 17.4408 101.189 17.5367 101.189 17.5621C101.189 17.5875 101.123 17.6749 101.042 17.7561C100.961 17.8373 100.894 17.9188 100.894 17.9374C100.894 17.9557 100.83 18.0516 100.752 18.1502C100.674 18.2489 100.608 18.3463 100.606 18.3669C100.599 18.4148 100.44 18.666 100.395 18.6991C100.376 18.713 100.346 18.785 100.327 18.8591C100.309 18.9332 100.275 18.9937 100.253 18.9937C100.231 18.9937 100.199 19.0602 100.181 19.1414C100.163 19.2226 100.13 19.289 100.107 19.289C100.085 19.289 100.051 19.3554 100.034 19.4366C100.016 19.5178 99.9842 19.5842 99.9636 19.5842C99.9432 19.5842 99.885 19.7062 99.8346 19.855C99.7838 20.0038 99.7268 20.1257 99.7076 20.1257C99.6888 20.1257 99.6581 20.2143 99.6398 20.3223C99.6215 20.4307 99.589 20.5193 99.5675 20.5193C99.5456 20.5193 99.5131 20.6185 99.4951 20.7395C99.4768 20.8606 99.4417 20.9725 99.4172 20.9875C99.3924 21.0029 99.3576 21.1251 99.3399 21.2594C99.3219 21.3935 99.2882 21.5033 99.2646 21.5033C99.241 21.5033 99.2218 21.5919 99.2218 21.7002C99.2218 21.8086 99.2018 21.8971 99.1776 21.8971C99.1534 21.8971 99.1371 21.9745 99.1415 22.0693C99.146 22.164 99.1327 22.2414 99.112 22.2414C99.0911 22.2414 99.0742 22.3633 99.0742 22.5121C99.0742 22.6609 99.0527 22.7829 99.0267 22.7829C98.9394 22.7829 98.9282 25.8212 99.0152 25.8785C99.0394 25.8944 99.0734 26.0624 99.0908 26.252C99.1289 26.673 99.1436 26.7559 99.1876 26.7999C99.2062 26.8188 99.2218 26.9065 99.2218 26.9954C99.2218 27.0839 99.241 27.1684 99.2643 27.1828C99.2879 27.1973 99.3219 27.3204 99.3399 27.4562C99.3579 27.5923 99.3913 27.7034 99.4137 27.7034C99.4364 27.7034 99.4668 27.8079 99.481 27.9357C99.4954 28.0633 99.5314 28.1757 99.5612 28.1858C99.5911 28.1955 99.6162 28.2516 99.617 28.3104C99.6179 28.3688 99.6613 28.5055 99.7136 28.6139C99.7658 28.7219 99.8095 28.8383 99.8104 28.8722C99.8113 28.9059 99.8343 28.9336 99.8611 28.9336C99.8883 28.9336 99.9104 28.9652 99.9104 29.0042C99.9104 29.0872 100.213 29.6889 100.267 29.7128C100.287 29.7216 100.304 29.7576 100.304 29.7922C100.304 29.827 100.348 29.9115 100.402 29.9803C100.456 30.0493 100.501 30.1297 100.501 30.1592C100.501 30.1887 100.539 30.2539 100.587 30.3041C100.75 30.4769 100.835 30.5964 100.868 30.7006C100.887 30.7579 100.92 30.7931 100.943 30.7789C100.966 30.7647 100.999 30.796 101.016 30.8486C101.033 30.9011 101.194 31.0954 101.375 31.2799C101.555 31.4644 101.698 31.6321 101.692 31.6522C101.686 31.6726 101.706 31.6891 101.736 31.6891C101.766 31.6891 101.904 31.806 102.043 31.9489C102.183 32.0918 102.407 32.2858 102.542 32.3797C102.678 32.4736 102.806 32.5781 102.827 32.6117C102.849 32.6457 102.911 32.6734 102.966 32.6734C103.02 32.6734 103.051 32.6947 103.035 32.721C103.019 32.7473 103.062 32.783 103.13 32.8001C103.199 32.8175 103.244 32.8494 103.23 32.8716C103.216 32.8934 103.272 32.9259 103.353 32.9439C103.435 32.9619 103.502 32.9967 103.502 33.0218C103.502 33.0466 103.535 33.067 103.575 33.067C103.616 33.067 103.649 33.0903 103.649 33.1193C103.649 33.1479 103.67 33.1579 103.696 33.142C103.723 33.1258 103.79 33.1585 103.845 33.2143C103.902 33.2704 104.013 33.3292 104.093 33.3454C104.174 33.3614 104.239 33.3938 104.239 33.4178C104.239 33.4414 104.267 33.4614 104.301 33.4623C104.335 33.4632 104.451 33.5069 104.559 33.5592C104.667 33.6114 104.795 33.6548 104.842 33.6557C104.889 33.6566 104.928 33.6767 104.928 33.7003C104.928 33.7239 105.018 33.7576 105.127 33.775C105.237 33.7927 105.369 33.8287 105.422 33.8553C105.636 33.9628 105.696 33.9808 105.822 33.9769C105.895 33.9746 105.944 33.9905 105.93 34.0121C105.917 34.0336 105.981 34.051 106.071 34.051C106.162 34.051 106.258 34.0717 106.283 34.0965C106.309 34.1216 106.496 34.1638 106.699 34.1901C106.902 34.2167 107.134 34.2553 107.216 34.2766C107.443 34.3357 110.028 34.3224 110.103 34.2618C110.138 34.2335 110.361 34.1948 110.597 34.1756C110.834 34.1564 111.04 34.1207 111.055 34.0959C111.071 34.0714 111.144 34.051 111.219 34.051C111.295 34.051 111.372 34.0351 111.391 34.0156C111.411 33.9961 111.464 33.9784 111.51 33.9763C111.69 33.9678 112.012 33.889 112.012 33.8535C112.012 33.8332 112.111 33.8013 112.233 33.783C112.355 33.765 112.455 33.7292 112.455 33.7035C112.455 33.6782 112.504 33.6575 112.565 33.6572C112.626 33.6569 112.738 33.6247 112.813 33.5851C112.889 33.5459 113.027 33.4992 113.121 33.4815C113.214 33.4641 113.291 33.4319 113.291 33.4098C113.291 33.3879 113.357 33.3555 113.438 33.3377C113.52 33.3197 113.586 33.2849 113.586 33.2598C113.586 33.235 113.617 33.2146 113.656 33.2146C113.729 33.2146 114.035 33.0658 114.079 33.0094C114.092 32.9911 114.164 32.9613 114.238 32.9424C114.313 32.9238 114.373 32.889 114.373 32.8648C114.373 32.8409 114.396 32.8211 114.424 32.8211C114.473 32.8211 114.763 32.6345 114.816 32.5692C114.829 32.5527 114.89 32.5235 114.951 32.5046C115.012 32.4854 115.062 32.4494 115.062 32.424C115.062 32.3989 115.087 32.3782 115.118 32.3782C115.148 32.3782 115.225 32.3227 115.287 32.2551C115.35 32.1875 115.419 32.132 115.442 32.132C115.508 32.132 116.046 31.5831 116.046 31.5155C116.046 31.499 116.073 31.4544 116.107 31.4169C116.28 31.2238 116.307 31.1704 116.329 30.9708C116.343 30.8518 116.373 30.7544 116.396 30.7544C116.42 30.7544 116.439 30.5772 116.439 30.3605C116.439 30.1441 116.419 29.967 116.395 29.967C116.37 29.967 116.335 29.8563 116.316 29.721C116.298 29.5855 116.265 29.4857 116.243 29.499C116.221 29.5126 116.191 29.4727 116.175 29.4107C116.102 29.1182 115.437 28.2938 115.274 28.2938C115.236 28.2938 115.217 28.2717 115.234 28.2448C115.253 28.2141 115.153 28.1955 114.966 28.1955C114.802 28.1955 114.668 28.2124 114.668 28.2327C114.668 28.2531 114.606 28.2974 114.53 28.331C114.454 28.365 114.338 28.4423 114.273 28.5032C114.142 28.6263 113.999 28.7193 113.869 28.7662C113.821 28.7833 113.783 28.8135 113.783 28.8332C113.783 28.8527 113.705 28.9106 113.611 28.9617C113.516 29.0128 113.438 29.0715 113.438 29.0925C113.438 29.1134 113.405 29.1306 113.365 29.1306C113.324 29.1306 113.291 29.1539 113.291 29.1822C113.291 29.2106 113.224 29.2572 113.143 29.2856C113.062 29.3139 112.996 29.3543 112.996 29.3759C112.996 29.3975 112.935 29.4302 112.861 29.4488C112.787 29.4674 112.715 29.4975 112.701 29.5158C112.653 29.5784 112.036 29.8687 111.95 29.8687C111.903 29.8687 111.864 29.889 111.864 29.9138C111.864 29.9386 111.798 29.9738 111.717 29.9915C111.636 30.0095 111.569 30.042 111.569 30.0638C111.569 30.0857 111.47 30.1184 111.349 30.1364C111.228 30.1547 111.117 30.1884 111.103 30.2114C111.088 30.2348 110.988 30.2687 110.88 30.2867C110.772 30.305 110.684 30.3402 110.684 30.365C110.684 30.3898 110.623 30.4098 110.548 30.4098C110.473 30.4098 110.335 30.4343 110.241 30.4645C109.871 30.582 109.069 30.6767 108.544 30.6652C107.894 30.6507 107.595 30.6298 107.613 30.5994C107.624 30.582 107.55 30.5563 107.449 30.5421C107.195 30.5073 106.778 30.3974 106.748 30.3582C106.735 30.3402 106.641 30.3103 106.539 30.2917C106.438 30.2731 106.355 30.2383 106.355 30.2147C106.355 30.1911 106.288 30.1571 106.207 30.1391C106.126 30.1214 106.059 30.088 106.059 30.0653C106.059 30.0426 105.995 30.0098 105.916 29.9924C105.837 29.9752 105.76 29.9292 105.745 29.8902C105.731 29.8512 105.688 29.8194 105.652 29.8194C105.615 29.8194 105.533 29.7641 105.469 29.6962C105.406 29.6286 105.333 29.5734 105.309 29.5734C105.284 29.5734 105.089 29.3907 104.875 29.1675C104.401 28.6712 104.284 28.5401 104.319 28.5401C104.333 28.5401 104.316 28.5076 104.28 28.4677C104.124 28.2953 104.092 28.2445 104.092 28.1731C104.092 28.1312 104.075 28.0972 104.054 28.0972C103.995 28.0972 103.649 27.3857 103.649 27.2655C103.649 27.2357 103.627 27.2115 103.6 27.2115C103.573 27.2115 103.555 27.1947 103.561 27.1746C103.578 27.1105 103.495 26.7462 103.45 26.6925C103.427 26.6644 103.393 26.4929 103.374 26.3113L103.34 25.9812H110.116C117.213 25.9812 117.226 25.9809 117.226 25.784C117.226 25.7627 117.281 25.6934 117.348 25.6296C117.416 25.5658 117.471 25.464 117.471 25.4031C117.472 25.342 117.494 25.2924 117.522 25.2924C117.553 25.2924 117.571 24.9059 117.571 24.2313C117.571 23.6479 117.552 23.1823 117.529 23.1965C117.506 23.2107 117.473 22.9529 117.455 22.624C117.437 22.2948 117.404 22.0135 117.38 21.9984C117.357 21.9834 117.322 21.7991 117.302 21.5895C117.283 21.3799 117.25 21.2081 117.228 21.2081C117.207 21.2081 117.175 21.1142 117.157 20.999C117.108 20.6911 117.099 20.6495 117.067 20.5686C117.051 20.5278 116.998 20.3728 116.948 20.224C116.899 20.0752 116.844 19.9424 116.828 19.9288C116.811 19.9152 116.783 19.8228 116.764 19.7233C116.746 19.6238 116.711 19.5352 116.687 19.5264C116.662 19.5178 116.63 19.4458 116.616 19.3669C116.602 19.2878 116.57 19.2105 116.545 19.1948C116.521 19.1789 116.485 19.0941 116.466 19.0061C116.447 18.9182 116.411 18.8461 116.386 18.8461C116.361 18.8461 116.341 18.8131 116.341 18.7723C116.341 18.7319 116.317 18.6985 116.289 18.6985C116.26 18.6985 116.246 18.682 116.258 18.6616C116.269 18.6415 116.237 18.5583 116.186 18.4771C116.135 18.3959 116.08 18.2908 116.064 18.2435C116.048 18.196 116.017 18.1573 115.996 18.1573C115.975 18.1573 115.944 18.1021 115.927 18.0342C115.91 17.9666 115.875 17.9114 115.848 17.9114C115.821 17.9114 115.8 17.8774 115.8 17.8358C115.8 17.7945 115.767 17.7478 115.726 17.7322C115.685 17.7168 115.652 17.6764 115.652 17.643C115.652 17.6094 115.609 17.5288 115.558 17.4638C115.505 17.3986 115.378 17.24 115.274 17.111C115.024 16.7992 114.367 16.1299 114.338 16.1582C114.326 16.1706 114.232 16.0942 114.129 15.9882C114.026 15.8822 113.919 15.7954 113.892 15.7954C113.865 15.7954 113.83 15.762 113.814 15.7216C113.799 15.6808 113.741 15.6478 113.686 15.6478C113.631 15.6478 113.586 15.6307 113.586 15.61C113.586 15.589 113.486 15.5176 113.365 15.4509C113.243 15.3844 113.143 15.3153 113.143 15.2973C113.143 15.2793 113.083 15.2495 113.009 15.2309C112.934 15.2123 112.862 15.1795 112.849 15.158C112.811 15.0998 112.176 14.8114 112.085 14.8114C112.041 14.8114 112.018 14.7916 112.033 14.7677C112.048 14.7435 111.961 14.7089 111.839 14.6906C111.718 14.6726 111.618 14.6392 111.618 14.6171C111.618 14.5949 111.496 14.5613 111.348 14.5427C111.199 14.5241 111.077 14.4898 111.077 14.4662C111.077 14.4429 110.922 14.4084 110.733 14.3898C110.543 14.3709 110.388 14.3387 110.388 14.3177C110.388 14.2968 110.272 14.2663 110.13 14.2501C109.988 14.2339 109.795 14.2091 109.7 14.1949C109.438 14.1556 107.76 14.1069 107.731 14.1376ZM109.06 17.6604C109.06 17.6846 109.16 17.7015 109.282 17.6973C109.404 17.6932 109.503 17.7065 109.503 17.7269C109.503 17.7469 109.538 17.7638 109.58 17.7638C109.696 17.7638 110.163 17.922 110.197 17.9731C110.214 17.9979 110.242 18.0144 110.259 18.0103C110.334 17.9917 110.585 18.0705 110.585 18.1122C110.585 18.137 110.619 18.1573 110.661 18.1573C110.702 18.1573 110.748 18.1886 110.762 18.2267C110.777 18.2648 110.844 18.3097 110.911 18.3265C110.977 18.3433 111.1 18.4174 111.182 18.4909C111.265 18.5645 111.336 18.6138 111.34 18.6005C111.344 18.5872 111.469 18.7053 111.618 18.8632C112.051 19.3226 112.091 19.3687 112.206 19.555C112.266 19.6524 112.335 19.7318 112.36 19.7318C112.385 19.7318 112.403 19.7487 112.4 19.7688C112.389 19.8432 112.467 20.0271 112.509 20.0271C112.533 20.0271 112.553 20.0699 112.553 20.1222C112.553 20.1744 112.586 20.2503 112.627 20.2907C112.667 20.3315 112.7 20.3849 112.7 20.41C112.7 20.4351 112.752 20.5529 112.816 20.6722C112.879 20.7915 112.947 20.9775 112.968 21.0855C112.988 21.1936 113.026 21.3081 113.053 21.34C113.079 21.3719 113.113 21.5216 113.129 21.6722C113.144 21.823 113.171 21.9462 113.189 21.9462C113.206 21.9462 113.225 22.0017 113.23 22.0693L113.241 22.1924H108.366H103.491L103.522 21.9373C103.539 21.7971 103.572 21.6586 103.595 21.6297C103.637 21.5756 103.721 21.2125 103.706 21.1466C103.702 21.1263 103.72 21.1097 103.747 21.1097C103.774 21.1097 103.81 21.0212 103.827 20.9128C103.844 20.8048 103.876 20.7162 103.897 20.7162C103.919 20.7162 103.951 20.6498 103.969 20.5686C103.987 20.4874 104.016 20.4206 104.034 20.4204C104.052 20.4201 104.111 20.3259 104.165 20.211C104.219 20.0965 104.291 19.9734 104.325 19.9376C104.359 19.9019 104.387 19.8408 104.387 19.8021C104.387 19.7634 104.41 19.7318 104.438 19.7318C104.466 19.7318 104.503 19.6932 104.521 19.6459C104.539 19.5984 104.577 19.534 104.605 19.5024C104.634 19.4709 104.71 19.3764 104.775 19.2922C104.937 19.0803 105.414 18.6002 105.462 18.6002C105.484 18.6002 105.549 18.5494 105.607 18.4874C105.665 18.4254 105.824 18.32 105.959 18.2536C106.095 18.1871 106.206 18.1172 106.206 18.098C106.207 18.0791 106.285 18.049 106.379 18.031C106.474 18.0132 106.551 17.9811 106.551 17.9592C106.551 17.9377 106.64 17.9049 106.748 17.8866C106.856 17.8686 106.956 17.8352 106.97 17.8128C106.993 17.775 107.222 17.7239 107.512 17.692C107.581 17.6846 107.651 17.6643 107.668 17.6472C107.717 17.5981 109.06 17.6108 109.06 17.6604Z" fill="#00A8F3"/>
<path fill-rule="evenodd" clip-rule="evenodd" d="M13.5513 14.3437C13.5513 16.1299 13.5575 16.8535 13.5648 15.9519C13.5725 15.0499 13.5725 13.5885 13.5648 12.7042C13.5575 11.8197 13.5513 12.5575 13.5513 14.3437ZM26.0836 11.7603C26.0836 11.8551 26.0936 11.8938 26.106 11.8465C26.1184 11.7993 26.1184 11.7217 26.106 11.6744C26.0936 11.6269 26.0836 11.6656 26.0836 11.7603ZM17.4512 15.2888C17.512 15.3006 17.6117 15.3006 17.6725 15.2888C17.7333 15.2772 17.6838 15.2675 17.5619 15.2675C17.44 15.2675 17.3904 15.2772 17.4512 15.2888ZM17.9922 15.2888C18.0533 15.3006 18.1528 15.3006 18.2136 15.2888C18.2747 15.2772 18.2248 15.2675 18.1029 15.2675C17.9813 15.2675 17.9314 15.2772 17.9922 15.2888ZM27.3888 15.6826C27.4499 15.6944 27.5384 15.6938 27.5854 15.6817C27.6326 15.6693 27.5824 15.6596 27.4741 15.6602C27.3661 15.6608 27.3274 15.6708 27.3888 15.6826ZM28.9747 16.3121C29.0665 16.4068 29.1526 16.4842 29.1659 16.4842C29.1795 16.4842 29.1154 16.4068 29.0237 16.3121C28.9319 16.2173 28.8457 16.1399 28.8324 16.1399C28.8188 16.1399 28.8829 16.2173 28.9747 16.3121ZM26.3419 21.5281C26.3419 24.451 26.3478 25.6393 26.3551 24.169C26.3622 22.6987 26.3622 20.3073 26.3551 18.8547C26.3478 17.4021 26.3419 18.6052 26.3419 21.5281ZM14.3134 16.7673L14.0445 17.0502L14.3275 16.7812C14.5902 16.5314 14.6327 16.4842 14.5964 16.4842C14.5887 16.4842 14.4612 16.6117 14.3134 16.7673ZM18.9883 19.2645C19.0801 19.3593 19.1663 19.4366 19.1799 19.4366C19.1935 19.4366 19.1294 19.3593 19.0376 19.2645C18.9458 19.1697 18.8597 19.0924 18.8461 19.0924C18.8325 19.0924 18.8965 19.1697 18.9883 19.2645ZM19.8853 21.8478C19.8853 21.9426 19.8954 21.9813 19.9078 21.934C19.9201 21.8865 19.9201 21.8092 19.9078 21.7616C19.8954 21.7144 19.8853 21.7531 19.8853 21.8478ZM13.5513 26.3503C13.5513 28.0824 13.5575 28.7836 13.5648 27.9091C13.5725 27.0343 13.5725 25.6172 13.5648 24.7598C13.5575 23.9024 13.5513 24.6181 13.5513 26.3503ZM29.6255 26.1288C29.6255 26.2236 29.6355 26.2623 29.6479 26.215C29.6603 26.1675 29.6603 26.0902 29.6479 26.0426C29.6355 25.9954 29.6255 26.0341 29.6255 26.1288ZM28.4307 29.3641L28.2613 29.5486L28.4457 29.3791C28.6175 29.2212 28.6529 29.1796 28.6152 29.1796C28.6072 29.1796 28.524 29.2628 28.4307 29.3641ZM21.0054 29.2442C21.0054 29.2528 21.0772 29.3248 21.1651 29.4042L21.3251 29.5486L21.1805 29.3889C21.0459 29.2398 21.0054 29.2061 21.0054 29.2442ZM24.3136 30.5436C24.3879 30.5548 24.5098 30.5548 24.5842 30.5436C24.6586 30.5324 24.5975 30.5229 24.4487 30.5229C24.3 30.5229 24.2392 30.5324 24.3136 30.5436ZM25.052 30.5436C25.127 30.5548 25.2377 30.5545 25.2982 30.543C25.3587 30.5312 25.2973 30.522 25.1621 30.5223C25.0269 30.5226 24.9774 30.5324 25.052 30.5436Z" fill="#54C7FC"/>
<path fill-rule="evenodd" clip-rule="evenodd" d="M11.2773 9.28474C11.3249 9.29714 11.4022 9.29714 11.4497 9.28474C11.4969 9.27234 11.4583 9.26231 11.3635 9.26231C11.2688 9.26231 11.2301 9.27234 11.2773 9.28474ZM10.4406 9.48049C10.4063 9.49437 10.3556 9.55341 10.3272 9.61187C10.2833 9.7031 10.2853 9.70783 10.3423 9.64464C10.3789 9.6039 10.44 9.54308 10.4778 9.50913C10.5504 9.44477 10.543 9.43916 10.4406 9.48049ZM12.2735 9.47931C12.3007 9.5044 12.4512 9.61069 12.6082 9.7155C12.7649 9.82031 12.9624 10.0022 13.0468 10.1197C13.213 10.3509 13.2705 10.3975 13.179 10.2263C13.0834 10.0476 12.6799 9.67653 12.4453 9.55135C12.3237 9.48669 12.2466 9.45421 12.2735 9.47931ZM10.2561 19.5597C10.2561 24.9184 10.262 27.1031 10.2691 24.415C10.2759 21.7268 10.2759 17.3425 10.2691 14.672C10.262 12.0016 10.2561 14.2011 10.2561 19.5597ZM27.9298 9.87611C27.9909 9.88792 28.0794 9.88763 28.1266 9.87523C28.1736 9.86283 28.1234 9.85338 28.0154 9.85367C27.907 9.85426 27.8687 9.8643 27.9298 9.87611ZM27.0959 10.089C26.9965 10.1418 26.9017 10.2059 26.8858 10.2319C26.8631 10.2688 27.2621 10.0727 27.3471 10.0051C27.4121 9.95347 27.2506 10.0075 27.0959 10.089ZM29.1222 10.2741C29.2166 10.3556 29.3037 10.4132 29.3152 10.4019C29.3388 10.3792 29.1969 10.2608 29.0484 10.1796C28.9941 10.1501 29.0274 10.1926 29.1222 10.2741ZM26.6379 10.4318C26.5889 10.4861 26.5632 10.5304 26.5812 10.5304C26.5989 10.5304 26.6576 10.4861 26.7117 10.4318C26.7657 10.3777 26.7913 10.3334 26.7683 10.3334C26.7456 10.3334 26.6869 10.3777 26.6379 10.4318ZM29.4483 10.58C29.5062 10.6473 29.5897 10.7745 29.634 10.8625C29.6786 10.9505 29.7258 11.0222 29.7394 11.0222C29.7928 11.0222 29.5679 10.647 29.4593 10.5552L29.3436 10.4571L29.4483 10.58ZM29.765 11.1208C29.7656 11.1341 29.7981 11.267 29.8374 11.4161C29.9052 11.6721 29.9076 11.675 29.8828 11.4698C29.8624 11.3018 29.7624 11.0051 29.765 11.1208ZM29.8282 12.1064C29.7975 12.2546 29.7795 12.3833 29.7884 12.3927C29.8167 12.4235 29.9156 12.0018 29.8993 11.9183C29.8908 11.8737 29.8586 11.9584 29.8282 12.1064ZM26.1774 12.2032C26.1774 12.2439 26.1966 12.3213 26.2196 12.3756C26.2465 12.4376 26.2621 12.4468 26.2621 12.4001C26.2621 12.3594 26.2429 12.282 26.2196 12.228C26.1931 12.166 26.1774 12.1569 26.1774 12.2032ZM26.3672 12.7028C26.3672 12.7184 26.4336 12.8146 26.5148 12.9168C26.596 13.019 26.6615 13.083 26.6606 13.0588C26.6582 13.0107 26.3672 12.6573 26.3672 12.7028ZM29.4687 12.905L29.3551 13.0644L29.4944 12.9307C29.5708 12.8569 29.6219 12.7854 29.608 12.7712C29.5939 12.7574 29.5313 12.8176 29.4687 12.905ZM29.1222 13.2439C29.0274 13.3272 28.9944 13.3727 29.049 13.3449C29.1387 13.2994 29.3616 13.0863 29.314 13.091C29.3031 13.0922 29.2166 13.161 29.1222 13.2439ZM26.8061 13.2053C26.8716 13.2861 27.0561 13.4081 27.0561 13.3706C27.0561 13.3611 26.9841 13.3009 26.8961 13.2365C26.7972 13.1639 26.7627 13.1521 26.8061 13.2053ZM27.4988 13.5787C27.5393 13.6062 27.6148 13.6292 27.6668 13.6295C27.7928 13.6307 27.7533 13.6024 27.5726 13.5619C27.4649 13.5377 27.4448 13.5424 27.4988 13.5787ZM28.3595 13.5811C28.2234 13.6156 28.2217 13.6192 28.335 13.6236C28.4026 13.6266 28.4911 13.6074 28.5319 13.5811C28.6154 13.5271 28.5723 13.5271 28.3595 13.5811ZM16.8977 15.3525C16.7661 15.3859 16.7634 15.39 16.8732 15.39C16.9408 15.39 17.0624 15.3732 17.1436 15.3525C17.2752 15.3192 17.2779 15.315 17.1684 15.315C17.1008 15.315 16.9789 15.3319 16.8977 15.3525ZM18.5949 15.3502C18.7176 15.3918 19.0231 15.4181 18.9842 15.3835C18.973 15.3735 18.8531 15.3522 18.7179 15.3366C18.5521 15.3177 18.5119 15.3218 18.5949 15.3502ZM16.2581 15.5264C16.1353 15.5858 16.1312 15.5926 16.2336 15.5675C16.3729 15.5335 16.5296 15.4535 16.455 15.4547C16.4278 15.455 16.3393 15.4875 16.2581 15.5264ZM27.2887 15.7325C27.3758 15.7434 27.5307 15.7434 27.6328 15.7328C27.735 15.7222 27.6635 15.7133 27.474 15.713C27.2848 15.713 27.2013 15.7216 27.2887 15.7325ZM26.8347 15.7954C26.7727 15.822 26.7636 15.8376 26.8099 15.8376C26.8507 15.8376 26.928 15.8187 26.9823 15.7954C27.0443 15.7688 27.0534 15.7532 27.0068 15.7532C26.9661 15.7532 26.8887 15.7721 26.8347 15.7954ZM27.8964 15.7638C27.9076 15.7736 27.9832 15.7963 28.0644 15.8146C28.1721 15.8388 28.1922 15.8341 28.1381 15.7978C28.0717 15.7526 27.8471 15.7213 27.8964 15.7638ZM28.335 15.9185C28.4026 15.9572 28.4802 15.9888 28.5071 15.9888C28.5342 15.9888 28.5012 15.9572 28.4333 15.9185C28.3657 15.8798 28.2884 15.848 28.2612 15.848C28.2341 15.848 28.2674 15.8798 28.335 15.9185ZM15.0356 16.1668C14.9098 16.2628 14.8071 16.3531 14.8071 16.3676C14.8071 16.39 15.1179 16.1659 15.272 16.0328C15.403 15.9191 15.2345 16.0148 15.0356 16.1668ZM20.6609 16.0056C20.6609 16.0162 20.766 16.0998 20.8947 16.1913C21.0231 16.2828 21.2501 16.4688 21.3988 16.6044C21.5954 16.7836 21.6223 16.7995 21.4971 16.6628C21.2876 16.4334 20.6609 15.9413 20.6609 16.0056ZM28.5809 16.0077C28.5809 16.0198 28.6623 16.0918 28.7615 16.1674C28.861 16.2433 28.9265 16.2802 28.9076 16.2495C28.8687 16.1866 28.5809 15.9734 28.5809 16.0077ZM26.3911 21.4543C26.3911 24.3905 26.397 25.5918 26.4041 24.1236C26.4115 22.6553 26.4115 20.253 26.4041 18.7847C26.397 17.3165 26.3911 18.5178 26.3911 21.4543ZM14.3384 16.7918L13.9954 17.1485L14.352 16.8054C14.5483 16.6168 14.7085 16.4562 14.7085 16.4488C14.7085 16.4128 14.6569 16.4606 14.3384 16.7918ZM29.1927 16.5988C29.2686 16.6982 29.3406 16.7794 29.3527 16.7794C29.3869 16.7794 29.1738 16.4916 29.111 16.4529C29.0803 16.4337 29.1172 16.4996 29.1927 16.5988ZM29.3716 16.8533C29.3716 16.8804 29.4032 16.9581 29.4418 17.0257C29.4805 17.0933 29.5121 17.1263 29.5121 17.0995C29.5121 17.0723 29.4805 16.995 29.4418 16.9271C29.4032 16.8595 29.3716 16.8264 29.3716 16.8533ZM21.9614 17.2385C22.0373 17.338 22.1093 17.4192 22.1214 17.4192C22.1556 17.4192 21.9425 17.1314 21.8796 17.0924C21.849 17.0735 21.8858 17.1393 21.9614 17.2385ZM29.5224 17.2223C29.5224 17.263 29.5416 17.3404 29.5649 17.3947C29.5915 17.4567 29.6071 17.4659 29.6071 17.4192C29.6071 17.3785 29.5879 17.3011 29.5649 17.2471C29.5381 17.1851 29.5224 17.1759 29.5224 17.2223ZM29.6375 21.7985C29.6375 24.1126 29.6434 25.0592 29.6508 23.9021C29.6582 22.7454 29.6582 20.852 29.6508 19.6949C29.6434 18.5382 29.6375 19.4847 29.6375 21.7985ZM22.3826 17.9114C22.4378 18.0195 22.4942 18.108 22.5077 18.108C22.5213 18.108 22.4871 18.0195 22.4319 17.9114C22.3767 17.803 22.3203 17.7145 22.307 17.7145C22.2935 17.7145 22.3274 17.803 22.3826 17.9114ZM22.557 18.268C22.5753 18.3289 22.6108 18.4003 22.6355 18.4269C22.6603 18.4532 22.6556 18.4036 22.6252 18.3162C22.5629 18.1373 22.5054 18.0968 22.557 18.268ZM16.7625 18.4874C16.8233 18.4989 16.9228 18.4989 16.9839 18.4874C17.0447 18.4756 16.9948 18.4659 16.8732 18.4659C16.7513 18.4659 16.7014 18.4756 16.7625 18.4874ZM15.7909 18.6002C15.697 18.661 15.798 18.661 15.9877 18.6002L16.1105 18.5609L15.9877 18.5565C15.9202 18.5544 15.8313 18.5739 15.7909 18.6002ZM17.7339 18.6002C17.7882 18.6235 17.8655 18.6424 17.9063 18.6424C17.9526 18.6424 17.9434 18.6268 17.8815 18.6002C17.8275 18.5769 17.7498 18.558 17.7094 18.558C17.6628 18.558 17.6719 18.5736 17.7339 18.6002ZM18.4718 18.8553C18.5261 18.8857 18.6312 18.953 18.7055 19.0047C18.7799 19.0566 18.8407 19.087 18.8407 19.0729C18.8407 19.0333 18.4809 18.7968 18.4237 18.7986C18.3959 18.7995 18.4178 18.8249 18.4718 18.8553ZM14.6932 19.1951C14.5385 19.333 14.3886 19.4936 14.3597 19.552C14.3307 19.6105 14.3809 19.5739 14.4709 19.4709C14.5613 19.3681 14.7233 19.2084 14.8316 19.116C14.9399 19.0239 15.0161 18.9474 15.0013 18.9465C14.9863 18.9453 14.8478 19.0575 14.6932 19.1951ZM22.8324 18.9937C22.8324 19.0345 22.8513 19.1118 22.8746 19.1662C22.9012 19.2282 22.9168 19.2373 22.9168 19.1907C22.9168 19.1499 22.8979 19.0726 22.8746 19.0185C22.8481 18.9565 22.8324 18.9474 22.8324 18.9937ZM18.89 19.1077C18.89 19.1163 18.962 19.188 19.05 19.2674L19.2097 19.4121L19.0653 19.2521C18.9307 19.103 18.89 19.0696 18.89 19.1077ZM22.9829 19.5597C22.9829 19.6138 23.0007 19.7135 23.0222 19.7812C23.0535 19.8786 23.0615 19.8836 23.0615 19.8057C23.0615 19.7516 23.0437 19.6521 23.0222 19.5842C22.9909 19.4868 22.9829 19.4818 22.9829 19.5597ZM13.9786 20.2016C13.8963 20.3826 13.9119 20.4209 14.001 20.2565C14.0427 20.1797 14.0678 20.1077 14.0562 20.0965C14.045 20.0853 14.0102 20.1325 13.9786 20.2016ZM19.6069 20.1747C19.625 20.2426 19.6604 20.3309 19.6855 20.3716C19.717 20.423 19.7209 20.408 19.6981 20.3223C19.6799 20.2547 19.6447 20.1662 19.6196 20.1257C19.5881 20.0743 19.5839 20.0894 19.6069 20.1747ZM23.1583 23.1764C23.1653 24.7595 23.1777 26.1879 23.1857 26.3503C23.1937 26.5127 23.2022 25.3279 23.2052 23.7176C23.2081 22.1074 23.1958 20.6793 23.1777 20.5438C23.1597 20.4085 23.1512 21.5931 23.1583 23.1764ZM13.8576 20.5069C13.8192 20.5751 13.7655 20.8393 13.7962 20.8089C13.8325 20.7723 13.9222 20.47 13.8966 20.47C13.8865 20.47 13.8688 20.4868 13.8576 20.5069ZM19.7598 20.7162C19.815 21.0147 19.8747 21.1564 19.8428 20.9128C19.8268 20.7912 19.7944 20.6583 19.7708 20.6176C19.7442 20.5721 19.7401 20.6096 19.7598 20.7162ZM13.7062 21.0377C13.6894 21.0817 13.6776 21.1658 13.6799 21.2246C13.6832 21.3002 13.6982 21.283 13.7322 21.1658C13.7812 20.9955 13.7608 20.8954 13.7062 21.0377ZM19.9115 23.57C19.9186 24.8014 19.931 25.942 19.939 26.1043C19.947 26.2667 19.9558 25.3589 19.9591 24.0867C19.9623 22.8148 19.9499 21.6742 19.9316 21.5526C19.9133 21.4307 19.9045 22.3385 19.9115 23.57ZM13.5595 22.0256C13.5421 22.1519 13.5315 22.4791 13.5359 22.7528C13.5436 23.2325 13.545 23.2248 13.5787 22.5366C13.6156 21.7814 13.6108 21.6509 13.5595 22.0256ZM29.546 26.7004C29.528 26.8537 29.523 26.9892 29.5348 27.001C29.5469 27.0131 29.5723 26.8982 29.5912 26.7459C29.6104 26.5935 29.6154 26.458 29.6024 26.445C29.5894 26.4321 29.564 26.5469 29.546 26.7004ZM19.9836 26.621C19.9836 26.7155 19.9939 26.7545 20.0063 26.7069C20.0184 26.6597 20.0184 26.582 20.0063 26.5348C19.9939 26.4876 19.9836 26.5262 19.9836 26.621ZM26.3247 26.8997C26.3212 26.9585 26.3055 27.047 26.2899 27.0966C26.263 27.182 26.2645 27.1823 26.3176 27.0993C26.3486 27.0512 26.3643 26.9626 26.3527 26.9024C26.3315 26.7931 26.3315 26.7931 26.3247 26.8997ZM20.0299 27.0391C20.0305 27.0934 20.0491 27.1929 20.0706 27.2605L20.1099 27.3836L20.1114 27.2605C20.1123 27.1929 20.094 27.0934 20.0706 27.0391L20.0284 26.9408L20.0299 27.0391ZM23.2687 27.1031C23.2681 27.1837 23.4012 27.4456 23.521 27.5994C23.5715 27.6638 23.6125 27.693 23.6125 27.6638C23.6125 27.6346 23.588 27.5959 23.5582 27.5773C23.5284 27.559 23.4511 27.4303 23.3864 27.2915C23.3221 27.1527 23.2689 27.068 23.2687 27.1031ZM29.3988 27.5129C29.3816 27.5991 29.3766 27.6792 29.3875 27.6904C29.3988 27.7013 29.4233 27.6408 29.4418 27.5557C29.4604 27.4707 29.4655 27.391 29.4531 27.3783C29.4404 27.3659 29.4162 27.4264 29.3988 27.5129ZM23.6618 27.7264C23.6618 27.7485 23.7005 27.797 23.7477 27.8342C23.8507 27.915 24.052 28.0296 23.9815 27.967C23.7256 27.74 23.6618 27.6918 23.6618 27.7264ZM25.7279 27.8584C25.6332 27.9416 25.6001 27.9871 25.6547 27.9593C25.7444 27.9139 25.9673 27.7007 25.9197 27.7054C25.9088 27.7066 25.8223 27.7754 25.7279 27.8584ZM29.2751 27.9059C29.245 27.9927 29.2287 28.0724 29.2391 28.083C29.2497 28.0937 29.2831 28.0311 29.3135 27.944C29.3436 27.8572 29.3598 27.7772 29.3495 27.7668C29.3388 27.7562 29.3055 27.8188 29.2751 27.9059ZM24.6332 28.1819C24.7211 28.1929 24.8652 28.1929 24.9531 28.1819C25.0411 28.171 24.9691 28.1622 24.7931 28.1622C24.6172 28.1622 24.5452 28.171 24.6332 28.1819ZM28.7116 28.995C28.5567 29.2115 28.5514 29.2253 28.68 29.0813C28.8247 28.9192 28.9481 28.7367 28.9129 28.7367C28.9044 28.7367 28.8138 28.853 28.7116 28.995ZM21.2055 29.3845C21.3876 29.5649 21.5886 29.7376 21.6524 29.7686C21.7344 29.8084 21.725 29.7925 21.6202 29.7131C21.539 29.6514 21.338 29.4786 21.1736 29.329C20.8838 29.065 20.8847 29.0668 21.2055 29.3845ZM28.2742 29.4518C28.1733 29.5457 28.108 29.6224 28.1293 29.6224C28.1505 29.6224 28.2432 29.5451 28.335 29.4503C28.5493 29.2292 28.5124 29.2301 28.2742 29.4518ZM13.3423 29.76L13.2304 29.9425L13.3547 29.8043C13.4228 29.7284 13.4789 29.6455 13.4789 29.6198C13.4789 29.5474 13.4621 29.5646 13.3423 29.76ZM22.1367 30.0408C22.2043 30.0795 22.2819 30.1111 22.3088 30.1111C22.336 30.1111 22.3029 30.0795 22.235 30.0408C22.1674 30.0021 22.0901 29.9705 22.0629 29.9705C22.0358 29.9705 22.0691 30.0021 22.1367 30.0408ZM27.3513 30.0408C27.2837 30.0795 27.2503 30.1111 27.2775 30.1111C27.3043 30.1111 27.382 30.0795 27.4495 30.0408C27.5171 30.0021 27.5505 29.9705 27.5233 29.9705C27.4962 29.9705 27.4188 30.0021 27.3513 30.0408ZM11.4497 30.1512C11.7 30.1601 12.1094 30.1601 12.3597 30.1512C12.61 30.1423 12.4051 30.135 11.9046 30.135C11.404 30.135 11.1994 30.1423 11.4497 30.1512ZM22.7805 30.2799C22.7917 30.2897 22.8672 30.3124 22.9484 30.3307C23.0561 30.3546 23.0762 30.3502 23.0222 30.3136C22.9558 30.2687 22.7309 30.2374 22.7805 30.2799ZM26.5641 30.3136C26.5101 30.3502 26.5301 30.3546 26.6379 30.3307C26.8188 30.2903 26.858 30.2619 26.732 30.2631C26.6804 30.2634 26.6048 30.2861 26.5641 30.3136ZM23.4198 30.4281C23.431 30.4385 23.5733 30.4591 23.7356 30.4742C23.9295 30.4922 23.98 30.4878 23.8832 30.4615C23.7315 30.4205 23.3832 30.3954 23.4198 30.4281ZM25.7031 30.4615C25.6063 30.4878 25.6568 30.4922 25.8507 30.4742C26.013 30.4591 26.1553 30.4385 26.1665 30.4281C26.2031 30.3954 25.8548 30.4205 25.7031 30.4615Z" fill="#98DDFC"/>
<path fill-rule="evenodd" clip-rule="evenodd" d="M27.9053 9.82739C27.98 9.83891 28.0907 9.83861 28.1512 9.8268C28.2117 9.81499 28.1506 9.80584 28.0154 9.80614C27.8799 9.80673 27.8306 9.81617 27.9053 9.82739ZM10.2072 19.609C10.2072 24.9945 10.2128 27.2053 10.2198 24.5212C10.2269 21.8372 10.2269 17.4307 10.2198 14.729C10.2128 12.0272 10.2072 14.2232 10.2072 19.609ZM26.091 11.3886C26.0762 11.4276 26.0727 11.4993 26.083 11.5484C26.0951 11.6039 26.1119 11.5773 26.1279 11.4775C26.1547 11.3098 26.1373 11.2679 26.091 11.3886ZM29.9257 11.7603C29.9257 11.9635 29.9345 12.0464 29.9451 11.9449C29.9558 11.8436 29.9558 11.6774 29.9451 11.5758C29.9345 11.4745 29.9257 11.5575 29.9257 11.7603ZM26.0721 12.0281C26.0721 12.0943 26.0904 12.1595 26.1125 12.1731C26.1347 12.187 26.1432 12.1329 26.1314 12.0532C26.1057 11.8773 26.0721 11.8631 26.0721 12.0281ZM27.7619 13.6909C27.7929 13.711 27.9071 13.7272 28.0154 13.7272C28.1234 13.7272 28.2377 13.711 28.2689 13.6909C28.3002 13.6711 28.186 13.6549 28.0154 13.6549C27.8445 13.6549 27.7306 13.6711 27.7619 13.6909ZM17.7463 15.2398C17.8071 15.2513 17.9069 15.2513 17.9677 15.2398C18.0285 15.2279 17.9789 15.2182 17.857 15.2182C17.7351 15.2182 17.6855 15.2279 17.7463 15.2398ZM17.1073 15.2891C17.1687 15.3006 17.2573 15.3003 17.3042 15.2879C17.3511 15.2755 17.3012 15.266 17.1929 15.2666C17.0846 15.2672 17.0462 15.2772 17.1073 15.2891ZM18.3859 15.2888C18.4467 15.3006 18.5462 15.3006 18.6073 15.2888C18.6681 15.2772 18.6182 15.2675 18.4966 15.2675C18.3747 15.2675 18.3248 15.2772 18.3859 15.2888ZM27.0561 15.6991C27.0021 15.7358 27.0222 15.7402 27.1299 15.7163C27.3106 15.6758 27.3501 15.6475 27.2241 15.6487C27.1721 15.649 27.0966 15.6717 27.0561 15.6991ZM29.6869 21.8478C29.6869 24.216 29.6928 25.1847 29.7002 24.0007C29.7075 22.8165 29.7075 20.8792 29.7002 19.6949C29.6928 18.511 29.6869 19.4797 29.6869 21.8478ZM16.7632 18.5367C16.8243 18.5482 16.9128 18.5479 16.9597 18.5355C17.007 18.5231 16.9568 18.5137 16.8485 18.5143C16.7404 18.5149 16.7018 18.5249 16.7632 18.5367ZM16.3204 18.5857C16.3815 18.5975 16.4701 18.5972 16.517 18.5848C16.5642 18.5724 16.5141 18.563 16.4057 18.5633C16.2977 18.5639 16.259 18.5739 16.3204 18.5857ZM23.1013 19.9533C23.1418 20.1343 23.1701 20.1735 23.1689 20.0478C23.1686 19.9958 23.1459 19.9202 23.1185 19.8795C23.0819 19.8257 23.0774 19.8455 23.1013 19.9533ZM23.2421 23.9883C23.2421 25.5581 23.2483 26.2074 23.256 25.4312C23.2634 24.655 23.2634 23.3707 23.256 22.5771C23.2483 21.7835 23.2421 22.4185 23.2421 23.9883ZM19.8387 21.4788C19.8393 21.614 19.8487 21.6636 19.8599 21.5889C19.8715 21.5139 19.8712 21.4032 19.8594 21.3427C19.8475 21.2822 19.8384 21.3436 19.8387 21.4788ZM19.8962 23.9638C19.8962 25.0598 19.9027 25.5082 19.9107 24.9603C19.9187 24.412 19.9187 23.5154 19.9107 22.9674C19.9027 22.4191 19.8962 22.8676 19.8962 23.9638ZM23.5633 27.5711C23.5633 27.5797 23.6353 27.6517 23.7232 27.7311L23.8832 27.8758L23.7386 27.7158C23.604 27.5667 23.5633 27.5333 23.5633 27.5711ZM25.8478 27.7158L25.7032 27.8758L25.8631 27.7311C25.9511 27.6517 26.0231 27.5797 26.0231 27.5711C26.0231 27.5333 25.9824 27.5667 25.8478 27.7158ZM25.0146 28.0972C24.9526 28.1238 24.9434 28.1394 24.9901 28.1394C25.0305 28.1394 25.1081 28.1202 25.1621 28.0972C25.2241 28.0703 25.2333 28.0547 25.1866 28.0547C25.1462 28.0547 25.0686 28.0739 25.0146 28.0972ZM23.8714 30.5436C23.9464 30.5548 24.0571 30.5545 24.1176 30.543C24.1781 30.5312 24.1167 30.522 23.9815 30.5223C23.8463 30.5226 23.7967 30.5324 23.8714 30.5436ZM25.4948 30.5436C25.5697 30.5548 25.6804 30.5545 25.7409 30.543C25.8014 30.5312 25.74 30.522 25.6049 30.5223C25.4697 30.5226 25.4201 30.5324 25.4948 30.5436ZM24.658 30.5926C24.7324 30.6041 24.854 30.6041 24.9284 30.5926C25.0027 30.5814 24.9419 30.5722 24.7932 30.5722C24.6444 30.5722 24.5836 30.5814 24.658 30.5926Z" fill="#3CC4FC"/>
</svg>
