<svg width="332" height="70" viewBox="0 0 332 70" fill="none" xmlns="http://www.w3.org/2000/svg">
<path d="M26.1184 0.487863C20.3294 -0.162621 14.4843 -0.162621 8.69539 0.487863L2.70077 1.16144C1.81408 1.26105 1.12073 1.96273 1.04182 2.84028L0.581037 7.96585C-0.193679 16.5838 -0.193679 25.2524 0.581037 33.8702L1.04182 38.9956C1.12784 39.9526 1.93998 40.6866 2.91325 40.6866H10.6969V68.1452C10.6969 68.9331 11.2012 69.6349 11.9545 69.8955C12.7078 70.1562 13.5455 69.9183 14.0437 69.3025L15.5118 67.4884C24.2646 56.6697 31.2347 44.5562 36.1647 31.5941L36.8801 29.7126C37.0966 29.1429 37.0169 28.5049 36.6657 28.0043C36.315 27.5043 35.7378 27.2061 35.1211 27.2061H24.9265L33.6646 3.64181C33.863 3.10775 33.8019 2.5135 33.4988 2.02964C33.1962 1.54574 32.6851 1.22574 32.113 1.16144L26.1184 0.487863Z" fill="url(#paint0_linear_51_5)"/>
<path d="M69 14.5367V8.70667H74.1882V14.5367H69ZM69 59.94V21.78H74.1882V59.94H69ZM112.299 59.94V40.4713C112.299 38.3513 112.099 36.408 111.699 34.6413C111.299 32.8511 110.652 31.2964 109.758 29.9773C108.887 28.6347 107.746 27.5982 106.334 26.868C104.946 26.1378 103.252 25.7727 101.252 25.7727C99.4164 25.7727 97.7929 26.0907 96.3811 26.7267C94.9929 27.3627 93.8164 28.2813 92.8517 29.4827C91.9105 30.6604 91.1929 32.0973 90.6988 33.7933C90.2046 35.4893 89.9576 37.4209 89.9576 39.588L86.287 38.7753C86.287 34.8651 86.9694 31.5791 88.3341 28.9173C89.6988 26.2556 91.5811 24.2416 93.9811 22.8753C96.3811 21.5091 99.134 20.826 102.24 20.826C104.522 20.826 106.51 21.1793 108.205 21.886C109.922 22.5927 111.369 23.5467 112.546 24.748C113.746 25.9493 114.71 27.3273 115.44 28.882C116.169 30.4131 116.699 32.0502 117.028 33.7933C117.357 35.5129 117.522 37.2324 117.522 38.952V59.94H112.299ZM84.7341 59.94V21.78H89.4282V31.1787H89.9576V59.94H84.7341ZM140.904 60.9647C136.434 60.9647 132.752 59.9989 129.857 58.0673C126.987 56.1358 125.222 53.4504 124.563 50.0113L129.857 49.128C130.422 51.2951 131.705 53.0264 133.705 54.322C135.728 55.594 138.222 56.23 141.187 56.23C144.081 56.23 146.363 55.6293 148.034 54.428C149.704 53.2031 150.54 51.5424 150.54 49.446C150.54 48.2682 150.269 47.3142 149.728 46.584C149.21 45.8302 148.14 45.1353 146.516 44.4993C144.893 43.8633 142.469 43.1096 139.246 42.238C135.787 41.2958 133.081 40.3536 131.128 39.4113C129.175 38.4691 127.787 37.3856 126.963 36.1607C126.14 34.9122 125.728 33.3929 125.728 31.6027C125.728 29.4356 126.34 27.5393 127.563 25.914C128.787 24.2651 130.481 22.9931 132.646 22.098C134.81 21.1793 137.328 20.72 140.199 20.72C143.069 20.72 145.634 21.1911 147.893 22.1333C150.175 23.052 152.01 24.3476 153.399 26.02C154.787 27.6924 155.61 29.6358 155.869 31.85L150.575 32.804C150.222 30.5662 149.104 28.7996 147.222 27.504C145.363 26.1849 142.999 25.5018 140.128 25.4547C137.422 25.384 135.222 25.9022 133.528 27.0093C131.834 28.0929 130.987 29.5416 130.987 31.3553C130.987 32.3682 131.293 33.2398 131.905 33.97C132.516 34.6767 133.622 35.348 135.222 35.984C136.846 36.62 139.152 37.3149 142.14 38.0687C145.646 38.9638 148.399 39.906 150.399 40.8953C152.399 41.8847 153.822 43.0507 154.669 44.3933C155.516 45.736 155.94 47.3967 155.94 49.3753C155.94 52.9793 154.599 55.8178 151.916 57.8907C149.257 59.94 145.587 60.9647 140.904 60.9647ZM184.52 59.94C182.379 60.3876 180.261 60.5642 178.167 60.47C176.097 60.3758 174.238 59.9282 172.591 59.1273C170.967 58.3264 169.732 57.078 168.885 55.382C168.202 53.9687 167.826 52.5436 167.755 51.1067C167.708 49.6462 167.685 47.9856 167.685 46.1247V11.18H172.838V45.9127C172.838 47.5144 172.849 48.8571 172.873 49.9407C172.92 51.0007 173.167 51.9429 173.614 52.7673C174.461 54.3456 175.802 55.2878 177.638 55.594C179.497 55.9002 181.791 55.8296 184.52 55.382V59.94ZM159.532 26.232V21.78H184.52V26.232H159.532ZM202.936 61C200.065 61 197.653 60.4818 195.7 59.4453C193.771 58.4089 192.324 57.0309 191.359 55.3113C190.395 53.5918 189.912 51.7191 189.912 49.6933C189.912 47.6204 190.324 45.8538 191.147 44.3933C191.995 42.9093 193.136 41.6962 194.571 40.754C196.03 39.8118 197.712 39.0933 199.618 38.5987C201.547 38.1276 203.677 37.7153 206.006 37.362C208.359 36.9851 210.653 36.6671 212.889 36.408C215.147 36.1253 217.124 35.8544 218.818 35.5953L216.983 36.726C217.053 32.9571 216.324 30.1658 214.794 28.352C213.265 26.5382 210.606 25.6313 206.818 25.6313C204.206 25.6313 201.995 26.2202 200.183 27.398C198.395 28.5758 197.136 30.4367 196.406 32.9807L191.359 31.4967C192.23 28.0811 193.983 25.4311 196.618 23.5467C199.253 21.6622 202.677 20.72 206.889 20.72C210.371 20.72 213.324 21.3796 215.747 22.6987C218.194 23.9942 219.924 25.8787 220.936 28.352C221.406 29.4591 221.712 30.6958 221.853 32.062C221.994 33.4282 222.065 34.818 222.065 36.2313V59.94H217.442V50.3647L218.783 50.93C217.489 54.2042 215.477 56.7011 212.747 58.4207C210.018 60.1402 206.747 61 202.936 61ZM203.536 56.5127C205.959 56.5127 208.077 56.0769 209.889 55.2053C211.7 54.3338 213.159 53.1442 214.265 51.6367C215.371 50.1056 216.089 48.386 216.418 46.478C216.7 45.2531 216.853 43.9104 216.877 42.45C216.9 40.966 216.912 39.8589 216.912 39.1287L218.889 40.1533C217.124 40.3889 215.206 40.6244 213.136 40.86C211.089 41.0956 209.065 41.3664 207.065 41.6727C205.089 41.9789 203.3 42.344 201.7 42.768C200.618 43.0742 199.571 43.51 198.559 44.0753C197.547 44.6171 196.712 45.3473 196.053 46.266C195.418 47.1847 195.1 48.3271 195.1 49.6933C195.1 50.8004 195.371 51.8722 195.912 52.9087C196.477 53.9451 197.371 54.8049 198.595 55.488C199.842 56.1711 201.489 56.5127 203.536 56.5127ZM245.477 60.9647C241.006 60.9647 237.324 59.9989 234.43 58.0673C231.559 56.1358 229.794 53.4504 229.136 50.0113L234.43 49.128C234.994 51.2951 236.277 53.0264 238.277 54.322C240.3 55.594 242.794 56.23 245.759 56.23C248.653 56.23 250.936 55.6293 252.606 54.428C254.277 53.2031 255.112 51.5424 255.112 49.446C255.112 48.2682 254.841 47.3142 254.3 46.584C253.783 45.8302 252.712 45.1353 251.088 44.4993C249.465 43.8633 247.041 43.1096 243.818 42.238C240.359 41.2958 237.653 40.3536 235.7 39.4113C233.747 38.4691 232.359 37.3856 231.536 36.1607C230.712 34.9122 230.3 33.3929 230.3 31.6027C230.3 29.4356 230.912 27.5393 232.136 25.914C233.359 24.2651 235.053 22.9931 237.218 22.098C239.383 21.1793 241.9 20.72 244.771 20.72C247.641 20.72 250.206 21.1911 252.465 22.1333C254.747 23.052 256.583 24.3476 257.971 26.02C259.359 27.6924 260.183 29.6358 260.441 31.85L255.147 32.804C254.794 30.5662 253.677 28.7996 251.794 27.504C249.936 26.1849 247.571 25.5018 244.7 25.4547C241.994 25.384 239.794 25.9022 238.1 27.0093C236.406 28.0929 235.559 29.5416 235.559 31.3553C235.559 32.3682 235.865 33.2398 236.477 33.97C237.089 34.6767 238.194 35.348 239.794 35.984C241.418 36.62 243.724 37.3149 246.712 38.0687C250.218 38.9638 252.971 39.906 254.971 40.8953C256.971 41.8847 258.394 43.0507 259.241 44.3933C260.088 45.736 260.512 47.3967 260.512 49.3753C260.512 52.9793 259.171 55.8178 256.488 57.8907C253.83 59.94 250.159 60.9647 245.477 60.9647ZM284.469 61C280.751 61 277.528 60.1756 274.798 58.5267C272.092 56.8778 269.986 54.5576 268.481 51.566C266.975 48.5744 266.222 45.0647 266.222 41.0367C266.222 36.8673 266.963 33.2633 268.445 30.2247C269.928 27.186 272.01 24.8422 274.692 23.1933C277.398 21.5444 280.586 20.72 284.257 20.72C288.022 20.72 291.233 21.5916 293.892 23.3347C296.551 25.0542 298.563 27.5276 299.928 30.7547C301.292 33.9818 301.916 37.8331 301.798 42.3087H296.504V40.4713C296.41 35.5247 295.339 31.7911 293.292 29.2707C291.269 26.7502 288.304 25.49 284.398 25.49C280.304 25.49 277.163 26.8209 274.975 29.4827C272.81 32.1444 271.728 35.9369 271.728 40.86C271.728 45.6653 272.81 49.3989 274.975 52.0607C277.163 54.6989 280.257 56.018 284.257 56.018C286.986 56.018 289.363 55.3938 291.386 54.1453C293.433 52.8733 295.045 51.0478 296.222 48.6687L301.057 50.5413C299.551 53.8627 297.328 56.442 294.386 58.2793C291.469 60.0931 288.163 61 284.469 61ZM269.892 42.3087V37.9627H299.01V42.3087H269.892ZM310.337 59.94V8H315.525V59.94H310.337ZM326.812 59.94V8H332V59.94H326.812Z" fill="black"/>
<defs>
<linearGradient id="paint0_linear_51_5" x1="1.303" y1="5.08507" x2="33.2123" y2="67.2458" gradientUnits="userSpaceOnUse">
<stop stop-color="#845CF5"/>
<stop offset="0.505208" stop-color="#755DBA"/>
<stop offset="1" stop-color="#402980"/>
</linearGradient>
</defs>
</svg>
