<svg width="104" height="24" viewBox="0 0 104 24" fill="none" xmlns="http://www.w3.org/2000/svg">
<path d="M94.5625 23.902C89.7624 23.902 86.0461 20.7432 86.0461 15.2928C86.0461 9.81136 89.7933 6.65257 94.5625 6.65257C99.3626 6.65257 103.048 9.81136 103.048 15.2928C103.048 20.7432 99.3626 23.902 94.5625 23.902ZM90.4127 15.2928C90.4127 18.5445 92.3637 20.0929 94.5625 20.0929C96.7612 20.0929 98.6813 18.5445 98.6813 15.2928C98.6813 12.0101 96.7612 10.4617 94.5625 10.4617C92.3637 10.4617 90.4127 12.0101 90.4127 15.2928Z" fill="#222222"/>
<path d="M76.5439 23.902C71.9606 23.902 68.3063 20.7123 68.3063 15.2618C68.3063 9.8733 72.1154 6.65257 76.513 6.65257C81.5609 6.65257 85.0603 10.5236 84.348 16.4077H72.58C72.9516 19.04 74.5 20.3407 76.5439 20.3407C78.1233 20.3407 79.455 19.5974 79.8576 18.2348H84.2861C83.5428 21.7962 80.6008 23.902 76.5439 23.902ZM72.7038 13.4656H79.8576C79.7647 11.3598 78.433 10.214 76.482 10.214C74.7787 10.214 73.2303 11.2359 72.7038 13.4656Z" fill="#222222"/>
<path d="M56.9445 23.902C53.1973 23.902 49.7289 20.8052 49.7289 15.2928C49.7289 9.7494 53.1973 6.65255 56.9445 6.65255C59.1433 6.65255 60.7846 7.4887 61.7756 8.75841V0.365937H66.1422V23.4375H61.9305V21.6413C60.9395 22.973 59.2672 23.902 56.9445 23.902ZM54.1574 15.2928C54.1574 18.5754 55.9226 20.0619 57.9665 20.0619C59.9795 20.0619 61.7756 18.4516 61.7756 15.2928C61.7756 11.9791 60.0104 10.4926 57.9665 10.4926C55.9226 10.4926 54.1574 11.9791 54.1574 15.2928Z" fill="#222222"/>
<path d="M43.2038 23.4375V7.11712H47.5703V23.4375H43.2038Z" fill="#222222"/>
<path d="M45.3704 0C43.7806 0 42.5219 1.25862 42.5219 2.81532C42.5219 4.33891 43.7806 5.63064 45.3704 5.63064C46.9602 5.63064 48.2519 4.33891 48.2519 2.81532C48.2519 1.25862 46.9602 0 45.3704 0Z" fill="#222222"/>
<path d="M7.92282 23.4375V7.1171H12.1345V9.09908C12.8468 7.98422 14.4881 6.65257 17.1205 6.65257C20.8677 6.65257 23.0664 9.25393 23.0664 12.7843V23.4375H18.6999V13.6824C18.6999 11.9482 17.6469 10.4927 15.7579 10.4927C13.8378 10.4927 12.2894 12.0101 12.2894 14.147V23.4375H7.92282Z" fill="#222222"/>
<path d="M0.716992 23.4375V7.11712H5.08355V23.4375H0.716992Z" fill="#222222"/>
<path d="M2.8836 0C1.29377 0 0.0351562 1.25862 0.0351562 2.81532C0.0351562 4.33891 1.29377 5.63064 2.8836 5.63064C4.47343 5.63064 5.76516 4.33891 5.76516 2.81532C5.76516 1.25862 4.47343 0 2.8836 0Z" fill="#222222"/>
<path d="M32.5389 23.9044C30.6837 23.9044 29.0359 22.7191 28.446 20.9601L23.8037 7.11712H28.3561L32.2027 19.9967C32.2529 20.1646 32.4073 20.2797 32.5825 20.2797C32.7578 20.2797 32.9122 20.1646 32.9624 19.9967L36.809 7.11712H41.3614L36.719 20.9601C36.1292 22.7191 34.4814 23.9044 32.6262 23.9044H32.5389Z" fill="#222222"/>
</svg>
