<svg width="110" height="24" viewBox="0 0 110 24" fill="none" xmlns="http://www.w3.org/2000/svg">
<path d="M50.5909 18.4466V10.9213C50.5909 8.88539 49.5735 8.31804 48.0116 8.31804C47.3544 8.34415 46.7113 8.51711 46.1297 8.82421C45.548 9.13132 45.0425 9.56477 44.6503 10.0928V18.4466H42.8759V2.6615H44.6503V8.67438C45.153 8.08139 45.7758 7.60178 46.4776 7.26724C47.1794 6.93271 47.9441 6.75084 48.7214 6.73366C51.1117 6.73366 52.366 7.89381 52.366 10.379V18.4466H50.5909Z" fill="#303030"/>
<path d="M55.2498 12.7207C55.2498 9.40699 57.4263 6.73218 60.906 6.73218C64.3857 6.73218 66.5625 9.40699 66.5625 12.7207C66.5625 16.0344 64.3861 18.7314 60.906 18.7314C57.4259 18.7314 55.2498 16.0337 55.2498 12.7207ZM64.6934 12.7207C64.6934 10.4008 63.3443 8.31877 60.9067 8.31877C58.4691 8.31877 57.1201 10.4008 57.1201 12.7207C57.1201 15.0628 58.4691 17.1448 60.9067 17.1448C63.3443 17.1448 64.6934 15.0628 64.6934 12.7207Z" fill="#303030"/>
<path d="M83.2431 18.447V10.6848C83.2431 9.2421 82.6278 8.3184 81.1367 8.3184C80.5309 8.35664 79.9421 8.53468 79.4165 8.83855C78.8909 9.14242 78.4429 9.56387 78.1074 10.0699V18.447H76.3327V10.6848C76.3327 9.2421 75.7406 8.3184 74.226 8.3184C73.0666 8.3184 71.8363 9.17016 71.2203 10.0931V18.447H69.4456V7.01622H71.221V8.6729C71.6629 8.09969 72.2241 7.62928 72.8657 7.2942C73.5072 6.95913 74.2139 6.76736 74.9368 6.73218C76.6647 6.73218 77.6589 7.67948 77.9901 8.86288C78.4145 8.22952 78.9833 7.70606 79.6497 7.33561C80.3161 6.96517 81.0609 6.75834 81.8229 6.73218C83.9064 6.73218 85.0182 7.89233 85.0182 10.1879V18.447H83.2431Z" fill="#303030"/>
<path d="M87.9006 12.7207C87.9006 9.40699 90.2666 6.73218 93.5328 6.73218C96.9885 6.73218 99.0237 9.42986 99.0237 12.862V13.3113H89.7933C89.9357 15.4649 91.4268 17.2639 93.888 17.2639C94.5475 17.2667 95.201 17.1383 95.8105 16.8862C96.4199 16.6342 96.9732 16.2635 97.4382 15.7958L98.2903 16.9544C97.689 17.5376 96.9774 17.995 96.1971 18.2999C95.4169 18.6048 94.5838 18.7511 93.7464 18.7303C90.3378 18.7303 87.9009 16.2927 87.9009 12.7196M93.5081 8.19851C91.0704 8.19851 89.8634 10.2573 89.769 11.9859H97.2722C97.2486 10.3049 96.1128 8.19851 93.5095 8.19851" fill="#303030"/>
<path d="M100.912 16.9322L101.812 15.6543C102.295 16.1683 102.878 16.5782 103.525 16.8588C104.172 17.1395 104.869 17.2851 105.574 17.2867C107.325 17.2867 108.296 16.4582 108.296 15.3223C108.296 12.5538 101.22 14.2574 101.22 10.0225C101.22 8.22346 102.735 6.73167 105.456 6.73167C106.238 6.70232 107.018 6.83426 107.747 7.11928C108.475 7.40429 109.138 7.83628 109.692 8.38835L108.864 9.61859C108.434 9.14585 107.907 8.77203 107.318 8.52295C106.73 8.27386 106.095 8.15544 105.456 8.17587C103.894 8.17587 102.923 8.95681 102.923 9.97494C102.923 12.4587 110 10.8263 110 15.2751C110 17.1934 108.462 18.7309 105.527 18.7309C103.634 18.7309 102.071 18.1407 100.912 16.9318" fill="#303030"/>
<path d="M4.80108 0.566406H0V19.1846H4.80108V0.566406Z" fill="#0018A8"/>
<path d="M23.5307 19.9529C23.8599 20.1179 24.223 20.2039 24.5912 20.2041C25.568 20.2041 26.1822 20.0086 26.4335 19.4505L26.7404 18.7245L21.3542 5.04688H25.8753L28.946 13.5885L31.9886 5.04688H36.5384L30.4518 20.4553C29.3632 23.3024 27.3531 23.9447 24.7576 24C24.1374 23.9919 23.5198 23.9177 22.9154 23.7787L23.5307 19.9529Z" fill="#0018A8"/>
<path d="M15.6763 14.4569L13.3704 18.4471L5.59425 5.04688H10.2474L15.6763 14.4569Z" fill="#0018A8"/>
<path d="M21.3538 5.04688H16.8452L13.7429 10.322L18.2832 10.2914L21.3538 5.04688Z" fill="#0018A8"/>
</svg>
