<svg width="547" height="164" viewBox="0 0 547 164" fill="none" xmlns="http://www.w3.org/2000/svg">
<g clip-path="url(#clip0_2854_41733)">
<path d="M474.62 64.8517L485.247 100.436L487.1 114.279L478.236 115.233L460.638 64.8517H474.62ZM480.046 108.423L493.026 64.8517H507L487.328 121.358C486.85 122.729 486.276 124.064 485.609 125.353C484.871 126.838 483.91 128.2 482.76 129.391C481.504 130.75 479.982 131.833 478.288 132.57C476.51 133.386 474.324 133.794 471.73 133.795C470.716 133.813 469.701 133.737 468.7 133.569C467.916 133.416 466.982 133.204 465.897 132.933V123.357H466.936C467.307 123.387 467.646 123.401 467.978 123.401C469.697 123.401 471.098 123.205 472.182 122.812C473.207 122.461 474.115 121.832 474.805 120.996C475.469 120.209 475.997 119.18 476.389 117.91L480.046 108.423ZM455.922 64.8517V74.1099H425.758V64.8517H455.922ZM446.154 113.961H433.038V60.4941C433.038 56.7759 433.761 53.6446 435.209 51.1002C436.636 48.575 438.798 46.5479 441.405 45.2906C444.09 43.9582 447.27 43.2921 450.947 43.2921C452.113 43.2889 453.277 43.3803 454.429 43.5654C455.541 43.7153 456.626 43.9118 457.686 44.1547L457.55 54.0078C456.957 53.8535 456.351 53.7472 455.741 53.6899C455.108 53.6304 454.367 53.6 453.518 53.5988C451.951 53.5988 450.609 53.8714 449.492 54.4168C448.438 54.9016 447.566 55.7128 447.005 56.7313C446.433 57.7588 446.147 59.0143 446.147 60.4978L446.154 113.961ZM402.131 52.0539C402.131 50.149 402.794 48.5756 404.12 47.3337C405.446 46.0918 407.225 45.4721 409.457 45.4746C411.657 45.4746 413.421 46.0943 414.747 47.3337C416.106 48.5731 416.785 50.1465 416.785 52.0539C416.785 53.9613 416.106 55.5347 414.747 56.7741C413.421 58.0135 411.657 58.6331 409.457 58.6331C407.226 58.6331 405.448 58.0135 404.12 56.7741C402.792 55.5347 402.129 53.9613 402.131 52.0539ZM416.023 64.8536V113.961H402.953V64.8517L416.023 64.8536ZM370.64 52.7343H383.664V99.1647C383.664 100.587 383.845 101.677 384.207 102.433C384.564 103.157 385.177 103.723 385.926 104.021C386.845 104.319 387.809 104.457 388.775 104.43C389.589 104.43 390.312 104.399 390.946 104.338C391.609 104.247 392.166 104.153 392.613 104.067L392.659 113.69C391.477 114.067 390.267 114.355 389.041 114.55C387.62 114.772 386.183 114.878 384.744 114.868C381.88 114.868 379.378 114.399 377.236 113.461C375.14 112.507 373.421 110.878 372.353 108.832C371.207 106.715 370.634 103.931 370.634 100.481L370.64 52.7343ZM392.076 64.8536V74.1118H363.578V64.8536H392.076ZM344.202 100.39C344.211 99.477 343.925 98.5858 343.389 97.8484C342.846 97.0912 341.836 96.3953 340.359 95.7607C338.911 95.0951 336.816 94.4897 334.074 93.9444C331.72 93.4337 329.407 92.7502 327.153 91.8994C325.189 91.1348 323.335 90.1141 321.637 88.8635C320.151 87.7434 318.918 86.3204 318.019 84.6881C317.145 83.0545 316.707 81.1955 316.707 79.1108C316.697 77.0992 317.146 75.1119 318.019 73.3012C318.954 71.4472 320.263 69.8087 321.863 68.4899C323.551 67.0671 325.601 65.9629 328.013 65.1771C330.456 64.3591 333.2 63.9507 336.245 63.952C340.494 63.952 344.142 64.6336 347.189 65.9969C350.263 67.3603 352.615 69.2367 354.242 71.6262C355.902 73.981 356.731 76.6736 356.73 79.7039H343.706C343.726 78.5182 343.446 77.3469 342.891 76.2999C342.36 75.2524 341.503 74.4077 340.45 73.8943C339.364 73.2907 337.944 72.9883 336.189 72.987C334.743 72.987 333.492 73.2442 332.436 73.7586C331.453 74.1842 330.607 74.8755 329.993 75.7552C329.454 76.56 329.171 77.5094 329.18 78.4788C329.168 79.1866 329.323 79.8872 329.632 80.5237C330.031 81.1679 330.573 81.7111 331.215 82.1114C332.094 82.6729 333.034 83.1302 334.018 83.4741C335.441 83.9296 336.891 84.2935 338.36 84.5635C341.595 85.2009 344.76 86.1587 347.807 87.4228C350.58 88.5717 352.78 90.1451 354.409 92.1429C356.037 94.1098 356.851 96.6971 356.851 99.9046C356.873 101.991 356.376 104.05 355.404 105.895C354.385 107.773 352.964 109.401 351.243 110.661C349.434 111.992 347.263 113.036 344.73 113.792C342.228 114.519 339.41 114.883 336.274 114.881C331.721 114.881 327.862 114.065 324.697 112.431C321.56 110.796 319.178 108.723 317.552 106.212C315.954 103.672 315.155 101.069 315.155 98.4043H327.501C327.561 100.189 328.013 101.626 328.857 102.715C329.718 103.795 330.861 104.613 332.158 105.077C333.568 105.569 335.052 105.814 336.545 105.802C338.234 105.802 339.636 105.575 340.751 105.121C341.863 104.638 342.707 104.003 343.284 103.216C343.893 102.402 344.216 101.408 344.202 100.39V100.39ZM290.322 52.0539C290.322 50.149 290.985 48.5756 292.311 47.3337C293.638 46.0918 295.417 45.4721 297.648 45.4746C299.849 45.4746 301.612 46.0943 302.939 47.3337C304.297 48.5731 304.976 50.1465 304.976 52.0539C304.976 53.9613 304.297 55.5347 302.939 56.7741C301.612 58.0135 299.849 58.6331 297.648 58.6331C295.417 58.6331 293.638 58.0135 292.311 56.7741C290.985 55.5347 290.322 53.9613 290.322 52.0539ZM304.215 64.8536V113.961H291.144V64.8517L304.215 64.8536ZM245.846 89.0494V90.0013C245.834 91.9085 246.03 93.8113 246.433 95.6752C246.783 97.321 247.394 98.8996 248.243 100.351C249.03 101.621 250.101 102.691 251.37 103.476C252.637 104.202 254.129 104.565 255.847 104.565C258.229 104.565 260.174 104.066 261.682 103.069C263.2 102.025 264.379 100.557 265.074 98.8468C265.828 97.062 266.266 95.0047 266.385 92.6746V86.7256C266.351 84.9897 266.092 83.2657 265.617 81.5964C265.224 80.1763 264.581 78.8387 263.716 77.6477C262.888 76.5467 261.796 75.6727 260.543 75.1064C259.246 74.5003 257.709 74.1973 255.93 74.1973C254.211 74.1973 252.719 74.5908 251.453 75.3778C250.185 76.1652 249.118 77.2376 248.334 78.5104C247.467 79.9732 246.841 81.5672 246.481 83.2305C246.044 85.1387 245.831 87.0916 245.846 89.0494ZM232.822 90.0013V89.0494C232.822 85.2954 233.274 81.8914 234.178 78.8376C235.111 75.7503 236.423 73.1023 238.112 70.8937C239.777 68.7298 241.911 66.9755 244.353 65.7645C246.794 64.5549 249.553 63.9501 252.629 63.9501C255.886 63.9501 258.614 64.5549 260.815 65.7645C263.036 66.994 264.905 68.7756 266.243 70.9384C267.658 73.1494 268.758 75.767 269.544 78.7911C270.404 82.0272 271.038 85.3195 271.442 88.6442V90.7226C271.03 93.9514 270.348 97.1397 269.405 100.254C268.593 102.986 267.39 105.585 265.831 107.969C264.424 110.083 262.532 111.827 260.313 113.054C258.142 114.263 255.549 114.868 252.533 114.868C249.517 114.868 246.789 114.249 244.347 113.009C241.92 111.756 239.803 109.973 238.151 107.791C236.435 105.551 235.108 102.919 234.172 99.8934C233.244 96.6779 232.789 93.3434 232.822 89.9957V90.0013ZM265.744 64.8517H277.548V112.327C277.548 116.805 276.553 120.602 274.564 123.719C272.604 126.866 269.86 129.241 266.332 130.845C262.805 132.479 258.705 133.295 254.032 133.295C251.836 133.278 249.651 133.004 247.519 132.479C245.244 131.929 243.053 131.074 241.006 129.938C239.018 128.84 237.267 127.359 235.85 125.58L241.593 117.865C243.042 119.577 244.828 120.969 246.839 121.955C248.892 122.968 251.153 123.482 253.441 123.453C255.793 123.453 257.783 123.015 259.411 122.137C261.023 121.305 262.336 119.987 263.164 118.369C264.038 116.735 264.475 114.752 264.475 112.42V76.1995L265.744 64.8517ZM204.491 114.861C200.691 114.861 197.284 114.256 194.27 113.046C191.381 111.89 188.763 110.143 186.582 107.917C184.499 105.735 182.87 103.158 181.788 100.338C180.665 97.3816 180.1 94.2414 180.121 91.0777V89.2632C180.121 85.5451 180.649 82.1411 181.705 79.0513C182.678 76.1055 184.211 73.3769 186.219 71.0164C188.209 68.7548 190.683 66.9751 193.457 65.811C196.289 64.5716 199.485 63.952 203.043 63.952C206.51 63.952 209.586 64.5264 212.269 65.6753C214.864 66.7618 217.171 68.4403 219.007 70.5777C220.845 72.6946 222.233 75.2353 223.169 78.1999C224.103 81.1335 224.569 84.4011 224.569 88.0028V93.4499H185.669V84.7308H211.764V83.7325C211.793 82.06 211.454 80.4017 210.769 78.8766C210.168 77.4633 209.161 76.2619 207.876 75.4261C206.579 74.5796 204.92 74.1564 202.9 74.1564C201.181 74.1564 199.704 74.5344 198.469 75.2904C197.207 76.074 196.164 77.1674 195.439 78.4676C194.632 79.9772 194.052 81.5986 193.72 83.2789C193.343 85.2535 193.162 87.2604 193.177 89.2707V91.0944C193.159 92.942 193.434 94.7807 193.992 96.5415C194.515 98.1163 195.327 99.5786 196.387 100.853C197.435 102.057 198.731 103.017 200.186 103.667C201.802 104.354 203.543 104.694 205.297 104.666C207.554 104.686 209.79 104.222 211.855 103.305C213.931 102.345 215.747 100.897 217.147 99.0829L223.484 105.967C222.459 107.454 221.057 108.88 219.279 110.243C217.53 111.606 215.42 112.726 212.947 113.602C210.475 114.446 207.656 114.868 204.491 114.868V114.861Z" fill="black"/>
<path d="M154.149 0H9.26197C4.14672 0 0 4.16168 0 9.29537V154.705C0 159.838 4.14672 164 9.26197 164H154.149C159.264 164 163.411 159.838 163.411 154.705V9.29537C163.411 4.16168 159.264 0 154.149 0Z" fill="black"/>
<path d="M103.143 30H48.2257C48.1236 30.9886 47.9717 31.9715 47.7706 32.945C47.5928 33.6698 48.455 33.8519 48.9102 33.8519H53.239C60.5278 33.8519 60.9865 39.4414 60.3038 42.2344C56.4301 64.5907 48.3182 111.387 46.8586 119.726C45.3991 128.064 39.5698 130.155 36.8338 130.155H30.4588C30.3059 130.91 30.0019 132.556 30.0019 133.1C29.991 133.277 30.0275 133.454 30.1078 133.612C30.1881 133.77 30.3092 133.904 30.4588 134H122.511C125.928 122.066 132.81 98.0641 133 97.5197C133 96.8409 132.62 96.8409 132.316 96.8409H129.124C127.667 100.104 123.583 108.849 118.87 114.741C110.895 124.709 103.831 126.068 94.4884 126.975C91.5266 127.051 84.0974 127.152 78.0832 126.975C72.069 126.798 72.0815 121.764 72.8406 119.271C77.1659 94.4244 86.1027 43.7758 87.1924 39.9699C88.2822 36.164 93.7239 34.3044 96.307 33.8519H103.596L104.28 30.9068C104.282 30.2263 103.825 30 103.143 30Z" fill="white"/>
<rect x="13.5" y="13.5" width="136" height="136" stroke="white" stroke-width="3"/>
</g>
<circle cx="527" cy="30" r="19" stroke="black" stroke-width="2"/>
<path d="M526.952 29.875C527.672 29.875 528.302 29.7895 528.842 29.6185C529.382 29.4385 529.832 29.191 530.192 28.876C530.552 28.561 530.822 28.1875 531.002 27.7555C531.182 27.3145 531.272 26.8285 531.272 26.2975C531.272 25.2355 530.921 24.4255 530.219 23.8675C529.517 23.3095 528.455 23.0305 527.033 23.0305H524.468V29.875H526.952ZM536.105 40H533.283C532.725 40 532.32 39.784 532.068 39.352L527.532 32.8045C527.379 32.5795 527.213 32.4175 527.033 32.3185C526.853 32.2195 526.583 32.17 526.223 32.17H524.468V40H521.309V20.56H527.033C528.311 20.56 529.409 20.6905 530.327 20.9515C531.254 21.2125 532.014 21.586 532.608 22.072C533.202 22.549 533.639 23.125 533.918 23.8C534.206 24.475 534.35 25.2265 534.35 26.0545C534.35 26.7295 534.246 27.3595 534.039 27.9445C533.841 28.5295 533.549 29.0605 533.162 29.5375C532.784 30.0145 532.316 30.4285 531.758 30.7795C531.2 31.1305 530.565 31.405 529.854 31.603C530.241 31.837 530.574 32.1655 530.853 32.5885L536.105 40Z" fill="black"/>
<defs>
<clipPath id="clip0_2854_41733">
<rect width="507" height="164" fill="black"/>
</clipPath>
</defs>
</svg>
