<svg width="155" height="52" viewBox="0 0 155 52" fill="none" xmlns="http://www.w3.org/2000/svg">
<path d="M39.1317 25.531C39.1317 14.6985 30.3718 5.91699 19.5659 5.91699C8.75993 5.91699 0 14.6985 0 25.531C0 36.3636 8.75993 45.1451 19.5659 45.1451C30.3718 45.1451 39.1317 36.3636 39.1317 25.531Z" fill="#431C41"/>
<path d="M31.3813 21.0728C30.6731 20.1035 29.5165 19.3196 27.9113 18.7212C26.8915 18.3909 25.3854 18.5357 24.7599 18.6494C24.1816 18.7332 23.6092 18.8947 23.0426 19.1341C21.9686 19.5889 20.9831 20.0137 20.086 20.4087C19.9916 20.3847 19.6493 20.1932 19.0591 19.8342C17.5012 18.8888 15.9432 18.416 14.3852 18.416C13.1696 18.416 11.9893 18.6973 10.8444 19.2597C8.22416 20.5523 6.91406 22.5149 6.91406 25.1478C6.91406 27.2301 8.08848 29.1809 10.4372 30.9999C12.1958 32.3642 14.102 33.4054 16.1556 34.1235L12.7919 30.8204C11.2693 29.3244 10.508 27.7388 10.508 26.0633C10.508 25.2615 10.7559 24.4596 11.2516 23.6578C12.3847 21.8387 13.9722 20.9293 16.014 20.9293C17.6074 20.9293 18.4041 21.2105 18.4041 21.773C18.3923 21.8328 18.2447 22.0901 17.9615 22.5448C17.1944 23.7894 16.8107 24.9145 16.8107 25.9197L20.4401 27.4276C21.3017 23.0714 23.6445 20.8156 27.4687 20.6599C28.0942 20.636 28.7256 20.7377 29.363 20.9652C30.6731 21.4319 31.3282 22.2636 31.3282 23.4604C31.3282 24.669 30.8442 25.812 29.8764 26.8891C28.9794 27.8944 27.8877 28.744 26.6012 29.4381C25.2438 30.1801 23.9396 30.5871 22.6885 30.6589C24.7186 32.7651 25.8576 33.8182 26.1055 33.8182C26.3533 33.8182 26.9434 33.4831 27.8759 32.813C28.6313 32.2745 29.1919 31.8377 29.5578 31.5026C31.5052 29.7314 32.479 27.6131 32.479 25.1478C32.479 23.4365 32.1131 22.0781 31.3813 21.0728Z" fill="white"/>
<path d="M66.2256 27.725C66.2256 25.4837 65.9386 23.871 65.3646 22.887C64.8179 21.8757 63.7793 21.37 62.2486 21.37C61.7019 21.37 61.1006 21.411 60.4446 21.493C59.7886 21.575 59.2966 21.6433 58.9686 21.698V39H54.0076V18.254C54.9643 17.9807 56.2079 17.721 57.7386 17.475C59.2966 17.229 60.9366 17.106 62.6586 17.106C64.1346 17.106 65.3373 17.2973 66.2666 17.68C67.2233 18.0627 68.0159 18.5683 68.6446 19.197C68.9453 18.9783 69.3279 18.746 69.7926 18.5C70.2573 18.254 70.7766 18.0353 71.3506 17.844C71.9246 17.6253 72.5259 17.4477 73.1546 17.311C73.8106 17.1743 74.4666 17.106 75.1226 17.106C76.7899 17.106 78.1566 17.352 79.2226 17.844C80.3159 18.3087 81.1633 18.9783 81.7646 19.853C82.3933 20.7003 82.8169 21.739 83.0356 22.969C83.2816 24.1717 83.4046 25.4973 83.4046 26.946V39H78.4436V27.725C78.4436 25.4837 78.1703 23.871 77.6236 22.887C77.0769 21.8757 76.0246 21.37 74.4666 21.37C73.6739 21.37 72.9223 21.5067 72.2116 21.78C71.5009 22.026 70.9679 22.272 70.6126 22.518C70.8313 23.2013 70.9816 23.9257 71.0636 24.691C71.1456 25.4563 71.1866 26.2763 71.1866 27.151V39H66.2256V27.725ZM97.0262 35.515C98.5569 35.515 99.7185 35.433 100.511 35.269V29.775C100.238 29.693 99.8415 29.611 99.3222 29.529C98.8029 29.447 98.2289 29.406 97.6002 29.406C97.0535 29.406 96.4932 29.447 95.9192 29.529C95.3725 29.611 94.8669 29.7613 94.4022 29.98C93.9649 30.1987 93.6095 30.513 93.3362 30.923C93.0629 31.3057 92.9262 31.7977 92.9262 32.399C92.9262 33.5743 93.2952 34.3943 94.0332 34.859C94.7712 35.2963 95.7689 35.515 97.0262 35.515ZM96.6162 17.024C98.2562 17.024 99.6365 17.229 100.757 17.639C101.878 18.049 102.766 18.623 103.422 19.361C104.106 20.099 104.584 21.001 104.857 22.067C105.158 23.1057 105.308 24.2537 105.308 25.511V38.508C104.543 38.672 103.381 38.8633 101.823 39.082C100.293 39.328 98.5569 39.451 96.6162 39.451C95.3315 39.451 94.1562 39.328 93.0902 39.082C92.0242 38.836 91.1085 38.4397 90.3432 37.893C89.6052 37.3463 89.0175 36.6357 88.5802 35.761C88.1702 34.8863 87.9652 33.8067 87.9652 32.522C87.9652 31.292 88.1975 30.2533 88.6622 29.406C89.1542 28.5587 89.8102 27.8753 90.6302 27.356C91.4502 26.8093 92.3932 26.4267 93.4592 26.208C94.5525 25.962 95.6869 25.839 96.8622 25.839C97.4089 25.839 97.9829 25.88 98.5842 25.962C99.1855 26.0167 99.8279 26.126 100.511 26.29V25.47C100.511 24.896 100.443 24.3493 100.306 23.83C100.17 23.3107 99.9235 22.8597 99.5682 22.477C99.2402 22.067 98.7892 21.7527 98.2152 21.534C97.6685 21.3153 96.9715 21.206 96.1242 21.206C94.9762 21.206 93.9239 21.288 92.9672 21.452C92.0105 21.616 91.2315 21.8073 90.6302 22.026L90.0152 18.008C90.6439 17.7893 91.5595 17.5707 92.7622 17.352C93.9649 17.1333 95.2495 17.024 96.6162 17.024ZM103.545 9.562V13.129H91.1222V9.562H103.545ZM128.37 17.557C126.156 25.7023 123.587 33.0823 120.662 39.697C120.115 40.927 119.555 41.9793 118.981 42.854C118.407 43.7287 117.765 44.453 117.054 45.027C116.343 45.601 115.551 46.011 114.676 46.257C113.801 46.5303 112.79 46.667 111.642 46.667C110.877 46.667 110.111 46.585 109.346 46.421C108.608 46.257 108.048 46.0793 107.665 45.888L108.567 41.911C109.551 42.2937 110.521 42.485 111.478 42.485C112.763 42.485 113.76 42.1707 114.471 41.542C115.209 40.9407 115.851 39.9977 116.398 38.713C114.84 35.7063 113.337 32.4263 111.888 28.873C110.467 25.3197 109.196 21.5477 108.075 17.557H113.364C113.637 18.705 113.965 19.9487 114.348 21.288C114.758 22.6273 115.195 23.994 115.66 25.388C116.125 26.7547 116.617 28.1213 117.136 29.488C117.655 30.8547 118.175 32.1257 118.694 33.301C119.569 30.8683 120.389 28.2853 121.154 25.552C121.919 22.7913 122.616 20.1263 123.245 17.557H128.37ZM139.668 35.515C141.198 35.515 142.36 35.433 143.153 35.269V29.775C142.879 29.693 142.483 29.611 141.964 29.529C141.444 29.447 140.87 29.406 140.242 29.406C139.695 29.406 139.135 29.447 138.561 29.529C138.014 29.611 137.508 29.7613 137.044 29.98C136.606 30.1987 136.251 30.513 135.978 30.923C135.704 31.3057 135.568 31.7977 135.568 32.399C135.568 33.5743 135.937 34.3943 136.675 34.859C137.413 35.2963 138.41 35.515 139.668 35.515ZM139.258 17.024C140.898 17.024 142.278 17.229 143.399 17.639C144.519 18.049 145.408 18.623 146.064 19.361C146.747 20.099 147.225 21.001 147.499 22.067C147.799 23.1057 147.95 24.2537 147.95 25.511V38.508C147.184 38.672 146.023 38.8633 144.465 39.082C142.934 39.328 141.198 39.451 139.258 39.451C137.973 39.451 136.798 39.328 135.732 39.082C134.666 38.836 133.75 38.4397 132.985 37.893C132.247 37.3463 131.659 36.6357 131.222 35.761C130.812 34.8863 130.607 33.8067 130.607 32.522C130.607 31.292 130.839 30.2533 131.304 29.406C131.796 28.5587 132.452 27.8753 133.272 27.356C134.092 26.8093 135.035 26.4267 136.101 26.208C137.194 25.962 138.328 25.839 139.504 25.839C140.05 25.839 140.624 25.88 141.226 25.962C141.827 26.0167 142.469 26.126 143.153 26.29V25.47C143.153 24.896 143.084 24.3493 142.948 23.83C142.811 23.3107 142.565 22.8597 142.21 22.477C141.882 22.067 141.431 21.7527 140.857 21.534C140.31 21.3153 139.613 21.206 138.766 21.206C137.618 21.206 136.565 21.288 135.609 21.452C134.652 21.616 133.873 21.8073 133.272 22.026L132.657 18.008C133.285 17.7893 134.201 17.5707 135.404 17.352C136.606 17.1333 137.891 17.024 139.258 17.024ZM146.187 9.562V13.129H133.764V9.562H146.187Z" fill="#4B4B4B"/>
</svg>
