<?xml version="1.0" encoding="UTF-8"?> <svg xmlns="http://www.w3.org/2000/svg" width="180" height="28" viewBox="0 0 180 28" fill="none"><mask id="mask0_64_34871" style="mask-type:luminance" maskUnits="userSpaceOnUse" x="0" y="0" width="180" height="28"><path d="M179.1 0H0V27.8034H179.1V0Z" fill="white"></path></mask><g mask="url(#mask0_64_34871)"><path d="M22.3824 0.0410711C19.8361 0.0410711 17.8238 0.903506 16.3042 3.24441C15.3186 1.14992 13.2241 0.0410711 10.5957 0.0410711C8.50119 0.0410711 6.03708 1.06778 4.96929 2.95694V0.944578C4.96929 0.780304 4.80502 0.616028 4.64075 0.616028H0.32855C0.123207 0.616028 0 0.780304 0 0.944578V19.4665C0 19.6718 0.164275 19.795 0.32855 19.795H4.84609C5.05143 19.795 5.17464 19.6308 5.17464 19.4665V8.54226C5.17464 6.44777 6.48883 4.76396 8.78867 4.76396C11.1296 4.76396 12.1974 6.32456 12.1974 8.37798V19.4254C12.1974 19.6308 12.3616 19.754 12.5259 19.754H16.9613C17.1667 19.754 17.3309 19.5897 17.3309 19.4254V8.50119C17.3309 6.44776 18.6451 4.72288 20.8628 4.72288C23.2448 4.72288 24.2715 6.28349 24.2715 8.33692V19.3844C24.2715 19.5486 24.4358 19.7129 24.6001 19.7129H28.9533C29.1587 19.7129 29.2819 19.5486 29.2819 19.3844V7.31021C29.3229 2.17664 25.9143 0.0410711 22.3824 0.0410711ZM42.2185 16.2221C39.6722 16.2221 37.2902 17.2488 36.4278 18.6451C38.0705 19.754 40.0418 20.37 42.2185 20.37C44.3951 20.37 46.4075 19.754 48.0091 18.6451C47.1878 17.2488 44.6826 16.2221 42.2185 16.2221ZM64.1491 0C59.2209 0 54.7033 3.98365 54.7033 10.1029C54.7033 16.5917 59.344 20.37 64.6008 20.37C69.0362 20.37 71.9932 17.9059 73.1431 14.8668C73.2252 14.6615 73.102 14.4561 72.8967 14.4151L69.1184 13.4294C68.9541 13.3884 68.7898 13.4705 68.7077 13.6348C68.0095 15.0311 66.6953 15.9757 64.5598 15.9757C61.9724 15.9757 59.8369 14.1276 59.7137 11.6224H73.1431C73.3484 11.6224 73.4716 11.4992 73.4716 11.2939C73.5127 11.0064 73.5127 10.4725 73.5127 10.0207C73.6359 3.77831 70.104 0 64.1491 0ZM59.919 8.00837C60.0422 6.24242 61.5207 4.23006 64.2312 4.23006C66.7775 4.23006 68.4613 6.11922 68.5434 8.00837H59.919Z" fill="#121016"></path><path d="M42.218 0C36.4684 0 32.1562 4.23006 32.1562 10.185C32.1562 12.7723 32.9776 15.0722 34.415 16.797C35.5649 15.7703 37.3309 14.7847 39.3432 14.374C38.1933 13.5116 37.4541 12.0331 37.4541 9.97966C37.4541 6.44777 39.7129 4.84609 42.218 4.84609C44.6822 4.84609 46.982 6.48883 46.982 9.97966C46.982 12.0331 46.2017 13.4705 45.0928 14.374C47.1463 14.7847 48.8711 15.7293 50.0211 16.756C51.4174 15.0311 52.2798 12.7313 52.2798 10.1439C52.3209 4.27113 47.9676 0 42.218 0ZM169.613 0C164.684 0 160.167 3.98365 160.167 10.1029C160.167 16.5917 164.808 20.37 170.064 20.37C174.541 20.37 177.457 17.9059 178.607 14.8668C178.689 14.6615 178.566 14.4561 178.36 14.4151L174.582 13.4294C174.418 13.3884 174.253 13.4705 174.171 13.6348C173.473 15.0311 172.159 15.9757 170.023 15.9757C167.436 15.9757 165.3 14.1276 165.177 11.6224H178.648C178.812 11.6224 178.976 11.4992 178.976 11.2939C179.017 11.0064 179.017 10.4725 179.017 10.0207C179.099 3.77831 175.526 0 169.613 0ZM165.383 8.00837C165.506 6.24242 166.984 4.23006 169.695 4.23006C172.241 4.23006 173.925 6.11922 174.007 8.00837H165.383ZM157.169 0.574957H152.857C152.651 0.574957 152.528 0.739233 152.528 0.903507V2.83373C151.871 1.51953 150.146 0.205343 147.066 0.205343C141.809 0.205343 138.113 4.51754 138.113 9.56898C138.113 14.949 141.932 18.8915 147.066 18.8915C149.818 18.8915 151.625 17.7006 152.446 16.4274V17.8238C152.446 21.5199 150.598 23.1627 147.353 23.1627C145.013 23.1627 143.411 21.8074 142.959 19.8772C142.918 19.6718 142.713 19.5897 142.548 19.6308L138.524 20.6986C138.318 20.7396 138.236 20.945 138.277 21.1092C138.975 24.6411 142.425 27.7624 147.559 27.7624C154.787 27.7624 157.621 22.9573 157.621 17.7006V0.903507C157.538 0.739233 157.374 0.574957 157.169 0.574957ZM147.97 14.4972C145.259 14.4972 143.37 12.608 143.37 9.61004C143.37 6.65311 145.382 4.76396 147.97 4.76396C150.475 4.76396 152.487 6.65311 152.487 9.61004C152.487 12.567 150.598 14.4972 147.97 14.4972ZM86.6131 0.0821359C84.5597 0.0821359 82.2599 0.985647 81.0689 2.99801V0.944578C81.0689 0.780304 80.9046 0.616028 80.7403 0.616028H76.3871C76.1817 0.616028 76.0585 0.780304 76.0585 0.944578V19.4665C76.0585 19.6718 76.2228 19.795 76.3871 19.795H80.9046C81.0689 19.795 81.2331 19.6308 81.2331 19.4665V8.74761C81.2331 6.5299 82.5473 4.76396 84.8472 4.76396C87.3524 4.76396 88.3791 6.44776 88.3791 8.58333V19.4254C88.3791 19.6308 88.5433 19.754 88.7076 19.754H93.2252C93.4305 19.754 93.5537 19.5897 93.5537 19.4254V7.63876C93.5948 3.49083 91.4181 0.0821359 86.6131 0.0821359ZM127.107 0C122.055 0 119.304 3.20335 118.893 6.16028C118.852 6.24242 118.934 6.32456 119.016 6.36563L123.287 7.26913C123.369 7.3102 123.452 7.22807 123.493 7.14593C123.739 5.54425 124.971 4.18899 127.148 4.18899C129.324 4.18899 130.392 5.33891 130.392 6.69418C130.392 7.35127 130.064 7.88517 128.955 8.04944L124.232 8.74761C121.029 9.19936 118.482 11.1296 118.482 14.5793C118.482 17.5773 120.987 20.37 125.053 20.37C127.887 20.37 129.694 19.0558 130.68 17.5773V19.4665C130.68 19.6718 130.844 19.795 131.008 19.795H135.074C135.238 19.795 135.403 19.6308 135.403 19.4665V7.31021C135.485 3.44976 133.226 0 127.107 0ZM130.433 12.0331C130.433 15.4418 128.421 16.4685 126.203 16.4685C124.519 16.4685 123.698 15.3596 123.698 14.2508C123.698 12.7723 124.725 12.0331 126.08 11.8277L130.433 11.1706V12.0331ZM115.402 0.574957H111.09C110.885 0.574957 110.761 0.739233 110.761 0.903507V2.83373C110.104 1.51953 108.338 0.205343 105.299 0.205343C100.043 0.205343 96.3464 4.51754 96.3464 9.56898C96.3464 14.949 100.166 18.8915 105.299 18.8915C108.051 18.8915 109.858 17.7006 110.679 16.4274V17.8238C110.679 21.5199 108.831 23.1627 105.587 23.1627C103.287 23.1627 101.644 21.8074 101.192 19.8772C101.151 19.6718 100.946 19.5897 100.782 19.6308L96.7571 20.6986C96.5517 20.7396 96.4696 20.945 96.5106 21.1092C97.2088 24.6411 100.659 27.7624 105.792 27.7624C113.02 27.7624 115.854 22.9573 115.854 17.7006V0.903507C115.731 0.739233 115.608 0.574957 115.402 0.574957ZM106.203 14.4972C103.492 14.4972 101.603 12.608 101.603 9.61004C101.603 6.65311 103.615 4.76396 106.203 4.76396C108.708 4.76396 110.72 6.65311 110.72 9.61004C110.72 12.567 108.831 14.4972 106.203 14.4972Z" fill="#121016"></path></g></svg> 