<svg width="93" height="24" viewBox="0 0 93 24" fill="none" xmlns="http://www.w3.org/2000/svg">
<g clip-path="url(#clip0_3702_28100)">
<path d="M8.9398 8.96477L6.57275 11.3483L10.5287 15.3285L16.5291 9.28615L14.162 6.90259L10.5287 10.5614L8.9398 8.96477Z" fill="#2E3749"/>
<path d="M20.2642 0.256592C19.8638 0.339965 19.452 0.256592 19.04 0.256592C16.7596 0.256592 13.6752 0.256592 13.6752 0.256592H13.2111H9.29857H8.8346C8.8346 0.256592 5.74995 0.256592 3.46961 0.256592C3.05764 0.256592 2.64578 0.339965 2.24552 0.256592H0.232422V13.7723C0.232422 16.1352 2.00461 18.4768 5.65031 20.9309C8.07761 22.5648 10.4716 23.6478 10.5722 23.6931L11.2548 23.9999L11.9373 23.6931C12.038 23.6478 14.4319 22.5648 16.8592 20.9309C20.505 18.4768 22.2772 16.1352 22.2772 13.7723V0.256592H20.2642ZM18.9297 13.7722C18.9297 14.1713 18.6486 15.6633 15.0326 18.1057C13.5726 19.0918 12.0896 19.8726 11.2548 20.2873C10.4197 19.8725 8.93693 19.0917 7.47706 18.1057C3.86105 15.6633 3.57997 14.1712 3.57997 13.7722V3.62681C6.70746 3.59052 11.2548 3.62681 11.2548 3.62681C11.2548 3.62681 15.8021 3.5904 18.9297 3.62681V13.7722Z" fill="#2E3749"/>
</g>
<path d="M38.3989 3.5905V9.4705H36.2427V4.2457C36.2427 3.6745 36.1045 3.2377 35.828 2.9353C35.5627 2.6329 35.1757 2.4817 34.667 2.4817C34.1694 2.4817 33.7603 2.6497 33.4397 2.9857C33.119 3.3217 32.9587 3.7585 32.9587 4.2961V9.4705H30.8025V0.885697H32.8094V1.8601C33.3844 1.0201 34.2358 0.600098 35.3636 0.600098C36.3146 0.600098 37.0554 0.874498 37.5862 1.4233C38.128 1.9609 38.3989 2.6833 38.3989 3.5905Z" fill="#2E3749"/>
<path d="M47.4261 1.8769C48.2554 2.7169 48.67 3.8145 48.67 5.1697C48.67 6.5249 48.2554 7.6281 47.4261 8.4793C46.6078 9.3193 45.5574 9.7393 44.2747 9.7393C42.981 9.7393 41.9195 9.3193 41.0902 8.4793C40.272 7.6281 39.8628 6.5249 39.8628 5.1697C39.8628 3.8145 40.272 2.7169 41.0902 1.8769C41.9195 1.0257 42.981 0.600098 44.2747 0.600098C45.5574 0.600098 46.6078 1.0257 47.4261 1.8769ZM42.0522 5.1697C42.0522 5.9985 42.2512 6.6593 42.6493 7.1521C43.0584 7.6449 43.6002 7.8913 44.2747 7.8913C44.9382 7.8913 45.4689 7.6449 45.867 7.1521C46.2761 6.6593 46.4807 5.9985 46.4807 5.1697C46.4807 4.3521 46.2761 3.6969 45.867 3.2041C45.4689 2.7001 44.9382 2.4481 44.2747 2.4481C43.6002 2.4481 43.0584 2.7001 42.6493 3.2041C42.2512 3.6969 42.0522 4.3521 42.0522 5.1697Z" fill="#2E3749"/>
<path d="M55.3527 0.885697H57.5918L54.7059 9.4705H52.0853L49.2159 0.885697H51.4882L52.3341 3.6913C52.8427 5.4049 53.2076 6.7041 53.4288 7.5889C53.7715 6.2001 54.1309 4.9009 54.5068 3.6913L55.3527 0.885697Z" fill="#2E3749"/>
<path d="M66.0753 3.6745V9.4705H64.1347V8.5801C63.5708 9.3641 62.6586 9.7561 61.3981 9.7561C60.4914 9.7561 59.756 9.5433 59.1921 9.1177C58.6393 8.6921 58.3628 8.0873 58.3628 7.3033C58.3628 6.4409 58.6724 5.7745 59.2916 5.3041C59.9109 4.8337 60.8231 4.4921 62.0283 4.2793L64.0186 3.9097V3.7081C64.0186 3.2937 63.8749 2.9745 63.5874 2.7505C63.311 2.5153 62.924 2.3977 62.4264 2.3977C61.8846 2.3977 61.4423 2.5041 61.0995 2.7169C60.7015 2.9633 60.2647 3.3217 59.7892 3.7921L58.4292 2.5321C59.5017 1.2441 60.8231 0.600098 62.3932 0.600098C63.5653 0.600098 64.472 0.874498 65.1133 1.4233C65.7546 1.9721 66.0753 2.7225 66.0753 3.6745ZM64.0186 5.9761V5.4721L62.5923 5.7745C61.8293 5.9425 61.282 6.1273 60.9502 6.3289C60.6296 6.5193 60.4692 6.7937 60.4692 7.1521C60.4692 7.4209 60.5798 7.6337 60.801 7.7905C61.0332 7.9361 61.3538 8.0089 61.763 8.0089C62.4264 8.0089 62.9682 7.8353 63.3884 7.4881C63.8086 7.1409 64.0186 6.6369 64.0186 5.9761Z" fill="#2E3749"/>
<path d="M38.1998 15.0937C38.9075 15.9225 39.2613 17.0145 39.2613 18.3697C39.2613 19.7249 38.9075 20.8225 38.1998 21.6625C37.4922 22.4913 36.591 22.9057 35.4963 22.9057C34.3021 22.9057 33.4065 22.4633 32.8094 21.5785V22.6705H30.8025V10.7425H32.9587V14.9929C33.5668 14.2201 34.4182 13.8337 35.5129 13.8337C36.6076 13.8337 37.5032 14.2537 38.1998 15.0937ZM36.5081 20.3017C36.884 19.8201 37.072 19.1761 37.072 18.3697C37.072 17.5633 36.884 16.9193 36.5081 16.4377C36.1432 15.9561 35.6456 15.7153 35.0153 15.7153C34.3851 15.7153 33.8709 15.9617 33.4728 16.4545C33.0748 16.9361 32.8757 17.5745 32.8757 18.3697C32.8757 19.1761 33.0692 19.8201 33.4562 20.3017C33.8543 20.7721 34.3685 21.0073 34.9987 21.0073C35.629 21.0073 36.1321 20.7721 36.5081 20.3017Z" fill="#2E3749"/>
<path d="M47.4132 19.9153L48.624 21.2593C48.038 21.8641 47.4464 22.2953 46.8493 22.5529C46.2522 22.8105 45.5832 22.9393 44.8424 22.9393C43.4823 22.9393 42.3987 22.5305 41.5915 21.7129C40.7954 20.8953 40.3974 19.7977 40.3974 18.4201C40.3974 17.0649 40.7844 15.9561 41.5584 15.0937C42.3324 14.2313 43.3662 13.8001 44.66 13.8001C45.9205 13.8001 46.8935 14.1753 47.5791 14.9257C48.2757 15.6761 48.624 16.7289 48.624 18.0841C48.624 18.3193 48.6129 18.6049 48.5908 18.9409H42.5038C42.6033 19.6241 42.8521 20.1561 43.2501 20.5369C43.6593 20.9065 44.2066 21.0913 44.8922 21.0913C45.3676 21.0913 45.7712 21.0073 46.1029 20.8393C46.4568 20.6713 46.8935 20.3633 47.4132 19.9153ZM42.5535 17.3785H46.5176C46.4734 16.7961 46.2798 16.3425 45.9371 16.0177C45.6054 15.6817 45.1575 15.5137 44.5936 15.5137C43.4989 15.5137 42.8189 16.1353 42.5535 17.3785Z" fill="#2E3749"/>
<path d="M57.7222 16.7905V22.6705H55.566V17.4457C55.566 16.8745 55.4278 16.4377 55.1514 16.1353C54.886 15.8329 54.499 15.6817 53.9903 15.6817C53.4928 15.6817 53.0836 15.8497 52.763 16.1857C52.4423 16.5217 52.282 16.9585 52.282 17.4961V22.6705H50.1258V14.0857H52.1327V15.0601C52.7077 14.2201 53.5591 13.8001 54.687 13.8001C55.6379 13.8001 56.3787 14.0745 56.9095 14.6233C57.4513 15.1609 57.7222 15.8833 57.7222 16.7905Z" fill="#2E3749"/>
<path d="M66.202 19.9153L67.4128 21.2593C66.8268 21.8641 66.2352 22.2953 65.6381 22.5529C65.041 22.8105 64.3721 22.9393 63.6312 22.9393C62.2712 22.9393 61.1875 22.5305 60.3804 21.7129C59.5842 20.8953 59.1862 19.7977 59.1862 18.4201C59.1862 17.0649 59.5732 15.9561 60.3472 15.0937C61.1212 14.2313 62.1551 13.8001 63.4488 13.8001C64.7093 13.8001 65.6823 14.1753 66.3679 14.9257C67.0645 15.6761 67.4128 16.7289 67.4128 18.0841C67.4128 18.3193 67.4018 18.6049 67.3796 18.9409H61.2926C61.3921 19.6241 61.6409 20.1561 62.039 20.5369C62.4481 20.9065 62.9954 21.0913 63.681 21.0913C64.1564 21.0913 64.56 21.0073 64.8917 20.8393C65.2456 20.6713 65.6823 20.3633 66.202 19.9153ZM61.3423 17.3785H65.3064C65.2622 16.7961 65.0687 16.3425 64.7259 16.0177C64.3942 15.6817 63.9463 15.5137 63.3824 15.5137C62.2877 15.5137 61.6077 16.1353 61.3423 17.3785Z" fill="#2E3749"/>
<path d="M71.7535 13.4641V14.0857H73.6112V15.7489H71.7535V22.6705H69.5974V15.7489H68.1378V14.0857H69.5974V13.3297C69.5974 11.4705 70.4764 10.5409 72.2345 10.5409C72.6989 10.5409 73.2021 10.6081 73.7439 10.7425L73.4785 12.4393C73.1689 12.3833 72.9201 12.3553 72.7321 12.3553C72.3562 12.3553 72.0963 12.4393 71.9526 12.6073C71.8199 12.7641 71.7535 13.0497 71.7535 13.4641ZM74.7888 10.7425H76.945V12.7921H74.7888V10.7425ZM74.7888 22.6705V14.0857H76.945V22.6705H74.7888Z" fill="#2E3749"/>
<path d="M83.753 20.8225L84.0018 22.5529C83.3826 22.7657 82.7468 22.8721 82.0944 22.8721C81.2651 22.8721 80.6569 22.6761 80.2699 22.2841C79.8829 21.8809 79.6894 21.2705 79.6894 20.4529V15.7489H78.1801V14.0857H79.6894V11.4313H81.8456V14.0857H83.8691V15.7489H81.8456V20.1841C81.8456 20.4753 81.9119 20.6825 82.0446 20.8057C82.1773 20.9177 82.3929 20.9737 82.6915 20.9737C82.99 20.9737 83.3439 20.9233 83.753 20.8225Z" fill="#2E3749"/>
<path d="M92.287 15.1441L91.126 16.5721C90.6395 16.1801 90.2082 15.9169 89.8323 15.7825C89.4674 15.6369 89.0527 15.5641 88.5883 15.5641C88.1571 15.5641 87.8088 15.6425 87.5434 15.7993C87.2891 15.9561 87.1619 16.1633 87.1619 16.4209C87.1619 16.6001 87.2227 16.7401 87.3444 16.8409C87.5323 16.9865 88.1294 17.1713 89.1357 17.3953C90.363 17.6753 91.2144 18.0057 91.6899 18.3865C92.1764 18.7673 92.4197 19.3497 92.4197 20.1337C92.4197 20.9849 92.0935 21.6681 91.4411 22.1833C90.7887 22.6873 89.9041 22.9393 88.7874 22.9393C87.9691 22.9393 87.2449 22.8161 86.6146 22.5697C85.9954 22.3233 85.3541 21.9033 84.6906 21.3097L85.9346 19.8985C86.5427 20.4025 87.0514 20.7441 87.4605 20.9233C87.8807 21.0913 88.3395 21.1753 88.8371 21.1753C89.2794 21.1753 89.6332 21.0969 89.8986 20.9401C90.175 20.7833 90.3133 20.5593 90.3133 20.2681C90.3133 20.0329 90.2303 19.8593 90.0645 19.7473C89.8876 19.6017 89.6885 19.5065 89.4674 19.4617C89.2352 19.3945 88.8205 19.2937 88.2234 19.1593C87.0182 18.8905 86.1944 18.5713 85.7521 18.2017C85.3209 17.8209 85.1053 17.2497 85.1053 16.4881C85.1053 15.7265 85.4204 15.0881 86.0507 14.5729C86.692 14.0577 87.5545 13.8001 88.6381 13.8001C89.3789 13.8001 90.0258 13.9009 90.5786 14.1025C91.1315 14.3041 91.701 14.6513 92.287 15.1441Z" fill="#2E3749"/>
<defs>
<clipPath id="clip0_3702_28100">
<rect width="22.5096" height="24" fill="white"/>
</clipPath>
</defs>
</svg>
