<svg width="128" height="40" viewBox="0 0 128 40" fill="none" xmlns="http://www.w3.org/2000/svg">
<path d="M44.9203 10.5701H46.2289V13.0801H46.2797C47.4973 11.0678 49.2126 10.1714 51.1767 10.1714C54.8802 10.1714 57.3662 13.329 57.3662 17.4285C57.3662 21.9268 54.4574 24.7847 51.0295 24.7847C48.8433 24.7847 47.1762 23.5912 46.2824 22.074V28.6515C46.2824 29.3017 45.7552 29.8289 45.105 29.8289H43.7456V11.7448C43.7456 11.0946 44.2728 10.5674 44.923 10.5674L44.9203 10.5701ZM54.7304 17.4767C54.7304 14.6188 52.9401 12.5557 50.5318 12.5557C48.1234 12.5557 46.2316 14.568 46.2316 17.5008C46.2316 20.4336 48.1449 22.4219 50.5318 22.4219C52.9187 22.4219 54.7304 20.3079 54.7304 17.4767Z" fill="#060135"/>
<path d="M75.246 10.5701H76.5546V13.0801H76.6054C77.823 11.0678 79.5382 10.1714 81.5024 10.1714C85.2059 10.1714 87.6918 13.329 87.6918 17.4285C87.6918 21.9268 84.7831 24.7847 81.3552 24.7847C79.169 24.7847 77.5019 23.5912 76.6081 22.074V28.6515C76.6081 29.3017 76.0809 29.8289 75.4307 29.8289H74.0713V11.7448C74.0713 11.0946 74.5985 10.5674 75.2487 10.5674L75.246 10.5701ZM85.056 17.4767C85.056 14.6188 83.2658 12.5557 80.8575 12.5557C78.4491 12.5557 76.5572 14.568 76.5572 17.5008C76.5572 20.4336 78.4705 22.4219 80.8575 22.4219C83.2444 22.4219 85.056 20.3079 85.056 17.4767Z" fill="#060135"/>
<path d="M90.2026 10.5701H91.5111V13.0801H91.562C92.7795 11.0678 94.4948 10.1714 96.4589 10.1714C100.162 10.1714 102.648 13.329 102.648 17.4285C102.648 21.9268 99.7396 24.7847 96.3117 24.7847C94.1255 24.7847 92.4584 23.5912 91.5646 22.074V28.6515C91.5646 29.3017 91.0375 29.8289 90.3872 29.8289H89.0278V11.7448C89.0278 11.0946 89.555 10.5674 90.2052 10.5674L90.2026 10.5701ZM100.013 17.4767C100.013 14.6188 98.2224 12.5557 95.814 12.5557C93.4057 12.5557 91.5138 14.568 91.5138 17.5008C91.5138 20.4336 93.4271 22.4219 95.814 22.4219C98.201 22.4219 100.013 20.3079 100.013 17.4767Z" fill="#060135"/>
<path d="M58.7271 17.8674C58.7271 13.5912 61.585 10.5112 65.5614 10.5112C68.5692 10.5112 72.0238 12.3255 72.0238 17.6185V18.4401H61.2879C61.4619 21.223 63.327 22.8634 65.7113 22.8634C67.3436 22.8634 68.6147 22.0419 69.396 20.7788C69.685 20.3105 70.2871 20.142 70.8009 20.3453L72.1496 20.8752C71.1809 23.4093 68.7699 25.1246 65.7113 25.1246C61.7107 25.1246 58.7271 22.2158 58.7271 17.8674ZM65.5373 12.6975C63.3002 12.6975 61.7856 14.3137 61.411 16.5749H69.4389C69.289 13.6929 67.3757 12.6975 65.5373 12.6975Z" fill="#060135"/>
<path d="M104.062 17.8674C104.062 13.5912 106.92 10.5112 110.896 10.5112C113.904 10.5112 117.359 12.3255 117.359 17.6185V18.4401H106.623C106.797 21.223 108.662 22.8634 111.046 22.8634C112.679 22.8634 113.95 22.0419 114.731 20.7788C115.02 20.3105 115.622 20.142 116.136 20.3453L117.485 20.8752C116.516 23.4093 114.105 25.1246 111.046 25.1246C107.046 25.1246 104.062 22.2158 104.062 17.8674ZM110.872 12.6975C108.635 12.6975 107.121 14.3137 106.746 16.5749H114.774C114.624 13.6929 112.711 12.6975 110.872 12.6975Z" fill="#060135"/>
<path d="M120.076 10.5701H121.385V13.0801H121.484C122.18 11.4157 123.721 10.1714 125.658 10.1714C126.132 10.1714 126.603 10.2463 127.125 10.4443V13.2273C126.579 13.0025 125.856 12.9303 125.434 12.9303C122.378 12.9303 121.433 15.8872 121.433 18.2982V24.3619H118.899V11.7448C118.899 11.0946 119.426 10.5674 120.076 10.5674V10.5701Z" fill="#060135"/>
<path d="M23.0099 11.4344C22.0091 10.4336 20.6764 9.88232 19.2582 9.88232H19.2502C18.8247 9.88232 18.4072 9.92246 18.0005 9.99739V14.8007H24.5432C24.4522 13.527 23.9197 12.3442 23.0099 11.4344Z" fill="#060135"/>
<path d="M18.0005 25.0176C18.9959 25.3975 20.0636 25.5982 21.1608 25.5982H21.1742C26.7241 25.5902 31.6826 21.6191 32.9001 16.6445H18.0005V25.0176Z" fill="#060135"/>
<path d="M2.92934e-05 18.1669C-0.0160264 28.3007 6.56944 37.0885 16.1547 39.9999V26.2028C15.2341 25.7131 14.3832 25.0842 13.6259 24.3269C11.6109 22.312 10.5031 19.628 10.5058 16.7754C10.5111 13.0505 12.8606 9.8608 16.1547 8.60307V0.112305C7.09392 1.13184 0.013409 8.84391 2.92934e-05 18.1669Z" fill="#060135"/>
<path d="M12.356 16.778C12.3533 19.1381 13.2685 21.3538 14.9356 23.0209C15.3156 23.4009 15.725 23.7434 16.1585 24.0431V10.6206C13.908 11.7579 12.3613 14.094 12.3586 16.778H12.356Z" fill="#060135"/>
<path d="M18.1961 0C18.1345 0 18.0676 0 18.0034 0V8.12416C18.4128 8.06529 18.841 8.05727 19.2611 8.03318C21.1717 8.03318 22.9673 8.77709 24.3186 10.1258C25.5763 11.3835 26.3015 13.0318 26.3925 14.798H33.176C33.184 14.6347 33.1894 14.4688 33.1894 14.3029C33.1894 10.2837 31.8407 6.81295 29.2879 4.26545C26.5316 1.51458 22.5927 0 18.1961 0Z" fill="#060135"/>
</svg>
