<svg width="254" height="64" viewBox="0 0 254 64" fill="none" xmlns="http://www.w3.org/2000/svg">
<g clip-path="url(#clip0_1563_372)">
<path d="M45.0557 0C50.7794 0 53.6419 -0.000405542 55.9121 0.898438C59.1983 2.19951 61.8005 4.80175 63.1016 8.08789C64.0004 10.3581 64 13.2206 64 18.9443V45.0557C64 50.7794 64.0004 53.6419 63.1016 55.9121C61.8005 59.1983 59.1983 61.8005 55.9121 63.1016C53.6419 64.0004 50.7794 64 45.0557 64H18.9443C13.2206 64 10.3581 64.0004 8.08789 63.1016C4.80175 61.8005 2.19951 59.1983 0.898438 55.9121C-0.000405542 53.6419 0 50.7794 0 45.0557V18.9443C0 13.2206 -0.000405542 10.3581 0.898438 8.08789C2.19951 4.80175 4.80175 2.19951 8.08789 0.898438C10.3581 -0.000405542 13.2206 0 18.9443 0H45.0557ZM9.60059 35.2002V44.7998L28.8008 56V46.3994L17.6006 40L28.8008 33.5996V24L9.60059 35.2002ZM35.2012 17.5996L46.4004 24L35.2012 30.3994V56L44.8008 51.2002V34.3994L54.4004 28.7998V19.2002L35.2012 8V17.5996Z" fill="#754CFF"/>
<path d="M248.785 18.4466H253.333V45.9862H248.785V18.4466Z" fill="#754CFF"/>
<path d="M219.844 45.9862L230.206 18.4466H235.624L245.946 45.9862H241.082L238.471 39.18H227.121L224.55 45.9862H219.844ZM228.386 35.3244H237.206L232.776 23.325L228.386 35.3244Z" fill="#754CFF"/>
<path d="M207.866 46.2222C205.836 46.2222 204.03 45.8026 202.448 44.9633C200.893 44.0977 199.68 42.8912 198.81 41.3438C197.966 39.7701 197.544 37.9603 197.544 35.9145C197.544 33.895 197.966 32.1115 198.81 30.564C199.68 28.9903 200.893 27.7707 202.448 26.9052C204.03 26.0396 205.836 25.6069 207.866 25.6069C209.897 25.6069 211.69 26.0396 213.245 26.9052C214.827 27.7707 216.04 28.9903 216.884 30.564C217.754 32.1115 218.189 33.895 218.189 35.9145C218.189 37.9603 217.754 39.7701 216.884 41.3438C216.04 42.8912 214.827 44.0977 213.245 44.9633C211.69 45.8026 209.897 46.2222 207.866 46.2222ZM207.866 42.6027C209.659 42.6027 211.096 41.9864 212.177 40.7536C213.285 39.4947 213.838 37.8817 213.838 35.9145C213.838 33.9474 213.285 32.3475 212.177 31.1148C211.096 29.8558 209.659 29.2264 207.866 29.2264C206.074 29.2264 204.637 29.8558 203.556 31.1148C202.475 32.3475 201.934 33.9474 201.934 35.9145C201.934 37.8817 202.475 39.4947 203.556 40.7536C204.637 41.9864 206.074 42.6027 207.866 42.6027Z" fill="#754CFF"/>
<path d="M194.121 18.4466V45.9862H190.404L189.89 42.9568C188.281 45.1337 186.08 46.2222 183.285 46.2222C181.439 46.2222 179.791 45.8157 178.341 45.0026C176.891 44.1633 175.757 42.9699 174.94 41.4225C174.123 39.8488 173.714 38.0128 173.714 35.9145C173.714 33.8688 174.123 32.0721 174.94 30.5247C175.784 28.951 176.931 27.7445 178.381 26.9052C179.831 26.0396 181.466 25.6069 183.285 25.6069C184.761 25.6069 186.053 25.8823 187.161 26.4331C188.268 26.9576 189.165 27.692 189.85 28.6362V18.4466H194.121ZM183.997 42.6421C185.763 42.6421 187.187 42.0257 188.268 40.793C189.349 39.5603 189.89 37.9603 189.89 35.9932C189.89 33.9737 189.349 32.3475 188.268 31.1148C187.187 29.8558 185.763 29.2264 183.997 29.2264C182.23 29.2264 180.806 29.8558 179.725 31.1148C178.644 32.3475 178.104 33.9474 178.104 35.9145C178.104 37.9079 178.644 39.534 179.725 40.793C180.806 42.0257 182.23 42.6421 183.997 42.6421Z" fill="#754CFF"/>
<path d="M162.078 25.6069C164.794 25.6069 166.89 26.2364 168.367 27.4953C169.843 28.7543 170.582 30.5509 170.582 32.8852V45.9862H166.864L166.508 43.1142C165.743 44.1108 164.834 44.8846 163.779 45.4354C162.751 45.9599 161.485 46.2222 159.982 46.2222C157.741 46.2222 155.948 45.6976 154.604 44.6485C153.259 43.5994 152.587 42.1568 152.587 40.3209C152.587 38.2489 153.325 36.662 154.801 35.5605C156.304 34.4327 158.466 33.8687 161.287 33.8687H166.35V32.6491C166.35 31.5213 165.954 30.6427 165.163 30.0132C164.372 29.3575 163.278 29.0297 161.881 29.0297C160.641 29.0297 159.613 29.2919 158.796 29.8165C158.005 30.3411 157.53 31.0623 157.372 31.9803H153.18C153.391 29.9607 154.287 28.4002 155.869 27.2986C157.451 26.1708 159.521 25.6069 162.078 25.6069ZM160.694 42.9175C162.461 42.9175 163.832 42.4454 164.807 41.5011C165.809 40.5569 166.323 39.298 166.35 37.7243V37.0161H161.05C159.732 37.0161 158.717 37.2784 158.005 37.803C157.293 38.3013 156.937 39.0488 156.937 40.0455C156.937 40.911 157.267 41.6061 157.926 42.1306C158.611 42.6552 159.534 42.9175 160.694 42.9175Z" fill="#754CFF"/>
<path d="M131.895 25.8429H136.483L142.059 41.4225L147.556 25.8429H152.065L144.59 45.9862H139.37L131.895 25.8429Z" fill="#754CFF"/>
<path d="M127.589 17.7778C128.327 17.7778 128.947 18.0269 129.448 18.5253C129.949 18.9974 130.199 19.6006 130.199 20.335C130.199 21.0694 129.949 21.6858 129.448 22.1841C128.947 22.6562 128.327 22.8923 127.589 22.8923C126.851 22.8923 126.231 22.6562 125.73 22.1841C125.229 21.6858 124.979 21.0694 124.979 20.335C124.979 19.6006 125.229 18.9974 125.73 18.5253C126.231 18.0269 126.851 17.7778 127.589 17.7778ZM125.454 25.8429H129.725V45.9862H125.454V25.8429Z" fill="#754CFF"/>
<path d="M122.742 25.8429V29.8165H120.844C119.077 29.8165 117.798 30.3935 117.007 31.5476C116.216 32.6754 115.821 34.1179 115.821 35.8752V45.9862H111.549V25.8429H115.346L115.821 28.8723C116.401 27.9281 117.152 27.1937 118.075 26.6691C118.998 26.1183 120.237 25.8429 121.793 25.8429H122.742Z" fill="#754CFF"/>
<path d="M98.9156 18.4466C100.814 18.4466 102.488 18.8138 103.938 19.5482C105.389 20.2563 106.509 21.2792 107.3 22.6169C108.091 23.9283 108.487 25.4626 108.487 27.2199C108.487 28.9772 108.091 30.5247 107.3 31.8623C106.509 33.1737 105.389 34.1966 103.938 34.931C102.488 35.6392 100.814 35.9932 98.9156 35.9932H92.5482V45.9862H88V18.4466H98.9156ZM92.5482 32.059H98.5201C100.155 32.059 101.447 31.6262 102.396 30.7607C103.372 29.869 103.859 28.6887 103.859 27.2199C103.859 25.7249 103.385 24.5446 102.436 23.6791C101.486 22.8136 100.194 22.3808 98.5597 22.3808H92.5482V32.059Z" fill="#754CFF"/>
</g>
<defs>
<clipPath id="clip0_1563_372">
<rect width="254" height="64" fill="white"/>
</clipPath>
</defs>
</svg>
