<svg width="110" height="35" viewBox="0 0 110 35" fill="none" xmlns="http://www.w3.org/2000/svg" data-fc-idx="0">
<g clip-path="url(#clip0_3826_6334)" style="fill: none !important;">
<path d="M11.2855 9.86173L11.2584 24.2568C11.2584 24.4271 11.1202 24.5653 10.9523 24.5653L7.92181 24.5603C7.75894 24.5603 7.62567 24.4271 7.62567 24.2617L7.65282 9.8568C7.65282 9.68898 7.78855 9.55078 7.95637 9.55078L10.982 9.55572C11.1498 9.55572 11.2855 9.69392 11.2855 9.86173Z" fill="currentColor" style="fill: rgb(255, 255, 255) !important;"/>
<path d="M16.278 21.2426L16.2731 24.2682C16.2731 24.436 16.1373 24.5742 15.967 24.5742L12.8847 24.5693C12.7169 24.5693 12.5787 24.4311 12.5787 24.2633L12.5836 21.2377C12.5836 21.0674 12.7218 20.9316 12.8896 20.9316L15.972 20.9366C16.1423 20.9366 16.278 21.0723 16.278 21.2426Z" fill="currentColor" style="fill: rgb(255, 255, 255) !important;"/>
<path d="M21.3816 21.3698L21.3766 24.1659C21.3766 24.3954 21.1891 24.5854 20.9571 24.5854L18.161 24.5805C17.9315 24.5805 17.7415 24.3904 17.7415 24.1609L17.7464 21.3648C17.7464 21.1329 17.9364 20.9453 18.1659 20.9453L20.962 20.9502C21.194 20.9502 21.3816 21.1378 21.3816 21.3698Z" fill="currentColor" style="fill: rgb(255, 255, 255) !important;"/>
<path d="M26.4727 21.2636L26.4678 24.2916C26.4678 24.4594 26.3321 24.5952 26.1643 24.5952L23.2028 24.5902C22.998 24.5902 22.8326 24.4249 22.8326 24.2201L22.8376 21.2586C22.8376 21.0908 22.9733 20.9551 23.1411 20.9551L26.1692 20.96C26.337 20.96 26.4727 21.0957 26.4727 21.2636Z" fill="currentColor" style="fill: rgb(255, 255, 255) !important;"/>
<path d="M54.9593 17.6792C55.4381 17.1067 55.5269 16.4675 55.5269 15.4853V15.3101C55.5269 14.5451 55.4948 13.7504 55.0876 13.1581C54.7026 12.5954 54.1696 12.1611 53.5033 11.8674C52.8616 11.5812 52.1213 11.4355 51.2995 11.4355H46.5636C46.2502 11.4355 45.996 11.6897 45.996 12.0032V24.4757C45.996 24.6213 46.112 24.7373 46.2576 24.7373H47.9728C48.1159 24.7373 48.2344 24.6213 48.2344 24.4757V19.5968C48.2344 19.5597 48.264 19.5277 48.301 19.5277C48.9895 19.5252 49.6731 19.5178 50.3592 19.5079L51.5463 19.4931C51.988 19.4882 52.3829 19.4931 52.7432 19.6116C53.2738 19.7868 53.296 20.1397 53.2935 20.8036V24.4757C53.291 24.6213 53.4095 24.7373 53.5526 24.7373H55.2653C55.4085 24.7373 55.5269 24.6213 55.5269 24.4757V19.9867C55.5269 19.3056 55.021 18.6911 54.4213 18.2962C54.3818 18.2715 54.3794 18.2172 54.4164 18.1876C54.6039 18.042 54.7915 17.8816 54.9593 17.6792ZM53.4465 15.5273C53.4465 16.1541 53.2762 16.5909 52.9085 16.9043C52.5285 17.235 51.951 17.4004 51.1933 17.4004H48.3035C48.264 17.4004 48.2344 17.3708 48.2344 17.3337V13.6369C48.2344 13.5999 48.264 13.5678 48.3035 13.5678H51.1933C51.9707 13.5678 52.5507 13.7331 52.9209 14.0589C53.2738 14.3674 53.4465 14.819 53.4465 15.4409V15.5273Z" fill="currentColor" style="fill: rgb(255, 255, 255) !important;"/>
<path d="M109.432 17.6436C109.911 17.0735 110 16.4318 110 15.4496V15.2744C110 14.5094 109.965 13.7147 109.561 13.1249C109.176 12.5598 108.643 12.1254 107.976 11.8318C107.335 11.5455 106.594 11.4023 105.77 11.4023H101.042C100.726 11.4023 100.469 11.659 100.469 11.9749V24.4524C100.469 24.5906 100.58 24.7016 100.718 24.7016H102.453C102.591 24.7016 102.705 24.5906 102.705 24.4524V19.7412C102.705 19.6055 102.816 19.492 102.954 19.492C103.591 19.492 104.223 19.4821 104.857 19.4723L106.017 19.4574C106.459 19.455 106.856 19.4599 107.216 19.5759C107.747 19.7511 107.769 20.1065 107.764 20.7679V24.4524C107.764 24.5906 107.875 24.7016 108.013 24.7016H109.748C109.886 24.7016 110 24.5906 110 24.4524V19.951C110 19.3439 109.595 18.7911 109.084 18.3987C108.956 18.3 108.946 18.11 109.067 18.0063C109.195 17.9002 109.319 17.7818 109.432 17.6436ZM107.92 15.4941C107.92 16.1184 107.749 16.5552 107.382 16.8687C106.999 17.1994 106.424 17.3672 105.666 17.3672H102.954C102.816 17.3672 102.705 17.2561 102.705 17.1179V13.7838C102.705 13.6456 102.816 13.5321 102.954 13.5321H105.666C106.444 13.5321 107.024 13.6975 107.394 14.0257C107.747 14.3342 107.92 14.7858 107.92 15.4052V15.4941Z" fill="currentColor" style="fill: rgb(255, 255, 255) !important;"/>
<path d="M68.5202 22.8001V24.4708C68.5202 24.6189 68.4017 24.7373 68.2537 24.7373H60.4429C60.2035 24.7373 60.0085 24.5424 60.0085 24.303V11.8699C60.0085 11.6305 60.2035 11.4355 60.4429 11.4355H68.1846C68.3326 11.4355 68.4511 11.554 68.4511 11.7021V13.2988C68.4511 13.4469 68.3326 13.5653 68.1846 13.5653H62.4986C62.3604 13.5653 62.2469 13.6764 62.2469 13.817V16.7168C62.2469 16.855 62.3579 16.9685 62.4986 16.9685H67.343C67.4911 16.9685 67.6096 17.0869 67.6096 17.235V18.8268C67.6096 18.9749 67.4911 19.0933 67.343 19.0933H62.4986C62.3604 19.0933 62.2469 19.2044 62.2469 19.345V22.2793C62.2469 22.4175 62.3579 22.5311 62.4986 22.5311H68.2537C68.4017 22.5311 68.5202 22.6495 68.5202 22.7976V22.8001Z" fill="currentColor" style="fill: rgb(255, 255, 255) !important;"/>
<path d="M80.1413 19.8881H81.8515C81.9749 19.8881 82.0786 19.9844 82.0835 20.1078C82.1181 20.7025 82.0835 22.1907 80.9903 23.3826C79.739 24.7498 78.0041 24.7424 77.3107 24.74C76.748 24.74 75.0106 24.7301 73.6311 23.3678C72.7032 22.4522 72.2318 21.1221 72.2318 19.4118V16.7663C72.2318 15.061 72.7032 13.7308 73.6311 12.8103C75.0007 11.453 76.7332 11.4431 77.3107 11.4382C78.0263 11.4332 79.7464 11.4209 80.9903 12.7708C82.081 13.9554 82.1181 15.6854 82.0835 16.2801C82.0761 16.4035 81.9749 16.4998 81.8515 16.4998H80.1142C79.9908 16.4998 79.8921 16.406 79.8822 16.2826C79.8526 15.9322 79.7366 15.0659 79.2652 14.4983C78.5298 13.6099 77.4982 13.5285 77.3131 13.5161C77.1503 13.5062 76.0052 13.4248 75.1784 14.328C74.6725 14.8808 74.4159 15.6903 74.4159 16.7317V19.4464C74.4159 20.4928 74.6725 21.3022 75.1809 21.8501C75.6868 22.398 76.3852 22.662 77.3131 22.662C77.6833 22.662 78.5767 22.6521 79.2553 21.9488C79.8624 21.322 79.9241 20.5248 79.9118 20.1251C79.9069 19.9943 80.0154 19.8881 80.1438 19.8881H80.1413Z" fill="currentColor" style="fill: rgb(255, 255, 255) !important;"/>
<path d="M95.911 11.4355C96.0344 11.4355 96.1331 11.5343 96.1331 11.6577V20.036C96.1331 21.0651 95.9258 21.9388 95.5186 22.6372C95.1065 23.343 94.5167 23.8834 93.764 24.2363C93.0433 24.5695 92.2067 24.7373 91.2739 24.7373C90.341 24.7373 89.502 24.567 88.7937 24.2314C88.0484 23.8834 87.4561 23.3479 87.0415 22.6372C86.6244 21.9388 86.4147 21.0627 86.4147 20.036V11.6577C86.4147 11.5343 86.5134 11.4355 86.6368 11.4355H88.4038C88.5272 11.4355 88.6259 11.5343 88.6259 11.6577V20.036C88.6259 20.9343 88.8504 21.5957 89.2873 22.0005C89.7413 22.4175 90.4101 22.6322 91.2739 22.6322C92.1376 22.6322 92.8064 22.42 93.2581 22.0029C93.6998 21.5982 93.9219 20.9343 93.9219 20.036V11.6577C93.9219 11.5343 94.0206 11.4355 94.144 11.4355H95.911Z" fill="currentColor" style="fill: rgb(255, 255, 255) !important;"/>
<path d="M34.1157 3.57346V30.6089C34.1157 32.5437 32.5437 34.1182 30.6089 34.1182H13.2672C13.055 34.1182 12.8823 33.9454 12.8823 33.7332V32.2722C12.8823 32.0551 13.0575 31.8798 13.2747 31.8798H31.026C31.4949 31.8798 31.8774 31.4973 31.8774 31.026V3.5784C31.8774 2.84051 31.2777 2.24082 30.5398 2.24082H25.6485C25.6263 2.24082 25.6041 2.24082 25.5819 2.23835H25.303C25.1204 2.23835 24.9748 2.09275 24.9748 1.91012V0.330693C24.9748 0.148072 25.1229 0 25.3055 0H27.5932C27.5932 0 27.6105 0 27.6203 0.00246786H30.5447C32.5141 0.00246786 34.1157 1.60411 34.1157 3.57346Z" fill="#FFA781" style="fill: rgb(255, 167, 129) !important;"/>
<path d="M21.4112 0.333161V1.90519C21.4112 2.09028 21.2631 2.23835 21.078 2.23835H20.888C20.8682 2.24082 20.8485 2.24082 20.8288 2.24082H3.50436C2.80596 2.24082 2.23835 2.81089 2.23835 3.51177V30.7027C2.23835 31.3517 2.76647 31.8798 3.41799 31.8798H8.91885C9.12122 31.8798 9.28903 32.0452 9.28903 32.25V33.7529C9.28903 33.9528 9.12369 34.1182 8.92132 34.1182H3.5093C1.5745 34.1182 0 32.5462 0 30.6138V3.51177C0 1.57696 1.57203 0.00246786 3.50436 0.00246786H18.7656C18.7656 0.00246786 18.7829 0 18.7928 0H21.078C21.2631 0 21.4112 0.148072 21.4112 0.333161Z" fill="#FFA781" style="fill: rgb(255, 167, 129) !important;"/>
</g>
<defs style="fill: none !important;">
<clipPath id="clip0_3826_6334" style="fill: none !important;">
<rect width="110" height="34.1182" fill="white" style="fill: rgb(255, 255, 255) !important;"/>
</clipPath>
</defs>
</svg>