<svg width="579" height="122" viewBox="0 0 579 122" fill="none" xmlns="http://www.w3.org/2000/svg">
<g clip-path="url(#clip0_136_264860)">
<path d="M95.0741 0.658691H0.633789V73.866C26.8497 73.866 48.1037 95.1215 48.1037 121.339H95.0725C95.0725 88.5235 78.2488 59.5708 52.7728 42.6348H95.0725V0.658691H95.0741Z" fill="url(#paint0_linear_136_264860)"/>
<path d="M95.0725 0.658691H0.633789V42.6379H95.0725V0.658691Z" fill="url(#paint1_radial_136_264860)"/>
<path d="M156.415 98.5553C158.231 98.9515 159.969 99.3662 161.627 99.7994C163.286 100.234 164.903 100.767 166.484 101.398V104.834H135.33V101.398C137.065 100.609 138.724 100.017 140.305 99.6205C141.884 99.2259 143.462 98.8713 145.044 98.5538V28.3017C142.989 27.907 141.173 27.4538 139.595 26.9389C138.015 26.4256 136.592 25.8937 135.33 25.3403V21.9041H145.756C148.921 21.9041 152.385 21.7468 156.146 21.4308C159.907 21.1163 163.568 20.9575 167.13 20.9575C171.009 20.9575 174.628 21.3923 177.993 22.2602C181.358 23.1296 184.268 24.5109 186.723 26.4071C189.177 28.3032 191.096 30.7127 192.481 33.6341C193.866 36.5569 194.559 40.0718 194.559 44.1786C194.559 49.9442 193.035 54.7231 189.984 58.5139C186.934 62.3047 182.793 65.0302 177.566 66.689C180.96 72.0614 184.515 77.3923 188.227 82.683C191.939 87.9753 195.808 93.2275 199.836 98.4397L206.287 101.876V104.837H191.87L187.368 101.52C185.156 98.7557 183.143 96.0517 181.327 93.4048C179.51 90.7594 177.813 88.074 176.233 85.3484C174.653 82.6229 173.171 79.8604 171.79 77.0562C170.408 74.2536 169.006 71.2721 167.585 68.1119H156.414V98.5584L156.415 98.5553ZM164.47 27.1177C162.574 27.1177 161.014 27.1578 159.79 27.2364C158.564 27.3135 157.439 27.4723 156.414 27.7066V62.8951H164.943C170.392 62.8951 174.716 61.1701 177.915 57.7169C181.113 54.2652 182.712 49.7129 182.712 44.063C182.712 38.413 181.013 33.984 177.617 31.2369C174.221 28.4898 169.837 27.1162 164.468 27.1162L164.47 27.1177Z" fill="#191B20"/>
<path d="M254.973 96.5402C254.34 97.8844 253.353 99.147 252.012 100.331C250.668 101.516 249.128 102.543 247.392 103.411C245.653 104.281 243.759 104.97 241.706 105.484C239.651 105.998 237.559 106.255 235.427 106.255C230.767 106.255 226.661 105.525 223.108 104.063C219.555 102.603 216.592 100.51 214.223 97.7842C211.853 95.0587 210.056 91.8013 208.832 88.0105C207.607 84.2197 206.996 79.9541 206.996 75.2153C206.996 65.107 209.325 57.4052 213.985 52.1144C218.644 46.8237 225.239 44.1768 233.769 44.1768C236.532 44.1768 239.256 44.5529 241.943 45.3021C244.627 46.0529 247.016 47.2969 249.109 49.0343C251.201 50.7732 252.9 53.0826 254.204 55.9653C255.506 58.8497 256.158 62.4216 256.158 66.6871C256.158 68.0314 256.1 69.3927 255.981 70.7739C255.863 72.1567 255.645 73.6382 255.329 75.2168H218.369C218.369 78.5343 218.784 81.6345 219.613 84.5172C220.442 87.4016 221.686 89.9082 223.345 92.0402C225.004 94.1723 227.095 95.8511 229.623 97.0751C232.15 98.3007 235.111 98.9111 238.509 98.9111C241.272 98.9111 244.076 98.5165 246.919 97.7257C249.761 96.9379 251.895 95.9096 253.316 94.6455L254.975 96.5417L254.973 96.5402ZM233.295 49.3904C228.794 49.3904 225.358 50.912 222.989 53.952C220.62 56.9936 219.198 62.3445 218.725 70.0047H244.787C244.864 69.294 244.924 68.6034 244.964 67.9312C245.003 67.2606 245.023 66.6101 245.023 65.9765C245.023 60.9231 244.075 56.8949 242.18 53.8919C240.284 50.892 237.323 49.3904 233.295 49.3904Z" fill="#191B20"/>
<path d="M292.761 15.7452C293.472 15.7452 294.301 15.7853 295.249 15.8639C296.197 15.9441 297.184 16.0412 298.21 16.1599C299.235 16.2786 300.223 16.4374 301.171 16.6332C302.119 16.832 302.949 17.0478 303.659 17.2852C303.422 19.8921 303.086 22.3201 302.653 24.5708C302.218 26.8216 301.685 28.8565 301.054 30.6725H298.093L292.881 20.4841C290.591 20.4841 288.636 20.7215 287.018 21.1947C285.397 21.668 284.056 22.5775 282.99 23.9187C281.923 25.263 281.134 27.1977 280.62 29.7244C280.106 32.2526 279.851 35.5701 279.851 39.6754V45.5982H293.475V51.7584H279.851V99.0531C283.956 99.5248 287.747 100.47 291.223 101.883V104.833H261.37V101.883C263.817 100.47 266.423 99.5248 269.189 99.0531V51.7584H260.187V48.575C262.95 46.7791 265.95 45.4317 269.189 44.533V40.3861C269.189 35.49 269.781 31.4417 270.966 28.2429C272.151 25.0441 273.809 22.5174 275.942 20.6613C278.074 18.8068 280.58 17.5211 283.464 16.8104C286.347 16.0998 289.447 15.7437 292.764 15.7437L292.761 15.7452Z" fill="#191B20"/>
<path d="M296.67 75.2168C296.67 70.2405 297.322 65.8393 298.625 62.0069C299.927 58.1775 301.803 54.9386 304.251 52.2917C306.697 49.6463 309.642 47.633 313.076 46.2502C316.512 44.8689 320.321 44.1768 324.508 44.1768C329.403 44.1768 333.628 44.9291 337.183 46.4275C340.736 47.929 343.639 50.041 345.889 52.765C348.14 55.4905 349.799 58.7479 350.865 62.5387C351.932 66.3295 352.464 70.555 352.464 75.2153C352.464 85.1663 349.936 92.828 344.883 98.1989C339.828 103.571 333.037 106.255 324.508 106.255C319.769 106.255 315.663 105.525 312.188 104.063C308.712 102.603 305.829 100.51 303.54 97.7842C301.248 95.0587 299.531 91.7828 298.387 87.9519C297.242 84.1226 296.67 79.877 296.67 75.2168ZM308.041 75.2168C308.041 78.7702 308.376 82.1293 309.048 85.2865C309.719 88.4468 310.784 91.1908 312.247 93.5202C313.706 95.8511 315.622 97.6871 317.992 99.0283C320.361 100.373 323.203 101.042 326.521 101.042C330.786 101.042 334.281 98.9497 337.004 94.7627C339.73 90.5773 341.091 84.0609 341.091 75.2153C341.091 71.5833 340.753 68.2072 340.084 65.0854C339.412 61.9668 338.367 59.2412 336.946 56.9103C335.524 54.581 333.707 52.7449 331.497 51.4022C329.285 50.0595 326.639 49.3889 323.56 49.3889C318.898 49.3889 315.149 51.4824 312.305 55.6678C309.463 59.8548 308.04 66.3711 308.04 75.2153L308.041 75.2168Z" fill="#191B20"/>
<path d="M383.263 104.834H356.965V101.873C359.572 100.61 362.177 99.6619 364.784 99.0299V24.0389L355.781 23.0908V20.0107C357.835 19.0626 360.401 18.2333 363.481 17.5226C366.561 16.8119 369.562 16.2199 372.483 15.7451H375.444V99.0283C378.051 99.6619 380.656 100.608 383.263 101.871V104.832V104.834Z" fill="#191B20"/>
<path d="M426.737 93.1054C426.341 94.8443 425.67 96.5016 424.724 98.0817C423.776 99.6618 422.61 101.063 421.229 102.287C419.847 103.513 418.268 104.479 416.491 105.19C414.713 105.901 412.797 106.257 410.746 106.257C402.927 106.257 397.082 103.769 393.213 98.7924C389.342 93.8161 387.408 86.0773 387.408 75.5729C387.408 65.0684 389.876 57.7643 394.811 52.472C399.746 47.1813 406.4 44.5344 414.772 44.5344C417.693 44.5344 419.984 44.6731 421.642 44.949C423.301 45.2265 425.117 45.7183 427.092 46.4305V24.0404L418.089 23.0923V20.0122C420.378 19.0641 423.044 18.2347 426.085 17.524C429.125 16.8134 432.026 16.2214 434.791 15.7466H437.752V98.0832L445.571 99.0313V101.519C443.28 102.626 440.909 103.574 438.463 104.362C436.014 105.151 433.606 105.705 431.237 106.021H428.275L427.209 93.107H426.735L426.737 93.1054ZM413.115 98.9095C416.984 98.9095 420.064 97.6855 422.355 95.2375C424.644 92.7909 426.224 89.4734 427.093 85.2865V51.8785C425.749 51.0908 424.17 50.5358 422.355 50.2198C420.537 49.9053 418.208 49.7465 415.366 49.7465C409.993 49.7465 405.889 52.0974 403.046 56.7947C400.204 61.495 398.781 67.7523 398.781 75.5713C398.781 78.8102 399.057 81.8317 399.61 84.6344C400.162 87.4385 401.031 89.9066 402.217 92.0386C403.402 94.1707 404.882 95.8495 406.659 97.0735C408.437 98.2991 410.587 98.9095 413.115 98.9095Z" fill="#191B20"/>
<path d="M492.956 104.834H466.658V101.398C469.501 100.135 472.345 99.187 475.187 98.5549L505.158 20.4839H508.594L538.565 98.5549C540.144 98.871 541.704 99.2271 543.244 99.6217C544.783 100.018 546.223 100.61 547.567 101.399V104.835H517.004V101.399C518.583 100.769 520.203 100.214 521.862 99.7404C523.52 99.2672 525.137 98.8725 526.719 98.5565L518.706 76.877H490.547L482.771 98.5565C486.089 99.0298 489.483 99.9778 492.959 101.399V104.835L492.956 104.834ZM492.9 70.7137H516.702L507.393 45.598L505.155 35.4096H504.921L501.974 45.8354L492.9 70.7137Z" fill="#191B20"/>
<path d="M578.365 104.834H548.039V101.398C551.119 99.9763 554.277 99.0282 557.516 98.555V28.3029C555.936 27.9884 554.356 27.5737 552.778 27.0588C551.198 26.5455 549.618 25.9735 548.039 25.3415V21.9053H578.365V25.3415C576.943 25.9751 575.403 26.547 573.745 27.0588C572.086 27.5737 570.468 27.9884 568.888 28.3029V98.555C570.546 98.871 572.205 99.2657 573.863 99.7389C575.522 100.212 577.02 100.766 578.365 101.398V104.834Z" fill="#191B20"/>
</g>
<defs>
<linearGradient id="paint0_linear_136_264860" x1="6.54536" y1="38.8209" x2="95.5348" y2="69.16" gradientUnits="userSpaceOnUse">
<stop stop-color="#000B1F"/>
<stop offset="0.49" stop-color="#0057FF"/>
<stop offset="1" stop-color="#04CFFF"/>
</linearGradient>
<radialGradient id="paint1_radial_136_264860" cx="0" cy="0" r="1" gradientUnits="userSpaceOnUse" gradientTransform="translate(-39.8045 -7.41575) rotate(22.5915) scale(140.743 158.618)">
<stop stop-color="#D8FF70"/>
<stop offset="0.5" stop-color="#04CFFF"/>
<stop offset="1" stop-color="#0057FF"/>
</radialGradient>
<clipPath id="clip0_136_264860">
<rect width="579" height="122" fill="white"/>
</clipPath>
</defs>
</svg>
