<svg xmlns="http://www.w3.org/2000/svg" fill="none" viewBox="0 0 98 31" height="31" width="98">
<path fill="black" d="M10.8714 24.4156L10.6126 24.4613C10.318 24.5136 10.0988 24.5536 9.96209 24.5792C9.72546 24.6239 9.47853 24.6589 9.22244 24.6823C8.95472 24.7074 8.70626 24.7201 8.47678 24.7201H7.716V22.3849L8.42923 22.34C9.13148 22.2953 9.79946 22.1845 10.4325 22.0077C11.0623 21.8318 11.6591 21.5902 12.2233 21.2839C12.7899 20.9756 13.3022 20.621 13.7595 20.2212C14.2135 19.8248 14.6151 19.3808 14.9643 18.8896C15.3083 18.4055 15.5912 17.8832 15.8123 17.3233C16.0338 16.7627 16.1913 16.169 16.2836 15.5411C16.4688 14.2891 16.3195 12.98 15.8349 11.6154C15.6189 11.0455 15.3409 10.5089 15.0015 10.0069C14.6593 9.50024 14.2554 9.03033 13.7911 8.59898C13.3225 8.16297 12.8281 7.79873 12.3086 7.50506C11.8094 7.2237 11.2786 7.00155 10.7167 6.83925C10.654 6.83127 10.5838 6.81874 10.5055 6.80028C10.4048 6.77716 10.2897 6.746 10.1615 6.70792C10.0512 6.67433 9.96824 6.65124 9.91353 6.6391C9.90322 6.63678 9.91022 6.63486 9.91454 6.63403L9.91203 6.63301C9.86065 6.63301 9.79281 6.62675 9.7095 6.61495H9.7065C9.63633 6.60464 9.57131 6.59387 9.51244 6.58206C8.28921 6.34493 3.99645 6.56136 2.45494 6.56136V31H0V4.10639H8.90715C9.41383 4.10639 9.92535 4.15451 10.442 4.25112C10.9495 4.34641 11.4544 4.48813 11.9559 4.6772C12.4458 4.86145 12.9129 5.07546 13.3564 5.31824C13.8029 5.56236 14.2181 5.83207 14.6023 6.12574C15.1834 6.55277 15.7039 7.02505 16.1634 7.54221V7.54566C16.6278 8.06831 17.0317 8.63772 17.3753 9.25383C17.719 9.86943 17.9962 10.4963 18.2064 11.1335C18.4194 11.7789 18.5679 12.4408 18.6519 13.1186C18.7352 13.7922 18.7527 14.4705 18.7041 15.1529C18.656 15.8294 18.542 16.5087 18.3619 17.1901C18.179 17.8827 17.9254 18.5393 17.6026 19.1598C17.2792 19.781 16.8837 20.3713 16.4161 20.9298C16.1512 21.2551 15.8645 21.5646 15.5549 21.8573C15.242 22.1538 14.919 22.4207 14.5868 22.6573C14.2615 22.8888 13.9216 23.1108 13.5671 23.3223C13.4587 23.387 13.3489 23.451 13.2367 23.5147L18.8606 31H15.8897L10.8714 24.4156ZM9.91454 6.63403C9.91687 6.63353 9.9187 6.63403 9.91454 6.63403V6.63403ZM38.8445 4.72348V6.27372H23.8435V14.6213H30.0519V17.0759H23.8435V28.6169H38.4136V31H21.4607C21.4594 21.9879 21.4594 12.9753 21.4607 3.96268H38.8445V4.72348ZM41.8467 3.96227L56.3428 10.6344V3.89102H58.6539V31H56.3428V13.2848L42.3613 6.92045V31H39.9066V3.89102H41.6915L41.8467 3.96227ZM79.1813 4.72348V6.27372H64.1807V14.6213H70.3888V17.0759H64.1807V28.6169H78.7504V31H61.7975V3.96268H79.1813V4.72348ZM97.6271 4.72348V6.27372H82.6266V14.6213H88.835V17.0759H82.6266V28.6169H97.1968V31H80.2438V3.96268H97.6271V4.72348Z" clip-rule="evenodd" fill-rule="evenodd"></path>
<path fill="black" d="M69.5234 7.62939e-06H71.3933L68.8791 2.79458H67.5312L69.3169 7.62939e-06H69.5234Z" clip-rule="evenodd" fill-rule="evenodd"></path>
</svg>
