<svg width="119" height="40" viewBox="0 0 119 40" fill="none" xmlns="http://www.w3.org/2000/svg">
<path d="M107.95 9.41687H110.908L112.778 14.9857C112.837 15.1628 112.887 15.3428 112.928 15.5258C112.969 15.7087 113.005 15.8976 113.034 16.0924C113.064 16.2872 113.088 16.4908 113.105 16.7033H113.158C113.194 16.3846 113.241 16.0865 113.3 15.8091C113.365 15.5317 113.445 15.2572 113.539 14.9857L115.373 9.41687H118.27L114.08 20.5811C113.826 21.2658 113.495 21.8353 113.088 22.2898C112.68 22.7502 112.211 23.0955 111.679 23.3257C111.153 23.5559 110.575 23.671 109.943 23.671C109.636 23.671 109.37 23.6533 109.145 23.6178C108.921 23.5883 108.729 23.5559 108.57 23.5205V21.3779C108.694 21.4074 108.85 21.434 109.039 21.4576C109.228 21.4812 109.426 21.493 109.633 21.493C110.011 21.493 110.336 21.4133 110.607 21.254C110.879 21.0946 111.106 20.8792 111.289 20.6077C111.472 20.3421 111.617 20.0499 111.723 19.7312L111.883 19.2442L107.95 9.41687Z" fill="white"/>
<path d="M106.943 19.3151H104.241V5.53906H106.943V19.3151Z" fill="white"/>
<path d="M101.422 17.3408C101.717 17.3408 102.003 17.3113 102.281 17.2523C102.564 17.1932 102.845 17.1195 103.122 17.0309V19.0407C102.833 19.1705 102.473 19.2768 102.042 19.3594C101.616 19.4479 101.15 19.4922 100.642 19.4922C100.051 19.4922 99.5199 19.3978 99.0475 19.2089C98.5809 19.0141 98.2118 18.6806 97.9402 18.2084C97.6744 17.7304 97.5415 17.0663 97.5415 16.2164V11.4444H96.2482V10.3023L97.7364 9.39924L98.516 7.30981H100.243V9.41694H103.016V11.4444H100.243V16.2164C100.243 16.5942 100.35 16.8775 100.562 17.0663C100.781 17.2493 101.067 17.3408 101.422 17.3408Z" fill="white"/>
<path d="M95.2415 16.3757C95.2415 17.0486 95.082 17.6182 94.7631 18.0844C94.4501 18.5448 93.9806 18.896 93.3546 19.138C92.7286 19.3741 91.949 19.4921 91.0159 19.4921C90.3249 19.4921 89.7314 19.4479 89.2353 19.3593C88.7452 19.2708 88.2491 19.1232 87.7471 18.9167V16.6856C88.2845 16.9276 88.8603 17.1283 89.4745 17.2876C90.0946 17.4411 90.6379 17.5178 91.1045 17.5178C91.6301 17.5178 92.0051 17.4411 92.2295 17.2876C92.4599 17.1283 92.575 16.9217 92.575 16.6679C92.575 16.5026 92.5278 16.3551 92.4333 16.2252C92.3447 16.0894 92.1498 15.9389 91.8486 15.7737C91.5474 15.6025 91.075 15.3812 90.4312 15.1097C89.8111 14.85 89.3003 14.5873 88.8987 14.3217C88.503 14.0561 88.2077 13.7433 88.0128 13.3832C87.8239 13.0173 87.7294 12.554 87.7294 11.9932C87.7294 11.0784 88.0837 10.3908 88.7924 9.93038C89.507 9.4641 90.4608 9.23096 91.6537 9.23096C92.2679 9.23096 92.8526 9.29293 93.4077 9.41688C93.9688 9.54083 94.5446 9.73856 95.1352 10.0101L94.3202 11.9578C93.83 11.7453 93.3664 11.5712 92.9294 11.4355C92.4983 11.2997 92.0583 11.2318 91.6094 11.2318C91.2138 11.2318 90.9155 11.285 90.7147 11.3912C90.5139 11.4974 90.4135 11.6598 90.4135 11.8781C90.4135 12.0375 90.4637 12.1792 90.5641 12.3031C90.6704 12.4271 90.8712 12.5658 91.1665 12.7192C91.4677 12.8668 91.9077 13.0586 92.4864 13.2947C93.0475 13.5249 93.5347 13.7669 93.9481 14.0207C94.3615 14.2686 94.6804 14.5785 94.9048 14.9503C95.1293 15.3162 95.2415 15.7914 95.2415 16.3757Z" fill="white"/>
<path d="M81.949 9.23096C82.8644 9.23096 83.6528 9.40803 84.3143 9.76217C84.9757 10.1104 85.4866 10.618 85.8468 11.285C86.2071 11.9519 86.3872 12.7664 86.3872 13.7285V15.0388H80.0001C80.0297 15.8002 80.257 16.3993 80.6822 16.8361C81.1134 17.267 81.7098 17.4824 82.4717 17.4824C83.1036 17.4824 83.6824 17.4175 84.208 17.2876C84.7336 17.1578 85.274 16.963 85.8291 16.7033V18.7927C85.3389 19.0347 84.8251 19.2118 84.2877 19.3239C83.7562 19.4361 83.1095 19.4921 82.3477 19.4921C81.3555 19.4921 80.4755 19.3092 79.7078 18.9432C78.946 18.5773 78.3465 18.0195 77.9095 17.2699C77.4784 16.5203 77.2628 15.5759 77.2628 14.4368C77.2628 13.2799 77.4577 12.3179 77.8475 11.5506C78.2432 10.7774 78.7924 10.1989 79.4952 9.81529C80.198 9.42573 81.0159 9.23096 81.949 9.23096ZM81.9667 11.1522C81.4411 11.1522 81.0041 11.3204 80.6557 11.6568C80.3131 11.9932 80.1153 12.5215 80.0621 13.2416H83.8536C83.8477 12.8402 83.7739 12.4831 83.6322 12.1703C83.4963 11.8575 83.2896 11.6096 83.0121 11.4266C82.7404 11.2436 82.392 11.1522 81.9667 11.1522Z" fill="white"/>
<path d="M75.9207 9.41687V19.3151H73.8477L73.4845 18.049H73.3428C73.1302 18.3854 72.8644 18.6599 72.5455 18.8724C72.2266 19.0849 71.8752 19.2413 71.4913 19.3416C71.1075 19.442 70.7088 19.4921 70.2954 19.4921C69.5867 19.4921 68.9696 19.3682 68.444 19.1203C67.9184 18.8665 67.5079 18.474 67.2126 17.9428C66.9233 17.4116 66.7786 16.721 66.7786 15.8711V9.41687H69.4804V15.1982C69.4804 15.9065 69.6074 16.4406 69.8614 16.8007C70.1153 17.1607 70.5199 17.3407 71.075 17.3407C71.6242 17.3407 72.0553 17.2168 72.3683 16.9689C72.6814 16.7151 72.8999 16.3462 73.0239 15.8622C73.1538 15.3723 73.2188 14.7762 73.2188 14.0738V9.41687H75.9207Z" fill="white"/>
<path d="M62.7256 23.671V19.5187C62.7256 19.2708 62.7344 19.0229 62.7522 18.775C62.7758 18.5212 62.8053 18.2733 62.8407 18.0313H62.7256C62.4716 18.4386 62.1202 18.7839 61.6714 19.0672C61.2285 19.3505 60.6438 19.4921 59.9174 19.4921C58.8012 19.4921 57.8976 19.0613 57.2067 18.1995C56.5216 17.3319 56.1791 16.0599 56.1791 14.3837C56.1791 13.2563 56.3385 12.312 56.6574 11.5506C56.9764 10.7833 57.4193 10.2048 57.9862 9.81529C58.5591 9.42573 59.2205 9.23096 59.9706 9.23096C60.697 9.23096 61.2846 9.37261 61.7334 9.65592C62.1882 9.93333 62.5573 10.2757 62.8407 10.6829H62.9116L63.1508 9.41688H65.4363V23.671H62.7256ZM60.883 17.3762C61.3791 17.3762 61.7718 17.2788 62.0612 17.084C62.3565 16.8892 62.5691 16.597 62.699 16.2075C62.8289 15.812 62.8998 15.3192 62.9116 14.729V14.4014C62.9116 13.4393 62.764 12.7045 62.4687 12.1969C62.1734 11.6834 61.6301 11.4266 60.8387 11.4266C60.195 11.4266 59.7166 11.6834 59.4036 12.1969C59.0906 12.7104 58.9341 13.4511 58.9341 14.4191C58.9341 15.4048 59.0936 16.1455 59.4125 16.6413C59.7314 17.1312 60.2216 17.3762 60.883 17.3762Z" fill="white"/>
<path d="M50.3987 9.23096C51.3141 9.23096 52.1025 9.40803 52.764 9.76217C53.4254 10.1104 53.9363 10.618 54.2965 11.285C54.6568 11.9519 54.8369 12.7664 54.8369 13.7285V15.0388H48.4498C48.4794 15.8002 48.7067 16.3993 49.1319 16.8361C49.5631 17.267 50.1595 17.4824 50.9214 17.4824C51.5533 17.4824 52.1321 17.4175 52.6577 17.2876C53.1833 17.1578 53.7237 16.963 54.2788 16.7033V18.7927C53.7886 19.0347 53.2748 19.2118 52.7374 19.3239C52.2059 19.4361 51.5592 19.4921 50.7974 19.4921C49.8052 19.4921 48.9252 19.3092 48.1575 18.9432C47.3957 18.5773 46.7962 18.0195 46.3592 17.2699C45.9281 16.5203 45.7125 15.5759 45.7125 14.4368C45.7125 13.2799 45.9074 12.3179 46.2972 11.5506C46.6929 10.7774 47.2421 10.1989 47.9449 9.81529C48.6477 9.42573 49.4656 9.23096 50.3987 9.23096ZM50.4164 11.1522C49.8908 11.1522 49.4538 11.3204 49.1054 11.6568C48.7628 11.9932 48.565 12.5215 48.5118 13.2416H52.3033C52.2974 12.8402 52.2236 12.4831 52.0819 12.1703C51.946 11.8575 51.7393 11.6096 51.4618 11.4266C51.1901 11.2436 50.8417 11.1522 50.4164 11.1522Z" fill="white"/>
<path d="M44.0172 9.23096C44.153 9.23096 44.3095 9.23981 44.4867 9.25752C44.6697 9.26932 44.8174 9.28703 44.9296 9.31064L44.7258 11.8427C44.6373 11.8132 44.5103 11.7926 44.3449 11.7808C44.1855 11.7631 44.0467 11.7542 43.9286 11.7542C43.5801 11.7542 43.2405 11.7985 42.9098 11.887C42.585 11.9755 42.2927 12.1201 42.0328 12.3208C41.773 12.5156 41.5663 12.7753 41.4127 13.0999C41.2651 13.4187 41.1913 13.8112 41.1913 14.2774V19.3151H38.4894V9.41688H40.5357L40.9344 11.0813H41.0672C41.2621 10.7449 41.5043 10.438 41.7936 10.1606C42.0889 9.87726 42.4226 9.65297 42.7947 9.48771C43.1726 9.31654 43.5801 9.23096 44.0172 9.23096Z" fill="white"/>
<path d="M14.1943 27.8386V21.3019C11.9388 21.335 9.47402 21.1551 6.91364 20.6328L6.90157 20.6211V24.5161C6.90157 25.2943 6.98539 25.9229 7.15304 26.4018C7.32069 26.8808 7.5582 27.2549 7.86556 27.5243C8.20086 27.7937 8.60601 27.9733 9.08102 28.0631C9.58397 28.1828 10.1568 28.2427 10.7994 28.2427C11.4421 28.2427 12.0848 28.1978 12.7274 28.108C13.398 28.0182 13.887 27.9284 14.1943 27.8386Z" fill="url(#paint0_linear_14024_6460)"/>
<path d="M14.1943 19.218H14.5049C17.3724 19.1603 20.5 18.7341 23.1655 17.5147L23.1636 17.5119C24.3931 16.7935 25.4548 15.7758 26.349 14.4588C27.2431 13.1417 27.6902 11.5553 27.6902 9.6995C27.6902 6.73618 26.7122 4.38648 24.7563 2.65039C22.8004 0.914308 19.8945 0.0462646 16.0385 0.0462646C14.6135 0.0462646 13.2723 0.136062 12.0149 0.315657C10.7575 0.465319 9.65382 0.719748 8.70381 1.07894C8.14497 1.28847 7.69791 1.57282 7.36261 1.93201C7.05525 2.26127 6.90157 2.74019 6.90157 3.36877V10.8976C8.18523 11.0941 13.0582 11.5151 14.1524 11.4685V6.51169C14.4598 6.45182 14.7392 6.40692 14.9907 6.37699C15.2422 6.34706 15.5775 6.33209 15.9966 6.33209C17.4775 6.33209 18.5533 6.63142 19.2239 7.23007C19.9224 7.79879 20.2717 8.65186 20.2717 9.7893C20.2717 10.9267 19.9643 11.7948 19.3496 12.3934C18.7349 12.9621 17.8966 13.2465 16.8348 13.2465H14.1524V13.2226C14.1452 13.234 14.1385 13.2456 14.1324 13.2572C10.0662 13.0616 7.59712 12.889 6.89997 12.7911L6.89991 12.7901L4.96817 12.5981C4.79181 12.5806 4.6629 12.4234 4.68022 12.247L4.78481 11.1825C4.81503 10.8748 4.43553 10.7061 4.22784 10.9349L0.196375 15.3755C0.0860678 15.497 0.0853412 15.6823 0.194691 15.8049L3.43318 19.4358C3.61933 19.6445 3.9645 19.5322 3.99183 19.254L4.06694 18.4895C4.08515 18.3041 4.25681 18.1733 4.44037 18.2049L6.90157 18.6288V18.6437L6.91364 18.6316C8.41948 18.8854 11.1426 19.2568 14.1943 19.2229V19.218Z" fill="url(#paint1_linear_14024_6460)"/>
<path d="M19.9364 25.2794L17.5076 21.0979C20.6627 20.7546 23.1568 20.0509 24.5495 19.4881C25.0835 20.2322 25.6135 20.9504 26.1394 21.6426C27.1174 22.9297 27.8858 24.097 28.4446 25.1447C28.1652 26.1923 27.6483 27.0005 26.8938 27.5692C26.1674 28.108 25.3431 28.3774 24.421 28.3774C23.8063 28.3774 23.2754 28.3026 22.8283 28.1529C22.3813 28.0032 21.9901 27.7937 21.6548 27.5243C21.3195 27.2549 21.0121 26.9257 20.7327 26.5365C20.4533 26.1474 20.1878 25.7284 19.9364 25.2794Z" fill="url(#paint2_linear_14024_6460)"/>
<path d="M0.113159 15.5974C0.114643 15.6717 0.141781 15.7456 0.194627 15.8048L3.43311 19.4357C3.61927 19.6444 3.96443 19.5321 3.99176 19.254L4.06687 18.4894C4.08509 18.3041 4.25674 18.1733 4.44031 18.2049L6.9015 18.6287V18.6436L6.91358 18.6315C8.41942 18.8853 11.1425 19.2567 14.1943 19.2228V19.218H14.2557V16.3896L0.113159 15.5974Z" fill="url(#paint3_linear_14024_6460)"/>
<path d="M14.2558 16.3896L0.113224 15.5974C0.111637 15.518 0.139376 15.4382 0.196375 15.3754L4.22784 10.9348C4.43553 10.7061 4.81503 10.8748 4.78481 11.1825L4.68022 12.247C4.6629 12.4234 4.79181 12.5806 4.96817 12.5981L6.89991 12.79L6.89997 12.7911C7.59712 12.8889 10.0662 13.0615 14.1324 13.2572C14.1385 13.2455 14.1452 13.234 14.1524 13.2226V13.2465H14.2558V16.3896Z" fill="url(#paint4_linear_14024_6460)"/>
<path d="M38.9394 37.4436V30.1709H40.2249V32.891H40.2782C40.3444 32.7585 40.438 32.6176 40.5587 32.4685C40.6794 32.3169 40.8428 32.1879 41.0488 32.0814C41.2547 31.9725 41.5175 31.918 41.8371 31.918C42.2585 31.918 42.6385 32.0258 42.977 32.2412C43.3179 32.4543 43.5878 32.7703 43.7867 33.1893C43.9879 33.606 44.0885 34.1174 44.0885 34.7234C44.0885 35.3224 43.9903 35.8314 43.7938 36.2504C43.5973 36.6695 43.3298 36.9891 42.9912 37.2092C42.6527 37.4294 42.2692 37.5395 41.8407 37.5395C41.5282 37.5395 41.2689 37.4874 41.063 37.3832C40.857 37.2791 40.6913 37.1536 40.5658 37.0068C40.4427 36.8577 40.3468 36.7168 40.2782 36.5842H40.2036V37.4436H38.9394ZM40.2 34.7163C40.2 35.0691 40.2497 35.378 40.3492 35.6432C40.451 35.9083 40.5966 36.1155 40.786 36.2646C40.9777 36.4114 41.2097 36.4848 41.482 36.4848C41.7661 36.4848 42.004 36.409 42.1958 36.2575C42.3875 36.1036 42.5319 35.8941 42.629 35.629C42.7284 35.3615 42.7782 35.0572 42.7782 34.7163C42.7782 34.3778 42.7296 34.0771 42.6326 33.8143C42.5355 33.5516 42.3911 33.3456 42.1993 33.1964C42.0076 33.0473 41.7684 32.9727 41.482 32.9727C41.2074 32.9727 40.9742 33.0449 40.7824 33.1893C40.5907 33.3338 40.4451 33.5362 40.3456 33.7966C40.2486 34.057 40.2 34.3636 40.2 34.7163ZM45.7948 39.4891C45.6197 39.4891 45.4575 39.4749 45.3083 39.4464C45.1616 39.4204 45.0444 39.3896 44.9568 39.3541L45.2551 38.3527C45.4421 38.4071 45.609 38.4332 45.7558 38.4308C45.9026 38.4285 46.0316 38.3823 46.1429 38.2923C46.2565 38.2047 46.3524 38.058 46.4305 37.852L46.5406 37.5572L44.5626 31.9891H45.9262L47.1833 36.1084H47.2402L48.5008 31.9891H49.868L47.684 38.1041C47.5822 38.3929 47.4473 38.6403 47.2792 38.8463C47.1111 39.0546 46.9052 39.2133 46.6613 39.3222C46.4198 39.4334 46.131 39.4891 45.7948 39.4891Z" fill="white"/>
<path fill-rule="evenodd" clip-rule="evenodd" d="M108.144 35.8901C108.028 35.5634 107.969 35.1494 107.969 34.5938C107.969 34.0384 108.028 33.6245 108.144 33.2977C108.469 32.3609 109.329 31.849 110.455 31.849C111.291 31.849 111.953 32.1648 112.394 32.6659C112.429 32.7095 112.44 32.7749 112.383 32.8186L111.651 33.4174C111.593 33.461 111.535 33.4502 111.488 33.3957C111.21 33.1017 110.919 32.9383 110.455 32.9383C109.956 32.9383 109.572 33.1671 109.409 33.6245C109.316 33.8859 109.293 34.191 109.293 34.5938C109.293 34.9969 109.316 35.3129 109.409 35.5743C109.572 36.0208 109.956 36.2496 110.455 36.2496C110.919 36.2496 111.21 36.0862 111.488 35.7922C111.535 35.7377 111.593 35.7377 111.651 35.7812L112.383 36.3803C112.44 36.4239 112.429 36.4784 112.394 36.5327C111.953 37.0229 111.291 37.3389 110.455 37.3389C109.329 37.3389 108.469 36.827 108.144 35.8901Z" fill="white"/>
<path fill-rule="evenodd" clip-rule="evenodd" d="M116.929 37.2195C116.847 37.2195 116.789 37.1869 116.743 37.1105L115.326 34.9102L114.571 35.7271V37.1105C114.571 37.176 114.525 37.2195 114.455 37.2195H113.387C113.317 37.2195 113.271 37.176 113.271 37.1105V29.9213C113.271 29.8561 113.317 29.8125 113.387 29.8125H114.455C114.525 29.8125 114.571 29.8561 114.571 29.9213V34.1914L116.488 32.0782C116.557 32.0019 116.615 31.9692 116.708 31.9692H117.892C117.962 31.9692 117.985 32.0345 117.939 32.0782L116.162 33.9952L118.206 37.1105C118.241 37.1541 118.218 37.2195 118.148 37.2195H116.929Z" fill="white"/>
<path fill-rule="evenodd" clip-rule="evenodd" d="M54.662 36.0866H56.3111C57.0776 36.0866 57.5072 35.6727 57.5072 35.0519C57.5072 34.4419 57.0776 34.028 56.3111 34.028H54.662C54.6157 34.028 54.5923 34.0497 54.5923 34.0933V36.0212C54.5923 36.0648 54.6157 36.0866 54.662 36.0866ZM56.2414 32.8952C56.9383 32.8952 57.3679 32.503 57.3679 31.9256C57.3679 31.3375 56.9383 30.9453 56.2414 30.9453H54.662C54.6157 30.9453 54.5923 30.9671 54.5923 31.0107V32.8297C54.5923 32.8733 54.6157 32.8952 54.662 32.8952H56.2414ZM53.222 29.9213C53.222 29.8561 53.2685 29.8125 53.338 29.8125H56.2762C57.9485 29.8125 58.7382 30.5968 58.7382 31.784C58.7382 32.6228 58.3202 33.1021 57.8207 33.3526V33.3744C58.3085 33.5486 58.8775 34.1368 58.8775 35.041C58.8775 36.5115 57.8904 37.2195 56.1601 37.2195H53.338C53.2685 37.2195 53.222 37.176 53.222 37.1105V29.9213Z" fill="white"/>
<path fill-rule="evenodd" clip-rule="evenodd" d="M59.841 37.2191C59.7712 37.2191 59.7246 37.1755 59.7246 37.1101V32.0778C59.7246 32.0123 59.7712 31.9688 59.841 31.9688H60.9093C60.9789 31.9688 61.0254 32.0123 61.0254 32.0778V32.5243H61.0371C61.3041 32.1214 61.7802 31.849 62.4887 31.849C62.9299 31.849 63.3712 32.0123 63.6615 32.2847C63.7196 32.3391 63.7313 32.3828 63.6847 32.4372L63.0691 33.1671C63.0228 33.2214 62.9647 33.2324 62.9067 33.1888C62.6512 33.0362 62.384 32.9383 62.0822 32.9383C61.3506 32.9383 61.0254 33.4284 61.0254 34.2672V37.1101C61.0254 37.1755 60.9789 37.2191 60.9093 37.2191H59.841Z" fill="white"/>
<path fill-rule="evenodd" clip-rule="evenodd" d="M67.2552 35.5634C67.3482 35.291 67.3714 35.0405 67.3714 34.5938C67.3714 34.1474 67.3482 33.9077 67.2552 33.6245C67.0925 33.1888 66.7327 32.9383 66.2101 32.9383C65.6875 32.9383 65.3158 33.1888 65.1533 33.6245C65.0605 33.9077 65.0371 34.1474 65.0371 34.5938C65.0371 35.0405 65.0605 35.291 65.1533 35.5634C65.3158 35.9991 65.6875 36.2496 66.2101 36.2496C66.7327 36.2496 67.0925 35.9991 67.2552 35.5634ZM63.8992 35.8901C63.7713 35.5198 63.7134 35.1712 63.7134 34.5938C63.7134 34.0167 63.7713 33.6681 63.8992 33.2977C64.2127 32.3828 65.0719 31.849 66.2101 31.849C67.3365 31.849 68.1958 32.3828 68.5095 33.2977C68.6372 33.6681 68.6953 34.0167 68.6953 34.5938C68.6953 35.1712 68.6372 35.5198 68.5095 35.8901C68.1958 36.8051 67.3365 37.3389 66.2101 37.3389C65.0719 37.3389 64.2127 36.8051 63.8992 35.8901Z" fill="white"/>
<path fill-rule="evenodd" clip-rule="evenodd" d="M74.3284 37.2191C74.2585 37.2191 74.2122 37.1755 74.1889 37.11L73.1089 33.7552H73.0858L71.9941 37.11C71.9708 37.1755 71.9245 37.2191 71.8547 37.2191H70.9025C70.8327 37.2191 70.7864 37.1755 70.7632 37.11L68.9979 32.0778C68.9746 32.0124 69.0096 31.9688 69.0793 31.9688H70.1941C70.2754 31.9688 70.3219 32.0014 70.345 32.0778L71.425 35.5416H71.4483L72.5166 32.0778C72.5399 32.0124 72.5979 31.9688 72.6676 31.9688H73.5037C73.5734 31.9688 73.6316 32.0124 73.6547 32.0778L74.7929 35.5416H74.8161L75.838 32.0778C75.8611 32.0014 75.9077 31.9688 75.989 31.9688H77.1038C77.1735 31.9688 77.2083 32.0124 77.1851 32.0778L75.4198 37.11C75.3967 37.1755 75.3502 37.2191 75.2805 37.2191H74.3284Z" fill="white"/>
<path fill-rule="evenodd" clip-rule="evenodd" d="M77.4144 36.511C77.3681 36.4674 77.3681 36.4022 77.4144 36.3586L78.0764 35.705C78.1229 35.6615 78.1925 35.6615 78.239 35.705C78.6455 36.0536 79.2958 36.3041 79.8764 36.3041C80.5616 36.3041 80.9099 36.0427 80.9099 35.6831C80.9099 35.3672 80.7126 35.1712 79.9809 35.1058L79.377 35.0515C78.239 34.9424 77.6582 34.3979 77.6582 33.5045C77.6582 32.4916 78.4363 31.849 79.8299 31.849C80.7009 31.849 81.4328 32.1214 81.932 32.4916C81.9902 32.5352 81.9902 32.6005 81.955 32.644L81.3863 33.2869C81.3398 33.3412 81.2815 33.3412 81.2238 33.3086C80.8751 33.0798 80.3178 32.8728 79.7603 32.8728C79.2028 32.8728 78.9125 33.1017 78.9125 33.4174C78.9125 33.7226 79.11 33.9077 79.8299 33.9731L80.4338 34.0276C81.6065 34.1364 82.164 34.7029 82.164 35.5634C82.164 36.6091 81.3511 37.3389 79.8183 37.3389C78.6687 37.3389 77.879 36.9141 77.4144 36.511Z" fill="white"/>
<path fill-rule="evenodd" clip-rule="evenodd" d="M86.4338 33.5591C86.2831 33.1343 85.8651 32.8838 85.3424 32.8838C84.8084 32.8838 84.39 33.1343 84.2392 33.5591C84.1927 33.6898 84.1692 33.8205 84.1692 34.0057C84.1692 34.0493 84.1927 34.0712 84.2392 34.0712H86.4338C86.4803 34.0712 86.5038 34.0493 86.5038 34.0057C86.5038 33.8205 86.4803 33.6898 86.4338 33.5591ZM83.0548 35.8792C82.9383 35.5417 82.8571 35.1386 82.8571 34.5938C82.8571 34.0493 82.927 33.6354 83.043 33.2977C83.3563 32.3828 84.2157 31.849 85.3306 31.849C86.4803 31.849 87.3167 32.4045 87.63 33.2977C87.7582 33.6681 87.816 34.0276 87.816 34.8772C87.816 34.9424 87.7695 34.986 87.6882 34.986H84.2392C84.1927 34.986 84.1692 35.0079 84.1692 35.0515C84.1692 35.2038 84.2044 35.3346 84.2509 35.4543C84.4364 35.9665 84.8779 36.2496 85.5049 36.2496C86.1318 36.2496 86.5386 36.0317 86.8171 35.7486C86.8753 35.6941 86.9335 35.6831 86.9913 35.7267L87.6765 36.2932C87.7347 36.3367 87.7347 36.3913 87.6882 36.4457C87.212 36.9684 86.4226 37.3389 85.3889 37.3389C84.2044 37.3389 83.368 36.7943 83.0548 35.8792Z" fill="white"/>
<path fill-rule="evenodd" clip-rule="evenodd" d="M88.779 37.2191C88.7095 37.2191 88.663 37.1755 88.663 37.1101V32.0778C88.663 32.0123 88.7095 31.9688 88.779 31.9688H89.8474C89.9169 31.9688 89.9634 32.0123 89.9634 32.0778V32.5243H89.9751C90.2419 32.1214 90.7181 31.849 91.4268 31.849C91.8682 31.849 92.3092 32.0123 92.5995 32.2847C92.6577 32.3391 92.669 32.3828 92.623 32.4372L92.0073 33.1671C91.9612 33.2214 91.903 33.2324 91.8448 33.1888C91.5893 33.0362 91.3221 32.9383 91.0205 32.9383C90.2889 32.9383 89.9634 33.4284 89.9634 34.2672V37.1101C89.9634 37.1755 89.9169 37.2191 89.8474 37.2191H88.779Z" fill="white"/>
<path fill-rule="evenodd" clip-rule="evenodd" d="M92.8235 36.3591C92.777 36.3155 92.7539 36.25 92.8004 36.1955L93.5204 35.4112C93.5669 35.3569 93.6364 35.3569 93.6829 35.4005C94.1939 35.7817 94.9486 36.1846 95.831 36.1846C96.7717 36.1846 97.3174 35.7381 97.3174 35.1174C97.3174 34.5835 96.9694 34.235 95.8775 34.0933L95.4595 34.0388C93.9384 33.8428 93.0789 33.1565 93.0789 31.9257C93.0789 30.5859 94.1239 29.6927 95.7498 29.6927C96.737 29.6927 97.6776 29.9868 98.3046 30.4333C98.3629 30.477 98.3746 30.5206 98.3281 30.5859L97.7706 31.3918C97.7241 31.4464 97.6659 31.4573 97.6077 31.4247C96.9694 31.0325 96.3767 30.8473 95.715 30.8473C94.9138 30.8473 94.4724 31.2613 94.4724 31.8385C94.4724 32.3504 94.8556 32.699 95.924 32.8407L96.3425 32.8952C97.8632 33.0912 98.6996 33.7665 98.6996 35.041C98.6996 36.3591 97.6894 37.3394 95.7268 37.3394C94.5653 37.3394 93.4387 36.9036 92.8235 36.3591Z" fill="white"/>
<path fill-rule="evenodd" clip-rule="evenodd" d="M101.106 37.3114C99.9792 37.3114 99.5495 36.7995 99.5495 35.7754V33.0089C99.5495 32.9653 99.5265 32.9435 99.48 32.9435H99.1081C99.0386 32.9435 98.9921 32.8999 98.9921 32.8344V32.1047C98.9921 32.0394 99.0386 31.9958 99.1081 31.9958H99.48C99.5265 31.9958 99.5495 31.9739 99.5495 31.9304V30.4925C99.5495 30.4272 99.596 30.3837 99.6655 30.3837H100.734C100.804 30.3837 100.85 30.4272 100.85 30.4925V31.9304C100.85 31.9739 100.873 31.9958 100.92 31.9958H101.663C101.733 31.9958 101.779 32.0394 101.779 32.1047V32.8344C101.779 32.8999 101.733 32.9435 101.663 32.9435H100.92C100.873 32.9435 100.85 32.9653 100.85 33.0089V35.7321C100.85 36.1024 101.013 36.2221 101.373 36.2221H101.663C101.733 36.2221 101.779 36.2657 101.779 36.3311V37.2024C101.779 37.2678 101.733 37.3114 101.663 37.3114H101.106Z" fill="white"/>
<path fill-rule="evenodd" clip-rule="evenodd" d="M105.892 35.4543V35.0515C105.892 35.0079 105.869 34.986 105.822 34.986H104.893C104.057 34.986 103.685 35.2038 103.685 35.6941C103.685 36.1298 104.022 36.3477 104.649 36.3477C105.451 36.3477 105.892 36.0536 105.892 35.4543ZM106.031 37.2191C105.961 37.2191 105.915 37.1755 105.915 37.1101V36.7289H105.903C105.636 37.0884 105.113 37.3389 104.324 37.3389C103.302 37.3389 102.443 36.8379 102.443 35.7377C102.443 34.5938 103.302 34.0712 104.684 34.0712H105.822C105.869 34.0712 105.892 34.0493 105.892 34.0057V33.7552C105.892 33.156 105.59 32.8838 104.649 32.8838C104.022 32.8838 103.639 33.0472 103.371 33.2433C103.314 33.2869 103.244 33.2759 103.209 33.2214L102.779 32.5026C102.744 32.4481 102.756 32.3936 102.803 32.3609C103.255 32.0559 103.871 31.849 104.788 31.849C106.495 31.849 107.123 32.3936 107.123 33.6791V37.1101C107.123 37.1755 107.076 37.2191 107.006 37.2191H106.031Z" fill="white"/>
<defs>
<linearGradient id="paint0_linear_14024_6460" x1="6.70195" y1="-2.67685" x2="23.4879" y2="34.2583" gradientUnits="userSpaceOnUse">
<stop stop-color="#1EA0FF"/>
<stop offset="1" stop-color="#004EEB"/>
</linearGradient>
<linearGradient id="paint1_linear_14024_6460" x1="6.70195" y1="-2.67685" x2="23.4879" y2="34.2583" gradientUnits="userSpaceOnUse">
<stop stop-color="#1EA0FF"/>
<stop offset="1" stop-color="#004EEB"/>
</linearGradient>
<linearGradient id="paint2_linear_14024_6460" x1="6.70195" y1="-2.67685" x2="23.4879" y2="34.2583" gradientUnits="userSpaceOnUse">
<stop stop-color="#1EA0FF"/>
<stop offset="1" stop-color="#004EEB"/>
</linearGradient>
<linearGradient id="paint3_linear_14024_6460" x1="21.1505" y1="17.4821" x2="9.37016" y2="14.4064" gradientUnits="userSpaceOnUse">
<stop stop-color="#1EA0FF"/>
<stop offset="1" stop-color="#004EEB"/>
</linearGradient>
<linearGradient id="paint4_linear_14024_6460" x1="4.68157" y1="8.86513" x2="26.1614" y2="11.6131" gradientUnits="userSpaceOnUse">
<stop stop-color="#1EA0FF"/>
<stop offset="1" stop-color="#004EEB"/>
</linearGradient>
</defs>
</svg>
