<svg width="157" height="27" viewBox="0 0 157 27" fill="none" xmlns="http://www.w3.org/2000/svg">
<path d="M26.9795 0.721191V26.7687H18.2974V9.40334H0.931976V0.721191H26.9795Z" fill="#014DC5"/>
<path d="M12.509 15.1919H0.932022V26.7699H12.509V15.1919Z" fill="#10CFFC"/>
<path d="M51.9593 9.75475C51.2473 8.56849 49.2888 7.44026 47.0335 7.44026C44.1253 7.44026 42.7314 8.65665 42.7314 10.2C42.7314 12.0101 44.8674 12.5145 47.3604 12.8114C51.6926 13.3459 55.7301 14.473 55.7301 19.4279C55.7301 24.058 51.6357 26.0455 47.0067 26.0455C42.766 26.0455 39.4985 24.7398 37.9563 20.9422L41.2204 19.2504C42.1389 21.5348 44.5438 22.547 47.0658 22.547C49.5287 22.547 51.8432 21.6866 51.8432 19.4312C51.8432 17.4738 49.7955 16.6726 47.0357 16.3757C42.7951 15.8713 38.8758 14.7431 38.8758 10.0851C38.8758 5.81207 43.0897 4.0589 46.9174 4.03101C50.1537 4.03101 53.5015 4.95167 55.0773 8.16005L51.9593 9.75475Z" fill="#383E55"/>
<path d="M70.6414 23.6418C68.9496 25.3034 67.1697 25.9563 65.0036 25.9563C60.763 25.9563 57.2287 23.4052 57.2287 18.2115C57.2287 13.0179 60.7596 10.4668 65.0036 10.4668C67.0804 10.4668 68.6863 11.0605 70.2854 12.6329L68 15.0366C67.1955 14.3044 66.1505 13.8926 65.0628 13.8794C62.63 13.8794 60.8489 15.6649 60.8489 18.2115C60.8489 21.0014 62.746 22.4845 65.0036 22.4845C66.1609 22.4845 67.3181 22.1587 68.2075 21.2681L70.6414 23.6418Z" fill="#383E55"/>
<path d="M83.1457 10.8831H86.6174V25.5111H83.2059L83.0274 23.3751C82.1971 25.0959 79.9116 25.9273 78.2801 25.9563C73.9479 25.9865 70.7429 23.316 70.7429 18.1826C70.7429 13.1373 74.0964 10.497 78.3694 10.5271C80.3279 10.5271 82.1971 11.4467 83.0274 12.9007L83.1457 10.8831ZM74.362 18.1826C74.362 20.9725 76.2903 22.633 78.6941 22.633C84.3922 22.633 84.3922 13.7612 78.6941 13.7612C76.287 13.7612 74.362 15.3927 74.362 18.1826Z" fill="#383E55"/>
<path d="M92.9674 4.76978V25.511H89.3773V4.76978H92.9674Z" fill="#383E55"/>
<path d="M98.8104 19.4882C99.047 21.2982 100.621 22.6039 103.172 22.6039C104.511 22.6039 106.258 22.0995 107.089 21.2391L109.403 23.5235C107.861 25.126 105.338 25.8971 103.112 25.8971C98.0683 25.8971 95.0709 22.7813 95.0709 18.0932C95.0709 13.6428 98.0973 10.4377 102.846 10.4377C107.741 10.4377 110.798 13.4642 110.234 19.4882H98.8104ZM106.763 16.4907C106.525 14.5936 105.041 13.6428 102.968 13.6428C101.01 13.6428 99.4075 14.5913 98.8741 16.4907H106.763Z" fill="#383E55"/>
<path d="M123.216 25.5112V17.8602C123.216 15.635 122 13.9432 119.686 13.9432C117.454 13.9432 115.946 15.8135 115.946 18.0387V25.5156H112.356V10.8531H115.592L115.83 12.8417C117.313 11.391 118.797 10.6455 120.636 10.6455C124.079 10.6455 126.839 13.2267 126.839 17.8267V25.5112H123.216Z" fill="#383E55"/>
<path d="M132.964 10.8831V18.5385C132.964 20.7637 134.181 22.4555 136.495 22.4555C138.72 22.4555 140.234 20.5852 140.234 18.36V10.8831H143.825V25.5411H140.589L140.353 23.5514C138.84 25.0356 137.445 25.7476 135.397 25.7476C131.896 25.7476 129.344 23.1072 129.344 18.5664V10.8831H132.964Z" fill="#383E55"/>
<path d="M151.596 6.75854V10.9121H155.632V14.0279H151.566V20.3487C151.566 21.7425 152.337 22.4255 153.463 22.4255C154.073 22.4078 154.671 22.2553 155.214 21.9791L156.219 25.0658C155.268 25.4619 154.251 25.6733 153.221 25.6885C150.052 25.8079 147.976 23.9978 147.976 20.3487V14.0279H145.247V10.9121H147.976V7.1469L151.596 6.75854Z" fill="#383E55"/>
</svg>
