<svg width="171" height="25" viewBox="0 0 171 25" fill="none" xmlns="http://www.w3.org/2000/svg">
<path d="M21.2053 8.8594V16.0059L19.7135 16.7531L10.6052 21.3225L0 16.0059V14.3133L0.334901 14.481L2.90247 15.7721L10.6001 19.6299L19.7084 15.0605V11.2992L10.6001 15.8686L1.49691 11.2992L0.00507427 10.552V5.31665L1.49691 6.06383V9.60657L10.6052 14.1761L19.7135 9.60657L20.8704 9.02713L21.2053 8.8594Z" fill="#6F39F5"/>
<path d="M0.000183105 5.31666L10.6054 0L21.2055 5.31157L10.6054 10.6333L0.000183105 5.31666Z" fill="#191132"/>
<path d="M31.7842 13.95C31.8802 14.398 32.0722 14.814 32.3602 15.198C32.6642 15.582 33.0722 15.894 33.5842 16.134C34.0962 16.374 34.7282 16.494 35.4802 16.494C36.6002 16.494 37.4242 16.238 37.9522 15.726C38.4962 15.198 38.7682 14.582 38.7682 13.878C38.7682 13.302 38.6002 12.83 38.2642 12.462C37.9442 12.078 37.4962 11.758 36.9202 11.502C36.3602 11.23 35.7122 10.99 34.9762 10.782C34.3362 10.59 33.7042 10.39 33.0802 10.182C32.4722 9.95799 31.9202 9.68599 31.4242 9.36599C30.9282 9.02999 30.5362 8.60599 30.2482 8.09399C29.9602 7.56599 29.8162 6.90999 29.8162 6.12599C29.8162 5.14999 30.0482 4.30999 30.5122 3.60598C30.9762 2.90199 31.6242 2.36599 32.4562 1.99799C33.3042 1.61399 34.2802 1.42199 35.3842 1.42199C36.3122 1.42199 37.1442 1.55799 37.8802 1.82998C38.6162 2.08599 39.2322 2.46199 39.7282 2.95799C40.2402 3.43799 40.6162 4.02199 40.8562 4.70998L38.6722 5.50199C38.5762 5.14999 38.3762 4.82199 38.0722 4.51799C37.7682 4.19799 37.3842 3.94199 36.9202 3.74999C36.4562 3.55799 35.9362 3.46199 35.3602 3.46199C34.7682 3.44599 34.2322 3.54199 33.7522 3.74999C33.2882 3.94199 32.9122 4.22198 32.6242 4.58998C32.3522 4.95798 32.2162 5.39798 32.2162 5.90999C32.2162 6.46999 32.3762 6.90999 32.6962 7.22999C33.0162 7.54999 33.4402 7.81399 33.9682 8.02199C34.5122 8.22999 35.1042 8.42999 35.7442 8.62199C36.4162 8.82999 37.0722 9.05399 37.7122 9.29399C38.3522 9.53399 38.9282 9.83799 39.4402 10.206C39.9682 10.574 40.3922 11.038 40.7122 11.598C41.0322 12.142 41.1922 12.83 41.1922 13.662C41.1922 14.558 40.9842 15.374 40.5682 16.11C40.1522 16.846 39.5202 17.438 38.6722 17.886C37.8402 18.334 36.7922 18.558 35.5282 18.558C34.4882 18.558 33.5522 18.398 32.7202 18.078C31.8882 17.758 31.2002 17.318 30.6562 16.758C30.1282 16.182 29.7762 15.518 29.6002 14.766L31.7842 13.95Z" fill="#191132"/>
<path d="M52.0992 16.35C51.7152 16.974 51.1552 17.502 50.4192 17.934C49.6992 18.35 48.8192 18.558 47.7792 18.558C46.6912 18.558 45.7392 18.302 44.9232 17.79C44.1232 17.278 43.4912 16.558 43.0272 15.63C42.5792 14.702 42.3552 13.622 42.3552 12.39C42.3552 11.142 42.5792 10.062 43.0272 9.14999C43.4912 8.22199 44.1232 7.50199 44.9232 6.98999C45.7392 6.47799 46.6912 6.22199 47.7792 6.22199C48.7552 6.22199 49.5792 6.41399 50.2512 6.79799C50.9392 7.18199 51.4832 7.64599 51.8832 8.18999L52.0512 6.38999H54.1152V23.19H51.8352V16.278L52.0992 16.35ZM44.7792 12.39C44.7792 13.622 45.0992 14.614 45.7392 15.366C46.3952 16.118 47.2512 16.494 48.3072 16.494C48.9632 16.494 49.5552 16.334 50.0832 16.014C50.6112 15.678 51.0352 15.206 51.3552 14.598C51.6752 13.99 51.8352 13.254 51.8352 12.39C51.8352 11.51 51.6752 10.766 51.3552 10.158C51.0352 9.54999 50.6112 9.08599 50.0832 8.76599C49.5552 8.44599 48.9632 8.28598 48.3072 8.28598C47.2352 8.28598 46.3792 8.66199 45.7392 9.41399C45.0992 10.166 44.7792 11.158 44.7792 12.39Z" fill="#191132"/>
<path d="M66.5675 18.39H64.5035L64.3355 16.974C63.9515 17.486 63.4635 17.878 62.8715 18.15C62.2955 18.422 61.6475 18.558 60.9275 18.558C59.9995 18.558 59.1915 18.366 58.5035 17.982C57.8155 17.582 57.2795 17.006 56.8955 16.254C56.5275 15.486 56.3435 14.534 56.3435 13.398V6.38999H58.6235V13.11C58.6235 14.214 58.8475 15.054 59.2955 15.63C59.7595 16.206 60.4555 16.494 61.3835 16.494C62.2955 16.494 63.0075 16.198 63.5195 15.606C64.0475 15.014 64.3115 14.134 64.3115 12.966V6.38999H66.5675V18.39Z" fill="#191132"/>
<path d="M76.3087 18.39L76.1167 16.638C75.7487 17.246 75.2687 17.718 74.6767 18.054C74.1007 18.374 73.3487 18.534 72.4207 18.534C71.5567 18.534 70.8207 18.398 70.2127 18.126C69.6047 17.838 69.1327 17.446 68.7967 16.95C68.4767 16.438 68.3167 15.846 68.3167 15.174C68.3167 14.166 68.6927 13.334 69.4447 12.678C70.1967 12.006 71.2847 11.59 72.7087 11.43L76.1167 11.046V10.11C76.1167 9.59799 75.9087 9.16599 75.4927 8.81399C75.0767 8.44599 74.4767 8.26199 73.6927 8.26199C72.9567 8.26199 72.3327 8.43799 71.8207 8.78999C71.3087 9.12599 70.9647 9.62999 70.7887 10.302L68.7727 9.58199C69.0767 8.52599 69.6687 7.70199 70.5487 7.10999C71.4447 6.51799 72.5247 6.22199 73.7887 6.22199C75.2927 6.22199 76.4367 6.59799 77.2207 7.34999C78.0047 8.10199 78.3967 9.09399 78.3967 10.326V18.39H76.3087ZM76.1167 12.894L72.8287 13.302C72.1247 13.398 71.5967 13.598 71.2447 13.902C70.8927 14.19 70.7167 14.574 70.7167 15.054C70.7167 15.502 70.8847 15.878 71.2207 16.182C71.5727 16.47 72.0607 16.614 72.6847 16.614C73.4527 16.614 74.0927 16.47 74.6047 16.182C75.1167 15.894 75.4927 15.494 75.7327 14.982C75.9887 14.454 76.1167 13.846 76.1167 13.158V12.894Z" fill="#191132"/>
<path d="M89.6929 8.42999L89.4289 8.50199V1.10999H91.7089V18.39H89.6449L89.4769 16.59C89.0769 17.134 88.5329 17.598 87.8449 17.982C87.1729 18.366 86.3489 18.558 85.3729 18.558C84.2849 18.558 83.3329 18.302 82.5169 17.79C81.7169 17.278 81.0849 16.558 80.6209 15.63C80.1729 14.702 79.9489 13.622 79.9489 12.39C79.9489 11.158 80.1729 10.078 80.6209 9.14999C81.0849 8.22199 81.7169 7.50199 82.5169 6.98999C83.3329 6.47799 84.2849 6.22199 85.3729 6.22199C86.4129 6.22199 87.2929 6.43799 88.0129 6.86999C88.7489 7.28599 89.3089 7.80599 89.6929 8.42999ZM82.3729 12.39C82.3729 13.622 82.6929 14.614 83.3329 15.366C83.9729 16.118 84.8289 16.494 85.9009 16.494C86.5569 16.494 87.1489 16.334 87.6769 16.014C88.2049 15.694 88.6289 15.23 88.9489 14.622C89.2689 13.998 89.4289 13.254 89.4289 12.39C89.4289 11.526 89.2689 10.79 88.9489 10.182C88.6289 9.57399 88.2049 9.10999 87.6769 8.78999C87.1489 8.45399 86.5569 8.28598 85.9009 8.28598C84.8449 8.28598 83.9889 8.66199 83.3329 9.41399C82.6929 10.166 82.3729 11.158 82.3729 12.39Z" fill="#191132"/>
<path d="M95.7373 13.95C95.8333 14.398 96.0253 14.814 96.3133 15.198C96.6173 15.582 97.0253 15.894 97.5373 16.134C98.0493 16.374 98.6813 16.494 99.4333 16.494C100.553 16.494 101.377 16.238 101.905 15.726C102.449 15.198 102.721 14.582 102.721 13.878C102.721 13.302 102.553 12.83 102.217 12.462C101.897 12.078 101.449 11.758 100.873 11.502C100.313 11.23 99.6653 10.99 98.9293 10.782C98.2893 10.59 97.6573 10.39 97.0333 10.182C96.4253 9.95799 95.8733 9.68599 95.3773 9.36599C94.8813 9.02999 94.4893 8.60599 94.2013 8.09399C93.9133 7.56599 93.7693 6.90999 93.7693 6.12599C93.7693 5.14999 94.0013 4.30999 94.4653 3.60598C94.9293 2.90199 95.5773 2.36599 96.4093 1.99799C97.2573 1.61399 98.2333 1.42199 99.3373 1.42199C100.265 1.42199 101.097 1.55799 101.833 1.82998C102.569 2.08599 103.185 2.46199 103.681 2.95799C104.193 3.43799 104.569 4.02199 104.809 4.70998L102.625 5.50199C102.529 5.14999 102.329 4.82199 102.025 4.51799C101.721 4.19799 101.337 3.94199 100.873 3.74999C100.409 3.55799 99.8893 3.46199 99.3133 3.46199C98.7213 3.44599 98.1853 3.54199 97.7053 3.74999C97.2413 3.94199 96.8653 4.22198 96.5773 4.58998C96.3053 4.95798 96.1693 5.39798 96.1693 5.90999C96.1693 6.46999 96.3293 6.90999 96.6493 7.22999C96.9693 7.54999 97.3933 7.81399 97.9213 8.02199C98.4653 8.22999 99.0573 8.42999 99.6973 8.62199C100.369 8.82999 101.025 9.05399 101.665 9.29399C102.305 9.53399 102.881 9.83799 103.393 10.206C103.921 10.574 104.345 11.038 104.665 11.598C104.985 12.142 105.145 12.83 105.145 13.662C105.145 14.558 104.937 15.374 104.521 16.11C104.105 16.846 103.473 17.438 102.625 17.886C101.793 18.334 100.745 18.558 99.4813 18.558C98.4413 18.558 97.5053 18.398 96.6733 18.078C95.8413 17.758 95.1533 17.318 94.6093 16.758C94.0813 16.182 93.7293 15.518 93.5533 14.766L95.7373 13.95Z" fill="#191132"/>
<path d="M107.772 6.38999V3.02998H110.052V6.38999H113.052V8.40599H110.052V14.31C110.052 15.046 110.196 15.566 110.484 15.87C110.788 16.174 111.164 16.35 111.612 16.398C112.076 16.43 112.556 16.414 113.052 16.35V18.294C112.396 18.438 111.748 18.478 111.108 18.414C110.484 18.366 109.916 18.19 109.404 17.886C108.908 17.582 108.508 17.142 108.204 16.566C107.916 15.974 107.772 15.222 107.772 14.31V8.40599H106.044V6.38999H107.772Z" fill="#191132"/>
<path d="M121.902 18.39L121.71 16.638C121.342 17.246 120.862 17.718 120.27 18.054C119.694 18.374 118.942 18.534 118.014 18.534C117.15 18.534 116.414 18.398 115.806 18.126C115.198 17.838 114.726 17.446 114.39 16.95C114.07 16.438 113.91 15.846 113.91 15.174C113.91 14.166 114.286 13.334 115.038 12.678C115.79 12.006 116.878 11.59 118.302 11.43L121.71 11.046V10.11C121.71 9.59799 121.502 9.16599 121.086 8.81399C120.67 8.44599 120.07 8.26199 119.286 8.26199C118.55 8.26199 117.926 8.43799 117.414 8.78999C116.902 9.12599 116.558 9.62999 116.382 10.302L114.366 9.58199C114.67 8.52599 115.262 7.70199 116.142 7.10999C117.038 6.51799 118.118 6.22199 119.382 6.22199C120.886 6.22199 122.03 6.59799 122.814 7.34999C123.598 8.10199 123.99 9.09399 123.99 10.326V18.39H121.902ZM121.71 12.894L118.422 13.302C117.718 13.398 117.19 13.598 116.838 13.902C116.486 14.19 116.31 14.574 116.31 15.054C116.31 15.502 116.478 15.878 116.814 16.182C117.166 16.47 117.654 16.614 118.278 16.614C119.046 16.614 119.686 16.47 120.198 16.182C120.71 15.894 121.086 15.494 121.326 14.982C121.582 14.454 121.71 13.846 121.71 13.158V12.894Z" fill="#191132"/>
<path d="M131.375 18.558C130.223 18.558 129.207 18.302 128.327 17.79C127.447 17.262 126.759 16.542 126.263 15.63C125.783 14.718 125.543 13.654 125.543 12.438C125.543 11.206 125.791 10.126 126.287 9.19799C126.783 8.26999 127.471 7.54199 128.351 7.01399C129.231 6.48599 130.255 6.22199 131.423 6.22199C132.655 6.22199 133.735 6.50999 134.663 7.08599C135.607 7.66199 136.287 8.43799 136.703 9.41399L134.663 10.134C134.423 9.57399 134.015 9.12599 133.439 8.78999C132.879 8.45399 132.239 8.28598 131.519 8.28598C130.783 8.28598 130.151 8.46199 129.623 8.81399C129.095 9.14999 128.687 9.62999 128.399 10.254C128.111 10.862 127.967 11.582 127.967 12.414C127.967 13.662 128.287 14.654 128.927 15.39C129.567 16.126 130.431 16.494 131.519 16.494C132.239 16.494 132.879 16.334 133.439 16.014C134.015 15.694 134.447 15.254 134.735 14.694L136.751 15.414C136.303 16.374 135.599 17.142 134.639 17.718C133.679 18.278 132.591 18.558 131.375 18.558Z" fill="#191132"/>
<path d="M138.504 1.10999H140.784V11.406H141.768L146.256 6.38999H149.328L143.76 12.39L149.352 18.39H146.256L141.768 13.35H140.784V18.39H138.504V1.10999Z" fill="#191132"/>
<path d="M151.666 18.534C151.234 18.534 150.866 18.382 150.562 18.078C150.258 17.774 150.106 17.406 150.106 16.974C150.106 16.526 150.258 16.15 150.562 15.846C150.866 15.542 151.234 15.39 151.666 15.39C152.098 15.39 152.466 15.542 152.77 15.846C153.074 16.15 153.226 16.526 153.226 16.974C153.226 17.406 153.074 17.774 152.77 18.078C152.466 18.382 152.098 18.534 151.666 18.534Z" fill="#191132"/>
<path d="M162.691 18.39L162.499 16.638C162.131 17.246 161.651 17.718 161.059 18.054C160.483 18.374 159.731 18.534 158.803 18.534C157.939 18.534 157.203 18.398 156.595 18.126C155.987 17.838 155.515 17.446 155.179 16.95C154.859 16.438 154.699 15.846 154.699 15.174C154.699 14.166 155.075 13.334 155.827 12.678C156.579 12.006 157.667 11.59 159.091 11.43L162.499 11.046V10.11C162.499 9.59799 162.291 9.16599 161.875 8.81399C161.459 8.44599 160.859 8.26199 160.075 8.26199C159.339 8.26199 158.715 8.43799 158.203 8.78999C157.691 9.12599 157.347 9.62999 157.171 10.302L155.155 9.58199C155.459 8.52599 156.051 7.70199 156.931 7.10999C157.827 6.51799 158.907 6.22199 160.171 6.22199C161.675 6.22199 162.819 6.59799 163.603 7.34999C164.387 8.10199 164.779 9.09399 164.779 10.326V18.39H162.691ZM162.499 12.894L159.211 13.302C158.507 13.398 157.979 13.598 157.627 13.902C157.275 14.19 157.099 14.574 157.099 15.054C157.099 15.502 157.267 15.878 157.603 16.182C157.955 16.47 158.443 16.614 159.067 16.614C159.835 16.614 160.475 16.47 160.987 16.182C161.499 15.894 161.875 15.494 162.115 14.982C162.371 14.454 162.499 13.846 162.499 13.158V12.894Z" fill="#191132"/>
<path d="M167.388 6.38999H169.668V18.39H167.388V6.38999ZM168.54 4.27799C168.108 4.27799 167.748 4.13399 167.46 3.84599C167.172 3.55799 167.028 3.20599 167.028 2.78999C167.028 2.35799 167.172 1.99798 167.46 1.70998C167.748 1.40598 168.108 1.25398 168.54 1.25398C168.956 1.25398 169.308 1.40598 169.596 1.70998C169.9 1.99798 170.052 2.35799 170.052 2.78999C170.052 3.20599 169.9 3.55799 169.596 3.84599C169.308 4.13399 168.956 4.27799 168.54 4.27799Z" fill="#191132"/>
</svg>
