<svg width="245" height="49" viewBox="0 0 245 49" fill="none" xmlns="http://www.w3.org/2000/svg">
<path d="M77.7828 26.7939C77.7828 27.8025 77.5843 28.6506 77.1873 29.3383C76.7902 30.0031 76.2529 30.5418 75.5756 30.9544C74.9215 31.367 74.1741 31.665 73.3332 31.8484C72.4923 32.0318 71.6164 32.1235 70.7055 32.1235C69.8178 32.1235 68.8602 32.0547 67.8324 31.9172C66.8047 31.8026 65.9521 31.6192 65.2748 31.367C64.9244 31.2295 64.7025 31.0805 64.6091 30.92C64.5156 30.7367 64.4923 30.5074 64.539 30.2323L64.7842 29.0976C64.8309 28.8226 64.9244 28.6621 65.0645 28.6163C65.2047 28.5475 65.4149 28.536 65.6952 28.5819C66.0689 28.6506 66.4777 28.708 66.9215 28.7538C67.3886 28.7997 67.8441 28.8455 68.2879 28.8913C68.755 28.9143 69.1872 28.9372 69.5843 28.9601C70.0047 28.983 70.3668 28.9945 70.6704 28.9945C71.7916 28.9945 72.5974 28.8455 73.088 28.5475C73.5785 28.2266 73.8237 27.7223 73.8237 27.0346C73.8237 26.6449 73.777 26.324 73.6836 26.0718C73.6135 25.8197 73.4734 25.6134 73.2631 25.4529C73.0529 25.2924 72.7609 25.1664 72.3872 25.0747C72.0369 24.9601 71.5814 24.8684 71.0208 24.7996C70.1565 24.685 69.339 24.536 68.5682 24.3526C67.7974 24.1692 67.1084 23.9056 66.501 23.5618C65.9171 23.195 65.45 22.7251 65.0996 22.152C64.7492 21.556 64.574 20.7881 64.574 19.8483C64.574 18.152 65.1813 16.8683 66.3959 15.9972C67.6105 15.1032 69.1989 14.6562 71.1609 14.6562C71.5113 14.6562 71.9201 14.6677 72.3872 14.6906C72.8544 14.7136 73.3215 14.7594 73.7887 14.8282C74.2792 14.897 74.758 14.9772 75.2252 15.0689C75.6923 15.1605 76.1128 15.2752 76.4865 15.4127C77.0705 15.642 77.3157 15.9858 77.2223 16.4442L76.942 17.6821C76.8953 17.9342 76.8018 18.0947 76.6617 18.1634C76.5449 18.2093 76.323 18.2093 75.996 18.1634C75.2485 18.0718 74.431 17.9915 73.5434 17.9227C72.6558 17.8311 71.885 17.7852 71.231 17.7852C70.1098 17.7852 69.3624 17.9457 68.9886 18.2666C68.6383 18.5646 68.4631 19.046 68.4631 19.7107C68.4631 20.3755 68.685 20.811 69.1288 21.0174C69.596 21.2236 70.3668 21.407 71.4412 21.5675C72.2821 21.6821 73.0763 21.8311 73.8237 22.0145C74.5945 22.1979 75.2719 22.4729 75.8559 22.8397C76.4398 23.2065 76.9069 23.6993 77.2573 24.3183C77.6077 24.9372 77.7828 25.7624 77.7828 26.7939Z" fill="black" fill-opacity="0.8"/>
<path d="M90.253 30.5446C90.3231 30.9343 90.1714 31.2208 89.7973 31.4042C89.4939 31.5417 89.1318 31.6564 88.7115 31.748C88.3141 31.8397 87.8938 31.9085 87.4501 31.9544C87.0298 32.0231 86.6209 32.069 86.2235 32.0919C85.85 32.1148 85.5232 32.1263 85.2426 32.1263C84.215 32.1263 83.4092 31.9887 82.8253 31.7137C82.2647 31.4157 81.8439 31.0145 81.5638 30.5102C81.2833 30.0059 81.1082 29.4214 81.0381 28.7566C80.968 28.0919 80.9331 27.3927 80.9331 26.6592V18.0287H79.1813C78.9246 18.0287 78.7491 17.9829 78.6558 17.8911C78.5624 17.7765 78.5156 17.6047 78.5156 17.3754V15.6906C78.5156 15.4613 78.5624 15.2894 78.6558 15.1748C78.7491 15.0602 78.9246 15.0029 79.1813 15.0029H80.968L80.9456 10.8424C80.9456 10.5902 81.0042 10.4183 81.1206 10.3266C81.2609 10.212 81.4245 10.1318 81.6116 10.0859H83.9812C84.4612 10.0859 84.6821 10.1089 84.6821 10.4985V15.0029H88.431C88.7115 15.0029 88.8866 15.0602 88.9567 15.1748C89.0502 15.2894 89.0965 15.4499 89.0965 15.6562V17.3754C89.0965 17.6047 89.0502 17.7765 88.9567 17.8911C88.8866 17.9829 88.7115 18.0287 88.431 18.0287H84.6821V26.5904C84.6821 27.0488 84.7174 27.4042 84.787 27.6563C84.8572 27.9085 84.974 28.1033 85.1377 28.2408C85.3242 28.3555 85.5699 28.4242 85.8733 28.4471C86.1768 28.4701 86.5622 28.4815 87.0298 28.4815C87.2865 28.4815 87.6486 28.4701 88.1156 28.4471C88.6061 28.4242 89.0269 28.3898 89.377 28.344C89.5641 28.3211 89.7038 28.344 89.7973 28.4128C89.8909 28.4815 89.961 28.619 90.0077 28.8254L90.253 30.5446Z" fill="black" fill-opacity="0.8"/>
<path d="M102.318 24.1807H98.0442C97.1563 24.1807 96.4555 24.387 95.9416 24.7996C95.4278 25.1893 95.1707 25.9457 95.1707 27.069C95.1707 27.8254 95.3229 28.3527 95.6263 28.6507C95.9536 28.9257 96.5256 29.0633 97.3433 29.0633C97.7169 29.0633 98.1257 29.0174 98.5694 28.9257C99.0131 28.8341 99.4573 28.708 99.901 28.5475C100.345 28.387 100.777 28.2151 101.197 28.0318C101.618 27.8254 101.992 27.6306 102.318 27.4472V24.1807ZM102.531 30.3356C101.774 30.7344 100.6 31.1977 99.6009 31.5733C98.5031 31.9859 97.2732 32.1235 96.0819 32.1235C95.1478 32.1235 94.3649 32.0089 93.7342 31.7796C93.1273 31.5275 92.6364 31.1951 92.2629 30.7825C91.9127 30.347 91.6555 29.8312 91.4919 29.2352C91.3521 28.6392 91.282 27.9744 91.282 27.2409C91.2586 25.2237 91.7958 23.7681 92.8936 22.8741C93.9913 21.9572 95.6497 21.4987 97.8686 21.4987H102.354V20.6048C102.354 20.1004 102.295 19.6764 102.178 19.3325C102.085 18.9657 101.898 18.6678 101.618 18.4385C101.337 18.2093 100.963 18.0489 100.496 17.9571C100.029 17.8655 99.4339 17.8196 98.7097 17.8196C98.4292 17.8196 98.079 17.831 97.6587 17.854C97.2613 17.8769 96.8409 17.8998 96.3973 17.9228C95.977 17.9457 95.5447 17.9801 95.101 18.0259C94.6802 18.0717 94.2948 18.1062 93.9446 18.1291C93.5944 18.1749 93.3492 18.1864 93.2089 18.1635C93.092 18.1176 93.0105 17.9686 92.9637 17.7165L92.6483 16.4442C92.6016 16.215 92.625 16.0316 92.7185 15.8941C92.812 15.7336 93.0572 15.5732 93.4541 15.4127C93.8277 15.2752 94.2719 15.1606 94.7857 15.0689C95.2995 14.9772 95.8248 14.9084 96.362 14.8626C96.8992 14.7938 97.4249 14.7479 97.9387 14.725C98.4759 14.6792 98.9549 14.6562 99.3752 14.6562C100.894 14.6562 102.096 14.8053 102.984 15.1033C103.895 15.4012 104.584 15.8253 105.051 16.3755C105.519 16.9027 105.822 17.556 105.962 18.3354C106.103 19.1148 106.172 19.9858 106.172 20.9486L106.162 27.5894C106.162 27.9332 105.811 28.5261 105.834 28.7324C105.881 28.9158 105.154 29.0121 105.224 29.1267C105.318 29.2184 104.117 27.8772 104.281 27.9231C104.444 27.9689 104.666 28.0033 104.946 28.0262C105.203 28.0492 105.378 28.095 105.472 28.1638C105.565 28.2326 105.612 28.3587 105.612 28.542V29.9862C105.612 30.3758 105.332 30.6165 104.771 30.7082C104.49 30.7541 105.892 30.5704 105.612 30.5933C105.332 30.6392 105.869 32.0203 105.612 32.0203C104.794 32.0203 104.128 31.8713 103.615 31.5733C103.124 31.2753 102.787 31.1723 102.6 30.37L102.531 30.3356Z" fill="black" fill-opacity="0.8"/>
<path d="M123.667 24.5325C123.549 25.9439 123.55 25.9135 123.316 27.0138C123.106 28.1141 122.721 29.0425 122.16 29.799C121.6 30.5554 120.9 31.0807 119.919 31.4932C118.938 31.8829 117.709 32.0683 116.191 32.0683C115.631 32.0683 114.951 32.0683 114.312 32.0683C113.705 32.0454 112.125 32.0521 111.521 32.0521C110.937 31.9833 111.334 31.7359 110.773 31.6213C110.236 31.5067 109.757 31.3806 109.337 31.2431C108.94 31.0826 108.683 30.8649 108.566 30.5898C108.449 30.3147 108.391 30.0282 108.391 29.7302V10.9736C108.391 10.5381 108.624 10.3203 109.091 10.3203H111.579C111.859 10.3203 112.046 10.3891 112.14 10.5266C112.233 10.6412 112.28 10.7902 112.28 10.9736V16.7616C113.167 16.4407 113.973 16.223 114.697 16.1083C115.421 15.9937 116.064 15.9364 116.625 15.9364C118.073 15.9364 119.252 16.1427 120.163 16.5553C121.074 16.968 121.787 17.5525 122.3 18.3089C122.838 19.0654 123.2 19.9709 123.386 21.0253C123.573 22.0798 123.667 23.2488 123.667 24.5325ZM119.673 24.842C119.673 23.8334 119.614 22.9737 119.498 22.2631C119.381 21.5525 119.194 20.9794 118.937 20.5439C118.703 20.1084 118.388 19.7875 117.991 19.5812C117.594 19.3748 117.115 19.2602 116.554 19.2373C116.18 19.2373 115.842 19.2487 115.538 19.2717C115.234 19.2717 114.919 19.2946 114.592 19.3405C114.289 19.3863 113.95 19.4551 113.576 19.5468C113.202 19.6155 112.77 19.7072 112.28 19.8218V28.5385C112.87 28.6066 113.424 28.6528 114.032 28.6987C114.662 28.7445 115.258 28.7674 115.818 28.7674C116.402 28.7674 116.928 28.7101 117.395 28.5955C117.862 28.4809 118.26 28.2517 118.586 27.9078C118.937 27.541 119.206 27.0138 119.392 26.3261C119.579 25.6385 119.555 25.9526 119.673 24.842Z" fill="black" fill-opacity="0.8"/>
<path d="M134.646 24.4401C134.67 25.3112 134.763 26.0333 134.927 26.6064C135.113 27.1794 135.382 27.6379 135.733 27.9817C136.083 28.3027 136.515 28.5319 137.029 28.6694C137.543 28.807 138.162 28.8757 138.886 28.8757C139.516 28.8757 140.264 28.8299 141.128 28.7382C141.992 28.6465 142.763 28.5662 143.441 28.4975C143.768 28.4516 143.99 28.4631 144.106 28.5319C144.247 28.5777 144.34 28.7611 144.386 29.082L144.597 30.2167C144.644 30.4689 144.632 30.6752 144.562 30.8356C144.515 30.9961 144.328 31.1451 144.001 31.2826C143.651 31.4202 143.242 31.5462 142.775 31.6609C142.308 31.7525 141.817 31.8328 141.304 31.9016C140.79 31.9703 140.275 32.0276 139.762 32.0735C139.248 32.1193 138.781 32.1422 138.36 32.1422C136.679 32.1422 135.336 31.9016 134.331 31.4202C133.327 30.9388 132.556 30.297 132.019 29.4946C131.481 28.6923 131.119 27.7754 130.933 26.7439C130.769 25.6894 130.688 24.6006 130.688 23.4774C130.688 22.6522 130.757 21.7238 130.897 20.6923C131.038 19.6607 131.353 18.698 131.843 17.804C132.357 16.91 133.105 16.165 134.086 15.569C135.09 14.9501 136.445 14.6406 138.15 14.6406C139.715 14.6406 140.976 14.8699 141.934 15.3283C142.915 15.7868 143.674 16.3828 144.211 17.1163C144.749 17.8269 145.111 18.6521 145.298 19.592C145.508 20.5089 145.624 21.4258 145.648 22.3427C145.671 22.9616 145.566 23.4659 145.333 23.8556C145.099 24.2453 144.632 24.4401 143.931 24.4401H134.646ZM138.15 17.7352C137.496 17.7352 136.959 17.8269 136.538 18.0103C136.118 18.1937 135.767 18.4687 135.487 18.8355C135.23 19.1794 135.044 19.6149 134.927 20.1421C134.81 20.6464 134.728 21.2195 134.682 21.8614H141.619C141.619 21.3341 141.572 20.8298 141.479 20.3484C141.385 19.8441 141.21 19.3971 140.953 19.0074C140.72 18.6178 140.369 18.3083 139.902 18.079C139.458 17.8498 138.874 17.7352 138.15 17.7352Z" fill="black" fill-opacity="0.8"/>
<path d="M178.356 31.2076C178.356 31.4139 178.309 31.5743 178.215 31.689C178.145 31.8036 177.982 31.8609 177.725 31.8609H175.202C174.758 31.8609 174.537 31.6431 174.537 31.2076V21.4425C174.537 20.1588 174.362 19.2992 174.011 18.8636C173.661 18.4051 173.042 18.176 172.154 18.176C171.827 18.176 171.453 18.2332 171.033 18.3478C170.636 18.4625 170.227 18.6 169.807 18.7605C169.409 18.898 169.024 19.0585 168.65 19.2419C168.277 19.4252 167.95 19.5857 167.669 19.7232C167.669 19.9066 167.669 20.1473 167.669 20.4453C167.693 20.7433 167.704 21.0871 167.704 21.4768V31.2076C167.704 31.4139 167.658 31.5743 167.565 31.689C167.471 31.8036 167.296 31.8609 167.039 31.8609H164.481C164.084 31.8609 163.885 31.6431 163.885 31.2076V21.2705C163.885 20.2161 163.722 19.4367 163.395 18.9324C163.068 18.4281 162.461 18.176 161.573 18.176C161.269 18.176 160.919 18.2218 160.522 18.3135C160.148 18.4051 159.751 18.5312 159.331 18.6917C158.934 18.8522 158.537 19.0241 158.139 19.2075C157.742 19.3908 157.38 19.5628 157.053 19.7232V31.2076C157.053 31.6431 156.832 31.8609 156.387 31.8609H153.865C153.445 31.8609 153.234 31.6431 153.234 31.2076V15.7003C153.234 15.2418 153.445 15.0126 153.865 15.0126H156.353C156.82 15.0126 157.053 15.2418 157.053 15.7003V16.6974L157.088 16.7318C157.439 16.5026 157.812 16.2733 158.209 16.0441C158.607 15.792 159.027 15.5742 159.471 15.3908C159.938 15.2074 160.405 15.0584 160.872 14.9438C161.34 14.8063 161.819 14.726 162.309 14.7031C163.313 14.7031 164.224 14.8636 165.042 15.1845C165.883 15.4825 166.572 16.1244 167.109 17.11C167.996 16.4682 168.966 15.9066 170.017 15.4252C171.068 14.9438 172.154 14.7031 173.275 14.7031C174.42 14.7031 175.331 14.8751 176.008 15.2189C176.685 15.5628 177.199 16.0326 177.55 16.6287C177.9 17.2017 178.122 17.878 178.215 18.6573C178.309 19.4367 178.356 20.2505 178.356 21.0986V31.2076Z" fill="black" fill-opacity="0.8"/>
<path d="M195.303 23.1804C195.303 24.1661 195.233 25.1862 195.093 26.2406C194.977 27.2951 194.661 28.2693 194.147 29.1633C193.634 30.0344 192.863 30.7564 191.835 31.3295C190.807 31.8796 189.382 32.1547 187.56 32.1547C185.808 32.1547 184.43 31.8796 183.426 31.3295C182.422 30.7564 181.663 30.0344 181.149 29.1633C180.658 28.2693 180.354 27.2951 180.238 26.2406C180.121 25.1862 180.062 24.1661 180.062 23.1804C180.062 22.3781 180.133 21.4842 180.273 20.4985C180.436 19.5128 180.775 18.5958 181.289 17.7477C181.802 16.8766 182.55 16.1545 183.531 15.5815C184.536 14.9855 185.879 14.6875 187.56 14.6875C189.265 14.6875 190.62 14.9397 191.625 15.444C192.652 15.9483 193.435 16.613 193.972 17.4383C194.51 18.2406 194.86 19.146 195.023 20.1546C195.21 21.1632 195.303 22.1718 195.303 23.1804ZM191.379 23.4211C191.379 22.5042 191.333 21.7134 191.239 21.0486C191.146 20.3609 190.959 19.7993 190.679 19.3638C190.399 18.9053 190.013 18.5615 189.523 18.3322C189.032 18.103 188.39 17.9884 187.595 17.9884C186.848 17.9884 186.241 18.103 185.774 18.3322C185.306 18.5615 184.933 18.9053 184.653 19.3638C184.395 19.8222 184.208 20.3953 184.092 21.083C183.998 21.7477 183.952 22.5271 183.952 23.4211C183.952 24.338 183.998 25.1403 184.092 25.828C184.208 26.4928 184.395 27.0544 184.653 27.5128C184.909 27.9484 185.271 28.2808 185.738 28.51C186.205 28.7392 186.813 28.8538 187.56 28.8538C188.355 28.8538 188.997 28.7507 189.487 28.5444C190.001 28.3151 190.399 27.9828 190.679 27.5472C190.959 27.0888 191.146 26.5157 191.239 25.828C191.333 25.1403 191.379 24.338 191.379 23.4211Z" fill="black" fill-opacity="0.8"/>
<path d="M211.945 31.2076C211.945 31.4139 211.898 31.5743 211.805 31.689C211.711 31.8036 211.536 31.8609 211.28 31.8609H208.757C208.313 31.8609 208.091 31.6431 208.091 31.2076L208.126 21.5456C208.126 20.537 207.951 19.7232 207.601 19.1043C207.274 18.4854 206.608 18.176 205.603 18.176C205.253 18.176 204.844 18.2332 204.377 18.3478C203.934 18.4625 203.478 18.6115 203.011 18.7949C202.567 18.9553 202.146 19.1273 201.749 19.3106C201.353 19.4711 201.037 19.6086 200.803 19.7232V31.2076C200.803 31.6431 200.582 31.8609 200.138 31.8609H197.65C197.206 31.8609 196.984 31.6431 196.984 31.2076V15.7003C196.984 15.2418 197.206 15.0126 197.65 15.0126H200.138C200.582 15.0126 200.803 15.2418 200.803 15.7003V16.7318C200.827 16.7318 200.839 16.7433 200.839 16.7662C200.862 16.7662 200.885 16.7662 200.909 16.7662C201.236 16.5369 201.621 16.3077 202.065 16.0785C202.532 15.8264 203.022 15.5971 203.537 15.3908C204.05 15.1845 204.588 15.024 205.148 14.9094C205.709 14.7719 206.257 14.7031 206.795 14.7031C207.986 14.7031 208.921 14.8865 209.598 15.2533C210.275 15.5971 210.789 16.0671 211.139 16.663C211.49 17.259 211.711 17.9582 211.805 18.7605C211.898 19.5398 211.945 20.3651 211.945 21.2362V31.2076Z" fill="black" fill-opacity="0.8"/>
<path d="M217.616 24.487C217.639 25.3581 217.732 26.0802 217.896 26.6532C218.083 27.2263 218.351 27.6847 218.702 28.0286C219.052 28.3495 219.484 28.5788 219.998 28.7163C220.512 28.8538 221.131 28.9226 221.855 28.9226C222.486 28.9226 223.233 28.8767 224.097 28.7851C224.962 28.6934 225.732 28.6131 226.41 28.5444C226.737 28.4985 226.959 28.51 227.076 28.5788C227.215 28.6246 227.309 28.808 227.356 29.1289L227.566 30.2636C227.613 30.5157 227.601 30.7221 227.531 30.8825C227.484 31.043 227.297 31.1919 226.97 31.3295C226.62 31.4671 226.211 31.5931 225.744 31.7077C225.277 31.7994 224.787 31.8796 224.273 31.9484C223.758 32.0172 223.245 32.0745 222.731 32.1203C222.217 32.1662 221.75 32.1891 221.33 32.1891C219.648 32.1891 218.304 31.9484 217.3 31.4671C216.296 30.9856 215.525 30.3438 214.988 29.5415C214.451 28.7392 214.088 27.8223 213.901 26.7908C213.738 25.7363 213.656 24.6475 213.656 23.5243C213.656 22.699 213.726 21.7707 213.867 20.7392C214.007 19.7076 214.322 18.7449 214.813 17.8509C215.327 16.9568 216.074 16.2118 217.055 15.6159C218.059 14.997 219.414 14.6875 221.119 14.6875C222.684 14.6875 223.946 14.9167 224.903 15.3752C225.884 15.8336 226.643 16.4297 227.181 17.1632C227.718 17.8738 228.08 18.699 228.267 19.6388C228.477 20.5558 228.594 21.4727 228.617 22.3896C228.64 23.0085 228.536 23.5128 228.302 23.9025C228.068 24.2922 227.601 24.487 226.9 24.487H217.616ZM221.119 17.7821C220.465 17.7821 219.928 17.8738 219.508 18.0572C219.087 18.2406 218.737 18.5156 218.457 18.8824C218.2 19.2262 218.012 19.6618 217.896 20.189C217.779 20.6933 217.697 21.2663 217.65 21.9082H224.588C224.588 21.381 224.541 20.8767 224.448 20.3953C224.354 19.891 224.179 19.444 223.922 19.0543C223.689 18.6646 223.338 18.3552 222.871 18.1259C222.427 17.8967 221.843 17.7821 221.119 17.7821Z" fill="black" fill-opacity="0.8"/>
<path d="M237.11 27.0501C237.367 26.3395 237.6 25.6747 237.811 25.0558C238.044 24.4369 238.243 23.8983 238.407 23.4398C238.593 22.8897 238.768 22.3853 238.932 21.9269L241.104 15.6002C241.174 15.3939 241.268 15.2449 241.384 15.1532C241.501 15.0615 241.688 15.0156 241.945 15.0156H244.538C244.818 15.0156 244.97 15.0844 244.993 15.222C245.017 15.3595 244.993 15.5199 244.923 15.7033L236.76 37.5717C236.666 37.801 236.561 37.9614 236.444 38.0531C236.327 38.1448 236.117 38.1907 235.814 38.1907H233.431C233.151 38.1907 232.987 38.1219 232.941 37.9844C232.917 37.8468 232.941 37.6864 233.011 37.503L235.218 31.692L229.087 15.7033C229.017 15.5199 228.993 15.3595 229.017 15.222C229.063 15.0844 229.215 15.0156 229.472 15.0156H232.17C232.403 15.0156 232.567 15.0386 232.66 15.0844C232.754 15.1302 232.847 15.2793 232.941 15.5314L235.218 21.9269L236.97 27.0501H237.11Z" fill="black" fill-opacity="0.8"/>
<path d="M128.423 10.0859H126.012C125.617 10.0859 125.297 10.4004 125.297 10.7882V31.1321C125.297 31.5199 125.617 31.8344 126.012 31.8344H128.423C128.818 31.8344 129.139 31.5199 129.139 31.1321V10.7882C129.139 10.4004 128.818 10.0859 128.423 10.0859Z" fill="black" fill-opacity="0.8"/>
<path d="M105.45 24.1406H103.044C102.649 24.1406 102.328 24.4551 102.328 24.8429V31.3566C102.328 31.7444 102.649 32.0589 103.044 32.0589H105.45C105.846 32.0589 106.166 31.7444 106.166 31.3566V24.8429C106.166 24.4551 105.846 24.1406 105.45 24.1406Z" fill="black" fill-opacity="0.8"/>
<path d="M111.521 24.1406H109.114C108.719 24.1406 108.398 24.4551 108.398 24.8429V31.3566C108.398 31.7444 108.719 32.0589 109.114 32.0589H111.521C111.916 32.0589 112.236 31.7444 112.236 31.3566V24.8429C112.236 24.4551 111.916 24.1406 111.521 24.1406Z" fill="black" fill-opacity="0.8"/>
<path d="M111.544 24.1406H109.137C108.742 24.1406 108.422 24.4551 108.422 24.8429V28.8544C108.422 29.2423 108.742 29.5567 109.137 29.5567H111.544C111.939 29.5567 112.26 29.2423 112.26 28.8544V24.8429C112.26 24.4551 111.939 24.1406 111.544 24.1406Z" fill="black" fill-opacity="0.8"/>
<path d="M0 21.5043C0 11.3671 0 6.29846 3.14923 3.14923C6.29846 0 11.3671 0 21.5043 0H26.8804C37.0176 0 42.0862 0 45.2354 3.14923C48.3846 6.29846 48.3846 11.3671 48.3846 21.5043V26.8804C48.3846 37.0176 48.3846 42.0862 45.2354 45.2354C42.0862 48.3846 37.0176 48.3846 26.8804 48.3846H21.5043C11.3671 48.3846 6.29846 48.3846 3.14923 45.2354C0 42.0862 0 37.0176 0 26.8804V21.5043Z" fill="black" fill-opacity="0.8"/>
<path d="M21.9758 29.6547L27.0039 28.8886C27.1825 28.8727 27.3239 28.9305 27.4024 29.0502L32.4364 38.0836C32.8075 38.6442 34.2643 38.4348 34.2741 36.8986V16.9725C34.2584 16.4099 33.8265 16.1505 33.261 16.7451L21.6341 28.6712C21.055 29.2796 21.3711 29.7066 21.9738 29.6567L21.9758 29.6547Z" fill="white"/>
<path d="M18.6249 26.6784L19.3788 21.5692C19.3945 21.3877 19.3376 21.244 19.2198 21.1642L10.3298 16.047C9.77811 15.67 10.1023 14.1897 11.6121 14.1797H31.1059C31.6595 14.1956 31.9147 14.6345 31.3297 15.2091L19.5929 27.0235C18.994 27.6121 18.5739 27.2909 18.623 26.6784H18.6249Z" fill="white"/>
</svg>
