<svg width="87" height="23" viewBox="0 0 87 23" fill="none" xmlns="http://www.w3.org/2000/svg">
<path d="M6.26809 18.2793C5.16338 18.2793 4.13514 18.1522 3.18339 17.8981C2.23163 17.644 1.44134 17.2967 0.8125 16.8562L1.73026 14.3659C2.3591 14.7555 3.07292 15.0689 3.87171 15.3061C4.6875 15.5263 5.49479 15.6365 6.29359 15.6365C7.0074 15.6365 7.53427 15.5263 7.87418 15.3061C8.21409 15.0689 8.38405 14.764 8.38405 14.3913C8.38405 13.7983 7.95066 13.4256 7.08388 13.2732L4.40707 12.7903C3.33635 12.604 2.52056 12.2228 1.9597 11.6468C1.39885 11.0708 1.11842 10.3169 1.11842 9.38517C1.11842 8.53811 1.35636 7.80964 1.83224 7.19975C2.30811 6.58987 2.96245 6.11552 3.79523 5.77669C4.62802 5.43787 5.58827 5.26846 6.67599 5.26846C7.57676 5.26846 8.45203 5.38705 9.30181 5.62422C10.1516 5.84446 10.8824 6.20022 11.4942 6.69152L10.5255 9.15646C10.0156 8.78375 9.40378 8.47881 8.68997 8.24164C7.99315 8.00446 7.33882 7.88587 6.72697 7.88587C5.96217 7.88587 5.40981 8.01293 5.0699 8.26705C4.72999 8.50422 4.56003 8.80917 4.56003 9.18187C4.56003 9.77481 4.95943 10.1475 5.75822 10.3L8.43503 10.7828C9.53975 10.9692 10.381 11.3419 10.9589 11.9009C11.5367 12.443 11.8257 13.1885 11.8257 14.1372C11.8257 15.4416 11.3158 16.4581 10.2961 17.1866C9.27632 17.915 7.93366 18.2793 6.26809 18.2793Z" fill="black"/>
<path d="M20.5522 18.2793C17.0341 18.2793 15.275 16.5767 15.275 13.1715V8.39411H12.9042V5.52258H15.275V1.86328H19.1245V5.52258H22.8211V8.39411H19.1245V13.019C19.1245 13.7306 19.286 14.2642 19.6089 14.62C19.9488 14.9758 20.4842 15.1536 21.215 15.1536C21.4359 15.1536 21.6654 15.1282 21.9033 15.0774C22.1583 15.0266 22.4302 14.9588 22.7191 14.8741L23.28 17.6694C22.9231 17.8558 22.4982 17.9998 22.0053 18.1014C21.5124 18.22 21.0281 18.2793 20.5522 18.2793Z" fill="black"/>
<path d="M25.225 17.9998V5.52258H28.9981V7.68258C29.5929 6.22564 30.8676 5.42093 32.8221 5.26846L33.9438 5.19222L34.1732 8.41952L32.0063 8.64822C30.1028 8.83458 29.151 9.80022 29.151 11.5452V17.9998H25.225Z" fill="black"/>
<path d="M57.0152 18.2793C53.4971 18.2793 51.7381 16.5767 51.7381 13.1715V8.39411H49.3672V5.52258H51.7381V1.86328H55.5876V5.52258H59.2841V8.39411H55.5876V13.019C55.5876 13.7306 55.749 14.2642 56.072 14.62C56.4119 14.9758 56.9472 15.1536 57.678 15.1536C57.899 15.1536 58.1284 15.1282 58.3664 15.0774C58.6213 15.0266 58.8932 14.9588 59.1822 14.8741L59.743 17.6694C59.3861 17.8558 58.9612 17.9998 58.4683 18.1014C57.9755 18.22 57.4911 18.2793 57.0152 18.2793Z" fill="black"/>
<path d="M61.4568 17.9998V15.5348L67.4733 8.39411H61.4568V5.52258H71.6287V7.98752L65.6123 15.1536H71.9091V17.9998H61.4568Z" fill="black"/>
<path d="M75.2661 22.5739L77.6625 17.3136L72.5128 5.52258H76.5663L79.702 13.451L82.9396 5.52258H86.7636L79.1921 22.5739H75.2661Z" fill="black"/>
<g clip-path="url(#clip0_7777_85901)">
<path d="M47.8343 17.9961H47.4411C46.9459 18.0101 45.9838 17.7721 45.6607 17.6881C44.7337 17.422 43.905 16.995 43.1641 16.4805H43.1676C43.4064 16.5365 47.8835 17.5445 49.0318 16.526C49.1792 16.9005 49.0774 17.275 48.793 17.562C48.5753 17.7791 48.1434 17.9646 47.8343 17.9961Z" fill="#01B46D"/>
<path d="M49.0283 16.523C47.88 17.5416 43.3993 16.5335 43.1641 16.4775C43.3396 16.4635 47.8379 16.124 48.1188 14.9199L48.9686 16.397C48.9826 16.4215 48.9966 16.4495 49.0072 16.474C49.0177 16.4915 49.0212 16.5055 49.0283 16.523Z" fill="#3FE360"/>
<path d="M48.1188 14.9198C47.8379 16.1239 43.3396 16.4634 43.1641 16.4774C43.2905 16.4424 47.1075 15.3923 47.1075 13.1662V13.1592L48.1188 14.9198Z" fill="#74F93C"/>
<path d="M47.111 13.1591V13.1661C47.111 15.4273 43.1641 16.4774 43.1641 16.4774C43.1922 16.4599 43.2202 16.4423 43.2483 16.4248C44.2175 15.7948 44.9725 14.9687 45.6607 14.0447C46.0365 13.5441 46.4227 12.9946 46.6966 12.4346L47.111 13.1591Z" fill="#ACFF01"/>
<path d="M45.544 10.4463C42.7559 10.6458 40.6982 8.45116 40.1328 7.77212L41.3021 5.73848C41.3794 5.60197 41.4882 5.48996 41.6252 5.41295C41.7586 5.33595 41.9131 5.29395 42.0712 5.29395C42.2257 5.29395 42.3802 5.33595 42.5171 5.41295C42.6506 5.48996 42.7629 5.60197 42.8402 5.73848L43.6092 7.07207L45.4352 10.2468L45.544 10.4463Z" fill="#DCFF00"/>
<path d="M45.8005 10.8908C42.7806 12.2559 39.7537 10.3797 38.9531 9.8197L40.133 7.76855C40.6983 8.4441 42.7561 10.6423 45.5442 10.4427L45.8005 10.8908Z" fill="#B0FF01"/>
<path d="M46.0085 11.2478C43.4873 14.083 38.8802 12.5849 37.6406 12.1124L38.9574 9.82324C39.7545 10.3833 42.785 12.2559 45.8048 10.8943L45.9699 11.1848L46.0085 11.2478Z" fill="#74F93C"/>
<path d="M46.2184 11.6122C43.8657 14.8324 37.833 14.4789 36.3125 14.4124L37.6363 12.1092C38.8759 12.5817 43.8166 13.7403 45.9902 11.2236L46.2184 11.6122Z" fill="#3FE360"/>
<path d="M46.4995 12.1019C43.6763 15.7527 38.4758 16.7398 35.1328 16.4597C35.1433 16.4317 35.1574 16.4072 35.175 16.3792L36.3162 14.3946C38.9358 14.4821 44.0555 14.5486 46.2221 11.6084L46.4995 12.1019Z" fill="#01C36D"/>
<path d="M46.4861 12.0703C43.7893 15.2485 41.6402 15.5041 39.6422 15.9486C37.4686 16.4281 35.906 16.4386 35.1369 16.4596C34.8841 17.0127 35.2388 17.4992 35.8638 17.7232C37.7074 18.2902 40.4147 17.9367 42.4373 16.8936C42.6024 16.8096 42.7674 16.7151 42.9289 16.6206C43.0097 16.5716 43.087 16.5261 43.1677 16.4736C43.1958 16.4561 43.2239 16.4386 43.252 16.4211C44.4564 15.6371 45.9523 14.0269 46.7319 12.4798L46.4861 12.0703Z" fill="#01B46D"/>
</g>
<defs>
<clipPath id="clip0_7777_85901">
<rect width="14.046" height="12.7059" fill="white" transform="translate(35.0547 5.29395)"/>
</clipPath>
</defs>
</svg>
