<svg width="192" height="38" viewBox="0 0 192 38" fill="none" xmlns="http://www.w3.org/2000/svg">
<g clip-path="url(#clip0_3941_9749)">
<g clip-path="url(#clip1_3941_9749)">
<g clip-path="url(#clip2_3941_9749)">
<path fill-rule="evenodd" clip-rule="evenodd" d="M27.7333 1.43879C27.7308 1.34005 27.7044 1.24339 27.6562 1.15716C27.608 1.07092 27.5396 0.997687 27.4569 0.94378C27.3741 0.889873 27.2795 0.856909 27.1812 0.847729C27.0828 0.838549 26.9837 0.853429 26.8924 0.891087L18.5158 4.47372C18.4071 4.52021 18.3145 4.59745 18.2493 4.6959C18.184 4.79436 18.149 4.90975 18.1484 5.02787V6.31659C18.1484 6.39734 18.1685 6.47684 18.2067 6.54798C18.2449 6.61913 18.3001 6.67973 18.3674 6.72438C18.4347 6.76903 18.512 6.79634 18.5923 6.80389C18.6728 6.81144 18.7538 6.79898 18.8283 6.76763L27.3048 3.15601C27.4382 3.09946 27.5517 3.00477 27.6315 2.88382C27.7112 2.76286 27.7533 2.62104 27.7526 2.47621L27.7333 1.43879Z" fill="#1DA1F2"/>
<path fill-rule="evenodd" clip-rule="evenodd" d="M16.6012 4.47393L8.19555 0.884849C8.12186 0.850291 8.04173 0.831629 7.96035 0.830078C7.84494 0.830658 7.73248 0.866644 7.63818 0.933176C7.55321 0.985591 7.48331 1.05917 7.43531 1.1467C7.38731 1.23423 7.36284 1.33273 7.36432 1.43255V2.39909C7.36415 2.55829 7.4108 2.71402 7.49844 2.84691C7.58609 2.97981 7.71087 3.08401 7.85727 3.14655L16.3273 6.76462C16.398 6.79359 16.4747 6.80479 16.5507 6.79726C16.6267 6.78972 16.6997 6.76366 16.7632 6.72138C16.8269 6.67909 16.8791 6.62186 16.9154 6.5547C16.9517 6.48754 16.9711 6.41249 16.9717 6.33612V5.02807C16.9713 4.90949 16.936 4.79366 16.8701 4.69509C16.8041 4.59651 16.7107 4.51958 16.6012 4.47393Z" fill="#1DA1F2"/>
<path fill-rule="evenodd" clip-rule="evenodd" d="M18.5221 8.21437C18.4142 8.25931 18.3222 8.33546 18.2579 8.43305C18.1936 8.53063 18.1599 8.64521 18.1612 8.76206V10.1797C18.1637 10.23 18.178 10.2791 18.2029 10.3229C18.2279 10.3667 18.2627 10.404 18.3048 10.4319C18.3467 10.4599 18.3947 10.4775 18.4447 10.4834C18.4948 10.4894 18.5455 10.4836 18.5929 10.4664L27.7492 6.5487L28.3549 6.29418L28.9574 6.03643L30.826 5.22132C30.9678 5.16083 31.0884 5.05968 31.1728 4.93065C31.2571 4.80164 31.3012 4.65053 31.2997 4.49642V3.65875C31.301 3.56005 31.2774 3.46261 31.2313 3.37536C31.1851 3.28811 31.1178 3.21384 31.0355 3.15937C30.9401 3.0951 30.8283 3.05935 30.7133 3.05627C30.6297 3.05639 30.5471 3.0751 30.4717 3.11105L28.951 3.7554L28.3485 4.00993L27.746 4.26767L18.5221 8.21437Z" fill="#1DA1F2"/>
<path fill-rule="evenodd" clip-rule="evenodd" d="M16.6004 8.2145L7.35394 4.25491L6.75146 4.00362L6.14899 3.74265L4.62186 3.09829C4.54703 3.06808 4.46734 3.05171 4.38666 3.04996C4.30812 3.04911 4.23019 3.0638 4.15734 3.09317C4.08449 3.12254 4.01817 3.16602 3.96218 3.22111C3.90619 3.2762 3.86164 3.34181 3.8311 3.41417C3.80056 3.48654 3.78461 3.56423 3.78419 3.64277V4.57709C3.78339 4.70376 3.81994 4.82785 3.88928 4.93386C3.95862 5.03987 4.05766 5.12309 4.17403 5.17312L6.13932 6.0108L6.74179 6.27175L7.34749 6.5295L16.4587 10.4214C16.5132 10.4443 16.5725 10.4537 16.6315 10.4488C16.6904 10.4439 16.7473 10.4248 16.7972 10.3931C16.8473 10.3615 16.8888 10.3183 16.9185 10.2671C16.9482 10.2159 16.9651 10.1584 16.9677 10.0992V8.76542C16.9688 8.64737 16.9342 8.53176 16.8688 8.43354C16.8033 8.33531 16.7098 8.259 16.6004 8.2145Z" fill="#1DA1F2"/>
<path fill-rule="evenodd" clip-rule="evenodd" d="M34.9977 5.66918C34.9994 5.56924 34.9754 5.47051 34.9281 5.3825C34.8806 5.29449 34.8114 5.22013 34.727 5.16658C34.632 5.10148 34.52 5.06564 34.4049 5.06348C34.3234 5.06503 34.2433 5.0837 34.1697 5.11825L32.5104 5.82382L31.9079 6.08479L31.3054 6.34253L28.96 7.34451L28.3575 7.60225L27.7518 7.86322L18.5375 11.8003C18.4284 11.8451 18.3352 11.9215 18.2698 12.0197C18.2044 12.1178 18.1697 12.2333 18.1702 12.3511V18.2599C18.172 18.2439 18.172 18.2277 18.1702 18.2117V19.1105V19.7549V27.0072C18.1686 27.056 18.1741 27.1048 18.1863 27.152V28.0542V28.6985V35.9862C18.184 36.0886 18.2094 36.1896 18.2599 36.2787C18.3104 36.3678 18.384 36.4415 18.473 36.4921C18.5586 36.5473 18.6571 36.5794 18.7588 36.585C18.8605 36.5907 18.9618 36.5697 19.053 36.5243L34.8011 28.5504C34.9 28.5001 34.9827 28.4229 35.0397 28.3277C35.0966 28.2326 35.1257 28.1233 35.1233 28.0123L34.9977 5.66918Z" fill="#1DA1F2"/>
<path fill-rule="evenodd" clip-rule="evenodd" d="M16.6016 11.8001L7.34534 7.83732L6.74287 7.57957L6.13716 7.32504L3.78527 6.31985L3.18279 6.05888L2.58032 5.80114L0.927536 5.09556C0.85085 5.06406 0.768805 5.04765 0.685901 5.04724C0.571189 5.04918 0.459415 5.08382 0.363722 5.14711C0.280463 5.20032 0.211993 5.2737 0.16468 5.36044C0.117367 5.44718 0.0927466 5.54447 0.0930924 5.64327L0.0254277 28.0121C0.0241959 28.1228 0.0536556 28.2318 0.110525 28.3267C0.167394 28.4217 0.24945 28.499 0.347607 28.5503L16.0957 36.5242C16.1879 36.5687 16.2898 36.5897 16.3922 36.5852C16.4945 36.5807 16.5941 36.5509 16.6821 36.4984C16.7704 36.4452 16.8435 36.3701 16.8943 36.2803C16.9451 36.1906 16.9719 36.0892 16.972 35.9861V12.351C16.9723 12.2328 16.9372 12.117 16.8711 12.0188C16.8052 11.9207 16.7112 11.8445 16.6016 11.8001Z" fill="#1DA1F2"/>
<path fill-rule="evenodd" clip-rule="evenodd" d="M13.8979 27.2778C13.7974 27.3369 13.6832 27.3684 13.5667 27.369C13.4502 27.3698 13.3356 27.3396 13.2345 27.2817C13.1334 27.2239 13.0495 27.1402 12.9911 27.0394C12.9327 26.9385 12.9022 26.824 12.9023 26.7076V20.8374V14.9673C12.9023 14.8511 12.9328 14.737 12.9908 14.6362C13.0487 14.5355 13.132 14.4518 13.2326 14.3934C13.333 14.335 13.447 14.3041 13.5632 14.3036C13.6794 14.303 13.7937 14.333 13.8946 14.3906L18.9818 17.3193L24.0691 20.2478C24.1693 20.3062 24.2525 20.39 24.3104 20.4906C24.3683 20.5913 24.3986 20.7052 24.3986 20.8213C24.3986 20.9374 24.3683 21.0514 24.3104 21.152C24.2525 21.2526 24.1693 21.3364 24.0691 21.3948L18.9883 24.3363L13.8979 27.2778Z" fill="white"/>
<path d="M62.567 10.1634H55.5121V29.985H51.1594V10.1634H44.1045V6.5874H62.567V10.1634Z" fill="white"/>
<path d="M71.8059 19.7749C71.8059 19.2571 71.7304 18.7717 71.5794 18.3186C71.4391 17.8548 71.2233 17.4502 70.9321 17.105C70.6409 16.7598 70.2687 16.4902 69.8157 16.296C69.3733 16.0911 68.8555 15.9886 68.2623 15.9886C67.1081 15.9886 66.1965 16.3176 65.5276 16.9756C64.8697 17.6336 64.449 18.5668 64.2655 19.7749H71.8059ZM64.1846 22.1858C64.2494 23.0381 64.4004 23.777 64.6377 24.4026C64.875 25.0175 65.1879 25.5299 65.5762 25.9399C65.9646 26.3389 66.423 26.641 66.9516 26.8459C67.4909 27.0401 68.0843 27.1372 68.7315 27.1372C69.3787 27.1372 69.9343 27.0616 70.3981 26.9107C70.8728 26.7597 71.2827 26.5925 71.6279 26.409C71.9839 26.2256 72.2913 26.0585 72.5502 25.9074C72.8199 25.7564 73.0788 25.6809 73.3268 25.6809C73.6613 25.6809 73.9094 25.8049 74.0712 26.0531L75.2201 27.5094C74.7778 28.0272 74.2816 28.464 73.7314 28.82C73.1812 29.1652 72.6041 29.4456 72.0001 29.6614C71.4067 29.8664 70.7973 30.012 70.1716 30.0983C69.5567 30.1847 68.958 30.2278 68.3755 30.2278C67.2213 30.2278 66.1479 30.039 65.1555 29.6614C64.1631 29.2731 63.3001 28.7067 62.5666 27.9624C61.8331 27.2073 61.2559 26.2796 60.8352 25.1793C60.4145 24.0683 60.2041 22.7845 60.2041 21.3282C60.2041 20.1956 60.3876 19.133 60.7543 18.1406C61.1211 17.1374 61.6443 16.269 62.3238 15.5354C63.0142 14.7911 63.8502 14.2033 64.8319 13.7717C65.8243 13.3402 66.9408 13.1245 68.1814 13.1245C69.2277 13.1245 70.1931 13.2918 71.0778 13.6261C71.9623 13.9605 72.7228 14.4514 73.3593 15.0986C73.9957 15.735 74.4919 16.5225 74.8479 17.461C75.2147 18.3887 75.398 19.4513 75.398 20.6487C75.398 21.2527 75.3333 21.6626 75.2039 21.8784C75.0744 22.0833 74.8263 22.1858 74.4595 22.1858H64.1846Z" fill="white"/>
<path d="M87.168 22.8978C86.0138 22.9517 85.0429 23.0541 84.2555 23.2052C83.468 23.3454 82.8369 23.5288 82.3623 23.7553C81.8876 23.9818 81.5479 24.2462 81.3429 24.5482C81.138 24.8503 81.0355 25.1793 81.0355 25.5352C81.0355 26.2364 81.2404 26.738 81.6504 27.0401C82.0711 27.3422 82.6158 27.4931 83.2846 27.4931C84.1044 27.4931 84.811 27.3475 85.4043 27.0563C86.0084 26.7542 86.5963 26.3012 87.168 25.6971V22.8978ZM78.0097 15.6973C79.919 13.9497 82.2166 13.0759 84.9027 13.0759C85.8735 13.0759 86.7419 13.2378 87.5078 13.5614C88.2738 13.8742 88.921 14.3165 89.4495 14.8882C89.9781 15.4491 90.3773 16.1234 90.6469 16.9108C90.9274 17.6983 91.0676 18.5613 91.0676 19.4998V29.985H89.2554C88.8778 29.985 88.5866 29.9311 88.3816 29.8232C88.1767 29.7045 88.0148 29.4726 87.8962 29.1274L87.5402 27.93C87.1194 28.3076 86.7095 28.642 86.3105 28.9332C85.9113 29.2137 85.496 29.451 85.0645 29.6452C84.633 29.8394 84.1692 29.985 83.6729 30.0821C83.1876 30.1899 82.6481 30.2439 82.0549 30.2439C81.3537 30.2439 80.7065 30.1522 80.1131 29.9688C79.5198 29.7746 79.0074 29.4888 78.5759 29.1113C78.1445 28.7337 77.8101 28.2645 77.5727 27.7035C77.3354 27.1426 77.2168 26.49 77.2168 25.7456C77.2168 25.3249 77.2869 24.9096 77.4271 24.4996C77.5673 24.0789 77.7939 23.6798 78.1067 23.3023C78.4304 22.9247 78.8457 22.5688 79.3527 22.2344C79.8596 21.8999 80.4799 21.6087 81.2135 21.3606C81.9578 21.1125 82.8207 20.9129 83.8023 20.7618C84.784 20.6001 85.9059 20.503 87.168 20.4707V19.4998C87.168 18.3886 86.9307 17.5689 86.4561 17.0402C85.9814 16.5009 85.2964 16.2313 84.4011 16.2313C83.7538 16.2313 83.2145 16.3067 82.783 16.4578C82.3623 16.6087 81.9901 16.7814 81.6665 16.9756C81.3429 17.159 81.0462 17.3261 80.7765 17.4772C80.5177 17.6282 80.2264 17.7037 79.9028 17.7037C79.6223 17.7037 79.385 17.6335 79.1908 17.4933C78.9966 17.3423 78.8403 17.1697 78.7216 16.9756L78.0097 15.6973Z" fill="white"/>
<path d="M106.725 16.8946C106.606 17.0457 106.488 17.1644 106.369 17.2507C106.261 17.337 106.1 17.3801 105.883 17.3801C105.678 17.3801 105.479 17.3208 105.285 17.2021C105.09 17.0727 104.858 16.9325 104.589 16.7814C104.32 16.6196 103.996 16.4793 103.618 16.3607C103.251 16.2313 102.793 16.1665 102.243 16.1665C101.542 16.1665 100.927 16.296 100.398 16.5549C99.8695 16.803 99.4269 17.1644 99.071 17.639C98.7262 18.1136 98.4672 18.6908 98.2948 19.3703C98.1224 20.0392 98.0358 20.7997 98.0358 21.6518C98.0358 22.5364 98.1271 23.3239 98.3106 24.0143C98.5054 24.7047 98.7803 25.2872 99.1362 25.7618C99.4922 26.2256 99.9236 26.5817 100.43 26.8297C100.937 27.0671 101.509 27.1858 102.146 27.1858C102.782 27.1858 103.295 27.1102 103.683 26.9592C104.082 26.7974 104.417 26.6248 104.686 26.4414C104.956 26.2473 105.188 26.0747 105.382 25.9236C105.587 25.7618 105.813 25.6809 106.061 25.6809C106.386 25.6809 106.628 25.8049 106.79 26.0531L107.939 27.5094C107.496 28.0272 107.016 28.464 106.498 28.82C105.98 29.1652 105.442 29.4456 104.881 29.6614C104.33 29.8664 103.759 30.012 103.165 30.0983C102.583 30.1847 102.001 30.2278 101.417 30.2278C100.393 30.2278 99.4269 30.039 98.5212 29.6614C97.6155 29.2731 96.8226 28.7121 96.1424 27.9786C95.4631 27.2451 94.9236 26.3498 94.5248 25.2925C94.1362 24.2246 93.9424 23.011 93.9424 21.6518C93.9424 20.433 94.1148 19.3057 94.4595 18.2701C94.8155 17.2237 95.3336 16.323 96.0128 15.5679C96.693 14.8019 97.5345 14.2033 98.5371 13.7717C99.5406 13.3402 100.695 13.1245 102.001 13.1245C103.241 13.1245 104.324 13.3241 105.253 13.7232C106.191 14.1224 107.032 14.694 107.777 15.4384L106.725 16.8946Z" fill="white"/>
<path d="M114.441 15.1633C115.087 14.5592 115.799 14.0684 116.576 13.6909C117.354 13.3133 118.265 13.1245 119.311 13.1245C120.217 13.1245 121.021 13.281 121.722 13.5938C122.423 13.8959 123.006 14.3273 123.47 14.8882C123.944 15.4384 124.3 16.1018 124.538 16.8785C124.786 17.6444 124.91 18.4912 124.91 19.4189V29.9851H120.913V19.4189C120.913 18.4049 120.681 17.6228 120.217 17.0726C119.753 16.5118 119.047 16.2313 118.097 16.2313C117.407 16.2313 116.76 16.3877 116.155 16.7005C115.552 17.0134 114.98 17.4395 114.441 17.9788V29.9851H110.444V5.94019H114.441V15.1633Z" fill="white"/>
<path d="M128.71 29.9851V13.3835H131.154C131.671 13.3835 132.011 13.6261 132.173 14.1116L132.432 15.3413C132.723 15.0177 133.025 14.721 133.338 14.4514C133.662 14.1816 134.002 13.9497 134.358 13.7556C134.724 13.5614 135.112 13.4104 135.522 13.3025C135.943 13.1839 136.402 13.1245 136.898 13.1245C137.944 13.1245 138.802 13.4104 139.47 13.9821C140.151 14.5431 140.657 15.2928 140.992 16.2313C141.25 15.6811 141.574 15.2118 141.963 14.8235C142.35 14.4244 142.777 14.1008 143.24 13.8526C143.704 13.6046 144.195 13.4212 144.714 13.3025C145.242 13.1839 145.77 13.1245 146.299 13.1245C147.216 13.1245 148.031 13.2647 148.743 13.5452C149.455 13.8257 150.053 14.2356 150.538 14.775C151.024 15.3143 151.391 15.9724 151.639 16.749C151.898 17.5258 152.027 18.4157 152.027 19.4189V29.9851H148.031V19.4189C148.031 18.3618 147.799 17.5689 147.335 17.0403C146.871 16.501 146.191 16.2313 145.296 16.2313C144.886 16.2313 144.503 16.3014 144.147 16.4416C143.801 16.5818 143.494 16.7868 143.225 17.0565C142.965 17.3154 142.76 17.6444 142.61 18.0436C142.459 18.4426 142.383 18.9011 142.383 19.4189V29.9851H138.37V19.4189C138.37 18.3078 138.143 17.4987 137.691 16.9917C137.248 16.4848 136.596 16.2313 135.733 16.2313C135.151 16.2313 134.605 16.3768 134.099 16.6681C133.602 16.9486 133.139 17.337 132.707 17.8332V29.9851H128.71Z" fill="white"/>
<path d="M159.968 13.3834V29.985H155.956V13.3834H159.968ZM160.519 8.54523C160.519 8.89042 160.449 9.21405 160.308 9.51609C160.169 9.81813 159.979 10.0824 159.742 10.3089C159.515 10.5355 159.246 10.7189 158.933 10.8591C158.62 10.9886 158.285 11.0532 157.93 11.0532C157.585 11.0532 157.256 10.9886 156.943 10.8591C156.641 10.7189 156.376 10.5355 156.15 10.3089C155.923 10.0824 155.74 9.81813 155.6 9.51609C155.47 9.21405 155.405 8.89042 155.405 8.54523C155.405 8.18925 155.47 7.85485 155.6 7.54201C155.74 7.22918 155.923 6.9595 156.15 6.73297C156.376 6.50644 156.641 6.32845 156.943 6.199C157.256 6.05876 157.585 5.98865 157.93 5.98865C158.285 5.98865 158.62 6.05876 158.933 6.199C159.246 6.32845 159.515 6.50644 159.742 6.73297C159.979 6.9595 160.169 7.22918 160.308 7.54201C160.449 7.85485 160.519 8.18925 160.519 8.54523Z" fill="white"/>
<path d="M167.781 15.4222C168.115 15.0878 168.466 14.7804 168.832 14.4999C169.211 14.2087 169.604 13.9659 170.014 13.7717C170.435 13.5668 170.882 13.4104 171.357 13.3025C171.832 13.1839 172.349 13.1245 172.91 13.1245C173.817 13.1245 174.62 13.281 175.321 13.5938C176.022 13.8959 176.604 14.3273 177.069 14.8882C177.544 15.4384 177.9 16.1018 178.136 16.8785C178.385 17.6444 178.509 18.4912 178.509 19.4189V29.9851H174.513V19.4189C174.513 18.4049 174.281 17.6228 173.817 17.0726C173.353 16.5118 172.646 16.2313 171.697 16.2313C171.006 16.2313 170.359 16.3877 169.755 16.7005C169.151 17.0134 168.579 17.4395 168.039 17.9788V29.9851H164.043V13.3835H166.486C167.004 13.3835 167.344 13.6261 167.506 14.1116L167.781 15.4222Z" fill="white"/>
<path d="M187.623 30.2438C186.177 30.2438 185.066 29.8393 184.289 29.0302C183.523 28.2104 183.14 27.0832 183.14 25.6485V16.3767H181.441C181.225 16.3767 181.042 16.3067 180.891 16.1664C180.74 16.0262 180.664 15.8158 180.664 15.5353V13.9496L183.335 13.5128L184.176 8.98209C184.23 8.76635 184.333 8.59914 184.484 8.48048C184.634 8.36182 184.828 8.30249 185.066 8.30249H187.137V13.5289H191.571V16.3767H187.137V25.3734C187.137 25.8912 187.261 26.2957 187.509 26.587C187.768 26.8782 188.118 27.0238 188.561 27.0238C188.809 27.0238 189.014 26.9969 189.176 26.9429C189.348 26.8782 189.494 26.8135 189.612 26.7487C189.742 26.6841 189.855 26.6247 189.952 26.5708C190.049 26.506 190.147 26.4737 190.244 26.4737C190.362 26.4737 190.459 26.506 190.535 26.5708C190.61 26.6247 190.691 26.711 190.778 26.8296L191.975 28.7714C191.393 29.2568 190.724 29.6236 189.969 29.8716C189.213 30.1198 188.432 30.2438 187.623 30.2438Z" fill="white"/>
</g>
</g>
</g>
<defs>
<clipPath id="clip0_3941_9749">
<rect width="192" height="36.34" fill="white" transform="translate(0 0.830078)"/>
</clipPath>
<clipPath id="clip1_3941_9749">
<rect width="192" height="36.34" fill="white" transform="translate(0 0.830078)"/>
</clipPath>
<clipPath id="clip2_3941_9749">
<rect width="191.95" height="36.34" fill="white" transform="translate(0.0253906 0.830078)"/>
</clipPath>
</defs>
</svg>
