<svg version="1.2" xmlns="http://www.w3.org/2000/svg" viewBox="0 0 200 108" width="94" height="51">
	<defs>
		<clipPath clipPathUnits="userSpaceOnUse" id="cp1">
			<path d="m167.32 34.06c-2.04-4.06-2.85-8.62-2.34-13.13 0.47-7.02 7.01-12.66 15.46-13.13 6.1-0.94 8.44-3.28 12.2-7.01-0.47 13.12-0.95 20.16-14.54 22.97-6.09 1.85-9.38 4.67-10.78 10.3z"/>
		</clipPath>
		<linearGradient id="g1" x2="1" gradientUnits="userSpaceOnUse" gradientTransform="matrix(31.895,-31.896,18.487,18.486,163.295,30.653)">
			<stop offset="0" stop-color="#a9c725"/>
			<stop offset=".74" stop-color="#7eb636"/>
		</linearGradient>
		<clipPath clipPathUnits="userSpaceOnUse" id="cp2">
			<path d="m141.76 60.78h-4.91c-2.35-27.66-19.93-45-59.31-45.08h-16.64v45.08h-7.1c-15.87 0.47-22.9-12.19-23.37-25.72v-19.39h-13.37v12.53c0.47 19.21 4.22 30.47 8.44 35.62 7.5 10.79 25.55 18.29 56.96 19.7v-44.77h8.44c13.36 0 22.04 11.93 22.04 25.28v19.49c34.23-1.87 50.4-10.32 57.44-19.7 6.56-8.9 8.9-16.87 8.9-35.62v-3.01h-0.47c-4.92 1.88-9.43 4.67-11.48 12.19 0.47 15.02-11.49 22.97-25.55 23.44"/>
		</clipPath>
		<linearGradient id="g2" x2="1" gradientUnits="userSpaceOnUse" gradientTransform="matrix(0,77.82,-176.278,0,98.868,11.088)">
			<stop offset="0" stop-color="#1a98d5"/>
			<stop offset=".29" stop-color="#1a98d5"/>
			<stop offset=".82" stop-color="#0b8597"/>
		</linearGradient>
		<clipPath clipPathUnits="userSpaceOnUse" id="cp3">
			<path d="m17.53 16.03v12.17c0.47 19.21 4.22 30.47 8.44 35.62 7.5 10.79 25.55 17.35 56.49 19.7l-21.56-0.24h-1.41c-38.44-0.46-51.1-20.16-53.45-48.76l-0.15-18.85h11.64"/>
		</clipPath>
		<linearGradient id="g3" x2="1" gradientUnits="userSpaceOnUse" gradientTransform="matrix(0,85.794,-207.684,0,99.579,8.744)">
			<stop offset="0" stop-color="#32acd8"/>
			<stop offset=".47" stop-color="#32acd8"/>
			<stop offset=".81" stop-color="#1a91a6"/>
		</linearGradient>
		<clipPath clipPathUnits="userSpaceOnUse" id="cp4">
			<path d="m112.93 83.52c33.76-2.82 49.93-10.32 56.97-19.7 6.56-8.9 8.9-16.87 8.9-35.62v-3c6.1-1.42 9.38-2.35 12.9-8.45v0.47l-0.48 23.44c-3.14 23.67-16.87 39.38-51.56 42.77l-26.49 0.13"/>
		</clipPath>
		<linearGradient id="g4" x2="1" gradientUnits="userSpaceOnUse" gradientTransform="matrix(0,85.794,-207.684,0,99.81,9.205)">
			<stop offset="0" stop-color="#32acd8"/>
			<stop offset=".47" stop-color="#32acd8"/>
			<stop offset=".81" stop-color="#1a91a6"/>
		</linearGradient>
		<clipPath clipPathUnits="userSpaceOnUse" id="cp5">
			<path d="m13.22 99.69q0.08 0.45 0.23 0.88 0.15 0.43 0.37 0.83 0.23 0.39 0.53 0.74 0.29 0.35 0.64 0.64c0.95 0.78 2.16 1.19 3.38 1.13 1.23 0.05 2.43-0.35 3.38-1.13q0.35-0.29 0.65-0.64 0.29-0.35 0.52-0.74 0.23-0.4 0.38-0.83 0.15-0.43 0.22-0.88v-0.23h3.28v0.23c-0.18 2.08-1.15 4.02-2.71 5.41-1.56 1.39-3.6 2.14-5.69 2.09-2.09 0.06-4.13-0.68-5.7-2.08q-0.59-0.52-1.06-1.13-0.48-0.62-0.83-1.32-0.35-0.7-0.56-1.45-0.21-0.75-0.28-1.52v-0.23h3.25"/>
		</clipPath>
		<clipPath clipPathUnits="userSpaceOnUse" id="cp6">
			<path d="m31.08 97.34q0.18-0.89 0.65-1.66 0.47-0.78 1.17-1.36 0.7-0.57 1.56-0.88 0.85-0.3 1.76-0.3 0.91 0 1.76 0.3 0.86 0.31 1.56 0.88 0.7 0.58 1.17 1.36 0.47 0.77 0.65 1.66v0.24h3.29v-0.24c-0.25-2.06-1.24-3.96-2.8-5.34-1.55-1.38-3.56-2.14-5.64-2.14-2.07 0-4.08 0.76-5.63 2.14-1.56 1.38-2.55 3.28-2.8 5.34v0.24h3.28"/>
		</clipPath>
	</defs>
	<style>
		.s0 { fill: url(#g1) } 
		.s1 { fill: #ffffff } 
		.s2 { fill: url(#g2);stroke: #88cff3;stroke-miterlimit:10;stroke-width: .4 } 
		.s3 { fill: url(#g3) } 
		.s4 { fill: url(#g4) } 
		.s5 { fill: #5c5c5e } 
	</style>
	<g id="Clip-Path" clip-path="url(#cp1)">
		<g>
			<path class="s0" d="m153.58 22.01l18.42 18.41 31.78-31.77-18.42-18.42z"/>
		</g>
	</g>
	<path class="s1" d="m179.15 15.41c-2.21 0.81-7.09 2.85-9.38 6.29-1.39 2.14-1.9 4.32-2.45 8.25-0.27-5.71 0.71-9.18 2.54-11.32 2.7-2.54 3.59-3 8.91-5.01 6.2-2 9.77-4.08 12.57-9.69-2.87 7.82-6.43 9.46-12.19 11.48z"/>
	<g id="Clip-Path" clip-path="url(#cp2)">
		<g>
			<path class="s2" d="m187.01 11.09h-176.28v77.82h176.28z"/>
		</g>
	</g>
	<g id="Clip-Path" clip-path="url(#cp3)">
		<g>
			<path class="s3" d="m203.42 8.74h-207.69v85.8h207.69z"/>
		</g>
	</g>
	<g id="Clip-Path" clip-path="url(#cp4)">
		<g>
			<path class="s4" d="m203.65 9.21l-207.69-0.01v85.8h207.69z"/>
		</g>
	</g>
	<g>
		<path class="s5" d="m13.24 89.85h-3.28v9.85h3.28zm13.6 0h-3.29v9.85h3.29z"/>
		<path class="s5" d="m13.22 99.69q0.08 0.45 0.23 0.88 0.15 0.43 0.37 0.83 0.23 0.39 0.53 0.74 0.29 0.35 0.64 0.64c0.95 0.78 2.16 1.19 3.38 1.13 1.23 0.05 2.43-0.35 3.38-1.13q0.35-0.29 0.65-0.64 0.29-0.35 0.52-0.74 0.23-0.4 0.38-0.83 0.15-0.43 0.22-0.88v-0.23h3.28v0.23c-0.18 2.08-1.15 4.02-2.71 5.41-1.56 1.39-3.6 2.14-5.69 2.09-2.09 0.06-4.13-0.68-5.7-2.08q-0.59-0.52-1.06-1.13-0.48-0.62-0.83-1.32-0.35-0.7-0.56-1.45-0.21-0.75-0.28-1.52v-0.23h3.25"/>
	</g>
	<g id="Clip-Path" clip-path="url(#cp5)">
		<g>
			<path class="s5" d="m28.94 98.52h-20.15v10.32h20.15z"/>
		</g>
	</g>
	<g>
		<path class="s5" d="m31.06 97.34h-3.29v9.85h3.29zm13.59 0h-3.29v9.85h3.29z"/>
		<path class="s5" d="m31.08 97.34q0.18-0.89 0.65-1.66 0.47-0.78 1.17-1.36 0.7-0.57 1.56-0.88 0.85-0.3 1.76-0.3 0.91 0 1.76 0.3 0.86 0.31 1.56 0.88 0.7 0.58 1.17 1.36 0.47 0.77 0.65 1.66v0.24h3.29v-0.24c-0.25-2.06-1.24-3.96-2.8-5.34-1.55-1.38-3.56-2.14-5.64-2.14-2.07 0-4.08 0.76-5.63 2.14-1.56 1.38-2.55 3.28-2.8 5.34v0.24h3.28"/>
	</g>
	<g id="Clip-Path" clip-path="url(#cp6)">
		<g>
			<path class="s5" d="m46.75 88.21h-20.15v10.32h20.15z"/>
		</g>
	</g>
	<g>
		<path class="s5" d="m48.87 89.85h-3.29v17.35h3.29zm-1.26-4.69h-0.76q-0.26 0-0.49 0.1-0.23 0.09-0.41 0.27-0.18 0.18-0.27 0.41-0.1 0.23-0.1 0.48v0.77q0 0.25 0.1 0.48 0.09 0.23 0.27 0.41 0.18 0.18 0.41 0.27 0.23 0.1 0.49 0.1h0.76q0.25 0 0.48-0.1 0.23-0.09 0.41-0.27 0.18-0.18 0.27-0.41 0.1-0.23 0.1-0.48v-0.77q0-0.25-0.1-0.48-0.09-0.23-0.27-0.41-0.18-0.18-0.41-0.27-0.23-0.1-0.48-0.1zm10.87 22.03q-1.12 0.01-2.21-0.27-1.08-0.27-2.06-0.82-0.97-0.54-1.78-1.31-0.81-0.77-1.4-1.72-0.58-0.95-0.91-2.02-0.33-1.07-0.37-2.19-0.04-1.12 0.2-2.21 0.24-1.09 0.75-2.08c0.67-1.33 1.68-2.46 2.93-3.29q0.93-0.61 1.99-0.97 1.05-0.37 2.17-0.45 1.11-0.08 2.21 0.13 1.1 0.2 2.11 0.68 0.51 0.23 0.98 0.53 0.47 0.3 0.89 0.66 0.43 0.36 0.81 0.77 0.38 0.4 0.7 0.86l-2.67 1.9c-0.66-0.93-1.6-1.63-2.69-1.99-1.09-0.37-2.26-0.37-3.35-0.03-1.09 0.35-2.04 1.04-2.72 1.96-0.67 0.93-1.04 2.04-1.04 3.19 0 1.14 0.37 2.26 1.04 3.18 0.51 0.69 1.17 1.25 1.93 1.64 0.77 0.38 1.61 0.58 2.47 0.58 0.85-0.01 1.7-0.22 2.46-0.61 0.75-0.4 1.41-0.97 1.9-1.67l2.68 1.91q-0.3 0.41-0.65 0.79-0.34 0.38-0.73 0.72-0.39 0.34-0.81 0.63-0.43 0.29-0.88 0.52c-1.22 0.64-2.58 0.97-3.95 0.98zm105.49 0c-1.49 0-2.96-0.38-4.25-1.11q-0.49-0.27-0.94-0.6-0.44-0.33-0.84-0.72-0.4-0.38-0.75-0.82-0.35-0.43-0.64-0.91-0.29-0.47-0.51-0.98-0.23-0.5-0.39-1.04-0.16-0.53-0.25-1.08-0.09-0.55-0.11-1.1-0.02-0.56 0.03-1.11 0.05-0.55 0.17-1.1 0.12-0.54 0.31-1.06 0.19-0.52 0.45-1.02c0.68-1.32 1.69-2.45 2.93-3.27q0.47-0.3 0.97-0.55 0.49-0.24 1.02-0.42 0.53-0.18 1.07-0.29 0.55-0.11 1.1-0.15 1.11-0.08 2.21 0.13 1.1 0.2 2.11 0.68 1.01 0.48 1.86 1.19 0.86 0.72 1.51 1.63l-2.68 1.9c-0.66-0.93-1.6-1.63-2.69-1.99-1.09-0.37-2.26-0.38-3.35-0.03-1.09 0.35-2.04 1.04-2.72 1.96-0.68 0.93-1.04 2.04-1.04 3.19 0 1.14 0.36 2.26 1.04 3.18 0.5 0.69 1.17 1.25 1.93 1.64 0.77 0.38 1.61 0.58 2.47 0.58 0.85-0.01 1.69-0.22 2.45-0.61 0.76-0.4 1.42-0.97 1.91-1.67l2.68 1.91c-0.8 1.12-1.86 2.04-3.09 2.67q-0.46 0.24-0.94 0.42-0.49 0.18-0.99 0.31-0.5 0.12-1.02 0.18-0.51 0.06-1.02 0.06zm-90.49 0q-0.64 0-1.27-0.09-0.63-0.09-1.25-0.28-0.61-0.18-1.19-0.46-0.58-0.27-1.11-0.63-0.53-0.35-1.01-0.78-0.47-0.43-0.88-0.92-0.41-0.5-0.74-1.05-0.33-0.55-0.57-1.14-0.25-0.59-0.4-1.21-0.16-0.62-0.22-1.26-0.06-0.63-0.03-1.27 0.03-0.64 0.15-1.27c0.33-1.68 1.16-3.23 2.37-4.45q0.46-0.45 0.97-0.83 0.51-0.38 1.08-0.68 0.56-0.31 1.16-0.52 0.61-0.22 1.23-0.34c1.69-0.34 3.43-0.17 5.02 0.49 1.58 0.66 2.94 1.77 3.89 3.19 0.96 1.43 1.47 3.11 1.47 4.83 0 1.13-0.23 2.26-0.66 3.31-0.44 1.05-1.08 2.01-1.88 2.82-0.81 0.8-1.76 1.44-2.81 1.88-1.05 0.43-2.18 0.66-3.32 0.66zm0-14.02c-1.07 0-2.11 0.31-3 0.9-0.89 0.6-1.58 1.44-1.99 2.43-0.41 0.98-0.52 2.07-0.31 3.12 0.2 1.05 0.72 2.01 1.47 2.76q0.57 0.57 1.28 0.95 0.71 0.38 1.49 0.53 0.79 0.16 1.59 0.08 0.79-0.08 1.53-0.39 0.37-0.15 0.71-0.36 0.34-0.2 0.65-0.45 0.31-0.26 0.58-0.55 0.26-0.3 0.49-0.63c0.59-0.89 0.9-1.94 0.9-3q0-1.07-0.41-2.06-0.41-0.99-1.17-1.75-0.76-0.76-1.75-1.17-0.99-0.41-2.06-0.41zm22.73 3.47h-3.27c-0.07-0.88-0.47-1.71-1.12-2.31-0.65-0.6-1.5-0.94-2.39-0.94-0.89 0-1.74 0.34-2.39 0.94-0.65 0.6-1.05 1.43-1.11 2.31h-3.31c0.07-1.75 0.81-3.42 2.08-4.64 1.27-1.22 2.96-1.9 4.72-1.9q0.65 0 1.29 0.13 0.64 0.12 1.25 0.36 0.61 0.25 1.15 0.6 0.55 0.36 1.02 0.81 0.47 0.46 0.85 0.99 0.38 0.54 0.64 1.13 0.27 0.6 0.42 1.23 0.15 0.64 0.17 1.29z"/>
		<path class="s5" d="m106.53 96.64h-3.28c-0.07-0.88-0.47-1.71-1.12-2.31-0.65-0.6-1.5-0.94-2.39-0.94-0.89 0-1.74 0.34-2.39 0.94-0.65 0.6-1.05 1.43-1.12 2.31h-3.27c0.06-1.76 0.81-3.42 2.08-4.64 1.27-1.22 2.96-1.9 4.72-1.9q1.31 0 2.54 0.49 1.22 0.5 2.17 1.41 0.95 0.92 1.49 2.12 0.54 1.2 0.59 2.52-0.01 0-0.02 0z"/>
		<path class="s5" d="m116.84 96.64h-3.28c-0.06-0.88-0.46-1.71-1.11-2.31-0.65-0.6-1.5-0.94-2.39-0.94-0.89 0-1.74 0.34-2.39 0.94-0.65 0.6-1.05 1.43-1.12 2.31h-3.28q0.02-0.65 0.17-1.29 0.15-0.63 0.42-1.23 0.26-0.6 0.64-1.13 0.38-0.53 0.85-0.99c1.26-1.22 2.95-1.9 4.71-1.9 1.76 0 3.45 0.68 4.72 1.9q0.47 0.46 0.85 0.99 0.37 0.53 0.64 1.13 0.27 0.6 0.42 1.23 0.14 0.64 0.17 1.29z"/>
		<path class="s5" d="m127.16 96.64h-3.29q0.02-0.18 0.01-0.36 0-0.18-0.03-0.36-0.02-0.18-0.06-0.36-0.04-0.17-0.1-0.34-0.06-0.17-0.14-0.34-0.08-0.16-0.17-0.32-0.09-0.15-0.2-0.3-0.11-0.14-0.23-0.27-0.5-0.54-1.18-0.84-0.16-0.07-0.34-0.12-0.17-0.06-0.34-0.1-0.18-0.03-0.36-0.05-0.18-0.02-0.36-0.02-0.18 0-0.36 0.02-0.18 0.02-0.36 0.05-0.18 0.04-0.35 0.1-0.17 0.05-0.34 0.12-0.67 0.3-1.17 0.84-0.5 0.54-0.74 1.23-0.06 0.17-0.1 0.34-0.05 0.18-0.07 0.36-0.02 0.18-0.03 0.36 0 0.18 0.01 0.36h-3.28c0.07-1.76 0.82-3.42 2.09-4.64q0.95-0.91 2.17-1.41 1.22-0.49 2.54-0.49 1.32 0 2.54 0.49 1.23 0.5 2.18 1.41 0.47 0.46 0.85 0.99 0.37 0.53 0.64 1.13 0.27 0.6 0.41 1.23 0.15 0.64 0.18 1.29z"/>
		<path id="K" class="s5" d="m85.91 96.41h-3.29v10.78h3.29z"/>
		<path id="K" class="s5" d="m96.22 96.41h-3.28v10.78h3.28z"/>
		<path id="K" class="s5" d="m106.53 96.41h-3.28v10.78h3.28z"/>
		<path id="K" class="s5" d="m116.85 96.41h-3.29v10.78h3.29z"/>
		<path id="K" class="s5" d="m127.16 96.41h-3.29v10.78h3.29z"/>
		<path class="s5" d="m136.31 107.19c-1.72 0-3.4-0.5-4.83-1.46q-0.53-0.35-1-0.78-0.48-0.43-0.89-0.92-0.4-0.5-0.73-1.05-0.33-0.55-0.58-1.14-0.49-1.19-0.62-2.47-0.12-1.28 0.13-2.54 0.25-1.26 0.85-2.4 0.61-1.13 1.52-2.04c1.21-1.22 2.76-2.05 4.44-2.38 1.68-0.34 3.43-0.17 5.01 0.49 1.59 0.66 2.94 1.77 3.9 3.2 0.95 1.42 1.46 3.1 1.46 4.82h-3.27q-0.01-0.4-0.06-0.8-0.06-0.39-0.18-0.77-0.11-0.38-0.28-0.74-0.17-0.36-0.4-0.7-0.22-0.33-0.48-0.62-0.27-0.3-0.58-0.55-0.31-0.25-0.65-0.46-0.34-0.2-0.71-0.35-0.74-0.31-1.54-0.39-0.8-0.08-1.58 0.08-0.79 0.16-1.49 0.54-0.71 0.37-1.28 0.94c-0.75 0.76-1.26 1.72-1.47 2.77-0.21 1.05-0.1 2.13 0.31 3.12 0.41 0.99 1.1 1.83 1.99 2.42q0.33 0.22 0.7 0.39 0.36 0.17 0.74 0.29 0.38 0.11 0.77 0.17 0.4 0.06 0.8 0.06 0.26 0 0.52-0.03 0.27-0.02 0.53-0.08 0.26-0.05 0.51-0.12 0.25-0.08 0.5-0.18 0.99-0.42 1.74-1.18l2.33 2.33q-0.3 0.3-0.63 0.57-0.33 0.27-0.69 0.5-0.35 0.24-0.73 0.44-0.37 0.2-0.77 0.36c-1.05 0.44-2.18 0.66-3.31 0.66z"/>
		<path class="s5" d="m144.97 100.16v-2.35l-0.96-0.93h-13.49v3.28c0 0 14.45 0 14.45 0zm4.23-1.64h-3.29c0.01-2.3 0.92-4.51 2.55-6.13 1.62-1.63 3.83-2.54 6.13-2.54q0.22 0 0.44 0.01 0.22 0.01 0.43 0.04 0.22 0.02 0.44 0.05 0.22 0.03 0.43 0.07l-0.66 3.22q-0.13-0.03-0.27-0.05-0.13-0.02-0.27-0.03-0.13-0.02-0.27-0.03-0.14 0-0.27 0-0.53 0-1.05 0.1-0.52 0.11-1.01 0.31-0.49 0.2-0.93 0.5-0.44 0.29-0.82 0.67c-1.01 1.01-1.58 2.38-1.58 3.81z"/>
		<path class="s5" d="m149.2 98.28h-3.29v8.91h3.29zm29.76 8.91q-1.28 0-2.52-0.38-1.23-0.37-2.3-1.09-1.07-0.71-1.88-1.7-0.82-1-1.31-2.19c-0.66-1.58-0.83-3.33-0.5-5.01q0.13-0.63 0.34-1.23 0.22-0.6 0.52-1.17 0.3-0.56 0.68-1.08 0.39-0.51 0.84-0.96c1.21-1.22 2.76-2.04 4.44-2.38 1.68-0.33 3.43-0.16 5.01 0.5q1.19 0.49 2.19 1.31 0.99 0.81 1.7 1.88 0.72 1.07 1.09 2.3 0.38 1.24 0.38 2.52h-3.29c0-1.24-0.44-2.45-1.23-3.41-0.79-0.97-1.89-1.62-3.12-1.86-1.22-0.24-2.49-0.05-3.59 0.54-1.1 0.59-1.96 1.54-2.43 2.69-0.36 0.86-0.48 1.8-0.37 2.72 0.12 0.93 0.47 1.8 1.03 2.55 0.55 0.75 1.29 1.34 2.15 1.71 0.85 0.38 1.78 0.53 2.71 0.44 1.24-0.13 2.4-0.68 3.28-1.56l2.31 2.32q-0.3 0.3-0.63 0.57-0.33 0.28-0.68 0.51-0.35 0.24-0.73 0.44-0.38 0.2-0.77 0.36c-1.05 0.44-2.18 0.66-3.32 0.66z"/>
		<path class="s5" d="m187.64 100.16v-2.35l-0.96-0.93h-13.5v3.28c0 0 14.46 0 14.46 0z"/>
	</g>
</svg>